<svg id="ff89978a-9cc6-4db0-9bd2-e66489869078" xmlns="http://www.w3.org/2000/svg" xmlns:xlink="http://www.w3.org/1999/xlink" viewBox="0 0 1048.66 824.53"><defs><style>.cls-1,.cls-6{fill:#a7c5ac;}.cls-1,.cls-29,.cls-4,.cls-8{opacity:0.1;}.cls-1,.cls-14,.cls-26,.cls-29,.cls-4,.cls-7{isolation:isolate;}.cls-2{fill:#eec5cd;}.cls-3{fill:#d48a9b;}.cls-5,.cls-7{fill:#fff;}.cls-26,.cls-7{opacity:0.2;}.cls-9{fill:url(#linear-gradient);}.cls-10{fill:#575989;}.cls-11{fill:#ffd7e3;}.cls-12{fill:#3f2b3b;}.cls-13{fill:#c77486;}.cls-14{opacity:0.05;}.cls-15{fill:#d4dfec;}.cls-16{fill:#dce6f2;}.cls-17{fill:#feffff;}.cls-18{fill:#464a5f;}.cls-19{fill:#939498;}.cls-20{fill:#4b4770;}.cls-21{fill:#e8eaf2;}.cls-22{fill:#f1cec8;}.cls-23{fill:#42312e;}.cls-24{fill:#f6e2df;}.cls-25{fill:#f2dcdc;}.cls-27{fill:#9c9ca1;}.cls-28{fill:#a7c4ac;}.cls-29{fill:#010101;}</style><linearGradient id="linear-gradient" x1="597.21" y1="53.69" x2="597.21" y2="553.06" gradientTransform="translate(1347.66 768.27) rotate(180)" gradientUnits="userSpaceOnUse"><stop offset="0" stop-color="gray" stop-opacity="0.25"/><stop offset="0.54" stop-color="gray" stop-opacity="0.12"/><stop offset="1" stop-color="gray" stop-opacity="0.1"/></linearGradient></defs><title>header-img</title><ellipse class="cls-1" cx="550.86" cy="713.18" rx="130.58" ry="14.45"/><ellipse class="cls-1" cx="757.45" cy="808.73" rx="34.58" ry="3.83"/><ellipse class="cls-1" cx="142.89" cy="763.04" rx="130.58" ry="29.86"/><path class="cls-1" d="M60.08,306.39H152V431.72H66.8c-.22,1.29-.44,2.58-.68,3.87H152V536.64a3.61,3.61,0,0,1-.42-.16c-2.44-1-4.85-2-7.23-3.05l-1.55-.71q-3.66-1.71-7.23-3.63c-.84-.44-1.68-.9-2.51-1.37A150.75,150.75,0,0,1,96.9,499.55c-.31-.3-.6-.62-.89-.92-1.46-1.59-2.91-3.21-4.3-4.85l-1.55-1.85c-1.65-2-3.24-4.09-4.78-6.19-.23-.31-.45-.63-.68-.93a133.78,133.78,0,0,1-15.58-28.17c-.13-.3-.25-.62-.36-.92q-1.89-4.75-3.37-9.67c-.41-1.37-.82-2.75-1.16-4.14-.13-.41-.23-.83-.34-1.23-5.1-20.07-5.68-40.93-5.68-61.68v-7.25q0-12.58.24-25.25c0-2.18.09-4.36.14-6.55.13-5.56.3-11.13.54-16.69.06-1.54.13-3.09.21-4.62,0-.89.08-1.78.14-2.66C59.67,312.78,59.86,309.59,60.08,306.39Z" transform="translate(0 0.01)"/><path class="cls-1" d="M152,166.86H101.58a382.35,382.35,0,0,1,26.83-36.93c7.49-9.2,15.37-18.18,23.6-26.81Z" transform="translate(0 0.01)"/><path class="cls-1" d="M152,170.73V302.52H60.33a11.35,11.35,0,0,1,.1-1.16c.08-1,.16-2.07.25-3.11.09-1.21.21-2.43.32-3.66s.24-2.64.38-3.95.27-2.64.42-4,.29-2.63.45-3.93.31-2.63.48-3.93c.14-1.09.28-2.17.43-3.26q.31-2.29.66-4.59a5.06,5.06,0,0,1,.1-.68,313.21,313.21,0,0,1,6.75-33.08A243.22,243.22,0,0,1,82,203.64a250.86,250.86,0,0,1,17.1-32.95Z" transform="translate(0 0.01)"/><path class="cls-1" d="M174,306.39V431.72H370.33V306.39Zm0,129.2V543.27c1.12.23,2.23.46,3.34.65,1.5.29,3,.55,4.51.78.29,0,.59.09.89.12.6.1,1.21.18,1.81.26,1.51.21,3,.38,4.55.52l2.16.19,1.75.13h0c1,.07,1.89.13,2.83.16a14.71,14.71,0,0,1,1.75.07H204c.78,0,1.56,0,2.33-.07h0a12.55,12.55,0,0,0,1.62-.07h.46a9.94,9.94,0,0,0,1.34-.06H210l3-.24c1-.09,2-.2,3-.31l2.06-.25A180.66,180.66,0,0,0,243,539.86c18.32-5.11,36.2-12.26,54.55-17.49,23.81-6.81,50-10.1,72.81-1.91V435.59ZM370.33,166.86V0a252.14,252.14,0,0,0-63.8,7.48C256.8,20,212.15,47.08,174,81.69v85.17h9.85v3.87H174V302.52H370.33V170.73h-146v-3.87ZM622.62,110.5c-12.3-.44-24.53-4.33-35.6-10.35-21.15-11.5-38.08-29.27-56.93-44.26C490.88,24.66,442.22,5.81,392.33,1.14V166.86H672.64l.69-.74Zm25.54-4.57,27.08,29.72V98.15c-9.09,1.12-17,3.82-27.06,7.78Zm27.08,464V435.59H617.52c-.15-.57-.31-1.15-.49-1.73.17.58.32,1.16.48,1.73H392.33v97.16c2.14,1.59,4.25,3.26,6.34,5h0c2.26,1.84,4.49,3.72,6.73,5.6l2.25,1.86c1.08.9,2.17,1.78,3.26,2.67q3.27,2.64,6.59,5.22c1.1.87,2.22,1.72,3.33,2.57a455.18,455.18,0,0,0,55.84,36.52q6.56,3.65,13.22,7.07,4.44,2.28,8.93,4.48,6.74,3.28,13.58,6.37h0a498.91,498.91,0,0,0,132.3,38.53q15.21,2.24,30.54,3.53V569.93h0ZM392.33,170.73V302.52H675.26V170.73Zm0,135.66V431.72H675.26V306.39ZM697.22,98v41.92L731.78,102Q714.61,99.16,697.22,98Zm0,208.42V431.72H972.41V306.39Zm274.22,273.5,1-144.3H697.22v218A493.93,493.93,0,0,0,750.4,653h.31q12.66-.81,25.25-2.32h.19A464.74,464.74,0,0,0,905.88,616m119.61-288.94q-1.56-3.66-3.21-7.26c-2-4.49-4.21-8.93-6.44-13.33H994.37V431.72h54.28c0-35.45-9-71.74-23.15-104.74ZM994.37,435.68v124c15.29-14.65,28.21-31.42,37.51-50.59,11.19-23.09,16.29-48.08,16.73-73.54Zm0-165.72v32.65h19.46a353.91,353.91,0,0,0-19.45-32.74ZM807.75,122.56c-1.43-.55-2.87-1.1-4.31-1.63a392,392,0,0,0-46.48-14l-52.89,58h0l-1,1.11.68.74H892A402.15,402.15,0,0,0,807.75,122.56Zm89.74,48.17H701.08l-3.86,3.54V302.52H972.39V240.37a391.81,391.81,0,0,0-74.9-69.64Z" transform="translate(0 0.01)"/><path class="cls-1" d="M152,237.21v65.31H60.33a11.35,11.35,0,0,1,.1-1.16c.08-1,.16-2.07.25-3.11.09-1.21.21-2.43.32-3.66s.24-2.64.38-3.95.27-2.64.42-4,.29-2.63.45-3.93.31-2.63.48-3.93c.14-1.09.28-2.17.43-3.26q.31-2.29.66-4.59a5.06,5.06,0,0,1,.1-.68,313.21,313.21,0,0,1,6.75-33.08Z" transform="translate(0 0.01)"/><path class="cls-1" d="M60.08,306.39H152V431.72H66.8c-.22,1.29-.44,2.58-.68,3.87H152V536.64a3.61,3.61,0,0,1-.42-.16c-2.44-1-4.85-2-7.23-3.05l-1.55-.71q-3.66-1.71-7.23-3.63c-.84-.44-1.68-.9-2.51-1.37A150.75,150.75,0,0,1,96.9,499.55c-.31-.3-.6-.62-.89-.92-1.46-1.59-2.91-3.21-4.3-4.85l-1.55-1.85c-1.65-2-3.24-4.09-4.78-6.19-.23-.31-.45-.63-.68-.93a133.78,133.78,0,0,1-15.58-28.17c-.13-.3-.25-.62-.36-.92q-1.89-4.75-3.37-9.67c-.41-1.37-.82-2.75-1.16-4.14-.13-.41-.23-.83-.34-1.23-5.1-20.07-5.68-40.93-5.68-61.68v-7.25q0-12.58.24-25.25c0-2.18.09-4.36.14-6.55.13-5.56.3-11.13.54-16.69.06-1.54.13-3.09.21-4.62,0-.89.08-1.78.14-2.66C59.67,312.78,59.86,309.59,60.08,306.39Z" transform="translate(0 0.01)"/><polygon class="cls-1" points="243.1 189.6 243.1 302.52 173.97 302.52 173.97 189.6 183.82 189.6 183.82 151.38 224.29 151.38 224.29 189.6 243.1 189.6"/><rect class="cls-1" x="173.98" y="306.4" width="69.13" height="125.33"/><path class="cls-1" d="M174,435.59H243.1V539.8a178.86,178.86,0,0,1-24.87,5.28c-.69.1-1.37.18-2.06.26-1,.11-2,.22-3,.31l-3,.24h-.32c-.43,0-.88.05-1.33.06h-.46c-.55,0-1.09.06-1.63.07h0c-.77,0-1.54.05-2.33.07h-6.42a15.75,15.75,0,0,1-1.75-.07c-.94,0-1.88-.09-2.83-.16h0l-1.74-.13-2.17-.19c-1.52-.14-3-.32-4.55-.52-.59-.08-1.21-.16-1.81-.26a6.22,6.22,0,0,1-.88-.12c-1.51-.23-3-.49-4.51-.78-1.12-.19-2.23-.42-3.35-.65Z" transform="translate(0 0.01)"/><rect class="cls-1" x="618.26" y="176.28" width="57.01" height="126.25"/><polygon class="cls-1" points="675.27 306.39 675.27 431.73 392.32 431.73 392.32 377.68 543.03 377.68 543.03 409.56 618.26 409.56 618.26 306.39 675.27 306.39"/><path class="cls-1" d="M676.17,570h-.9v82.21q-15.33-1.29-30.54-3.53A498.74,498.74,0,0,1,512.4,610.07q-18.24-8.22-35.73-17.92a455.94,455.94,0,0,1-55.84-36.52q-6.68-5.11-13.17-10.45c-3-2.48-6-5-9-7.48q-3.12-2.54-6.34-5V435.59H617.51c-.16-.57-.31-1.15-.47-1.73.17.58.33,1.16.48,1.73h57.75V569.91Z" transform="translate(0 0.01)"/><path class="cls-1" d="M823.93,166.86H786.8V155.27h16.64V120.93c1.44.53,2.88,1.08,4.31,1.63v32.71h16.18Z" transform="translate(0 0.01)"/><path class="cls-1" d="M913.44,302.52H697.22V176.27h9.59v93.32h43.8V214.36H786.8V170.73h37.13v43.63h36.18v55.23h53.33Z" transform="translate(0 0.01)"/><path class="cls-1" d="M697.22,306.39V431.72H913.44V306.39ZM972.11,579.27l.3-99.2h-59V435.59H697.22v218A493.93,493.93,0,0,0,750.4,653h.31q12.66-.81,25.25-2.32h.19A464.74,464.74,0,0,0,905.88,616" transform="translate(0 0.01)"/><path class="cls-1" d="M998.19,435.59h50.44c-.44,25.46-5.55,50.45-16.74,73.54-9.29,19.17-22.22,35.94-37.5,50.59V480h3.8Z" transform="translate(0 0.01)"/><path class="cls-1" d="M1048.66,431.72H998.19V327h27.31C1039.63,360,1048.61,396.27,1048.66,431.72Z" transform="translate(0 0.01)"/><rect class="cls-1" x="644.73" y="211.37" width="30.54" height="39.58"/><rect class="cls-1" x="644.73" y="293.42" width="30.54" height="9.11"/><rect class="cls-1" x="644.73" y="306.4" width="30.54" height="26.59"/><rect class="cls-1" x="644.73" y="375.46" width="30.54" height="39.58"/><rect class="cls-1" x="644.73" y="457.51" width="30.54" height="39.58"/><path class="cls-1" d="M675.27,569.91l.9.06h-.9v9.19H644.73V539.54h30.54Z" transform="translate(0 0.01)"/><path class="cls-1" d="M675.27,621.57v30.57q-15.33-1.29-30.54-3.53v-27Z" transform="translate(0 0.01)"/><rect class="cls-1" x="392.32" y="428.82" width="130.88" height="2.91"/><rect class="cls-1" x="392.32" y="435.6" width="130.88" height="11.14"/><rect class="cls-1" x="392.32" y="483.27" width="130.88" height="17.92"/><path class="cls-1" d="M523.2,537.71v17.92H420.83q-6.68-5.1-13.17-10.46c-3-2.47-6-5-9-7.46Z" transform="translate(0 0.01)"/><path class="cls-1" d="M523.2,592.15v17.93H512.4q-18.24-8.22-35.73-17.93Z" transform="translate(0 0.01)"/><rect class="cls-1" x="750.41" y="318.55" width="25.76" height="25.76"/><rect class="cls-1" x="192.54" y="198.5" width="25.76" height="25.76"/><rect class="cls-1" x="192.54" y="258.34" width="25.76" height="25.76"/><rect class="cls-1" x="192.54" y="318.19" width="25.76" height="25.76"/><rect class="cls-1" x="192.54" y="378.04" width="25.76" height="25.76"/><rect class="cls-1" x="192.54" y="437.89" width="25.76" height="25.76"/><rect class="cls-1" x="192.54" y="497.74" width="25.76" height="25.76"/><rect class="cls-1" x="848.77" y="318.55" width="25.76" height="25.76"/><rect class="cls-1" x="750.41" y="382.1" width="25.76" height="25.76"/><rect class="cls-1" x="848.77" y="382.1" width="25.76" height="25.76"/><rect class="cls-1" x="750.41" y="445.65" width="25.76" height="25.76"/><rect class="cls-1" x="848.77" y="445.65" width="25.76" height="25.76"/><rect class="cls-1" x="750.41" y="509.2" width="25.76" height="25.76"/><rect class="cls-1" x="848.77" y="509.2" width="25.76" height="25.76"/><rect class="cls-1" x="750.41" y="572.75" width="25.76" height="25.76"/><rect class="cls-1" x="848.77" y="572.75" width="25.76" height="25.76"/><polygon class="cls-1" points="750.41 652.9 750.41 636.29 776.17 636.29 776.17 650.54 750.41 652.9"/><path class="cls-1" d="M63.84,270.27V285H152V270.27Zm8.78,13.82H65.39V271.27h7.23Zm8.78,0H74.17V271.27H81.4Zm8.76,0H82.93V271.27h7.23Zm8.78,0H91.71V271.27h7.23Zm8.77,0h-7.23V271.27h7.23Zm8.78,0h-7.23V271.27h7.23Zm8.78,0H118V271.27h7.23Zm8.77,0h-7.23V271.27H134Zm8.77,0h-7.23V271.27h7.23Zm8.77,0h-7.25V271.27h7.23Z" transform="translate(0 0.01)"/><path class="cls-1" d="M63.84,313.2v14.74H152V313.2ZM72.62,327H65.39V314.13h7.23Zm8.78,0H74.17V314.13H81.4Zm8.76,0H82.93V314.13h7.23Zm8.78,0H91.71V314.13h7.23Zm8.77,0h-7.23V314.13h7.23Zm8.78,0h-7.23V314.13h7.23Zm8.78,0H118V314.13h7.23Zm8.77,0h-7.23V314.13H134Zm8.77,0h-7.23V314.13h7.23Zm8.77,0h-7.25V314.13h7.23Z" transform="translate(0 0.01)"/><path class="cls-1" d="M63.84,356.11v14.73H152V356.11Zm8.78,13.8H65.39V357h7.23Zm8.78,0H74.17V357H81.4Zm8.76,0H82.93V357h7.23Zm8.78,0H91.71V357h7.23Zm8.77,0h-7.23V357h7.23Zm8.78,0h-7.23V357h7.23Zm8.78,0H118V357h7.23Zm8.77,0h-7.23V357H134Zm8.77,0h-7.23V357h7.23Zm8.77,0h-7.25V357h7.23Z" transform="translate(0 0.01)"/><path class="cls-1" d="M63.84,399v14.73H152V399Zm8.78,13.81H65.39V399.93h7.23Zm8.78,0H74.17V399.93H81.4Zm8.76,0H82.93V399.93h7.23Zm8.78,0H91.71V399.93h7.23Zm8.77,0h-7.23V399.93h7.23Zm8.78,0h-7.23V399.93h7.23Zm8.78,0H118V399.93h7.23Zm8.77,0h-7.23V399.93H134Zm8.77,0h-7.23V399.93h7.23Zm8.77,0h-7.25V399.93h7.23Z" transform="translate(0 0.01)"/><path class="cls-1" d="M64.22,441.91c.35,1.39.75,2.77,1.17,4.14v-3.21h7.23v12.88H68.76c.11.3.23.62.35.92H152V441.91ZM81.4,455.72H74.17V442.84H81.4Zm8.76,0H82.93V442.84h7.23Zm8.78,0H91.71V442.84h7.23Zm8.77,0h-7.23V442.84h7.23Zm8.78,0h-7.23V442.84h7.23Zm8.78,0H118V442.84h7.23Zm8.77,0h-7.23V442.84H134Zm8.77,0h-7.23V442.84h7.23Zm8.77,0h-7.25V442.84h7.23Z" transform="translate(0 0.01)"/><path class="cls-1" d="M84.69,484.82c.23.29.45.61.68.92h4.79v6.19l1.55,1.85v-8h7.23v12.89H96c.29.3.57.62.89.92H152V484.82Zm23,13.81h-7.23V485.74h7.23Zm8.78,0h-7.23V485.74h7.23Zm8.78,0H118V485.74h7.23Zm8.77,0h-7.23V485.74H134Zm8.77,0h-7.23V485.74h7.23Zm8.77,0h-7.23V485.74h7.23Z" transform="translate(0 0.01)"/><path class="cls-1" d="M133.06,527.72c.83.47,1.67.93,2.52,1.37v-.45h7.23v4.08l1.54.71v-4.79h7.23v7.84a3.16,3.16,0,0,0,.43.16v-8.92Z" transform="translate(0 0.01)"/><path class="cls-1" d="M731.07,302.52ZM675.26,569.91ZM617,433.91c.17.58.32,1.16.48,1.73h0c-.18-.62-.3-1.2-.48-1.78ZM731,302.57ZM183.82,166.86v3.87h40.51v-3.87Zm491.44,403ZM617,433.86c.17.58.32,1.16.48,1.73h0c-.18-.57-.3-1.15-.48-1.73ZM731,302.52ZM675.26,569.91ZM617,433.91c.17.58.32,1.16.48,1.73h0c-.18-.62-.3-1.2-.48-1.78Z" transform="translate(0 0.01)"/><polygon class="cls-2" points="7.8 396.61 0.96 396.96 7.8 440.88 24.48 487.21 29.4 475.08 673.14 425.76 673.02 406.08 576.05 370.56 7.8 396.61"/><polygon class="cls-3" points="585.65 512.17 578.66 508.96 543.89 492.98 543.41 485.77 576.49 500.52 583.25 503.54 585.65 512.17"/><polygon class="cls-3" points="104.65 535.68 102.73 546.26 97.66 539.41 90.2 529.34 84.96 522.25 87.84 516.5 92.15 521.41 94.6 524.22 98.82 529.03 99.33 529.62 104.65 535.68"/><path class="cls-3" d="M566.21,626.27c-.8,4.7-3.17,4.09-5.33,2.34a13,13,0,0,1-4.55-8.41L537.69,482.44l-.68-5-.8-5.95-.68-4.93-1.35-10-.85-6.29,9.59-3.35,1.19,9,2.93,22,.65,4.91.7,5.23.13,1,.68,5,.2,1.54,16.82,126.29A15.3,15.3,0,0,1,566.21,626.27Z" transform="translate(0 0.01)"/><polygon class="cls-4" points="585.65 512.17 578.66 508.96 576.87 501.98 576.49 500.52 583.25 503.54 585.65 512.17"/><path class="cls-3" d="M634.05,671.69c-.48,4.15-2.72,4.65-5,4a9.56,9.56,0,0,1-6.43-6.9L581.93,510.45,579.74,502l-12.22-47.61-1.56-6,8.17-9.61L578,453.7l55.68,213.78A11.51,11.51,0,0,1,634.05,671.69Z" transform="translate(0 0.01)"/><polygon class="cls-4" points="549.2 493.96 545.64 490.42 543.99 488.75 537.69 482.44 537.02 477.45 536.21 471.5 544.16 479.3 547.69 482.76 548.39 488 548.52 488.98 549.2 493.96"/><polygon class="cls-3" points="570.28 500.65 560.2 500.65 559.87 500.32 548.52 488.98 546.87 487.31 537.02 477.45 517.24 457.68 513.17 453.61 519.88 451.21 525.88 457.11 535.53 466.57 547.04 477.86 564.87 495.33 570.28 500.65"/><path class="cls-3" d="M100.33,476.16l-2.22,9.11L89.9,518.85,88,526.43,53.42,668.06a13.87,13.87,0,0,1-2.76,5.63c-3.33,4-5.42,2.1-6.6-.32a10.39,10.39,0,0,1-.65-7.07L87.84,485.93l2.4-9.77Z" transform="translate(0 0.01)"/><polygon class="cls-3" points="151.7 475.69 145.3 482.14 119.89 507.79 118.13 509.56 114.6 513.13 104.78 523.01 103.04 524.77 99.55 528.28 98.82 529.03 96.97 530.89 92.65 526.1 94.6 524.22 101.36 517.63 104.82 514.27 106.55 512.61 116.44 502.98 119.94 499.57 121.69 497.88 137.32 482.68 144.5 475.69 151.7 475.69"/><polygon class="cls-4" points="121.69 497.88 121.38 499.57 119.89 507.79 118.13 509.56 104.78 523.01 106.26 514.27 106.55 512.61 119.94 499.57 121.69 497.88"/><polygon class="cls-4" points="99.33 529.62 104.65 535.68 102.73 546.26 97.66 539.41 98.86 532.38 99.33 529.62"/><polygon class="cls-4" points="116.44 502.98 115.25 509.56 114.6 513.13 104.78 523.01 103.04 524.77 99.55 528.28 100.16 524.77 101.36 517.63 104.82 514.27 106.55 512.61 116.44 502.98"/><path class="cls-3" d="M124.81,472.81l-2,10.81-2.89,15.95-1.81,10L78.23,728.67c-3.65,9-6.31,7-7.89,3.77a14.19,14.19,0,0,1-1.14-8.61L100,542.59l1.73-10.21,1.29-7.6,1.79-10.5,5-29.8,1-5.9Z" transform="translate(0 0.01)"/><polygon class="cls-2" points="0.96 396.96 24.96 444.49 673.02 406.08 576.05 370.56 0.96 396.96"/><polygon class="cls-3" points="0.96 396.96 0 435.85 24.48 487.21 24.96 444.49 0.96 396.96"/><polygon class="cls-4" points="90.25 476.18 100.33 476.18 98.11 485.25 87.84 485.94 90.25 476.18"/><polygon class="cls-4" points="110.89 478.57 124.81 472.81 122.84 483.63 109.88 484.48 110.89 478.57"/><polygon class="cls-4" points="144.5 475.69 151.7 475.69 145.3 482.14 137.32 482.68 144.5 475.69"/><polygon class="cls-4" points="519.88 451.21 525.88 457.11 517.24 457.68 513.17 453.61 519.88 451.21"/><polygon class="cls-4" points="542.92 446.89 544.12 455.9 534.18 456.56 533.33 450.25 542.92 446.89"/><polygon class="cls-4" points="578.02 453.68 567.52 454.37 565.96 448.33 574.13 438.73 578.02 453.68"/><polygon class="cls-3" points="673.02 406.08 673.98 444.49 24.48 487.21 24.96 444.49 673.02 406.08"/><polygon class="cls-4" points="34.56 452.64 183.86 445.93 184.34 472.32 35.52 478.56 34.56 452.64"/><polygon class="cls-5" points="33.12 451.2 182.42 444.49 182.9 470.88 34.08 477.13 33.12 451.2"/><polygon class="cls-4" points="193.94 444.96 531.4 425.29 530.92 450.25 192.98 471.85 193.94 444.96"/><polygon class="cls-5" points="192.5 443.52 529.97 423.85 529.49 448.81 191.54 470.4 192.5 443.52"/><polygon class="cls-4" points="537.17 424.32 665.82 416.17 666.78 440.64 538.61 449.29 537.17 424.32"/><polygon class="cls-5" points="535.73 422.88 664.38 414.73 665.34 439.2 537.17 447.85 535.73 422.88"/><rect class="cls-4" x="100.32" y="462.73" width="18.25" height="1.44" transform="translate(-12.17 3.05) rotate(-1.51)"/><rect class="cls-3" x="100.32" y="461.29" width="18.25" height="1.44" transform="translate(-12.14 3.05) rotate(-1.51)"/><rect class="cls-4" x="453.63" y="442.08" width="18.25" height="1.44" transform="translate(-11.51 12.35) rotate(-1.51)"/><rect class="cls-3" x="453.63" y="440.64" width="18.25" height="1.44" transform="translate(-11.47 12.35) rotate(-1.51)"/><rect class="cls-4" x="255.38" y="453.6" width="18.25" height="1.44" transform="translate(-11.88 7.13) rotate(-1.51)"/><rect class="cls-3" x="255.38" y="452.16" width="18.25" height="1.44" transform="translate(-11.84 7.13) rotate(-1.51)"/><rect class="cls-4" x="595.24" y="432.48" width="18.25" height="1.44" transform="translate(-11.21 16.08) rotate(-1.51)"/><rect class="cls-3" x="595.24" y="431.04" width="18.25" height="1.44" transform="translate(-11.17 16.08) rotate(-1.51)"/><polygon class="cls-3" points="824.72 613.93 807.43 612.99 806.27 563.37 805.99 551.53 824.23 548.18 824.34 563.41 824.72 613.93"/><polygon class="cls-3" points="811.27 605.3 722.46 660.5 720.54 677.3 730.14 677.78 730.14 665.78 788.23 633.14 718.14 720.03 718.14 733.48 729.66 733.48 728.7 718.6 809.83 626.42 819.91 627.38 905.36 724.36 907.28 740.67 918.8 741.15 916.88 724.36 849.19 639.87 894.32 671.07 895.28 684.5 904.4 684.99 903.44 668.66 817.51 602.42 811.27 605.3"/><path class="cls-6" d="M699.7,510.86a158.34,158.34,0,0,0,21-34.07c6.11-13.52,12.81-29.13,13.32-33.75,1-8.64,25.44-25.92,52.32-26.88,17.53-.63,44.84-14.31,61.74-23.76a125.67,125.67,0,0,1,51.8-16c19.77-1.49,38.36,2.39,29,25.33L803.11,553.93s-107.2,18.89-113.78-11.48A25,25,0,0,0,687.8,538C686.51,535.12,686.18,527.63,699.7,510.86Z" transform="translate(0 0.01)"/><path class="cls-7" d="M709.14,513.88a163.07,163.07,0,0,0,21.13-34.4c5.71-12.64,11.75-26.81,12.23-31.1.92-8.25,24.34-24.76,50.07-25.68,16.76-.6,42.89-13.66,59.06-22.69a120.44,120.44,0,0,1,49.57-15.27c18.92-1.42,36.71,2.29,27.78,24.2l-99.71,146s-123,17.45-129.5-11.42a29.62,29.62,0,0,0-1.54-4.48C697.09,536.21,696.93,529.2,709.14,513.88Z" transform="translate(0 0.01)"/><path class="cls-4" d="M824.33,563.41c-5.78,0-11.87,0-18.08-.06L806,551.53l18.23-3.36Z" transform="translate(0 0.01)"/><g class="cls-8"><polygon points="894.32 668.18 849.19 636.99 854.37 643.45 894.32 671.07 895.28 684.5 904.4 684.99 904.23 682.1 895.28 681.63 894.32 668.18"/><polygon points="730.14 662.9 730.14 665.78 783.98 635.53 788.23 630.26 730.14 662.9"/><polygon points="718.14 730.6 718.14 733.48 729.66 733.48 729.48 730.6 718.14 730.6"/><polygon points="730.14 674.9 720.87 674.45 720.54 677.3 730.14 677.78 730.14 674.9"/><polygon points="907.28 737.79 905.36 721.48 819.91 624.5 809.83 623.54 728.7 715.72 728.88 718.39 809.83 626.42 819.91 627.38 905.36 724.36 907.28 740.67 918.8 741.15 918.47 738.25 907.28 737.79"/></g><path class="cls-9" d="M500.57,630.27c15.75,12.56,25.61.93,25.61.93s26.56-18.93,27.15-21.59a24.93,24.93,0,0,1,1.52-4.69s4.37.75,4.37-1.31,4.55-2.81,7.2-4.5,19.36-16.31,19.36-16.31.57-3.18,8.23-5.62c5.39-1.71,16.86-12.42,23.2-18.63.39-2.51,1.68-10.15,3.1-12.49A3.47,3.47,0,0,1,622.8,545l.63-2.32a157.33,157.33,0,0,0,4.09-21.52c1.7-15,14.42-19.68,17.64-19.68S674,490.58,674,490.58l41.55-16.87s25.61-8,24.66-13.5a5.08,5.08,0,0,1,.06-1.74c.52-2.56,2.75-5.54,5-8a54.85,54.85,0,0,1,5-4.88l13.8-8.55,1.06-.66c-4.66-7.44-14.86-17.22-14.86-17.22s3-5.62,6.45-5.62c2.28,0,15-4,23.22-6.66-.85-9.1-2.53-36.83,7.9-42.45l12.49-6.75-1.09,2.5,1.85-1s-.22.47-.56,1.27c.37-.06.76-.1,1.16-.13,1.13-4,1.81-7.22,1.48-8.26-.83-2.61-1-20.44,6.52-29.62l-6-17.43a3.42,3.42,0,0,1,2.15-4.33h0l15.54-5.22a4.68,4.68,0,0,1,5.24,2.14l4.41,12.83a51.45,51.45,0,0,1,5.63-1c1.31-2.36,2.89-4.64,2.65-7.26a12.47,12.47,0,0,0-1.59-4.3,49.43,49.43,0,0,1-4.22-12.41,5.44,5.44,0,0,1,0-2.63c.65-2.11,3.41-2.84,4.59-4.72,1-1.54.67-3.53.19-5.27-.76-2.78-1.92-5.44-2.55-8.25s-.68-5.87.7-8.4a13.33,13.33,0,0,1,5-4.69c.53-2.48,2.32-4.82,1.75-7.28-.34-1.48-1.51-2.7-1.73-4.2-.38-2.71,2.33-4.77,4.71-6.17l21.07-12.45c1.88-1.11,3.83-2.24,5.84-3.17,3.8-2,7.83-3.42,12-2.9,5.35.67,9.77,4.49,13.07,8.7s5.89,9,9.59,12.86c6.76,7.09,16.61,10.5,24,17a16.59,16.59,0,0,1,4.77,6.29c3.08,8.17-4.51,16.6-4.46,25.32,0,7.64,5.9,14,12,18.71,2.59,2,5.5,4.21,6,7.42.4,2.48-.75,4.9-1.46,7.3a24,24,0,0,0,.73,15.09c4.79,3.16,8.21,5.3,8.21,5.3s19.73,16.5,30.74,20.25a2.16,2.16,0,0,1,1.12.67c3,1.85,11.37,7.08,12.92,9.82,1.9,3.38,14.8,16.12,6.45,20.62a46.36,46.36,0,0,1-15.56,5.25s-19.35,6-26.94,9.75a83.31,83.31,0,0,1-14.33,5,28.94,28.94,0,0,0,5.76,14.6h.21a23.84,23.84,0,0,0,3.19,3.47l-2.1.33.14.13c-5.5.88-11.16,1.75-16.58.51s-10.61-5.14-11.6-10.55c-1.06-5.83,2.58-12.82-1.38-17.25a8.68,8.68,0,0,0-5-2.55c-2.63,3.47-21.95,28.06-39.48,22.67,4,10.66,11.11,29.25,12.46,29.78,1.9.75-19.35,7.5-19.35,7.5s-4.18-.68-10.17-1.25c0,.72.08,1.47.13,2.26.41,7.36.68,17.25-.59,20a14.47,14.47,0,0,0-.76,2.12,36.91,36.91,0,0,1-11.44,18.4l-1.85,1.55a24.83,24.83,0,0,0-6,7.87,30.74,30.74,0,0,1-18,15.56,39.83,39.83,0,0,1-18.72,1.12s-42.66,4.13-66.18,6-49.14,12.75-49.14,12.75-11.84,8.37-20.23,19.19c-.63.82-1.23,1.65-1.82,2.48L677,573.8s-17.35,12.65-29,22.11v1.7c.57,12.56-16.13,30.18-16.13,30.18s-5.12,7.12-7.78,10.69,4.56,5.81,4.56,5.81-12,3.37-7.21,15.93S622.8,681,622.8,681l-7,33.55H601.12L604,691.34C598.85,691,585.19,712,585.19,712s-35.67-5.43-42.12-7.31-5.31-13.87,7-11.24a21.22,21.22,0,0,0,19.73-5.81s8.73-10.13,13.66-36a187.77,187.77,0,0,1,6.35-22.43c-6.77,10.28-10.52,25.36-12,26.18-2.09,1.12-28.26,30.74-28.26,30.74L539.23,676,557,655.34s-16.13.18-22.77,4.68-15.4,2.25-15.4,2.25-20.11-15.93-25-21.93S484.82,617.67,500.57,630.27Z" transform="translate(0 0.01)"/><path class="cls-10" d="M795.48,362.87s8.59-2.62,8.22,1.86,4.48,8.6,4.48,8.6l-7.85,20.56-17.56-6.36L788.33,370Z" transform="translate(0 0.01)"/><path class="cls-11" d="M795.48,362.87s8.59-2.62,8.22,1.86,4.48,8.6,4.48,8.6l-7.85,20.56-17.56-6.36L788.33,370Z" transform="translate(0 0.01)"/><path class="cls-12" d="M840.55,252.44c-2.66,1.52-5.47,3.17-6.92,5.87-1.36,2.52-1.31,5.59-.7,8.38s1.77,5.46,2.52,8.22c.47,1.74.76,3.72-.19,5.26-1.16,1.88-3.88,2.6-4.53,4.71a5.53,5.53,0,0,0,.06,2.62,49.51,49.51,0,0,0,4.15,12.37,12.46,12.46,0,0,1,1.57,4.29c.38,4.18-3.85,7.5-4.21,11.67-.2,2.25.76,4.43,1.7,6.48,1,2.28,2.16,4.66,4.21,6.08,2.54,1.75,6,1.62,8.93.78s5.74-2.3,8.73-3c2.76-.69,5.73-.78,8.24-2.11,4.27-2.26,6-7.34,7.3-12,.84-3.13,1.61-6.44.8-9.58a31.47,31.47,0,0,0-2.57-5.71c-1.13-2.36-1.93-4.91-3.46-7s-3.59-3.67-4.21-6.08c-.72-2.79.82-5.58,2.1-8.15a57,57,0,0,0,2.9-7,12.51,12.51,0,0,0,.85-6.05c-.74-4.22-5.1-6.78-9.23-7.91-3-.82-6.24-1.19-9.21-2.29-1.33-.49-2.51-1.41-3.93-1.49C843.7,250.67,842,251.6,840.55,252.44Z" transform="translate(0 0.01)"/><path class="cls-13" d="M622.05,550.12l34.65,4.66h.11s34.57-41.3,35.13-41.48L731,499.47l26.17-7.67,3.55-17L726,473.49l-11.4,1.68L673.63,492s-25.23,10.84-28.41,10.84-15.7,4.67-17.38,19.62a156.38,156.38,0,0,1-4,21.45C622.81,547.77,622.05,550.12,622.05,550.12Z" transform="translate(0 0.01)"/><path class="cls-14" d="M622.05,550.48l34.65,4.66h.11s34.57-41.3,35.13-41.48L731,499.83l26.17-7.67,3.55-17L726,473.85l-11.4,1.68-40.93,16.83S648.4,503.2,645.22,503.2s-15.7,4.67-17.38,19.62a156.38,156.38,0,0,1-4,21.45C622.81,548.13,622.05,550.48,622.05,550.48Z" transform="translate(0 0.01)"/><path class="cls-4" d="M726.52,474.43l-1.69,2.84s12,6.44,11,8.92l17.36-7Z" transform="translate(0 0.01)"/><path class="cls-4" d="M622.05,550.12l34.65,4.66c2.24-8,4-13.82,4-13.82l-23.92,4.12s-8.27-1.61-13-1.17C622.81,547.77,622.05,550.12,622.05,550.12Z" transform="translate(0 0.01)"/><path class="cls-15" d="M636.81,547.32s-14.39-2.8-16.07,0-3.18,13.27-3.18,13.27-28.23,66.15-33.07,91.94S571,688.41,571,688.41a20.77,20.77,0,0,1-19.44,5.8c-12.14-2.62-13.26,9.34-6.91,11.21s41.49,7.29,41.49,7.29,13.45-20.93,18.5-20.56l-2.8,23.18h14.39l6.91-33.46s3.36-8.22-1.31-20.74,7.1-15.89,7.1-15.89-7.1-2.24-4.48-5.79,7.66-10.65,7.66-10.65,16.45-17.53,15.89-30.09,12.7-55.5,12.7-55.5Z" transform="translate(0 0.01)"/><path class="cls-4" d="M636.81,547.32s-14.39-2.8-16.07,0-3.18,13.27-3.18,13.27-28.23,66.15-33.07,91.94S571,688.41,571,688.41a20.77,20.77,0,0,1-19.44,5.8c-12.14-2.62-13.26,9.34-6.91,11.21s41.49,7.29,41.49,7.29,13.45-20.93,18.5-20.56l-2.8,23.18h14.39l6.91-33.46s3.36-8.22-1.31-20.74,7.1-15.89,7.1-15.89-7.1-2.24-4.48-5.79,7.66-10.65,7.66-10.65,16.45-17.53,15.89-30.09,12.7-55.5,12.7-55.5Z" transform="translate(0 0.01)"/><path class="cls-4" d="M607.85,649.36s-5,33.82-11.59,36.25S607.85,649.36,607.85,649.36Z" transform="translate(0 0.01)"/><path class="cls-4" d="M621.49,622.63c-.56.56-16.07,20.75-22.24,20.93S621.49,622.63,621.49,622.63Z" transform="translate(0 0.01)"/><path class="cls-13" d="M646,541.71s17,44.29,24.67,30.65a53.92,53.92,0,0,1,4.18-6.28c8.26-10.79,19.93-19.14,19.93-19.14s25.23-10.83,48.4-12.7,65.18-6,65.18-6l5.45-4.68c.56-30.27-60.55-44.47-60.55-44.47S706.51,498.37,688.94,504s-20.55,14-20.55,14l-17.53,18.55Z" transform="translate(0 0.01)"/><path class="cls-4" d="M646,541.71s17,44.29,24.67,30.65a53.92,53.92,0,0,1,4.18-6.28l-2.8-5a83.41,83.41,0,0,0-15-19.59,37.14,37.14,0,0,0-6.12-5Z" transform="translate(0 0.01)"/><path class="cls-15" d="M666,555.91s-15.7-19.24-20-17.19-23.92,16.63-23.92,16.63-19.67,20.56-27.21,23-8.11,5.61-8.11,5.61-16.4,14.56-19.06,16.25-7.11,2.43-7.11,4.48-4.29,1.31-4.29,1.31a25.42,25.42,0,0,0-1.5,4.67c-.56,2.62-26.72,21.49-26.72,21.49s-9.72,11.59-25.23-.89-11.59,4.11-6.73,10.09,24.67,21.87,24.67,21.87,8.59,2.24,15.14-2.25,22.43-4.71,22.43-4.71l-17.45,20.56L551,686.92s25.78-29.53,27.84-30.65,8.23-29,20.57-34.57c0,0,35.13-13.46,46.53-23S676.63,575,676.63,575Z" transform="translate(0 0.01)"/><path class="cls-4" d="M549.33,622.63c1.12-.56,26,3.93,20.75,6.64S549.33,622.63,549.33,622.63Z" transform="translate(0 0.01)"/><path class="cls-4" d="M576.26,610.67c1.12.75,14.39,3.93,11,7.48S576.26,610.67,576.26,610.67Z" transform="translate(0 0.01)"/><path class="cls-5" d="M714.56,475.18s9,.19,37.93,6.17,55.84,46.92,55.84,46.92a39,39,0,0,0,18.44-1.12,30.4,30.4,0,0,0,17.75-15.52,24.79,24.79,0,0,1,5.89-7.85l1.82-1.54a36.88,36.88,0,0,0,11.26-18.39,13,13,0,0,1,.75-2.12c1.25-2.72,1-12.58.57-19.92-.25-4.77-.57-8.47-.57-8.47L767.81,435.2l-5.48,3.42-13.59,8.53a54.18,54.18,0,0,0-5,4.87c-2.2,2.44-4.39,5.42-4.91,8a4.69,4.69,0,0,0,0,1.75C739.78,467.15,714.56,475.18,714.56,475.18Z" transform="translate(0 0.01)"/><path class="cls-13" d="M859.39,292.27s9.34,13.09-2.24,37,49-13.83,49-13.83-22.8-34.39-19.44-40.74S859.39,292.27,859.39,292.27Z" transform="translate(0 0.01)"/><circle class="cls-4" cx="867.99" cy="276.91" r="29.53"/><circle class="cls-13" cx="867.99" cy="274.67" r="29.53"/><path class="cls-4" d="M862.75,312.66s-9.71,15.44,20,6.85-23.36,58.68-23.36,58.68l-20.93-21.68,8.22-38.12Z" transform="translate(0 0.01)"/><path class="cls-16" d="M862.75,314.15s-9.71,15.45,20,6.85-23.36,58.68-23.36,58.68L838.46,358l8.22-38.13Z" transform="translate(0 0.01)"/><path class="cls-4" d="M762.33,438.62a28,28,0,0,1,2.48,4.23c3.36,7.48,11.58,5.61,11.58,5.61,13.46,8.22,49,6,49,6s-7.85,13.08,7.1,8.59c9.19-2.75,23-2.12,32.34-1.23-.25-4.77-.57-8.47-.57-8.47l-96.43-18.14Z" transform="translate(0 0.01)"/><path class="cls-11" d="M748.76,420.8s12.7,12.33,16.07,19.81,11.58,5.6,11.58,5.6c13.46,8.23,49,6,49,6s-7.85,13.08,7.1,8.59,42.23,0,42.23,0,20.94-6.73,19.07-7.47-15-37-15-37a15.3,15.3,0,0,1-1-6.21,12.79,12.79,0,0,1,3-7.88,18.65,18.65,0,0,1,7-5c14.57-6.35,40.36-22.42,40.36-22.42s65.79-9.72,55-13.46-30.28-20.18-30.28-20.18-30.65-19.44-36.63-27.66-18.31-10.84-18.31-10.84l-17.11,12.71-31.11,27.66h0l-1.5-16.78s-3.37-11.22-7.85-14.21S819.16,315,818,315.4h-.07s-17.19,49.71-16.44,58.68c.19,2.36-.86,5.71-2.5,9.36-1.06,2.34-2.37,4.8-3.75,7.21A182.77,182.77,0,0,1,785,406.27s-26.54,9-29.9,9S748.76,420.8,748.76,420.8Z" transform="translate(0 0.01)"/><polygon class="cls-4" points="849.67 346.24 853.04 361 885.37 343.44 882.28 316.89 851.17 344.56 851.17 344.55 849.67 346.24"/><polygon class="cls-11" points="848.18 344.75 851.54 359.5 883.88 341.94 880.79 315.4 849.67 343.06 849.67 343.05 848.18 344.75"/><path class="cls-4" d="M795.21,392.15c12.25,2.54,67,14,82.57,19.45a12.84,12.84,0,0,1,3-7.89c-15.45-7.09-63.15-27.44-81.82-18.78C797.9,387.27,796.59,389.74,795.21,392.15Z" transform="translate(0 0.01)"/><path class="cls-4" d="M795.21,389.16c12.25,2.54,67,14,82.57,19.45a12.84,12.84,0,0,1,3-7.89c-15.45-7.09-63.15-27.45-81.82-18.78C797.9,384.27,796.59,386.75,795.21,389.16Z" transform="translate(0 0.01)"/><path class="cls-11" d="M795.21,390.65c12.25,2.55,67,14.05,82.57,19.45a12.79,12.79,0,0,1,3-7.88c-15.49-7.1-63.15-27.45-81.82-18.78C797.9,385.78,796.59,388.27,795.21,390.65Z" transform="translate(0 0.01)"/><circle class="cls-17" cx="808.19" cy="397.64" r="3.83"/><circle class="cls-17" cx="795.21" cy="424.45" r="3.83"/><circle class="cls-17" cx="838.46" cy="405.3" r="3.83"/><circle class="cls-17" cx="822.95" cy="433.33" r="3.83"/><circle class="cls-17" cx="817.97" cy="368.11" r="3.83"/><path class="cls-4" d="M862.38,409.12s15.7,38.59,12,43.82S862.38,409.12,862.38,409.12Z" transform="translate(0 0.01)"/><path class="cls-4" d="M849.11,409.12c2.21-.55-9.34,10.37-10.65,20.37s-9.35,18.41-9.35,18.41l8-19.63S846.5,409.77,849.11,409.12Z" transform="translate(0 0.01)"/><path class="cls-4" d="M799,405.27c-1.13,1.68-16.65,4.67-18.33,22.05Z" transform="translate(0 0.01)"/><path class="cls-4" d="M903.33,377.63c-1.87,1.68-23,15.88-30.46,16.16S903.33,377.63,903.33,377.63Z" transform="translate(0 0.01)"/><path class="cls-4" d="M869.86,385.48S866.68,390,863.5,390,869.86,385.48,869.86,385.48Z" transform="translate(0 0.01)"/><path class="cls-4" d="M738.9,460c13.51.45,58.86,1.78,65.45-.12.63-.18-40.08-2.06-49.61-3.93A37,37,0,0,1,743.81,452C741.61,454.46,739.42,457.44,738.9,460Z" transform="translate(0 0.01)"/><path class="cls-4" d="M814.14,468.83s22.45,16.44,12.64,16.63S814.14,468.83,814.14,468.83Z" transform="translate(0 0.01)"/><path class="cls-12" d="M862.88,309.48c-.91,2.33-.16,2.71-.69,4.8a15.92,15.92,0,0,0-.43,5.91c.27,2.8-1.49,6.13-.09,8.52a6.6,6.6,0,0,1,.56,1.09,3.24,3.24,0,0,1-1.4,3.28c-.94.74-2.07,1.3-2.65,2.42-1.37,2.66,1.26,6.44,0,9.2a5.33,5.33,0,0,1-1.89,2.05,24.25,24.25,0,0,1-6,3.16c-1.41-2.21.16-5.45-1.07-7.79a10.3,10.3,0,0,0-2.53-2.57c-2-1.9-3.08-4.84-3.6-7.71s-.59-5.82-1.16-8.68c-.93-4.7-3.14-9.1-3.64-13.85a2,2,0,0,1,.15-1.28,1.58,1.58,0,0,1,1.28-.56c4.35-.37,9.11.79,13.29,0C856.93,306.77,859.49,305.87,862.88,309.48Z" transform="translate(0 0.01)"/><path class="cls-4" d="M817.22,316.87c1.3,6,5.63,22.68,14.89,30.11,11.39,9.16,20,32.89,20,32.89L849.5,386a18.74,18.74,0,0,0,5.6-2.62c2.62-1.87-6.17-38.87-6.17-38.87l-1.49-16.82s-3.36-11.21-7.85-14.2S818.41,316.45,817.22,316.87Z" transform="translate(0 0.01)"/><path class="cls-11" d="M818,315.37c1.3,6,5.63,22.68,14.88,30.11,11.4,9.16,20,32.9,20,32.9l-2.62,6.16a18.53,18.53,0,0,0,5.61-2.61c2.62-1.87-6.17-38.87-6.17-38.87l-1.49-16.79s-3.37-11.22-7.85-14.21S819.16,315,818,315.37Z" transform="translate(0 0.01)"/><rect class="cls-18" x="808.35" y="298.74" width="23" height="48.6" rx="1.7" transform="translate(-60.34 280.99) rotate(-18.77)"/><rect class="cls-15" x="807.51" y="298.74" width="23" height="48.6" rx="1.7" transform="translate(-60.39 280.72) rotate(-18.77)"/><circle class="cls-19" cx="815.4" cy="313.64" r="3.61"/><path class="cls-13" d="M791.38,386.41v1.31l14-7.19,1.44-7.06,2.51-12.29s28.4-41.67,9.51-42.22-19,31.38-17.92,34.93c.8,2.55-4.43,18.12-7.46,26.77C792.24,384.08,791.38,386.41,791.38,386.41Z" transform="translate(0 0.01)"/><path class="cls-4" d="M779,413s-4.86-38.5,7.48-45.23L798.84,361s-10.09,22.61-6,23.45,16.07-9.62,16.07-9.62v24.29Z" transform="translate(0 0.01)"/><path class="cls-4" d="M791.38,386.41v1.31l14-7.19,1.44-7.06c-3.81,3-10.38,7.82-13.21,7.25a.49.49,0,0,1-.17-.06C792.24,384.08,791.38,386.41,791.38,386.41Z" transform="translate(0 0.01)"/><path class="cls-11" d="M778.33,411.45s-4.86-38.49,7.48-45.22l12.33-6.73s-10.09,22.62-6,23.46,16.07-9.63,16.07-9.63v24.3Z" transform="translate(0 0.01)"/><circle class="cls-17" cx="848.18" cy="376.71" r="3.83"/><path class="cls-6" d="M719.82,558.73S757,555.85,770.94,529c0,0,28.33-56.17,51.37-62.41s65.76-20.16,83.52-41.76S931,386.64,931,386.64s4.56,17.52-9.84,38.16-19.69,52.32-29.77,85.93-13.92,47-32.16,49c-13.75,1.45-86.45.72-121.21,0C726.7,559.46,719.82,558.73,719.82,558.73Z" transform="translate(0 0.01)"/><path class="cls-7" d="M719.82,558.73S757,555.85,770.94,529c0,0,28.33-56.17,51.37-62.41s65.76-20.16,83.52-41.76S931,386.64,931,386.64s4.56,17.52-9.84,38.16-19.69,52.32-29.77,85.93-13.92,47-32.16,49c-13.75,1.45-86.45.72-121.21,0C726.7,559.46,719.82,558.73,719.82,558.73Z" transform="translate(0 0.01)"/><path class="cls-6" d="M729.18,558.79S764.74,556,778.05,530c0,0,27.07-54.38,49.09-60.42S890,450,907,429.11s24.09-36.95,24.09-36.95,4.36,17-9.41,36.95-18.81,50.66-28.45,83.16-13.3,45.55-30.74,47.41c-13.14,1.4-82.63.69-115.86,0C735.75,559.49,729.18,558.79,729.18,558.79Z" transform="translate(0 0.01)"/><path class="cls-13" d="M935.64,384.54s-17.2,1.12-22.43,3.18c-2.78,1.09-9.86,2-15.88,2.67a32.23,32.23,0,0,0-22,11.88c-4.9,6.21-7.37,13.88,2.34,19.67,19.44,11.59,43-21.3,43-21.3l20.55-3Z" transform="translate(0 0.01)"/><path class="cls-11" d="M927.42,383c6.72-.47,14.2,30.74,14.2,30.74s12.33-2.62,19.81-6.36S988,397.63,988,397.63a45.3,45.3,0,0,0,15.32-5.24c8.22-4.48-4.49-17.19-6.35-20.55s-13.83-10.47-13.83-10.47l-9.35-1.87L931.53,367l27.28,6.35-3.4,1.05-9.15,2.8Z" transform="translate(0 0.01)"/><path class="cls-11" d="M946.26,377.18l8.07,21.57c16.26,12.7,15-5,15-5l-13.87-19.41Z" transform="translate(0 0.01)"/><path class="cls-4" d="M947.7,377.9l8.07,21.57c16.26,12.7,15-5,15-5L956.9,375.06Z" transform="translate(0 0.01)"/><circle class="cls-17" cx="964.14" cy="397.64" r="3.83"/><path class="cls-4" d="M842.71,259.93a5.28,5.28,0,0,1-4.33-5.1c0-2.92,2.51-5.6,1.85-8.45-.33-1.47-1.48-2.69-1.7-4.19-.38-2.7,2.3-4.75,4.64-6.15l20.75-12.41c5-3,10.38-6,16.09-5.3,5.27.67,9.62,4.47,12.88,8.67s5.79,9,9.44,12.82c6.66,7.06,16.36,10.47,23.6,16.94a16.69,16.69,0,0,1,4.7,6.27c3,8.14-4.44,16.55-4.39,25.25,0,7.62,5.81,13.94,11.8,18.65,2.55,2,5.41,4.2,5.92,7.4.4,2.47-.73,4.88-1.43,7.28-3.58,12.22,4.22,25.16,14.23,33,3,2.35,6.37,4.69,7.46,8.32,1.62,5.32-2.39,10.53-5.8,14.93-6,7.7-11,16.47-12.44,26.11s1.16,20.26,8.43,26.77c-5.42.87-11,1.74-16.34.5s-10.45-5.12-11.42-10.51c-1-5.81,2.54-12.78-1.37-17.21-3-3.36-8.24-2.73-12.69-3.32a20.74,20.74,0,0,1-17.43-19c-.29-6.59,2.64-12.82,4.91-19S904,349,901.25,343c-4.42-9.66-18.81-13.69-19.43-24.29-.37-6.23,4.57-12.58,2-18.27-1.71-3.83-6.09-5.53-9.36-8.14-5.15-4.1-7.64-10.58-11-16.22a76.64,76.64,0,0,0-9.72-12.47c-1.17-1.26-3.39-4.56-5.15-5C846.53,258.17,844.94,260.27,842.71,259.93Z" transform="translate(0 0.01)"/><path class="cls-12" d="M844.21,259.18a5.29,5.29,0,0,1-4.34-5.09c0-2.93,2.51-5.61,1.86-8.46-.34-1.47-1.49-2.69-1.7-4.19-.38-2.7,2.29-4.75,4.63-6.15l20.76-12.41c4.94-2.95,10.37-6,16.08-5.3,5.28.67,9.62,4.47,12.88,8.67s5.8,9,9.44,12.83c6.66,7.06,16.37,10.46,23.6,16.93a16.43,16.43,0,0,1,4.7,6.27c3,8.15-4.44,16.56-4.39,25.25,0,7.62,5.82,13.94,11.8,18.65,2.55,2,5.42,4.2,5.93,7.4.39,2.47-.74,4.88-1.44,7.28-3.58,12.23,4.23,25.16,14.23,33,3,2.35,6.37,4.69,7.47,8.32,1.61,5.33-2.39,10.53-5.8,14.93-6,7.7-11,16.47-12.45,26.11s1.17,20.27,8.43,26.77c-5.41.87-11,1.75-16.33.51s-10.45-5.13-11.43-10.52c-1-5.81,2.55-12.78-1.36-17.2-3-3.37-8.24-2.74-12.69-3.33a20.73,20.73,0,0,1-17.43-19c-.29-6.59,2.63-12.82,4.91-19s3.91-13.18,1.17-19.18c-4.41-9.66-18.8-13.68-19.43-24.29-.36-6.22,4.58-12.58,2-18.27-1.71-3.83-6.09-5.53-9.37-8.14-5.15-4.1-7.64-10.58-11-16.22a76.56,76.56,0,0,0-9.72-12.46c-1.17-1.27-3.39-4.57-5.16-5C848,257.43,846.44,259.53,844.21,259.18Z" transform="translate(0 0.01)"/><path class="cls-4" d="M842.16,245.92c-.34-1.48-1.49-2.69-1.7-4.19-.38-2.71,2.29-4.75,4.64-6.15l.48-.29a3.7,3.7,0,0,0-.26,2c.21,1.5,1.36,2.72,1.7,4.19.65,2.85-1.83,5.53-1.86,8.45a5.28,5.28,0,0,0,4.34,5.1c2.23.34,3.81-1.76,5.85-1.3,1.77.4,4,3.7,5.16,5a76.64,76.64,0,0,1,9.72,12.47c3.4,5.64,5.88,12.12,11,16.22,3.28,2.61,7.66,4.31,9.37,8.14,2.55,5.69-2.39,12-2,18.27.62,10.6,15,14.63,19.42,24.29,2.74,6,1.1,13-1.17,19.23s-5.2,12.42-4.91,19a20.73,20.73,0,0,0,17.43,19c4.45.59,9.72,0,12.69,3.33,3.91,4.42.32,11.39,1.36,17.2,1,5.39,6.09,9.27,11.43,10.51a28.06,28.06,0,0,0,8.33.53,23.23,23.23,0,0,0,3.15,3.35c-5.41.88-11,1.75-16.33.51s-10.45-5.12-11.42-10.52c-1-5.81,2.54-12.78-1.37-17.2-3-3.37-8.24-2.73-12.69-3.32a20.74,20.74,0,0,1-17.43-19c-.29-6.59,2.63-12.83,4.91-19s3.92-13.23,1.17-19.23c-4.41-9.66-18.8-13.68-19.42-24.28-.37-6.23,4.57-12.58,2-18.28-1.71-3.82-6.09-5.52-9.37-8.13-5.15-4.11-7.63-10.59-11-16.23a76.56,76.56,0,0,0-9.72-12.46c-1.17-1.26-3.39-4.56-5.15-5-2-.46-3.63,1.64-5.86,1.3a5.3,5.3,0,0,1-4.34-5.1C840.33,251.45,842.81,248.77,842.16,245.92Z" transform="translate(0 0.01)"/><path class="cls-4" d="M700.38,544.81s19.44,7.44,30.48,3.36,38.4-16.08,38.4-16.08S723.18,535,700.38,544.81Z" transform="translate(0 0.01)"/><path class="cls-6" d="M535.09,339.44s-4.59,21.37,15.84,23.91l1.26-2.38S536.33,346.09,535.09,339.44Z" transform="translate(0 0.01)"/><path class="cls-6" d="M558.69,360.81l-4.75,1-.48.1S540.79,351.62,541,328.66a57.13,57.13,0,0,0,6,9.57C552,344.89,557.74,353.76,558.69,360.81Z" transform="translate(0 0.01)"/><path class="cls-6" d="M560.33,363a3,3,0,0,1-2.55.34c-12.2-2.85-8.08-42.6-8.08-42.6.68.32,1.42,5.37,4.22,11.9C558.8,344.12,564.21,360.14,560.33,363Z" transform="translate(0 0.01)"/><path class="cls-6" d="M587.33,339.44s.79,21.37-19.64,23.91L566.42,361S586.08,346.09,587.33,339.44Z" transform="translate(0 0.01)"/><path class="cls-6" d="M581.49,328.67c.15,23-16.31,33.25-16.31,33.25l-.48-.1-4.75-1c.94-7.05,6.66-15.92,11.68-22.57A51.43,51.43,0,0,1,581.49,328.67Z" transform="translate(0 0.01)"/><path class="cls-6" d="M564.63,360.93a7.42,7.42,0,0,1-2.72,2.08h0a5.13,5.13,0,0,1-1,.34c-3,.7-4-1.47-3.87-5.14.28-6.55,4.39-17.9,8.09-26.4,2.66-6.12,7-10.75,7.66-11.06C572.78,320.75,572.6,351.7,564.63,360.93Z" transform="translate(0 0.01)"/><path class="cls-6" d="M561.11,313.14S549,356,559.42,362.47,563.78,316.94,561.11,313.14Z" transform="translate(0 0.01)"/><path class="cls-4" d="M535.09,339.44s-4.59,21.37,15.84,23.91l1.26-2.38S536.33,346.09,535.09,339.44Z" transform="translate(0 0.01)"/><path class="cls-4" d="M558.69,360.81l-4.75,1-.48.1S540.79,351.62,541,328.66a57.13,57.13,0,0,0,6,9.57C552,344.89,557.74,353.76,558.69,360.81Z" transform="translate(0 0.01)"/><path class="cls-4" d="M560.33,363a3,3,0,0,1-2.55.34c-12.2-2.85-8.08-42.6-8.08-42.6.68.32,1.42,5.37,4.22,11.9C558.8,344.12,564.21,360.14,560.33,363Z" transform="translate(0 0.01)"/><path class="cls-4" d="M587.33,339.44s.79,21.37-19.64,23.91L566.42,361S586.08,346.09,587.33,339.44Z" transform="translate(0 0.01)"/><path class="cls-4" d="M581.49,328.67c.15,23-16.31,33.25-16.31,33.25l-.48-.1-4.75-1c.94-7.05,6.66-15.92,11.68-22.57A51.43,51.43,0,0,1,581.49,328.67Z" transform="translate(0 0.01)"/><path class="cls-4" d="M564.63,360.93a7.42,7.42,0,0,1-2.72,2.08h0a5.13,5.13,0,0,1-1,.34c-3,.7-4-1.47-3.87-5.14.28-6.55,4.39-17.9,8.09-26.4,2.66-6.12,7-10.75,7.66-11.06C572.78,320.75,572.6,351.7,564.63,360.93Z" transform="translate(0 0.01)"/><path class="cls-4" d="M561.09,314.34s-11.8,41.83-1.65,48.14S563.7,318,561.09,314.34Z" transform="translate(0 0.01)"/><path class="cls-6" d="M535.09,339.44s-2.69,21.37,17.74,23.91l1.26-2.38S536.33,346.09,535.09,339.44Z" transform="translate(0 0.01)"/><path class="cls-6" d="M560.59,360.81l-4.75,1-.48.1S540.79,351.62,541,328.66c0,0,3.73,4,8,9.57C553.93,344.89,559.64,353.76,560.59,360.81Z" transform="translate(0 0.01)"/><path class="cls-4" d="M560.59,360.81l-4.75,1c-4.51-4-6.29-14.27-6.94-23.58C553.93,344.89,559.64,353.76,560.59,360.81Z" transform="translate(0 0.01)"/><path class="cls-6" d="M562.19,363a3,3,0,0,1-2.55.34c-12.2-2.85-10-42.6-10-42.6.68.32,3.32,5.37,6.12,11.9C560.7,344.12,566.11,360.14,562.19,363Z" transform="translate(0 0.01)"/><path class="cls-6" d="M587.33,339.44s2.69,21.37-17.74,23.91L568.33,361S586.08,346.09,587.33,339.44Z" transform="translate(0 0.01)"/><path class="cls-6" d="M581.49,328.67c.15,23-14.41,33.25-14.41,33.25l-.48-.1-4.75-1c.94-7.05,6.66-15.92,11.68-22.57C577.76,332.67,581.49,328.67,581.49,328.67Z" transform="translate(0 0.01)"/><path class="cls-4" d="M573.53,338.27c-.61,8.68-2.2,18.23-6,22.69a7.4,7.4,0,0,1-.88.89l-4.75-1C562.79,353.76,568.51,344.89,573.53,338.27Z" transform="translate(0 0.01)"/><path class="cls-6" d="M566.53,360.93a7.42,7.42,0,0,1-2.72,2.08h0a5.13,5.13,0,0,1-1,.34c-3,.7-4-1.47-3.87-5.14.28-6.55,4.39-17.9,8.09-26.4,2.66-6.12,5.11-10.75,5.76-11.06C572.78,320.75,574.5,351.7,566.53,360.93Z" transform="translate(0 0.01)"/><path class="cls-4" d="M562.19,363a3.37,3.37,0,0,1-1.92-.61c-5.74-3.58-5.86-17-4.49-29.75C560.7,344.12,566.11,360.14,562.19,363Z" transform="translate(0 0.01)"/><path class="cls-4" d="M566.53,360.93c-.66,1.43-1.55,2.19-2.72,2.08h0a3.72,3.72,0,0,1-1.63-.61,8.68,8.68,0,0,1-3.24-4.19c.28-6.55,4.39-17.9,8.09-26.4C568.33,343.6,568.78,356.1,566.53,360.93Z" transform="translate(0 0.01)"/><path class="cls-6" d="M561.27,314.34s-10.15,41.83,0,48.14S563.88,318,561.27,314.34Z" transform="translate(0 0.01)"/><polygon class="cls-20" points="583.71 360.02 534.93 360.02 534.93 368.11 542.38 368.11 542.56 369.06 545.54 384.74 573.89 384.74 576.88 369.06 577.06 368.11 583.71 368.11 583.71 360.02"/><polygon class="cls-4" points="583.71 360.02 534.93 360.02 534.93 368.11 542.38 368.11 542.56 369.06 545.54 384.74 573.89 384.74 576.88 369.06 577.06 368.11 583.71 368.11 583.71 360.02"/><polygon class="cls-20" points="579.59 364.77 578.78 369.06 575.79 384.74 547.44 384.74 544.46 369.06 543.64 364.77 579.59 364.77"/><polygon class="cls-4" points="579.59 364.77 578.78 369.06 544.46 369.06 543.64 364.77 579.59 364.77"/><rect class="cls-20" x="536.83" y="360.03" width="48.77" height="8.08"/><rect class="cls-15" x="107.79" y="761.62" width="43.81" height="11.52"/><rect class="cls-15" x="100.83" y="724.18" width="57.24" height="40.2"/><rect class="cls-4" x="107.79" y="761.62" width="43.81" height="11.52"/><rect class="cls-4" x="100.83" y="724.18" width="57.24" height="40.2"/><rect class="cls-15" x="110.67" y="761.62" width="43.81" height="11.52"/><circle class="cls-4" cx="129.27" cy="711.82" r="1.44"/><circle class="cls-4" cx="144.99" cy="703.42" r="1.44"/><circle class="cls-4" cx="138.87" cy="710.74" r="1.44"/><circle class="cls-4" cx="135.75" cy="703.66" r="1.44"/><rect class="cls-4" x="110.67" y="761.62" width="43.81" height="4.21"/><rect class="cls-15" x="103.71" y="724.18" width="57.24" height="40.2"/><circle class="cls-4" cx="140.79" cy="717.22" r="1.44"/><circle class="cls-4" cx="132.15" cy="719.02" r="1.44"/><path class="cls-21" d="M631.15,396.72c0,4.34-9.33,9.45-20.85,9.45s-20.84-5.11-20.84-9.45,9.33-6.29,20.84-6.29S631.15,392.37,631.15,396.72Z" transform="translate(0 0.01)"/><path class="cls-4" d="M631.15,396.72c0,4.34-9.33,9.45-20.85,9.45s-20.84-5.11-20.84-9.45,9.33-6.29,20.84-6.29S631.15,392.37,631.15,396.72Z" transform="translate(0 0.01)"/><ellipse class="cls-21" cx="610.31" cy="396.73" rx="20.85" ry="7.87"/><ellipse class="cls-4" cx="610.31" cy="396.73" rx="11.79" ry="4.45"/><path class="cls-11" d="M627.38,387.27c-2,5.16-5.11,6.67-7.54,7a8.14,8.14,0,0,1-3.63-.37l1.44-3.08a4.87,4.87,0,0,0,2.78,0c1.27-.4,2.68-1.45,3.65-4,1.53-3.92-.38-4.49-1.71-4.47a5.56,5.56,0,0,0-.81.08L622.7,380a7.35,7.35,0,0,1,1.14-.2C626,379.59,630.21,380,627.38,387.27Z" transform="translate(0 0.01)"/><path class="cls-22" d="M618.17,398c-8.12,4.23-16.09,0-16.09,0l.12-1.17.08-.88,15.69-.3.12,1.4Z" transform="translate(0 0.01)"/><path class="cls-4" d="M620.43,390.78a24,24,0,0,1-.59,3.47,8.14,8.14,0,0,1-3.63-.37l1.44-3.08A4.87,4.87,0,0,0,620.43,390.78Z" transform="translate(0 0.01)"/><path class="cls-4" d="M623.84,379.8a3.24,3.24,0,0,1-.44.87l-.12.17c-.33.49-.63,1-.91,1.51a5.56,5.56,0,0,0-.81.08L622.7,380A7.35,7.35,0,0,1,623.84,379.8Z" transform="translate(0 0.01)"/><path class="cls-4" d="M618.09,397.09c-2.78,1.49-13.21,1.92-15.89-.22l.08-.88,15.69-.3Z" transform="translate(0 0.01)"/><path class="cls-11" d="M623.1,380.67l-.12.17a15.5,15.5,0,0,0-2.64,7.64c-.49,6.75-1.49,7.42-1.6,7.71-.81,2.05-14.81,2.85-16.91,0-1.74-2.36-3.43-7.47-2.65-10.34.42-1.55-.46-3.25-1.36-4.5a3.47,3.47,0,0,1,.78-4.85l.15-.1c4-2.55,11-2.69,11-2.69,6-.46,9.84.7,12.18,2l.3.18a3.45,3.45,0,0,1,.87,4.8h0Z" transform="translate(0 0.01)"/><ellipse class="cls-4" cx="610.09" cy="380.03" rx="10.63" ry="2.51"/><ellipse class="cls-23" cx="610.09" cy="380.33" rx="10.63" ry="2.51"/><path class="cls-7" d="M612.33,378.74s-7.64.25-7.42,3A19.25,19.25,0,0,1,612.33,378.74Z" transform="translate(0 0.01)"/><path class="cls-7" d="M614.48,379.44s-4.55,0-3.83,2.27c0,0,1.06-.17.91-.75s2.92-1.2,2.92-1.2Z" transform="translate(0 0.01)"/><path class="cls-24" d="M598.26,378.74s-.3,4.68,11.62,4.42,11.86-3.36,12-4.42h-.65s-.15,3.82-11.14,3.72-11.29-3.72-11.29-3.72Z" transform="translate(0 0.01)"/><path class="cls-4" d="M623.61,378l-7.19,3.84a.68.68,0,0,1-.85-.18l-.12-.15a.89.89,0,0,1,.14-1.25l.07-.05,6.58-4.17A3.38,3.38,0,0,1,623.61,378Z" transform="translate(0 0.01)"/><path class="cls-21" d="M615.66,380l18.67-11.83a2.8,2.8,0,0,1,1.4-.45c.94,0,2.27.15,1.85,1.66a2.83,2.83,0,0,1-1.41,1.71l-19.72,10.54a.69.69,0,0,1-.85-.17l-.12-.15a.9.9,0,0,1,.12-1.27Z" transform="translate(0 0.01)"/><path class="cls-4" d="M615.66,380l18.67-11.83a2.8,2.8,0,0,1,1.4-.45c.94,0,2.27.15,1.85,1.66a2.83,2.83,0,0,1-1.41,1.71l-19.72,10.54a.69.69,0,0,1-.85-.17l-.12-.15a.9.9,0,0,1,.12-1.27Z" transform="translate(0 0.01)"/><path class="cls-21" d="M615.66,379.81,634.33,368a2.8,2.8,0,0,1,1.4-.45c.94,0,2.27.15,1.85,1.66a2.83,2.83,0,0,1-1.41,1.71l-19.72,10.54a.69.69,0,0,1-.85-.17l-.12-.15a.9.9,0,0,1,.12-1.27Z" transform="translate(0 0.01)"/><path class="cls-4" d="M614.63,380.15s2-.43,1.73.1.86,1.19.86,1.19-2.06.49-2.37.19S614.63,380.15,614.63,380.15Z" transform="translate(0 0.01)"/><path class="cls-23" d="M614.48,380.27s2-.42,1.73.1.86,1.2.86,1.2-2.06.49-2.37.19S614.48,380.27,614.48,380.27Z" transform="translate(0 0.01)"/><path class="cls-25" d="M611.33,359.51a7.41,7.41,0,0,0-1.78,3.32,10.86,10.86,0,0,0,.11,3.46,20.08,20.08,0,0,0,.4,2.32c.11.44.4.92.61.62,0-1.08-.23-2.14-.18-3.22a7.46,7.46,0,0,1,1-3.18,16,16,0,0,0,1.36-2.79c.15-.47.73-4.71-.07-4-.16.15-.35,1.54-.5,1.89A7.21,7.21,0,0,1,611.33,359.51Z" transform="translate(0 0.01)"/><path class="cls-25" d="M611.67,366.49c.06.4.39.69.54,1.06a2.61,2.61,0,0,1,.13.73,5.37,5.37,0,0,1-.53,3.52,2.46,2.46,0,0,0,1.34-1.81,6.3,6.3,0,0,0,.18-1.22,11.41,11.41,0,0,0,0-1.17c0-.59.18-2.12-.55-2.41S611.67,365.93,611.67,366.49Z" transform="translate(0 0.01)"/><path class="cls-4" d="M599.33,385a4.5,4.5,0,0,0,3.43,1.54s-2.42.36-3.61-.42Z" transform="translate(0 0.01)"/><polygon class="cls-18" points="391.65 341.08 391.65 389.29 341.7 390.73 341.7 342.52 391.65 341.08"/><polygon class="cls-4" points="391.39 383.25 391.65 390.73 341.7 390.73 341.61 386.13 391.39 383.25"/><path class="cls-18" d="M406.91,391.64l-77.7,2.88h0a7.61,7.61,0,0,1,7.61-7.61L399.33,384a7.61,7.61,0,0,1,7.61,7.61Z" transform="translate(0 0.01)"/><path class="cls-18" d="M505.13,340.27l-275.41,8.64a4.82,4.82,0,0,1-4.83-4.81h0V178.61a4.82,4.82,0,0,1,4.82-4.82h0l275.41-8.64A4.82,4.82,0,0,1,510,170h0V335.4a4.82,4.82,0,0,1-4.77,4.87Z" transform="translate(0 0.01)"/><polygon class="cls-6" points="503.36 328.63 230.9 337.26 230.9 194.25 503.36 185.59 503.36 328.63"/><ellipse class="cls-5" cx="366.65" cy="180.13" rx="2.4" ry="2.37"/><polygon class="cls-4" points="391.6 348.49 341.81 349.93 341.81 348.99 391.6 347.55 391.6 348.49"/><polygon class="cls-26" points="503.53 190.28 230.88 198.91 230.88 193.97 503.53 185.34 503.53 190.28"/><polygon class="cls-18" points="80.72 386.75 83.37 391.54 169.6 373.25 166.19 367.83 80.72 386.75"/><path class="cls-18" d="M70.38,391.4l-13-77.46a2.48,2.48,0,0,1,2-2.85l.15,0,99-10.56a2.47,2.47,0,0,1,2.71,2.13l9.26,67.84Z" transform="translate(0 0.01)"/><path class="cls-4" d="M70.38,391.4l-13-77.46a2.48,2.48,0,0,1,2-2.85l.15,0,99-10.56a2.47,2.47,0,0,1,2.71,2.13l9.26,67.84Z" transform="translate(0 0.01)"/><path class="cls-18" d="M71.9,391.4,58.84,313.94a2.48,2.48,0,0,1,2-2.85l.14,0,99-10.56a2.47,2.47,0,0,1,2.71,2.13L172,370.48Z" transform="translate(0 0.01)"/><polygon class="cls-6" points="65.72 317.4 76.44 383.21 165.94 364.81 157.62 306.31 65.72 317.4"/><path class="cls-27" d="M82.86,390l-.63-1.26L70.38,391.4l30.19,46.12a3.89,3.89,0,0,0,4.35,1.61l106-30.81a3.91,3.91,0,0,0,2.67-4.83,4,4,0,0,0-1.4-2l-41.08-31.11-8.57,2,.37.88Z" transform="translate(0 0.01)"/><path class="cls-4" d="M82.86,390l-.63-1.26L70.38,391.4l30.19,46.12a3.89,3.89,0,0,0,4.35,1.61l106-30.81a3.91,3.91,0,0,0,2.67-4.83,4,4,0,0,0-1.4-2l-41.08-31.11-8.57,2,.37.88Z" transform="translate(0 0.01)"/><path class="cls-27" d="M84.38,390l-.63-1.26L71.9,391.4l30.18,46.12a3.9,3.9,0,0,0,4.36,1.61l106-30.81a3.91,3.91,0,0,0,2.67-4.83,4,4,0,0,0-1.4-2l-41.08-31.11-8.57,2,.38.88Z" transform="translate(0 0.01)"/><path class="cls-4" d="M131.66,408.91l34.06-8.85a.68.68,0,0,1,.61.15l15.13,13.73a.65.65,0,0,1,0,.93.6.6,0,0,1-.3.19l-36,10.64a.67.67,0,0,1-.69-.21L131.33,410a.66.66,0,0,1,.09-.94A.7.7,0,0,1,131.66,408.91Z" transform="translate(0 0.01)"/><path class="cls-19" d="M132.41,408.16l34.07-8.89a.64.64,0,0,1,.61.15l15.13,13.72a.65.65,0,0,1,0,.93.6.6,0,0,1-.3.19L146,424.9a.67.67,0,0,1-.69-.21l-13.19-15.42a.65.65,0,0,1,0-.92A.61.61,0,0,1,132.41,408.16Z" transform="translate(0 0.01)"/><g class="cls-8"><path d="M84.44,396.45,86,398.92a.31.31,0,0,0,.31.13l5.16-1.15a.3.3,0,0,0,.22-.36.18.18,0,0,0,0-.1l-1.71-2.38a.3.3,0,0,0-.3-.12l-5,1.07a.29.29,0,0,0-.21.35A.36.36,0,0,0,84.44,396.45Z" transform="translate(0 0.01)"/><path d="M91.18,395l1.53,2.47a.3.3,0,0,0,.32.13l5.16-1.15a.29.29,0,0,0,.21-.37.36.36,0,0,0,0-.09l-1.71-2.38a.29.29,0,0,0-.3-.12l-5,1.07a.3.3,0,0,0-.2.37Z" transform="translate(0 0.01)"/><path d="M97.74,393.62l1.53,2.46a.3.3,0,0,0,.31.13l5.16-1.15a.3.3,0,0,0,.22-.36.18.18,0,0,0,0-.1l-1.71-2.33a.32.32,0,0,0-.3-.12l-5,1.07a.31.31,0,0,0-.18.39Z" transform="translate(0 0.01)"/><path d="M104.18,392.27l1.51,2.43a.31.31,0,0,0,.33.14l5.12-1.14a.32.32,0,0,0,.24-.39.47.47,0,0,0,0-.1l-1.68-2.35a.33.33,0,0,0-.33-.12l-4.94,1.06a.32.32,0,0,0-.23.39S104.17,392.24,104.18,392.27Z" transform="translate(0 0.01)"/><path d="M103.66,396l1.53,2.46a.3.3,0,0,0,.32.13l5.16-1.15a.3.3,0,0,0,.22-.35.31.31,0,0,0,0-.1l-1.71-2.39a.28.28,0,0,0-.3-.11l-5,1.07a.3.3,0,0,0-.2.37Z" transform="translate(0 0.01)"/><path d="M97,397.4l1.53,2.46a.28.28,0,0,0,.31.13l5.17-1.15a.29.29,0,0,0,.21-.37.36.36,0,0,0,0-.09L102.45,396a.29.29,0,0,0-.3-.11l-5,1.07a.29.29,0,0,0-.21.35A.36.36,0,0,0,97,397.4Z" transform="translate(0 0.01)"/><path d="M101.33,400.42l1.53,2.47a.31.31,0,0,0,.31.13l5.16-1.15a.29.29,0,0,0,.21-.37.36.36,0,0,0,0-.09L106.79,399a.29.29,0,0,0-.3-.12l-5,1.07a.3.3,0,0,0-.2.36A.2.2,0,0,0,101.33,400.42Z" transform="translate(0 0.01)"/><path d="M107.48,403.07l1.53,2.46a.3.3,0,0,0,.31.14l5.16-1.15a.3.3,0,0,0,.22-.36.18.18,0,0,0,0-.1L113,401.68a.27.27,0,0,0-.3-.12l-5,1.07a.29.29,0,0,0-.21.35A.36.36,0,0,0,107.48,403.07Z" transform="translate(0 0.01)"/><path d="M108.54,407.35l2.47,3.1a.3.3,0,0,0,.31.1l5.2-1.35a.29.29,0,0,0,.21-.35.23.23,0,0,0-.06-.12l-2.55-3.12a.29.29,0,0,0-.3-.1l-5.12,1.38a.28.28,0,0,0-.21.35A.22.22,0,0,0,108.54,407.35Z" transform="translate(0 0.01)"/><path d="M115.33,405.65l2.53,3.19a.31.31,0,0,0,.31.1l6.79-1.88a.29.29,0,0,0,.2-.36.24.24,0,0,0-.06-.11l-2.55-3.13a.3.3,0,0,0-.31-.1l-6.76,1.82a.3.3,0,0,0-.2.37A.31.31,0,0,0,115.33,405.65Z" transform="translate(0 0.01)"/><path d="M101.89,409l2.47,3.1a.31.31,0,0,0,.31.1l5.2-1.35a.29.29,0,0,0,.21-.35.23.23,0,0,0-.06-.12l-2.55-3.1a.28.28,0,0,0-.3-.09l-5.12,1.38a.29.29,0,0,0-.19.36Z" transform="translate(0 0.01)"/><path d="M94.87,410.82l2.47,3.09a.29.29,0,0,0,.3.1l5.2-1.35a.3.3,0,0,0,.21-.37.31.31,0,0,0,0-.1l-2.56-3.12a.29.29,0,0,0-.3-.1L95,410.35a.29.29,0,0,0-.21.35A.23.23,0,0,0,94.87,410.82Z" transform="translate(0 0.01)"/><path d="M110.64,390.71l1.51,2.43a.31.31,0,0,0,.33.14l5.12-1.14a.32.32,0,0,0,.24-.39l0-.1-1.68-2.38a.31.31,0,0,0-.32-.12l-5,1.06a.31.31,0,0,0-.21.38A.23.23,0,0,0,110.64,390.71Z" transform="translate(0 0.01)"/><path d="M110.23,394.49l1.51,2.43a.31.31,0,0,0,.33.14l5.12-1.14a.32.32,0,0,0,.24-.39.47.47,0,0,0-.05-.1l-1.68-2.35a.31.31,0,0,0-.32-.12l-5,1.06a.31.31,0,0,0-.19.4A.25.25,0,0,0,110.23,394.49Z" transform="translate(0 0.01)"/><path d="M116.91,389.27l1.51,2.43a.32.32,0,0,0,.34.14l5.12-1.14a.33.33,0,0,0,.23-.39.31.31,0,0,0,0-.1l-1.68-2.35a.31.31,0,0,0-.32-.12l-5,1.06a.3.3,0,0,0-.24.37A.42.42,0,0,0,116.91,389.27Z" transform="translate(0 0.01)"/><path d="M135.25,385.27l2.13,2.26a.26.26,0,0,0,.24.07l4.57-1.06a.25.25,0,0,0,.2-.29.25.25,0,0,0-.08-.14l-2.4-2.26a.24.24,0,0,0-.23-.06l-4.3,1.06a.26.26,0,0,0-.18.32A.19.19,0,0,0,135.25,385.27Z" transform="translate(0 0.01)"/><path d="M141.12,383.93l2.12,2.26a.24.24,0,0,0,.24.07l4.57-1.05a.25.25,0,0,0,.2-.29.25.25,0,0,0-.08-.14l-2.4-2.27a.27.27,0,0,0-.23-.06l-4.3,1.06a.26.26,0,0,0-.19.3A.24.24,0,0,0,141.12,383.93Z" transform="translate(0 0.01)"/><path d="M135.38,388.94l2.13,2.26a.24.24,0,0,0,.24.08l4.58-1a.26.26,0,0,0,.19-.3.22.22,0,0,0-.08-.13l-2.39-2.26a.26.26,0,0,0-.24-.07l-4.3,1.07a.25.25,0,0,0-.15.32S135.37,388.93,135.38,388.94Z" transform="translate(0 0.01)"/><path d="M129.33,390.34l2,2.16a.31.31,0,0,0,.3.09l4.42-1a.32.32,0,0,0,.24-.39.46.46,0,0,0-.09-.15l-2.29-2.16a.31.31,0,0,0-.29-.07l-4.17,1a.32.32,0,0,0-.19.41A.41.41,0,0,0,129.33,390.34Z" transform="translate(0 0.01)"/><path d="M133.94,397.15l2,2.16a.33.33,0,0,0,.3.09l4.42-1a.3.3,0,0,0,.24-.37.26.26,0,0,0-.09-.16l-2.29-2.16a.34.34,0,0,0-.29-.08l-4.17,1a.32.32,0,0,0-.19.41A.41.41,0,0,0,133.94,397.15Z" transform="translate(0 0.01)"/><path d="M127.67,398.57l2,2.16a.33.33,0,0,0,.3.09l4.42-1a.3.3,0,0,0,.24-.37.26.26,0,0,0-.09-.16l-2.21-2.19A.34.34,0,0,0,132,397l-4.17,1a.31.31,0,0,0-.31.31A.32.32,0,0,0,127.67,398.57Z" transform="translate(0 0.01)"/><path d="M121.33,400.14l2,2.16a.31.31,0,0,0,.3.09l4.43-1a.33.33,0,0,0,.23-.39.38.38,0,0,0-.09-.15l-2.29-2.16a.31.31,0,0,0-.29-.07l-4.17,1a.31.31,0,0,0-.2.39A.26.26,0,0,0,121.33,400.14Z" transform="translate(0 0.01)"/><path d="M114.57,401.48l2.06,2.19a.32.32,0,0,0,.28.08l4.47-1a.28.28,0,0,0,.22-.35.24.24,0,0,0-.09-.15l-2.32-2.19a.29.29,0,0,0-.27-.07l-4.21,1a.29.29,0,0,0-.22.35A.29.29,0,0,0,114.57,401.48Z" transform="translate(0 0.01)"/><path d="M127.6,394.63l2,2.16a.31.31,0,0,0,.29.09l4.43-1a.31.31,0,0,0,.23-.37.26.26,0,0,0-.09-.16l-2.28-2.16a.34.34,0,0,0-.29-.08l-4.17,1a.32.32,0,0,0-.19.41A.41.41,0,0,0,127.6,394.63Z" transform="translate(0 0.01)"/><path d="M121.49,396.05l2,2.15a.31.31,0,0,0,.3.1l4.42-1a.3.3,0,0,0,.24-.37.26.26,0,0,0-.09-.16l-2.29-2.16a.29.29,0,0,0-.29-.08l-4.17,1a.32.32,0,0,0-.19.41A.41.41,0,0,0,121.49,396.05Z" transform="translate(0 0.01)"/><path d="M114.94,397.43l2,2.16a.28.28,0,0,0,.29.09l4.43-1a.33.33,0,0,0,.23-.39.38.38,0,0,0-.09-.15L119.52,396a.31.31,0,0,0-.29-.07l-4.17,1a.3.3,0,0,0-.22.36A.29.29,0,0,0,114.94,397.43Z" transform="translate(0 0.01)"/><path d="M108.23,399l2.06,2.19a.32.32,0,0,0,.28.08l4.47-1a.29.29,0,0,0,.23-.34.26.26,0,0,0-.09-.16l-2.32-2.19a.32.32,0,0,0-.28-.07l-4.21,1a.31.31,0,0,0-.21.37A.35.35,0,0,0,108.23,399Z" transform="translate(0 0.01)"/><path d="M133.91,393.15l2,2.16a.33.33,0,0,0,.3.09l4.42-1a.3.3,0,0,0,.24-.37.26.26,0,0,0-.09-.16l-2.29-2.16a.34.34,0,0,0-.29-.08l-4.17,1a.31.31,0,0,0-.2.39A.26.26,0,0,0,133.91,393.15Z" transform="translate(0 0.01)"/><path d="M123.22,391.92l2,2.16a.33.33,0,0,0,.3.09l4.43-1a.31.31,0,0,0,.23-.37.26.26,0,0,0-.09-.16l-2.29-2.16a.29.29,0,0,0-.29-.08l-4.16,1a.31.31,0,0,0-.21.38A.25.25,0,0,0,123.22,391.92Z" transform="translate(0 0.01)"/><path d="M146.78,382.5l2.22,2.36a.2.2,0,0,0,.18.06l4.73-1.1a.19.19,0,0,0,.13-.23.19.19,0,0,0,0-.09l-2.51-2.36a.16.16,0,0,0-.17-.05l-4.44,1.1a.19.19,0,0,0-.15.21A.21.21,0,0,0,146.78,382.5Z" transform="translate(0 0.01)"/><path d="M152.48,381.27l2.23,2.36a.19.19,0,0,0,.18.06l4.72-1.1a.19.19,0,0,0,.14-.23.2.2,0,0,0-.05-.09l-2.51-2.37a.17.17,0,0,0-.17,0l-4.45,1.1a.19.19,0,0,0-.11.23Z" transform="translate(0 0.01)"/><path d="M158.33,379.89l2,2.19a.17.17,0,0,0,.18.06l4.41-1.2a.2.2,0,0,0,.12-.26l0-.07-2.28-1.91a.15.15,0,0,0-.16,0l-4.16.92a.19.19,0,0,0-.07.26Z" transform="translate(0 0.01)"/><path d="M164.49,381.93l2,2.2a.2.2,0,0,0,.19.06l4.4-1.2a.19.19,0,0,0,.13-.23.17.17,0,0,0-.06-.1l-2.27-1.91a.15.15,0,0,0-.16,0l-4.16.92a.17.17,0,0,0-.08.24Z" transform="translate(0 0.01)"/><path d="M163.75,385.93l1.93,2.08a.23.23,0,0,0,.25.07l4.24-1.15a.26.26,0,0,0,.17-.32.24.24,0,0,0-.07-.12l-2.16-1.81a.2.2,0,0,0-.21-.06l-4,.89a.26.26,0,0,0-.22.28A.27.27,0,0,0,163.75,385.93Z" transform="translate(0 0.01)"/><path d="M158.74,391l1.93,2.09a.23.23,0,0,0,.25.07l4.24-1.16a.26.26,0,0,0,.18-.31.32.32,0,0,0-.08-.12l-2.16-1.82a.23.23,0,0,0-.21-.05l-4,.88a.26.26,0,0,0-.22.28A.27.27,0,0,0,158.74,391Z" transform="translate(0 0.01)"/><path d="M152.72,392.58l1.93,2.08a.23.23,0,0,0,.25.07l4.24-1.15a.26.26,0,0,0,.17-.32.24.24,0,0,0-.07-.12l-2.16-1.81a.2.2,0,0,0-.21-.06l-4,.89a.26.26,0,0,0-.22.28A.27.27,0,0,0,152.72,392.58Z" transform="translate(0 0.01)"/><path d="M164.41,389.52l1.93,2.09a.29.29,0,0,0,.25.07l4.24-1.16a.25.25,0,0,0,.19-.3.31.31,0,0,0-.09-.14l-2.15-1.81a.29.29,0,0,0-.22-.06l-4,.89a.26.26,0,0,0-.2.31A.16.16,0,0,0,164.41,389.52Z" transform="translate(0 0.01)"/><path d="M163.43,394l2.91,2.62a.3.3,0,0,0,.24.05l4.21-1.19a.26.26,0,0,0,.18-.31.32.32,0,0,0-.08-.12l-3.14-2.75a.25.25,0,0,0-.25-.05l-4,1.33a.23.23,0,0,0-.15.3A.2.2,0,0,0,163.43,394Z" transform="translate(0 0.01)"/><path d="M153.24,384.77l2,2.2a.19.19,0,0,0,.19,0l4.4-1.2a.18.18,0,0,0,.14-.21.21.21,0,0,0-.07-.11l-2.27-1.92a.22.22,0,0,0-.16,0l-4.16.92a.18.18,0,0,0-.09.24Z" transform="translate(0 0.01)"/><path d="M147.55,386.18l1.93,2.08a.26.26,0,0,0,.25.08l4.24-1.16a.26.26,0,0,0,.17-.32.24.24,0,0,0-.07-.12l-2.15-1.81a.29.29,0,0,0-.22-.06l-4,.89a.26.26,0,0,0-.2.31A.16.16,0,0,0,147.55,386.18Z" transform="translate(0 0.01)"/><path d="M146.38,390.21l2,2.06a.23.23,0,0,0,.25.07l4.25-1.16a.25.25,0,0,0,.09-.43l-2.15-1.82a.25.25,0,0,0-.22-.05l-4,.88a.26.26,0,0,0-.17.45Z" transform="translate(0 0.01)"/><path d="M140.39,391.66l1.93,2.09a.26.26,0,0,0,.26.07l4.24-1.16a.25.25,0,0,0,.09-.43l-2.15-1.82a.25.25,0,0,0-.22-.05l-4,.88a.26.26,0,0,0-.2.31A.16.16,0,0,0,140.39,391.66Z" transform="translate(0 0.01)"/><path d="M141.47,387.53l1.93,2.09a.23.23,0,0,0,.25.07l4.24-1.16a.26.26,0,0,0,.18-.31.32.32,0,0,0-.08-.12l-2.16-1.83a.23.23,0,0,0-.21,0l-4,.89a.24.24,0,0,0-.23.25A.23.23,0,0,0,141.47,387.53Z" transform="translate(0 0.01)"/><path d="M146.48,393.93l1.93,2.09a.23.23,0,0,0,.25.07l4.24-1.16a.26.26,0,0,0,.18-.31.32.32,0,0,0-.08-.12l-2.16-1.82a.23.23,0,0,0-.21-.05l-4,.88a.26.26,0,0,0-.22.28A.27.27,0,0,0,146.48,393.93Z" transform="translate(0 0.01)"/><path d="M140.59,395.52l1.84,2a.29.29,0,0,0,.31.09l4.09-1.11a.32.32,0,0,0,.22-.4.31.31,0,0,0-.1-.15l-2-1.72a.33.33,0,0,0-.27-.06l-3.88.85a.32.32,0,0,0-.26.37A.21.21,0,0,0,140.59,395.52Z" transform="translate(0 0.01)"/><path d="M159,383.32l2,2.2a.19.19,0,0,0,.19.05l4.4-1.2a.18.18,0,0,0,.14-.21.21.21,0,0,0-.07-.11l-2.27-1.92a.22.22,0,0,0-.16,0l-4.17.92a.19.19,0,0,0-.07.26Z" transform="translate(0 0.01)"/><path d="M158.23,387.27l1.93,2.09a.25.25,0,0,0,.25.07l4.25-1.16a.25.25,0,0,0,.09-.43L162.6,386a.25.25,0,0,0-.22,0l-4,.88a.26.26,0,0,0-.2.31A.16.16,0,0,0,158.23,387.27Z" transform="translate(0 0.01)"/><path d="M152.47,388.86l1.92,2.08a.29.29,0,0,0,.26.08l4.24-1.16a.26.26,0,0,0,.17-.32.24.24,0,0,0-.07-.12l-2.16-1.81a.29.29,0,0,0-.22-.06l-4,.89a.25.25,0,0,0-.21.29A.24.24,0,0,0,152.47,388.86Z" transform="translate(0 0.01)"/><path d="M129.27,386.58l2.12,2.26a.26.26,0,0,0,.24.07l4.57-1.06a.25.25,0,0,0,.2-.29.25.25,0,0,0-.08-.14l-2.4-2.26a.24.24,0,0,0-.23-.06l-4.3,1.06a.26.26,0,0,0-.19.3A.24.24,0,0,0,129.27,386.58Z" transform="translate(0 0.01)"/><path d="M123.16,388.07l2,2.16a.31.31,0,0,0,.3.09l4.42-1a.32.32,0,0,0,.24-.39.46.46,0,0,0-.09-.15l-2.29-2.16a.31.31,0,0,0-.29-.07l-4.17,1a.31.31,0,0,0-.2.39A.26.26,0,0,0,123.16,388.07Z" transform="translate(0 0.01)"/><path d="M116.63,393.14l1.51,2.42a.31.31,0,0,0,.33.14l5.12-1.14a.3.3,0,0,0,.19-.49l-1.69-2.34a.33.33,0,0,0-.32-.13l-4.94,1.06a.32.32,0,0,0-.24.38A.3.3,0,0,0,116.63,393.14Z" transform="translate(0 0.01)"/><path d="M83.12,394l5-1.17a.31.31,0,0,1,.3.11l.89,1.17a.3.3,0,0,1,0,.41l-.12.05L84,395.83a.29.29,0,0,1-.32-.14l-.71-1.22a.3.3,0,0,1,.1-.4Z" transform="translate(0 0.01)"/><path d="M90.07,392.53l5-1.17a.28.28,0,0,1,.3.11l.89,1.16a.3.3,0,0,1-.06.42l-.11.05-5.23,1.22a.3.3,0,0,1-.32-.14L89.83,393a.28.28,0,0,1,.11-.39A.22.22,0,0,1,90.07,392.53Z" transform="translate(0 0.01)"/><path d="M96.78,391.08l5-1.16a.29.29,0,0,1,.3.1l.89,1.17a.3.3,0,0,1,0,.41l-.12,0-5.23,1.22a.28.28,0,0,1-.32-.13l-.71-1.22a.31.31,0,0,1,.11-.41Z" transform="translate(0 0.01)"/><path d="M103.33,389.6l5.06-1.17a.28.28,0,0,1,.3.11l.88,1.16a.3.3,0,0,1-.06.42l-.1.05-5.24,1.21a.3.3,0,0,1-.32-.13l-.71-1.22a.3.3,0,0,1,.13-.41Z" transform="translate(0 0.01)"/><path d="M110,388.12l5-1.16a.33.33,0,0,1,.32.12l.86,1.13a.33.33,0,0,1-.07.45l-.11,0-5.19,1.21a.32.32,0,0,1-.34-.15l-.69-1.18a.33.33,0,0,1,.12-.44Z" transform="translate(0 0.01)"/><path d="M116.42,386.78l5-1.16a.31.31,0,0,1,.32.11l.86,1.14a.3.3,0,0,1-.06.43l-.12.06-5.19,1.21a.32.32,0,0,1-.34-.15l-.69-1.18a.32.32,0,0,1,.14-.43Z" transform="translate(0 0.01)"/><path d="M122.74,385.46l4.63-1.12a.31.31,0,0,1,.3.09l.9.94a.31.31,0,0,1,0,.45.24.24,0,0,1-.12.07L123.84,387a.3.3,0,0,1-.3-.08l-1-1a.33.33,0,0,1,.07-.45Z" transform="translate(0 0.01)"/><path d="M128.87,384.05l4.77-1.16a.25.25,0,0,1,.25.07l1,1.05a.24.24,0,0,1-.12.41l-4.71,1.19a.26.26,0,0,1-.24-.07l-1.06-1.07a.24.24,0,0,1,0-.35A.19.19,0,0,1,128.87,384.05Z" transform="translate(0 0.01)"/><path d="M135,382.61l4.77-1.16a.22.22,0,0,1,.24.07l1,1a.24.24,0,0,1,0,.35.19.19,0,0,1-.12.07l-4.71,1.19a.26.26,0,0,1-.24-.07l-1-1.07a.25.25,0,0,1,0-.35Z" transform="translate(0 0.01)"/><path d="M141.12,381.35l4.77-1.16a.26.26,0,0,1,.24.07l1,1.05a.27.27,0,0,1,0,.37l-.1.05-4.67,1.18a.26.26,0,0,1-.24-.06L141,381.78a.27.27,0,0,1,0-.37Z" transform="translate(0 0.01)"/><path d="M146.92,380l4.91-1.19a.17.17,0,0,1,.18.05l1.1,1.15a.18.18,0,0,1,0,.25.21.21,0,0,1-.1.06l-4.85,1.22a.17.17,0,0,1-.18-.05l-1.16-1.18a.2.2,0,0,1,0-.27Z" transform="translate(0 0.01)"/><path d="M152.78,378.71l4.92-1.2a.18.18,0,0,1,.17.06l1.1,1.15a.18.18,0,0,1,0,.25.21.21,0,0,1-.1.06L154,380.27a.17.17,0,0,1-.18,0L152.69,379a.19.19,0,0,1,0-.27A.24.24,0,0,1,152.78,378.71Z" transform="translate(0 0.01)"/><path d="M158.62,377.37l4.55-1a.2.2,0,0,1,.19.07l.88,1.08a.18.18,0,0,1,0,.25l-.08,0-4.27,1.13a.17.17,0,0,1-.18-.05l-1.16-1.17a.19.19,0,0,1-.06-.26A.19.19,0,0,1,158.62,377.37Z" transform="translate(0 0.01)"/><path d="M164.2,376.09l4.55-1a.18.18,0,0,1,.19.06l.87,1.08a.19.19,0,0,1,0,.27l-.06,0-4.27,1.13a.25.25,0,0,1-.19-.05l-1.15-1.18a.2.2,0,0,1,0-.27A.21.21,0,0,1,164.2,376.09Z" transform="translate(0 0.01)"/><path d="M86.66,400.06l1.68,2.39a.27.27,0,0,0,.3.12l8.75-2.05a.28.28,0,0,0,.22-.34.22.22,0,0,0,0-.12l-1.86-2.45a.29.29,0,0,0-.3-.1l-8.57,2.09a.29.29,0,0,0-.21.37A.36.36,0,0,0,86.66,400.06Z" transform="translate(0 0.01)"/><path d="M89.33,403.27,91,405.93a.3.3,0,0,0,.32.13l10.57-2.51a.28.28,0,0,0,.22-.35.34.34,0,0,0-.06-.12L100,400.49a.29.29,0,0,0-.3-.1l-10.15,2.44a.3.3,0,0,0-.22.35A.36.36,0,0,0,89.33,403.27Z" transform="translate(0 0.01)"/><path d="M91.7,406.79l2,2.89a.29.29,0,0,0,.31.12l14-3.46a.3.3,0,0,0,.21-.37.31.31,0,0,0,0-.1L105.92,403a.31.31,0,0,0-.3-.11l-13.84,3.47a.28.28,0,0,0-.12.39Z" transform="translate(0 0.01)"/><path d="M123.75,403.63l2.56,3.09a.3.3,0,0,0,.31.1l30.81-7.69a.31.31,0,0,0,.22-.38.29.29,0,0,0-.08-.14l-3.14-3.13a.36.36,0,0,0-.3-.08l-30.22,7.73a.3.3,0,0,0-.22.38A.34.34,0,0,0,123.75,403.63Z" transform="translate(0 0.01)"/><path d="M155.55,395.66l3,3a.25.25,0,0,0,.25.07l6.31-1.69a.26.26,0,0,0,.18-.31.41.41,0,0,0-.07-.11l-3.13-3.07a.26.26,0,0,0-.24-.06l-6.19,1.78a.27.27,0,0,0-.14.34Z" transform="translate(0 0.01)"/><path d="M170.79,393.76l1.38,1.45a.17.17,0,0,0,.18.05L177,394a.18.18,0,0,0,.14-.22.18.18,0,0,0-.06-.09l-1.66-1.57a.19.19,0,0,0-.18,0l-4.39,1.37a.2.2,0,0,0-.09.25Z" transform="translate(0 0.01)"/><path d="M174.77,390.64l1.64,1.72a.21.21,0,0,0,.2.05l4.29-1.49a.19.19,0,0,0,.13-.22.15.15,0,0,0-.06-.09l-1.64-1.45a.17.17,0,0,0-.17,0l-4.33,1.21a.19.19,0,0,0-.07.26Z" transform="translate(0 0.01)"/><path d="M177.94,393.62l-1.18-1a.19.19,0,0,1-.06-.26.17.17,0,0,1,.06-.06l4.28-1.48a.17.17,0,0,1,.19,0l1.34,1.29a.19.19,0,0,1,0,.27l-.09.05-4.43,1.15A.15.15,0,0,1,177.94,393.62Z" transform="translate(0 0.01)"/><path d="M182.33,391c.37.35,1,1.06,1.26,1.3a.22.22,0,0,0,.19.05l4.45-1.21a.19.19,0,0,0,.13-.23.19.19,0,0,0-.05-.09l-1.58-1.42a.21.21,0,0,0-.19,0l-4.13,1.33a.18.18,0,0,0-.1.23S182.32,391,182.33,391Z" transform="translate(0 0.01)"/><path d="M169.83,388.16l2.38,2.3a.18.18,0,0,0,.18.05l11.48-3a.19.19,0,0,0,.13-.23.19.19,0,0,0-.05-.09l-2.79-2.31a.17.17,0,0,0-.17,0l-11.08,3a.19.19,0,0,0-.11.23Z" transform="translate(0 0.01)"/><path d="M169.05,384.62l2.46,2.19a.17.17,0,0,0,.17,0l8.64-2a.19.19,0,0,0,.13-.23.17.17,0,0,0-.06-.1l-2.83-2.37a.15.15,0,0,0-.16,0l-8.27,2.16a.2.2,0,0,0-.17.21A.19.19,0,0,0,169.05,384.62Z" transform="translate(0 0.01)"/><path d="M169.84,380.85l2.33,2.08a.17.17,0,0,0,.17,0l4.43-1a.19.19,0,0,0,.14-.23.21.21,0,0,0-.06-.1l-2.76-2.33a.17.17,0,0,0-.17,0l-4,1.28a.18.18,0,0,0-.11.24Z" transform="translate(0 0.01)"/><path d="M163.77,378.78l2.25,2.05a.25.25,0,0,0,.17,0l7-1.67a.18.18,0,0,0,.14-.21.21.21,0,0,0-.07-.11l-2.68-2.25a.25.25,0,0,0-.17,0l-6.61,1.87a.19.19,0,0,0-.08.26Z" transform="translate(0 0.01)"/></g><path class="cls-18" d="M84.44,395.7,86,398.16a.3.3,0,0,0,.31.13l5.16-1.15a.3.3,0,0,0,.22-.36.18.18,0,0,0,0-.1l-1.71-2.41a.32.32,0,0,0-.3-.12l-5,1.07a.31.31,0,0,0-.23.36A.34.34,0,0,0,84.44,395.7Z" transform="translate(0 0.01)"/><path class="cls-18" d="M91.18,394.27l1.53,2.46a.3.3,0,0,0,.32.13l5.16-1.15a.31.31,0,0,0,.17-.39l0-.05-1.71-2.38a.29.29,0,0,0-.3-.11l-5,1.07a.3.3,0,0,0-.15.4Z" transform="translate(0 0.01)"/><path class="cls-18" d="M97.74,392.86l1.53,2.46a.28.28,0,0,0,.31.13l5.16-1.15A.29.29,0,0,0,105,394a.37.37,0,0,0,0-.11l-1.71-2.39a.29.29,0,0,0-.3-.11l-5,1.07a.29.29,0,0,0-.21.35A.36.36,0,0,0,97.74,392.86Z" transform="translate(0 0.01)"/><path class="cls-18" d="M104.18,391.47l1.51,2.42a.31.31,0,0,0,.33.14l5.12-1.14a.3.3,0,0,0,.19-.49l-1.68-2.34a.35.35,0,0,0-.33-.13L104.38,391a.32.32,0,0,0-.24.38A.3.3,0,0,0,104.18,391.47Z" transform="translate(0 0.01)"/><path class="cls-18" d="M103.66,395.27l1.53,2.47a.33.33,0,0,0,.32.13l5.16-1.15a.29.29,0,0,0,.21-.37.36.36,0,0,0,0-.09l-1.71-2.38a.29.29,0,0,0-.3-.12l-5,1.07a.3.3,0,0,0-.2.37Z" transform="translate(0 0.01)"/><path class="cls-18" d="M97,396.64l1.53,2.46a.3.3,0,0,0,.31.14l5.17-1.15a.29.29,0,0,0,.21-.37.36.36,0,0,0,0-.09l-1.71-2.36a.29.29,0,0,0-.3-.12l-5,1.07a.3.3,0,0,0-.2.36Z" transform="translate(0 0.01)"/><path class="cls-18" d="M101.33,399.67l1.53,2.46a.28.28,0,0,0,.31.13l5.17-1.15a.29.29,0,0,0,.21-.37.36.36,0,0,0,0-.09l-1.71-2.38a.29.29,0,0,0-.3-.11l-5,1.07a.29.29,0,0,0-.21.35A.36.36,0,0,0,101.33,399.67Z" transform="translate(0 0.01)"/><path class="cls-18" d="M107.48,402.27l1.53,2.47a.3.3,0,0,0,.31.13l5.16-1.15a.3.3,0,0,0,.22-.36.18.18,0,0,0,0-.1L113,400.88a.3.3,0,0,0-.3-.12l-5,1.07a.29.29,0,0,0-.21.35A.36.36,0,0,0,107.48,402.27Z" transform="translate(0 0.01)"/><path class="cls-18" d="M108.54,406.6l2.47,3.09a.3.3,0,0,0,.31.1l5.2-1.35a.29.29,0,0,0,.21-.35.23.23,0,0,0-.06-.12l-2.55-3.12a.29.29,0,0,0-.3-.1l-5.12,1.38a.3.3,0,0,0-.21.37A.31.31,0,0,0,108.54,406.6Z" transform="translate(0 0.01)"/><path class="cls-18" d="M115.33,404.89l2.53,3.19a.31.31,0,0,0,.31.1L125,406.3a.29.29,0,0,0,.2-.36.24.24,0,0,0-.06-.11l-2.55-3.12a.3.3,0,0,0-.31-.1l-6.76,1.82a.29.29,0,0,0-.2.36Z" transform="translate(0 0.01)"/><path class="cls-18" d="M101.89,408.27l2.47,3.09a.31.31,0,0,0,.31.1l5.2-1.35a.29.29,0,0,0,.21-.35.23.23,0,0,0-.06-.12l-2.55-3.12a.29.29,0,0,0-.3-.1l-5.12,1.38a.3.3,0,0,0-.21.37A.31.31,0,0,0,101.89,408.27Z" transform="translate(0 0.01)"/><path class="cls-18" d="M94.87,410.06l2.47,3.1a.29.29,0,0,0,.3.1l5.2-1.35a.3.3,0,0,0,.21-.37.31.31,0,0,0,0-.1l-2.56-3.12a.29.29,0,0,0-.3-.1L95,409.6a.29.29,0,0,0-.2.36Z" transform="translate(0 0.01)"/><path class="cls-18" d="M110.64,390l1.51,2.43a.31.31,0,0,0,.33.14l5.12-1.14a.32.32,0,0,0,.24-.39l0-.1-1.68-2.35a.31.31,0,0,0-.32-.12l-5,1.06a.33.33,0,0,0-.18.42Z" transform="translate(0 0.01)"/><path class="cls-18" d="M110.23,393.73l1.51,2.43a.31.31,0,0,0,.33.14l5.12-1.14a.3.3,0,0,0,.19-.49l-1.68-2.34a.33.33,0,0,0-.32-.13l-5,1.06a.33.33,0,0,0-.18.42Z" transform="translate(0 0.01)"/><path class="cls-18" d="M116.91,388.53l1.51,2.43a.32.32,0,0,0,.34.14l5.12-1.14a.33.33,0,0,0,.23-.39.31.31,0,0,0,0-.1l-1.68-2.34a.33.33,0,0,0-.32-.13l-5,1.06a.32.32,0,0,0-.23.39S116.9,388.5,116.91,388.53Z" transform="translate(0 0.01)"/><path class="cls-18" d="M135.25,384.53l2.13,2.26a.24.24,0,0,0,.24.07l4.57-1.06a.26.26,0,0,0,.19-.3.24.24,0,0,0-.07-.12l-2.4-2.27a.24.24,0,0,0-.23-.06l-4.3,1.06a.26.26,0,0,0-.18.32A.19.19,0,0,0,135.25,384.53Z" transform="translate(0 0.01)"/><path class="cls-18" d="M141.12,383.18l2.12,2.25a.24.24,0,0,0,.24.08l4.57-1.06a.25.25,0,0,0,.2-.29.25.25,0,0,0-.08-.14l-2.4-2.26a.24.24,0,0,0-.23-.06l-4.3,1.06a.26.26,0,0,0-.19.3A.24.24,0,0,0,141.12,383.18Z" transform="translate(0 0.01)"/><path class="cls-18" d="M135.38,388.19l2.13,2.26a.26.26,0,0,0,.24.07l4.57-1.06a.26.26,0,0,0,.19-.3.22.22,0,0,0-.08-.13L140,386.77a.26.26,0,0,0-.24-.06l-4.3,1.06a.26.26,0,0,0-.17.32A.31.31,0,0,0,135.38,388.19Z" transform="translate(0 0.01)"/><path class="cls-18" d="M129.33,389.59l2,2.15a.28.28,0,0,0,.3.09l4.42-1a.3.3,0,0,0,.24-.37.26.26,0,0,0-.09-.16l-2.29-2.16a.29.29,0,0,0-.29-.08l-4.17,1a.32.32,0,0,0-.2.41A.5.5,0,0,0,129.33,389.59Z" transform="translate(0 0.01)"/><path class="cls-18" d="M133.94,396.39l2,2.16a.31.31,0,0,0,.3.09l4.42-1a.32.32,0,0,0,.24-.39.46.46,0,0,0-.09-.15l-2.29-2.16a.31.31,0,0,0-.29-.07l-4.17,1a.31.31,0,0,0-.2.39A.26.26,0,0,0,133.94,396.39Z" transform="translate(0 0.01)"/><path class="cls-18" d="M127.67,397.81l2,2.16a.31.31,0,0,0,.3.09l4.42-1a.32.32,0,0,0,.24-.39.46.46,0,0,0-.09-.15l-2.21-2.18a.31.31,0,0,0-.29-.07l-4.17,1a.31.31,0,0,0-.3.32A.32.32,0,0,0,127.67,397.81Z" transform="translate(0 0.01)"/><path class="cls-18" d="M121.33,399.39l2,2.16a.33.33,0,0,0,.3.09l4.43-1a.31.31,0,0,0,.23-.37.26.26,0,0,0-.09-.16L125.91,398a.32.32,0,0,0-.29-.08l-4.17,1a.32.32,0,0,0-.19.41A.41.41,0,0,0,121.33,399.39Z" transform="translate(0 0.01)"/><path class="cls-18" d="M114.57,400.72l2.06,2.19a.29.29,0,0,0,.28.08l4.47-1a.28.28,0,0,0,.22-.35.24.24,0,0,0-.09-.15l-2.32-2.22a.3.3,0,0,0-.27-.08l-4.21,1a.29.29,0,0,0-.27.31A.32.32,0,0,0,114.57,400.72Z" transform="translate(0 0.01)"/><path class="cls-18" d="M127.6,393.87l2,2.16a.28.28,0,0,0,.29.09l4.43-1a.33.33,0,0,0,.23-.39.38.38,0,0,0-.09-.15l-2.28-2.16a.31.31,0,0,0-.29-.07l-4.17,1a.32.32,0,0,0-.19.41A.41.41,0,0,0,127.6,393.87Z" transform="translate(0 0.01)"/><path class="cls-18" d="M121.49,395.27l2,2.16a.33.33,0,0,0,.3.09l4.42-1a.3.3,0,0,0,.24-.37.26.26,0,0,0-.09-.16l-2.29-2.16a.34.34,0,0,0-.29-.08l-4.17,1a.32.32,0,0,0-.19.41A.41.41,0,0,0,121.49,395.27Z" transform="translate(0 0.01)"/><path class="cls-18" d="M114.94,396.68l2,2.16a.31.31,0,0,0,.29.09l4.43-1a.31.31,0,0,0,.23-.37.26.26,0,0,0-.09-.16l-2.28-2.16a.34.34,0,0,0-.29-.08l-4.17,1a.31.31,0,0,0-.2.39A.26.26,0,0,0,114.94,396.68Z" transform="translate(0 0.01)"/><path class="cls-18" d="M108.23,398.27l2.06,2.19a.27.27,0,0,0,.28.08l4.47-1a.29.29,0,0,0,.23-.34.26.26,0,0,0-.09-.16l-2.32-2.19a.32.32,0,0,0-.28-.08l-4.21,1a.3.3,0,0,0-.22.37A.35.35,0,0,0,108.23,398.27Z" transform="translate(0 0.01)"/><path class="cls-18" d="M133.91,392.39l2,2.16a.33.33,0,0,0,.3.09l4.42-1a.3.3,0,0,0,.24-.37.26.26,0,0,0-.09-.16L138.49,391a.34.34,0,0,0-.29-.08l-4.17,1a.31.31,0,0,0-.2.39A.26.26,0,0,0,133.91,392.39Z" transform="translate(0 0.01)"/><path class="cls-18" d="M123.22,391.16l2,2.16a.31.31,0,0,0,.3.09l4.43-1a.33.33,0,0,0,.23-.39.38.38,0,0,0-.09-.15l-2.29-2.16a.31.31,0,0,0-.29-.07l-4.16,1a.32.32,0,0,0-.2.41A.41.41,0,0,0,123.22,391.16Z" transform="translate(0 0.01)"/><path class="cls-18" d="M146.78,381.74l2.22,2.37a.18.18,0,0,0,.18.05l4.73-1.09a.19.19,0,0,0,.13-.23.19.19,0,0,0,0-.09l-2.51-2.37a.22.22,0,0,0-.17-.05l-4.44,1.1a.19.19,0,0,0-.13.23A.2.2,0,0,0,146.78,381.74Z" transform="translate(0 0.01)"/><path class="cls-18" d="M152.48,380.48l2.23,2.37a.18.18,0,0,0,.18,0l4.72-1.09a.19.19,0,0,0,.14-.23.2.2,0,0,0-.05-.09l-2.51-2.37a.18.18,0,0,0-.17-.05l-4.45,1.1a.19.19,0,0,0-.15.21A.21.21,0,0,0,152.48,380.48Z" transform="translate(0 0.01)"/><path class="cls-18" d="M158.33,379.13l2,2.2a.18.18,0,0,0,.18.05l4.41-1.2a.19.19,0,0,0,.12-.24.22.22,0,0,0,0-.08l-2.28-1.92a.15.15,0,0,0-.16,0l-4.16.92a.19.19,0,0,0-.07.26Z" transform="translate(0 0.01)"/><path class="cls-18" d="M164.49,381.18l2,2.2a.19.19,0,0,0,.19.05l4.4-1.2a.18.18,0,0,0,.14-.21.21.21,0,0,0-.07-.11L168.88,380a.22.22,0,0,0-.16,0l-4.16.92a.19.19,0,0,0-.08.26Z" transform="translate(0 0.01)"/><path class="cls-18" d="M163.75,385.17l1.93,2.09a.23.23,0,0,0,.25.07l4.24-1.16a.26.26,0,0,0,.18-.31.32.32,0,0,0-.08-.12l-2.16-1.82a.26.26,0,0,0-.21,0l-4,.88a.26.26,0,0,0-.17.33S163.74,385.16,163.75,385.17Z" transform="translate(0 0.01)"/><path class="cls-18" d="M158.74,390.27l1.93,2.09a.23.23,0,0,0,.25.07l4.24-1.15a.26.26,0,0,0,.17-.32.24.24,0,0,0-.07-.12L163.1,389a.23.23,0,0,0-.21,0l-4,.89a.24.24,0,0,0-.22.26A.21.21,0,0,0,158.74,390.27Z" transform="translate(0 0.01)"/><path class="cls-18" d="M152.72,391.82l1.93,2.09a.29.29,0,0,0,.25.07l4.24-1.16a.26.26,0,0,0,.17-.32.24.24,0,0,0-.07-.12l-2.16-1.81a.23.23,0,0,0-.21-.05l-4,.88a.26.26,0,0,0-.2.31A.16.16,0,0,0,152.72,391.82Z" transform="translate(0 0.01)"/><path class="cls-18" d="M164.41,388.76l1.93,2.09a.23.23,0,0,0,.25.07l4.24-1.16a.26.26,0,0,0,.18-.31.32.32,0,0,0-.08-.12l-2.15-1.82a.25.25,0,0,0-.22-.05l-4,.89a.25.25,0,0,0-.21.29A.34.34,0,0,0,164.41,388.76Z" transform="translate(0 0.01)"/><path class="cls-18" d="M163.43,393.27l2.91,2.61a.23.23,0,0,0,.24.05l4.21-1.19a.26.26,0,0,0,.18-.31.32.32,0,0,0-.08-.12l-3.14-2.75a.25.25,0,0,0-.25-.05l-4,1.33a.25.25,0,0,0-.15.32A.28.28,0,0,0,163.43,393.27Z" transform="translate(0 0.01)"/><path class="cls-18" d="M153.24,384l2,2.2a.2.2,0,0,0,.19.06l4.4-1.2a.19.19,0,0,0,.13-.23.17.17,0,0,0-.06-.1l-2.27-1.91a.15.15,0,0,0-.16,0l-4.16.92a.17.17,0,0,0-.08.24Z" transform="translate(0 0.01)"/><path class="cls-18" d="M147.55,385.42l1.93,2.09a.23.23,0,0,0,.25.07l4.24-1.16a.26.26,0,0,0,.18-.31.32.32,0,0,0-.08-.12l-2.15-1.82a.28.28,0,0,0-.22,0l-4,.88a.26.26,0,0,0-.17.33S147.54,385.41,147.55,385.42Z" transform="translate(0 0.01)"/><path class="cls-18" d="M146.38,389.46l1.93,2.08a.23.23,0,0,0,.25.07l4.25-1.15a.25.25,0,0,0,.16-.33.26.26,0,0,0-.07-.11l-2.15-1.81a.23.23,0,0,0-.22-.06l-4,.89a.26.26,0,0,0-.22.28A.27.27,0,0,0,146.38,389.46Z" transform="translate(0 0.01)"/><path class="cls-18" d="M140.39,390.91l1.93,2.08a.26.26,0,0,0,.26.07l4.24-1.15a.25.25,0,0,0,.16-.33.26.26,0,0,0-.07-.11l-2.15-1.82a.25.25,0,0,0-.22,0l-4,.89a.26.26,0,0,0-.2.31A.16.16,0,0,0,140.39,390.91Z" transform="translate(0 0.01)"/><path class="cls-18" d="M141.47,386.78l1.93,2.08a.26.26,0,0,0,.25.08l4.24-1.16a.26.26,0,0,0,.17-.32.24.24,0,0,0-.07-.12l-2.16-1.81a.26.26,0,0,0-.21-.06l-4,.89a.26.26,0,0,0-.22.28A.27.27,0,0,0,141.47,386.78Z" transform="translate(0 0.01)"/><path class="cls-18" d="M146.48,393.17l1.93,2.09a.23.23,0,0,0,.25.07l4.24-1.15a.26.26,0,0,0,.17-.32.24.24,0,0,0-.07-.12l-2.16-1.82a.26.26,0,0,0-.21,0l-4,.89a.24.24,0,0,0-.18.29Z" transform="translate(0 0.01)"/><path class="cls-18" d="M140.59,394.77l1.84,2a.3.3,0,0,0,.31.09l4.09-1.12a.3.3,0,0,0,.22-.38.27.27,0,0,0-.1-.16l-2-1.72a.29.29,0,0,0-.27-.07l-3.88.86a.32.32,0,0,0-.26.37A.21.21,0,0,0,140.59,394.77Z" transform="translate(0 0.01)"/><path class="cls-18" d="M159,382.57l2,2.19a.2.2,0,0,0,.19.06l4.4-1.2a.19.19,0,0,0,.13-.23.17.17,0,0,0-.06-.1l-2.27-1.91a.15.15,0,0,0-.16,0l-4.17.92a.18.18,0,0,0-.08.24Z" transform="translate(0 0.01)"/><path class="cls-18" d="M158.23,386.52l1.93,2.09a.23.23,0,0,0,.25.07l4.25-1.15a.25.25,0,0,0,.16-.33.26.26,0,0,0-.07-.11l-2.15-1.82a.25.25,0,0,0-.22,0l-4,.89a.25.25,0,0,0-.21.29A.34.34,0,0,0,158.23,386.52Z" transform="translate(0 0.01)"/><path class="cls-18" d="M152.47,388.1l1.92,2.09a.28.28,0,0,0,.26.07l4.24-1.16a.26.26,0,0,0,.18-.31.32.32,0,0,0-.08-.12l-2.16-1.82a.25.25,0,0,0-.22-.05l-4,.88a.25.25,0,0,0-.21.29A.24.24,0,0,0,152.47,388.1Z" transform="translate(0 0.01)"/><path class="cls-18" d="M129.27,385.82l2.12,2.26a.24.24,0,0,0,.24.08l4.57-1.06a.25.25,0,0,0,.2-.29.25.25,0,0,0-.08-.14l-2.4-2.26a.25.25,0,0,0-.23-.07l-4.3,1.07a.23.23,0,0,0-.19.28A.21.21,0,0,0,129.27,385.82Z" transform="translate(0 0.01)"/><path class="cls-18" d="M123.16,387.32l2,2.15a.31.31,0,0,0,.3.1l4.42-1a.3.3,0,0,0,.24-.37A.26.26,0,0,0,130,388l-2.29-2.16a.29.29,0,0,0-.29-.08l-4.17,1a.32.32,0,0,0-.19.41A.41.41,0,0,0,123.16,387.32Z" transform="translate(0 0.01)"/><path class="cls-18" d="M116.63,392.38l1.51,2.43a.31.31,0,0,0,.33.14l5.12-1.14a.32.32,0,0,0,.24-.39l0-.1L122.09,391a.31.31,0,0,0-.32-.12l-4.94,1.06a.3.3,0,0,0-.24.37A.42.42,0,0,0,116.63,392.38Z" transform="translate(0 0.01)"/><path class="cls-18" d="M83.12,393.27l5-1.17a.31.31,0,0,1,.3.11l.89,1.17a.3.3,0,0,1,0,.41l-.12,0L84,395.06a.28.28,0,0,1-.32-.14l-.71-1.21a.31.31,0,0,1,.11-.41Z" transform="translate(0 0.01)"/><path class="cls-18" d="M90.07,391.77l5-1.17a.31.31,0,0,1,.3.11l.89,1.17a.3.3,0,0,1-.05.41l-.12,0-5.23,1.22a.29.29,0,0,1-.32-.14l-.71-1.22a.28.28,0,0,1,.11-.39A.22.22,0,0,1,90.07,391.77Z" transform="translate(0 0.01)"/><path class="cls-18" d="M96.78,390.33l5-1.17a.29.29,0,0,1,.3.11l.89,1.16a.3.3,0,0,1-.06.42l-.11,0-5.23,1.22a.29.29,0,0,1-.32-.14l-.71-1.22a.3.3,0,0,1,.1-.4Z" transform="translate(0 0.01)"/><path class="cls-18" d="M103.33,388.84l5-1.17a.31.31,0,0,1,.3.11l.88,1.17a.29.29,0,0,1-.05.41l-.11.05-5.24,1.22a.3.3,0,0,1-.32-.14l-.71-1.22a.3.3,0,0,1,.14-.4A.2.2,0,0,1,103.33,388.84Z" transform="translate(0 0.01)"/><path class="cls-18" d="M110,387.37l5-1.16a.35.35,0,0,1,.32.11l.86,1.14a.3.3,0,0,1-.06.43.34.34,0,0,1-.12.06l-5.19,1.21a.32.32,0,0,1-.34-.15l-.69-1.18a.31.31,0,0,1,.12-.42Z" transform="translate(0 0.01)"/><path class="cls-18" d="M116.42,386l5-1.16a.31.31,0,0,1,.32.12l.86,1.13a.3.3,0,0,1-.06.43l-.12.06-5.19,1.21a.32.32,0,0,1-.34-.15l-.69-1.18a.32.32,0,0,1,.14-.43Z" transform="translate(0 0.01)"/><path class="cls-18" d="M122.74,384.71l4.63-1.13a.33.33,0,0,1,.3.09l.9,1a.31.31,0,0,1,0,.45.24.24,0,0,1-.12.07l-4.58,1.08a.3.3,0,0,1-.3-.08l-1-1a.31.31,0,0,1,.2-.48Z" transform="translate(0 0.01)"/><path class="cls-18" d="M128.87,383.27l4.77-1.16a.29.29,0,0,1,.25.07l1,1.05a.24.24,0,0,1,0,.35.19.19,0,0,1-.12.07l-4.71,1.18a.24.24,0,0,1-.24-.07l-1.06-1.07a.24.24,0,0,1,0-.35A.19.19,0,0,1,128.87,383.27Z" transform="translate(0 0.01)"/><path class="cls-18" d="M135,381.85l4.77-1.16a.26.26,0,0,1,.24.07l1,1.05a.24.24,0,0,1,0,.35.19.19,0,0,1-.12.07l-4.71,1.18a.24.24,0,0,1-.24-.07l-1-1.07a.24.24,0,0,1,0-.35A.31.31,0,0,1,135,381.85Z" transform="translate(0 0.01)"/><path class="cls-18" d="M141.12,380.6l4.77-1.16a.24.24,0,0,1,.24.07l1,1.05a.25.25,0,0,1,0,.35.24.24,0,0,1-.11.06l-4.67,1.19a.26.26,0,0,1-.24-.07L141,381a.25.25,0,0,1,0-.35A.23.23,0,0,1,141.12,380.6Z" transform="translate(0 0.01)"/><path class="cls-18" d="M146.92,379.21l4.91-1.2a.17.17,0,0,1,.18.05l1.1,1.16a.2.2,0,0,1,0,.27l-.08,0-4.85,1.22a.24.24,0,0,1-.18-.05l-1.16-1.18a.2.2,0,0,1,0-.27Z" transform="translate(0 0.01)"/><path class="cls-18" d="M152.78,378l4.92-1.19a.16.16,0,0,1,.17.05L159,378a.19.19,0,0,1,0,.27l-.09,0L154,379.49a.17.17,0,0,1-.18-.05l-1.16-1.17a.19.19,0,0,1,0-.27Z" transform="translate(0 0.01)"/><path class="cls-18" d="M158.62,376.61l4.55-1a.18.18,0,0,1,.19.06l.88,1.08a.2.2,0,0,1,0,.27l-.07,0-4.27,1.13a.24.24,0,0,1-.18-.05L158.53,377a.2.2,0,0,1,0-.27A.21.21,0,0,1,158.62,376.61Z" transform="translate(0 0.01)"/><path class="cls-18" d="M164.2,375.33l4.55-1a.2.2,0,0,1,.19.06l.87,1.08a.17.17,0,0,1,0,.25.14.14,0,0,1-.08,0l-4.27,1.13a.19.19,0,0,1-.19,0l-1.15-1.17a.19.19,0,0,1-.06-.26A.19.19,0,0,1,164.2,375.33Z" transform="translate(0 0.01)"/><path class="cls-18" d="M86.66,399.27l1.68,2.39a.27.27,0,0,0,.3.12l8.75-2a.28.28,0,0,0,.22-.34.22.22,0,0,0,0-.12l-1.86-2.44a.29.29,0,0,0-.3-.11l-8.57,2.1a.3.3,0,0,0-.22.35A.31.31,0,0,0,86.66,399.27Z" transform="translate(0 0.01)"/><path class="cls-18" d="M89.33,402.51,91,405.18a.31.31,0,0,0,.32.13l10.57-2.52a.28.28,0,0,0,.22-.35.34.34,0,0,0-.06-.12L100,399.73a.31.31,0,0,0-.3-.1l-10.15,2.44a.3.3,0,0,0-.22.35A.36.36,0,0,0,89.33,402.51Z" transform="translate(0 0.01)"/><path class="cls-18" d="M91.7,406l2,2.89A.29.29,0,0,0,94,409l14-3.46a.28.28,0,0,0,.21-.35.22.22,0,0,0,0-.11l-2.25-2.9a.29.29,0,0,0-.3-.1l-13.84,3.46a.31.31,0,0,0-.12.41Z" transform="translate(0 0.01)"/><path class="cls-18" d="M123.75,402.88l2.56,3.08a.3.3,0,0,0,.31.1l30.81-7.68a.32.32,0,0,0,.22-.4.35.35,0,0,0-.08-.13l-3.14-3.12a.3.3,0,0,0-.3-.08l-30.22,7.72a.32.32,0,0,0-.22.4A.24.24,0,0,0,123.75,402.88Z" transform="translate(0 0.01)"/><path class="cls-18" d="M155.55,394.91l3,3a.26.26,0,0,0,.25.06l6.31-1.69a.26.26,0,0,0,.18-.31.41.41,0,0,0-.07-.11l-3.13-3.06a.24.24,0,0,0-.24-.07l-6.21,1.72a.27.27,0,0,0-.19.32A.33.33,0,0,0,155.55,394.91Z" transform="translate(0 0.01)"/><path class="cls-18" d="M170.79,393l1.38,1.45a.17.17,0,0,0,.18.05l4.67-1.25a.19.19,0,0,0,.13-.23.19.19,0,0,0-.05-.09l-1.66-1.56a.18.18,0,0,0-.18-.05l-4.39,1.37a.19.19,0,0,0-.12.24A.16.16,0,0,0,170.79,393Z" transform="translate(0 0.01)"/><path class="cls-18" d="M174.77,389.89l1.64,1.72a.18.18,0,0,0,.2,0l4.29-1.48a.19.19,0,0,0,.12-.24.22.22,0,0,0-.05-.08l-1.64-1.4a.14.14,0,0,0-.17,0l-4.33,1.21a.19.19,0,0,0-.07.26Z" transform="translate(0 0.01)"/><path class="cls-18" d="M177.94,392.86l-1.18-.95a.19.19,0,0,1-.07-.26l.07-.07L181,390.1a.21.21,0,0,1,.19,0l1.34,1.3a.2.2,0,0,1,0,.27l-.08,0-4.43,1.15Z" transform="translate(0 0.01)"/><path class="cls-18" d="M182.33,390.27c.37.36,1,1.06,1.26,1.3a.19.19,0,0,0,.19.05l4.45-1.2a.19.19,0,0,0,.13-.23.19.19,0,0,0-.05-.09l-1.58-1.43a.21.21,0,0,0-.19,0L182.41,390a.2.2,0,0,0-.09.25Z" transform="translate(0 0.01)"/><path class="cls-18" d="M169.83,387.41l2.38,2.3a.19.19,0,0,0,.18,0l11.48-3a.19.19,0,0,0,.14-.23.21.21,0,0,0-.06-.1l-2.79-2.3a.25.25,0,0,0-.17,0l-11.08,3a.19.19,0,0,0-.14.23A.21.21,0,0,0,169.83,387.41Z" transform="translate(0 0.01)"/><path class="cls-18" d="M169.05,383.86l2.46,2.19a.17.17,0,0,0,.17,0l8.64-2a.18.18,0,0,0,.14-.21.21.21,0,0,0-.07-.11l-2.83-2.37a.15.15,0,0,0-.16,0l-8.27,2.22a.19.19,0,0,0-.1.25Z" transform="translate(0 0.01)"/><path class="cls-18" d="M169.84,380.09l2.33,2.09a.25.25,0,0,0,.17,0l4.43-1a.18.18,0,0,0,.08-.32l-2.76-2.38a.14.14,0,0,0-.17,0l-4,1.29a.18.18,0,0,0-.08.32Z" transform="translate(0 0.01)"/><path class="cls-18" d="M163.77,378l2.25,2.05a.17.17,0,0,0,.17,0l7-1.66a.19.19,0,0,0,.13-.23.17.17,0,0,0-.06-.1l-2.68-2.25a.17.17,0,0,0-.17,0l-6.61,1.86a.19.19,0,0,0-.1.25A.27.27,0,0,0,163.77,378Z" transform="translate(0 0.01)"/><path class="cls-28" d="M187.92,684.78s1.66,35.74-41.29,40l-2.67-4S185.27,695.92,187.92,684.78Z" transform="translate(0 0.01)"/><path class="cls-29" d="M187.92,684.78s1.66,35.74-41.29,40l-2.67-4S185.27,695.92,187.92,684.78Z" transform="translate(0 0.01)"/><path class="cls-28" d="M187.92,684.78s5.66,35.74-37.29,40l-2.65-4S185.27,695.92,187.92,684.78Z" transform="translate(0 0.01)"/><ellipse class="cls-1" cx="131.05" cy="722.95" rx="29.9" ry="4.59"/><path class="cls-28" d="M81.39,685s-9.65,35.75,33.3,40l2.65-4S84,696.16,81.39,685Z" transform="translate(0 0.01)"/><path class="cls-28" d="M129.77,719.56l-9.82,2.1-1,.23s-28-15.83-30.78-54.22A100,100,0,0,0,102.06,683C113.62,693.67,126.83,707.89,129.77,719.56Z" transform="translate(0 0.01)"/><path class="cls-28" d="M131.16,724.27a7.68,7.68,0,0,1-5.37.56c-25.65-4.77-17-71.35-17-71.35,1.43.54,3,9,8.87,19.93C127.92,692.62,139.29,719.45,131.16,724.27Z" transform="translate(0 0.01)"/><path class="cls-28" d="M175.62,666.74c.32,38.54-34.29,55.7-34.29,55.7l-1-.17-10-1.66c2-11.82,14-26.68,24.55-37.85A102.92,102.92,0,0,1,175.62,666.74Z" transform="translate(0 0.01)"/><path class="cls-28" d="M140.18,720.78a15.76,15.76,0,0,1-5.72,3.49h0a11.71,11.71,0,0,1-2.11.56c-6.3,1.18-8.51-2.46-8.13-8.6.59-11,9.23-30,17-44.15,5.59-10.24,14.71-18,16.1-18.52C157.31,653.48,156.93,705.32,140.18,720.78Z" transform="translate(0 0.01)"/><path class="cls-28" d="M133,643s-28.64,69.89-4,80.42S139.33,649.17,133,643Z" transform="translate(0 0.01)"/><path class="cls-29" d="M81.39,685s-9.65,35.75,33.3,40l2.65-4S84,696.16,81.39,685Z" transform="translate(0 0.01)"/><path class="cls-29" d="M129.73,719.58l-9.82,2.1-1,.21S91,706,88.22,667.65A99.89,99.89,0,0,0,102.08,683C113.64,693.67,126.8,707.91,129.73,719.58Z" transform="translate(0 0.01)"/><path class="cls-29" d="M131.16,724.27a7.68,7.68,0,0,1-5.37.56c-25.65-4.77-17-71.35-17-71.35,1.43.54,3,9,8.87,19.93C127.92,692.62,139.29,719.45,131.16,724.27Z" transform="translate(0 0.01)"/><path class="cls-29" d="M175.62,666.74c.32,38.54-34.29,55.7-34.29,55.7l-1-.17-10-1.66c2-11.82,14-26.68,24.55-37.85A102.92,102.92,0,0,1,175.62,666.74Z" transform="translate(0 0.01)"/><path class="cls-29" d="M140.18,720.78a15.76,15.76,0,0,1-5.72,3.49h0a11.71,11.71,0,0,1-2.11.56c-6.3,1.18-8.51-2.46-8.13-8.6.59-11,9.23-30,17-44.15,5.59-10.24,14.71-18,16.1-18.52C157.31,653.48,156.93,705.32,140.18,720.78Z" transform="translate(0 0.01)"/><path class="cls-29" d="M133,642s-28.64,70.75-4,81.43S139.33,648.22,133,642Z" transform="translate(0 0.01)"/><path class="cls-28" d="M80.7,684.78S75,720.52,118,724.73l2.65-4S83.32,695.92,80.7,684.78Z" transform="translate(0 0.01)"/><path class="cls-28" d="M133.87,719.41l-9.82,2.21-1,.21s-32-15.52-35-53.91c0,0,8.41,6.31,18.14,15.07C117.62,693.55,130.86,707.7,133.87,719.41Z" transform="translate(0 0.01)"/><path class="cls-29" d="M131.68,720.59l-10,1.66c-9.49-6.69-13.23-23.89-14.6-39.49C117.68,693.91,129.68,708.77,131.68,720.59Z" transform="translate(0 0.01)"/><path class="cls-28" d="M135.05,724.27a7.68,7.68,0,0,1-5.37.56c-25.65-4.77-21-71.35-21-71.35,1.43.54,7,9,12.87,19.93C131.91,692.62,143.29,719.45,135.05,724.27Z" transform="translate(0 0.01)"/><path class="cls-28" d="M175.62,666.74a65,65,0,0,1-30.29,55.68l-1-.17-10-1.66c2-11.82,14-26.68,24.56-37.85C167.78,673.45,175.62,666.74,175.62,666.74Z" transform="translate(0 0.01)"/><path class="cls-29" d="M158.89,682.83c-1.28,14.52-4.63,30.52-12.72,38a15.47,15.47,0,0,1-1.85,1.49l-10-1.68C136.31,708.77,148.33,693.91,158.89,682.83Z" transform="translate(0 0.01)"/><path class="cls-28" d="M144.17,720.78a15.68,15.68,0,0,1-5.72,3.49h0a11.61,11.61,0,0,1-2.1.56c-6.31,1.18-8.52-2.46-8.14-8.6.59-11,9.23-30,17-44.15,5.59-10.24,10.75-18,12.11-18.52C157.31,653.48,160.93,705.32,144.17,720.78Z" transform="translate(0 0.01)"/><path class="cls-29" d="M135.05,724.27a8.34,8.34,0,0,1-4-1c-12.07-6-12.32-28.47-9.44-49.83C131.91,692.62,143.29,719.45,135.05,724.27Z" transform="translate(0 0.01)"/><path class="cls-29" d="M144.17,720.78a5.92,5.92,0,0,1-5.72,3.49h0a9.4,9.4,0,0,1-3.43-1,15.55,15.55,0,0,1-6.81-7c.59-11,9.23-30,17-44.15C148,691.76,148.9,712.68,144.17,720.78Z" transform="translate(0 0.01)"/><path class="cls-28" d="M133,643s-24.64,69.89,0,80.42S139.33,649.17,133,643Z" transform="translate(0 0.01)"/><ellipse class="cls-1" cx="215.59" cy="798.36" rx="115.01" ry="26.17"/><rect class="cls-15" x="176.7" y="764.31" width="50.41" height="35.23"/><rect class="cls-4" x="176.7" y="764.31" width="50.41" height="35.23"/><ellipse class="cls-4" cx="201.75" cy="753.47" rx="1.27" ry="1.26"/><ellipse class="cls-4" cx="215.59" cy="746.11" rx="1.27" ry="1.26"/><ellipse class="cls-4" cx="210.2" cy="752.53" rx="1.27" ry="1.26"/><ellipse class="cls-4" cx="207.45" cy="746.32" rx="1.27" ry="1.26"/><rect class="cls-15" x="179.23" y="764.31" width="50.41" height="35.23"/><ellipse class="cls-4" cx="211.89" cy="758.21" rx="1.27" ry="1.26"/><ellipse class="cls-4" cx="204.28" cy="759.78" rx="1.27" ry="1.26"/><path class="cls-28" d="M253.4,729.78s1.47,31.32-36.36,35l-2.36-3.5S251.07,739.55,253.4,729.78Z" transform="translate(0 0.01)"/><path class="cls-29" d="M253.4,729.78s1.47,31.32-36.36,35l-2.36-3.5S251.07,739.55,253.4,729.78Z" transform="translate(0 0.01)"/><path class="cls-28" d="M253.4,729.78s5,31.32-32.85,35l-2.33-3.5S251.07,739.55,253.4,729.78Z" transform="translate(0 0.01)"/><ellipse class="cls-1" cx="203.32" cy="763.23" rx="26.33" ry="4.02"/><path class="cls-28" d="M159.57,730s-8.49,31.33,29.34,35l2.33-3.5S161.87,739.75,159.57,730Z" transform="translate(0 0.01)"/><path class="cls-28" d="M202.18,760.26l-8.64,1.84-.87.2S168,748.43,165.56,714.78a87.56,87.56,0,0,0,12.22,13.45C188,737.57,199.59,750,202.18,760.26Z" transform="translate(0 0.01)"/><path class="cls-28" d="M203.41,764.38a6.79,6.79,0,0,1-4.73.5c-22.59-4.18-15-62.54-15-62.54,1.26.48,2.63,7.89,7.82,17.47C200.55,736.65,210.57,760.16,203.41,764.38Z" transform="translate(0 0.01)"/><path class="cls-28" d="M242.57,714c.28,33.78-30.2,48.81-30.2,48.81l-.89-.15-8.8-1.45C204.42,750.82,215,737.8,224.31,728A90.23,90.23,0,0,1,242.57,714Z" transform="translate(0 0.01)"/><path class="cls-28" d="M211.35,761.33a13.65,13.65,0,0,1-5,3h0a9.92,9.92,0,0,1-1.85.5c-5.55,1-7.5-2.15-7.16-7.53.51-9.62,8.12-26.3,15-38.7,4.92-9,13-15.77,14.18-16.23C226.44,702.34,226.11,747.78,211.35,761.33Z" transform="translate(0 0.01)"/><path class="cls-28" d="M205,693.13s-25.23,61.25-3.52,70.48S210.61,698.57,205,693.13Z" transform="translate(0 0.01)"/><path class="cls-29" d="M159.57,730s-8.49,31.33,29.34,35l2.33-3.5S161.87,739.75,159.57,730Z" transform="translate(0 0.01)"/><path class="cls-29" d="M202.15,760.28l-8.65,1.84-.89.18s-24.61-13.89-27-47.54a87.49,87.49,0,0,0,12.21,13.45C188,737.57,199.57,750.05,202.15,760.28Z" transform="translate(0 0.01)"/><path class="cls-29" d="M203.41,764.38a6.79,6.79,0,0,1-4.73.5c-22.59-4.18-15-62.54-15-62.54,1.26.48,2.63,7.89,7.82,17.47C200.55,736.65,210.57,760.16,203.41,764.38Z" transform="translate(0 0.01)"/><path class="cls-29" d="M242.57,714c.28,33.78-30.2,48.81-30.2,48.81l-.89-.15-8.8-1.45C204.42,750.82,215,737.8,224.31,728A90.23,90.23,0,0,1,242.57,714Z" transform="translate(0 0.01)"/><path class="cls-29" d="M211.35,761.33a13.65,13.65,0,0,1-5,3h0a9.92,9.92,0,0,1-1.85.5c-5.55,1-7.5-2.15-7.16-7.53.51-9.62,8.12-26.3,15-38.7,4.92-9,13-15.77,14.18-16.23C226.44,702.34,226.11,747.78,211.35,761.33Z" transform="translate(0 0.01)"/><path class="cls-29" d="M205,692.25s-25.23,62-3.52,71.36S210.61,697.74,205,692.25Z" transform="translate(0 0.01)"/><path class="cls-28" d="M159,729.78s-5,31.32,32.85,35l2.34-3.5S161.28,739.55,159,729.78Z" transform="translate(0 0.01)"/><path class="cls-28" d="M205.8,760.13l-8.65,1.93-.87.19s-28.22-13.6-30.82-47.25c0,0,7.41,5.53,16,13.21C191.48,737.46,203.15,749.86,205.8,760.13Z" transform="translate(0 0.01)"/><path class="cls-29" d="M203.87,761.16l-8.8,1.46c-8.35-5.86-11.64-20.94-12.85-34.61C191.54,737.78,202.11,750.8,203.87,761.16Z" transform="translate(0 0.01)"/><path class="cls-28" d="M206.83,764.38a6.77,6.77,0,0,1-4.72.5c-22.59-4.18-18.52-62.54-18.52-62.54,1.26.48,6.15,7.89,11.34,17.47C204.07,736.65,214.09,760.16,206.83,764.38Z" transform="translate(0 0.01)"/><path class="cls-28" d="M242.57,714a56.94,56.94,0,0,1-26.68,48.79l-.89-.14-8.8-1.46c1.74-10.36,12.34-23.38,21.63-33.17C235.66,719.85,242.57,714,242.57,714Z" transform="translate(0 0.01)"/><path class="cls-29" d="M227.83,728.07c-1.13,12.73-4.07,26.75-11.2,33.31a12.81,12.81,0,0,1-1.63,1.31l-8.8-1.48C207.94,750.8,218.54,737.78,227.83,728.07Z" transform="translate(0 0.01)"/><path class="cls-28" d="M214.87,761.33a13.73,13.73,0,0,1-5,3h0a9.92,9.92,0,0,1-1.85.5c-5.55,1-7.5-2.15-7.17-7.53.52-9.62,8.13-26.3,15-38.7,4.93-9,9.47-15.77,10.67-16.23C226.44,702.34,229.63,747.78,214.87,761.33Z" transform="translate(0 0.01)"/><path class="cls-29" d="M206.83,764.38a7.24,7.24,0,0,1-3.55-.9c-10.63-5.25-10.85-25-8.32-43.67C204.07,736.65,214.09,760.16,206.83,764.38Z" transform="translate(0 0.01)"/><path class="cls-29" d="M214.87,761.33a5.19,5.19,0,0,1-5,3h0a7.88,7.88,0,0,1-3-.9,13.68,13.68,0,0,1-6-6.13c.52-9.62,8.13-26.3,15-38.7C218.22,735.9,219,754.23,214.87,761.33Z" transform="translate(0 0.01)"/><path class="cls-28" d="M205,693.13s-21.71,61.25,0,70.48S210.61,698.57,205,693.13Z" transform="translate(0 0.01)"/></svg>