<svg id="Layer_1" data-name="Layer 1" xmlns="http://www.w3.org/2000/svg" viewBox="0 0 460.07 525.5"><defs><style>.cls-1,.cls-2,.cls-3{fill:#2bb673;}.cls-1{opacity:0.48;}.cls-1,.cls-2,.cls-39,.cls-41,.cls-42,.cls-43,.cls-44,.cls-8,.cls-9{isolation:isolate;}.cls-2{opacity:0.34;}.cls-4{fill:#aed136;}.cls-5{fill:#1c803f;}.cls-6{fill:#bad654;}.cls-7{fill:#476b32;}.cls-8{font-size:158.25px;fill:#216b36;}.cls-8,.cls-9{font-family:ArialMT, Arial;}.cls-9{font-size:156.28px;fill:#569441;}.cls-10{fill:#dae8a7;}.cls-11{fill:#fffffe;}.cls-12{fill:#a2c43b;}.cls-13{fill:#95b43d;}.cls-14{fill:#fafcf6;}.cls-15{fill:#d8e3b0;}.cls-16{fill:#d1e392;}.cls-17{fill:#d4e0a5;}.cls-18{fill:#d8dfb6;}.cls-19{fill:#b1c963;}.cls-20{fill:#aed137;}.cls-21{fill:#a2c33b;}.cls-22{fill:#87a53e;}.cls-23{fill:#c9de7e;}.cls-24{fill:#b1c570;}.cls-25{fill:#dfe8bd;}.cls-26{fill:#ced8a4;}.cls-27{fill:#bccc84;}.cls-28{fill:#e6edcd;}.cls-29{fill:#cada91;}.cls-30{fill:#c0d47d;}.cls-31{fill:#c8d498;}.cls-32{fill:#b7cf68;}.cls-33{fill:#c3d08f;}.cls-34{fill:#e2ea9a;}.cls-35{fill:#c4d687;}.cls-36{fill:#d0de4c;}.cls-37{fill:#e7edaa;}.cls-38{fill:#afd137;}.cls-39{fill:#010101;opacity:0.1;}.cls-40{fill:#a7c4ac;}.cls-42,.cls-43,.cls-44{font-size:36px;fill:#414042;font-family:CircularStd-Bold, Circular Std;font-weight:700;}.cls-42{letter-spacing:-0.01em;}.cls-44{letter-spacing:-0.02em;}</style></defs><title>logo</title><path class="cls-1" d="M115.3,241.89c19.38,9.12,31.94,25.73,37.22,46.12-23,7-46.05,6.79-65.43-2.36S55.15,259.9,49.87,239.54C72.82,232.48,95.92,232.73,115.3,241.89Z" transform="translate(0 -0.01)"/><path class="cls-2" d="M219.62,294.36c-20.92,10.29-44.54,10.87-67.11,3.45,7.9-22.41,32.33-39,53.25-49.27s35-12.65,57.54-5.23C255.41,265.72,240.54,284.07,219.62,294.36Z" transform="translate(0 -0.01)"/><path class="cls-3" d="M185,240.52c0,22.63-10.33,43.44-27.65,59.92C140,284,129.69,263.15,129.69,240.52S140,197.08,157.34,180.6C174.62,197.08,185,217.89,185,240.52Z" transform="translate(0 -0.01)"/><path class="cls-4" d="M185,240.52c0,22.63-10.33,43.44-27.65,59.92V180.6C174.62,197.08,185,217.89,185,240.52Z" transform="translate(0 -0.01)"/><path class="cls-5" d="M203.68,259c-11.79,19.94-21.26,35.16-44.75,40.87-6.33-23.34,3.55-45.33,15.34-65.27s30.24-28.59,47.09-40.35C219.77,217.93,215.47,239,203.68,259Z" transform="translate(0 -0.01)"/><path class="cls-6" d="M213.94,261.12c-11.79,19.94-31.52,33-55,38.74l62.43-105.62C227.68,217.58,225.73,241.17,213.94,261.12Z" transform="translate(0 -0.01)"/><path class="cls-7" d="M146.68,232.08c12.38,19.38,15.21,43.36,9.89,67.78C133.22,296,113.28,284.38,100.9,265S85.71,221.65,91,197.23C114.38,201,134.31,212.7,146.68,232.08Z" transform="translate(0 -0.01)"/><path class="cls-4" d="M146.68,232.08c12.38,19.38,15.21,43.36,9.89,67.78L91,197.22C114.38,201,134.31,212.7,146.68,232.08Z" transform="translate(0 -0.01)"/><text class="cls-8" transform="translate(235.6 303.73) scale(1.65 1)">}</text><text class="cls-9" transform="translate(0 297.78) scale(1.35 1)">{</text><path class="cls-10" d="M110.68,465.2c-4.29,1.83-8.66,3.57-12.55,6.16-6.22,4.16-11.24,10.54-18.47,12.48-3,.82-5.34,2.29-8.06,3.84-1.7,1-3.64,1.29-5.3,2.46-3.68,2.61-10.12,11-10.19,13.85-.11,4.33-.17,5.09,1.26,9.17,1.08,3.1,3.34,5.62,5.6,8a13.44,13.44,0,0,0,12.58,4.08c2.16-.51,4.81-.34,6.6-1.65,16.61-12.17,28.15-25.39,41.24-38.83,1-1,2.24-3.25,3.09-4.34s3.06-5.12,4.12-5.72c1.57-.9,4.32-4.78,5.27-6.31,2.27-3.65,3.76-3.34,5.83-7.11,3.12-5.66,3.53-5.6,4.07-10.36.5-4.36-14.48,4.36-15.79,5.05C123.68,459.32,117.25,462.44,110.68,465.2Z" transform="translate(0 -0.01)"/><path class="cls-11" d="M102.74,51.13V33.42h16.58c0,.09-.06.11-.1.15a.14.14,0,0,0,0,.09h-.06v.08c0,.06-.11.12-.12.18s-.07.15-.09.24a2.44,2.44,0,0,1-.1.24h0a1.38,1.38,0,0,1-.08.29c0,.1-.06.14-.08.22a.43.43,0,0,0-.1.36v.07h-.06v.25h0v.22h-.06v.32h-.06v.25h0v.3h-.06V37h-.06v.34h-.06v.32h-.06v.17a.45.45,0,0,0,0,.23h-.06v.39H118V39h-.07v.46h-.06V40h-.25v.42h0v.46h-.06v.47h0v.47a.07.07,0,0,0-.07.07v.39s-.06,0-.06.09v.44a.06.06,0,0,0-.06.07v.5h0V44h-.06v.35l-.05-.12h0v-.07a.22.22,0,0,0-.07-.16c-.07-.06,0,0,0-.09H117v-.13h0s0-.09-.06-.08v-.14h-.05a.11.11,0,0,0,0-.08c-.06,0-.06-.09-.07-.15a.5.5,0,0,1-.13-.25c-.06,0-.05-.06-.07-.1l-.06-.15a.38.38,0,0,1-.13-.24h0v-.09h0a1.18,1.18,0,0,1-.11-.19v-.23h-.06V42c0-.09-.07-.1-.06-.17h0v-.11h0l-.07-.12v-.13h0v-.14l-.09-.12a.42.42,0,0,1-.09-.16l-.07-.14h0a.7.7,0,0,0-.13-.24v0a.17.17,0,0,0-.13-.19v-.16h-.06c-.06-.07-.13-.12-.14-.23l-.06-.1v-.07a.13.13,0,0,0-.08-.12c-.08,0,0-.08-.07-.13v-.09H115c0-.07,0-.09-.06-.08v-.13a.53.53,0,0,1-.12-.14c0-.06,0-.07-.08-.07V39c0-.06,0-.08-.06-.08l-.1-.13a.33.33,0,0,0,0-.14s0-.12-.09-.14,0-.11-.1-.06,0-.07,0-.07V38.3h0a2.15,2.15,0,0,0-.8-.29.45.45,0,0,1-.11-.17h0c0-.08-.06-.11-.09-.16v-.06h0c0-.06-.08-.1-.11-.15s-.11,0-.09-.15h-.06v-.07h0v-.07c0-.07-.08-.06-.09-.1s-.1-.13-.14-.21,0-.11,0-.12h0a.47.47,0,0,0-.09-.12s0-.11-.1-.09h0s0,0-.07,0-.07,0-.06-.06l-.09-.06h0a.69.69,0,0,1-.11-.13s0-.05-.09,0h0v-.09a.08.08,0,0,1-.08-.09l-.08.06s-.06-.06-.1,0V36h-.27a.11.11,0,0,0-.09,0h0l-.14.15v.07a.22.22,0,0,0,0,.16v.08h-.06V38h.06v.49h.06v.57h.07v.09a.55.55,0,0,0,0,.31h0v.4h.06V40h.06v.38h.05v.25h0V41h-.14v.23c0,.08,0,.1.06.11v.3h0V42h.07v.23h.06v.32h.06v.17c0,.07,0,.09.07.09v.3h.06v.24h.06v.3h.06v.25h.06V44a.38.38,0,0,0,0,.15.74.74,0,0,1,0,.21v.12h.06v.16c0,.07,0,.1.07.1v.08a.41.41,0,0,0,0,.22h0v.25h.26v.23h0v.25h.06V46h.07v.07c0,.15,0,.16.07.18v.23h.06v.24h.06V47H113v.25h-.07a.38.38,0,0,1-.18-.15h-.07l-.06-.1h0l-.07-.06h-.09a.11.11,0,0,1-.1-.08h0l-.18-.14a.08.08,0,0,0-.06-.07l-.08,0H112v-.08a.57.57,0,0,0-.18-.12h-.11v-.08h0l-.11-.1a.27.27,0,0,0-.08-.07h-.07v0s-.11-.11-.18-.11h-.1l-.1-.09h0l-.22-.14a.54.54,0,0,0-.22-.15v-.06h-.11v-.05l-.11-.06a.16.16,0,0,1-.17-.12c0-.12,0,0-.06,0s-.09,0-.1,0,0-.06-.08-.06a.08.08,0,0,1-.07-.08h-.11v-.07c-.1,0-.15-.08-.24-.09v-.06h-.11v-.06h-.1a.1.1,0,0,0-.09-.07.07.07,0,0,1-.07-.07h-.11v-.08c-.1,0-.16-.07-.25-.08h0a1.11,1.11,0,0,1-.29-.14.31.31,0,0,0-.13-.06h0c0-.06,0,0-.07-.06h-.11c0-.07,0-.07-.07-.06v-.08h-.52v-.08h-.18c0-.08,0-.09-.13-.08h-.06v-.07H107v-.08h-.52c-.07,0-.11.07-.16.1a.16.16,0,0,0-.06.08v.08a.09.09,0,0,0,0,.07h0v.46h.06v.24h.07v.23s0,.1.07.09v.14h0v.12a.19.19,0,0,0,0,.13c.05,0,0,.07,0,.07h0a.3.3,0,0,0,.08.2.33.33,0,0,1,.07.16h0a.5.5,0,0,0,.13.25v.07a.15.15,0,0,0,.05.11h0s0,.12.06.15,0,.13.08.11v.12c.06,0,.05.06.06.1h0a.84.84,0,0,0,.21.35c0,.08,0,.12.08.17l.06.11h0l.07.13c0,.06.08.08.07.16h.06V48s0,.07.07.07,0,.06,0,.06h0v.09c0,.07.06.09.08.16l.06.14c0,.06,0,.06.06.06h0v.09h.06l.12.16V49c.06,0,.1.13.17.16l.12.17s0,.09,0,.1,0,.11.11.12,0,0,.05.08a.54.54,0,0,1,.07.13s.07.08.1.13.06.06.05.12h0c0,.07,0,.13.07.15h0v.08h0l.05.08v.1h0a.05.05,0,0,0,.06.05h0v.14a.4.4,0,0,1,.13.13.25.25,0,0,1,.08.13h0c0,.08,0,.08.07.09s0,.08,0,.08h0a.06.06,0,0,0,.06.06h0V51c0,.09.07.09.08.16a.09.09,0,0,0,0,.07h.06c0,.08,0,.08.06.09v.08h.06v.07h.06v.08h-.36v-.07h.09v-.07h-.32s0-.07-.06-.07h-.33c0-.06,0-.08-.13-.07h-.3c0-.06,0-.09-.07-.09h-.33v-.07h-.46V51h-.45v-.07h-.55v-.06h-.52s0-.06,0-.06h-.73v-.08h-1.6a.07.07,0,0,0-.07.08h-.34s-.06,0-.06.08h-.18V51H103V51l-.08.06c0,.06,0,0-.06.06v.07Z" transform="translate(0 -0.01)"/><path class="cls-11" d="M119.7,33.42h15.92V51.13h0V51s-.07,0-.08-.06l-.09-.06h-.08V50.8h-.17v-.08h-.37c0-.06,0-.09-.07-.08h-1.55s-.06,0-.06.08h-.75v.06h-.51v.08h-.5V51h-.95v.07h-.38v.08h-.38a.07.07,0,0,0-.07.07h-.33l-.05.08h-.37v.08h-.32v.07a.67.67,0,0,0-.31,0c-.1.05,0,0-.08,0v-.07h.06v-.08l.1-.12s.06,0,.06-.08a.26.26,0,0,1,.1-.13.14.14,0,0,0,0-.09v-.07h0v-.09h0s.09,0,.08-.12,0,0,0-.06l.12-.16v-.11a.08.08,0,0,0,.08-.06l.09-.11L129,50l.12-.16v-.11a.09.09,0,0,0,.08-.06.83.83,0,0,1,.08-.12s.08-.06.09-.1.09-.07.08-.15h0s0-.05,0-.08h0a.08.08,0,0,0,.08-.07h0l.1-.12s.07-.07.07-.13h0v-.14h.06v-.09l.08-.1c.05-.07.11-.12.12-.21H130a.24.24,0,0,1,0-.12l.1-.12h.06V48c.07,0,.1-.07.13-.13a.64.64,0,0,1,.1-.13.11.11,0,0,0,0-.08.17.17,0,0,1,.05-.15.71.71,0,0,0,.1-.14c.05,0,.06-.12.11-.15a.18.18,0,0,0,.06-.09V47a.56.56,0,0,0,.13-.24h0v-.08h.06s0-.08.06-.08,0-.07,0-.09a.17.17,0,0,0,0-.14l.08-.17h0V46a.28.28,0,0,0,.11-.13c0-.06,0-.12.08-.15a.14.14,0,0,0,0-.09h0v-.11l.06-.08a.22.22,0,0,1,.05-.08v-.16l.06-.16a.61.61,0,0,1,.05-.12c.07,0,.06-.11.07-.17h0v-.3h.07v-.24h0v-.47h0v-.14l-.07-.06h-.06v-.08h-.64v.08h-.22v.07h-.17v.09h-.2v.08h.4v.07s-.08,0-.08.07-.12,0-.16,0a.15.15,0,0,1-.12.07h0c0,.07-.06,0-.09.07h0a.11.11,0,0,0-.09.06c0,.06-.05,0-.06,0a.16.16,0,0,1-.11.05h0v.07h-.12v.07h-.1v.06h-.1a.18.18,0,0,0-.15.08v.06h-.11v.06h-.1v.06h-.12v.06H129v.06a.15.15,0,0,0-.13.08c0,.08-.11,0-.12.1s-.1,0-.11.06l-.21.12v0h-.1c0,.06,0,.07-.07.08a.26.26,0,0,0-.13.1.14.14,0,0,1-.11.07H128l-.09.07h0l-.11.07v0h-.12v.08h-.05s-.07,0-.06.06h0c-.06,0-.08,0-.08.08a.28.28,0,0,0-.2.15h-.08a.1.1,0,0,0-.09.05s-.07,0-.07,0l-.19.11v.08h-.08l-.09.08h0l-.21.15h-.06l-.14.07V47h0a.43.43,0,0,1,0-.16.39.39,0,0,0,0-.26v-.07h.06v-.23a.06.06,0,0,0,.06-.08V46c0-.06.07-.1.06-.18v-.06h.06v-.23h.06v-.22h.08V45h.07v-.32h.06v-.23h.06v-.24h.07v-.29h.06v-.24H127v-.25c.06,0,.07-.08.06-.15V43h0v-.24h.06v-.29h.06v-.24h.06V42s.07,0,.07-.11a.43.43,0,0,1,0-.16v-.07h.06v-.25h.06V41h.07v-.3h.07v-.32h.06V40h.06V39.7h0a.06.06,0,0,0,.06-.07v-.34h0v-.4h.06v-.55h.06v-.65h0V36.31h0V36h-.27a.55.55,0,0,0-.17-.27c-.06-.07-.14,0-.21,0h-.18v.08H127v.07h-.11V36a1.33,1.33,0,0,0-.19.14.9.9,0,0,0-.15.19h-.07l-.1.11-.12.15h0l-.13.17h0a.3.3,0,0,1-.09.13l-.09.13s0,.1-.09.12,0,.05,0,.08v.08h-.23v.08s-.08.06-.09.1-.1.13-.14.2,0,0-.08.07a.51.51,0,0,0-.07.17h0a.34.34,0,0,0-.1.15h0l-.09.1v0a.17.17,0,0,1,0,.1l-.12.17a.64.64,0,0,0-.08.14h0v.09c0,.07-.11.12-.12.22h0c-.07,0,0,.12-.11.1l-.08.2a.73.73,0,0,0-.2.35h0l-.07.15a.64.64,0,0,1-.1.13,1.14,1.14,0,0,0-.1.19l-.09.17a.66.66,0,0,0-.11.24.49.49,0,0,0-.11.14l-.07.16a1.08,1.08,0,0,0-.11.18h0s0,0,0,.08a2,2,0,0,0-.14.31c0,.12-.06.11-.11.15s0,0,0,.07h0l-.09.22a.41.41,0,0,0-.13.25h0a.56.56,0,0,1-.11.2h0a.21.21,0,0,1,0,.11h0v.23h-.07c0,.07,0,.08-.06.1v.15s0,0-.07.07a.56.56,0,0,1-.12.26c-.07.06,0,.09,0,.09h0l0,.07h0v.14h0l-.1.24h0l-.06.11h0l-.05.07h0V43.4h-.7v-.58c0-.06,0-.1-.07-.1v-.61h-.06v-.49h-.06v-.56h-.06v-.37s0-.11-.06-.13v-.48h-.07v-.56h-.07V39h-.06v-.41h-.06v-.41H121v-.4h-.06v-.41h-.06V37h-.06v-.32h-.06v-.23h-.07V36h-.06v-.25h-.06v-.3h-.07v-.25h-.07v-.08a.06.06,0,0,0,0-.08h0v-.31h-.06v-.09a.18.18,0,0,1,0-.16v-.35a.73.73,0,0,1-.08-.22c0-.09,0-.09-.06-.15h0l-.07-.13v-.11h0s0,0,0-.06A2.33,2.33,0,0,1,119.7,33.42Z" transform="translate(0 -0.01)"/><path class="cls-11" d="M135.62,51.55V61.3H121.3v-.08h.25v-.07h.23v-.06s.11,0,.14-.08h.15V61h.12c0-.12.12-.06.19-.09v-.07c.11,0,.18-.11.29-.1h0c0-.06,0,0,.07,0a1.28,1.28,0,0,0,.2-.12.12.12,0,0,1,.1-.05h.08v-.06h.13a.08.08,0,0,1,.11-.08h.07v-.08h0c.08,0,.11,0,.13-.07h.12V60h.12v-.07c0-.07.11,0,.15,0v-.06a.15.15,0,0,0,.16-.07h0s.1,0,.13-.07.07,0,.1,0,0,0,.07-.06a.19.19,0,0,1,.08,0v-.06h.13a.13.13,0,0,1,.11-.06l.07-.07a.1.1,0,0,0,.12-.08h.13v-.07h0c.07,0,.07,0,.09-.08h.11V59s.07,0,.09,0,0,0,.07,0a.13.13,0,0,0,.13-.07h0c.06,0,.09,0,.11-.07h.08s.08,0,.07-.08h.12v-.08h.13l.17-.11v0a.09.09,0,0,0,.1,0h.05c.07,0,.13-.1.21-.1h0c0-.06,0,0,.06,0h0c0-.08.09-.06.14-.09s.07-.09.12-.11a1.71,1.71,0,0,1,.23-.13c0-.09.11-.05.17-.07v-.06h.11l.14-.08v-.06h.11v-.07h.12v-.06h.13l.13-.09h.11s.07-.06.11-.07h0c0-.06,0,0,.06-.06s.07,0,.1,0a.16.16,0,0,0,.16-.11h0l.08,0h.06c0-.07.06,0,.1-.07a.38.38,0,0,0,.15-.09L129,57l.11-.06h0l.18-.1.12-.09h0l.13,0s.07-.1.12-.11.12-.12.21-.14l.14-.08.18-.13c.06,0,.1-.1.17-.09h0c0-.08,0,0,.08-.07h.05l.11-.07h0V56h.07a.72.72,0,0,1,.15-.07h0v-.06a.13.13,0,0,0,.14-.08c0-.08.1,0,.12-.08l.32-.21h0s.11,0,.12-.09h0c.07,0,.12-.07.16-.11a.21.21,0,0,1,.13-.07v-.07c.08,0,.1-.09.17-.09s.11-.06.17-.1.09-.11.14-.13.09-.11.16-.1,0-.08,0-.08h0l.09,0h0l.11-.09h0a.31.31,0,0,0,.21-.16l.08-.07h0c.09,0,.13-.08.19-.15h.12V54a.17.17,0,0,0,.05-.1h.07l.18-.2h.09s.08-.14.14-.13l.09-.1v-.06H134v-.07l.08-.12.1,0,.21-.26V52l.09-.13h0v-.06s.05-.06,0-.1v-.06h0C135.62,51.65,135.62,51.58,135.62,51.55Z" transform="translate(0 -0.01)"/><path class="cls-11" d="M117,61.3H102.74V51.55s0,.09.06.07h0c0,.07,0,.11.07.11v.14h.06l.16.23a.09.09,0,0,0,0,.08,1.8,1.8,0,0,1,.19.2.76.76,0,0,0,.11.14v.07h.07c0,.06,0,.08.06.08h.05v.06l.1.07a.1.1,0,0,1,.1.1h0L104,53a.18.18,0,0,0,.07.05h0l.08.08a.38.38,0,0,1,.14.12c0,.07.05,0,.08.06s.07.12.13.11h0v.06c.07,0,.06,0,.08.08h.11v.08a.23.23,0,0,0,.07.07h.11s.05.07.07.07a.24.24,0,0,1,.13.09.52.52,0,0,0,.11.1l.07.05c.07,0,.06,0,.06,0a.15.15,0,0,1,.13.08c0,.08,0,0,0,.06l.07.06h.05l.12.07v.06c.08,0,.13.06.18.11a.24.24,0,0,0,.11.06h0l.11.08h0l.15.1h0l.11.08.07.06h.06a.15.15,0,0,1,.13.08V55h.11v.06h.11a.06.06,0,0,0,0,.06.38.38,0,0,0,.13.09.33.33,0,0,1,.13.07l.13.09.12.08c.07.08.17.09.24.17h0v.06h0a.07.07,0,0,0,0,.09h.06a.46.46,0,0,0,.13.07h0a.31.31,0,0,1,.13.06.16.16,0,0,0,.11,0l.21.15h0c.08,0,.11.1.18.11s.06,0,.09.06l.09.07a.82.82,0,0,1,.2.12c.06,0,.14,0,.18.13h0a.16.16,0,0,1,.13.08.19.19,0,0,1,.16.09.22.22,0,0,0,.2.1h0v.06h.06a.63.63,0,0,0,.19.07v.07h.07s0,.08.07.09h0a.13.13,0,0,0,.13,0h.61v.08h.12l.19.14h0l.11.08a.1.1,0,0,1,.08.06h0c0,.06.06.05.09.07l.09.06a.57.57,0,0,0,.13.08s.1,0,.14.1h0a.16.16,0,0,1,.13.06h.08V58h.07c0,.06,0,.1.09.07h0v.08h.12a.09.09,0,0,0,.12.07c.06,0,.08.1.14.08V59h.13c0,.08,0,.09.13.08h.05v.08h.12v.09h.14a.14.14,0,0,0,.12.06.44.44,0,0,0,.31.17v.06h.11l.1.06h0a.57.57,0,0,0,.21.13.25.25,0,0,1,.17.07l.13.1h0c.07,0,.13.1.21.08h0c0,.07.06,0,.09.07h0a.19.19,0,0,1,.14.09h0c.08,0,.15.1.23.09h0l.1.08.07.06s.12,0,.15.08a.21.21,0,0,1,.18.09h0c.08,0,.14.12.24.09h0a.1.1,0,0,0,.11,0V61h.17c0,.1,0,.1.09.09h0v.07h.24v.08h.25Z" transform="translate(0 -0.01)"/><path class="cls-12" d="M123.81,60.07h0c-.09,0-.11,0-.13.07h0c-.06,0-.09,0-.09.08s-.09,0-.11.08h-.13v.06h-.08a.12.12,0,0,0-.1,0c-.06,0-.11.13-.2.12s-.07,0-.07,0h0c-.11,0-.18.15-.29.1v.07c-.07,0-.15,0-.19.09h-.12v.06h-.15c0,.07-.09.07-.14.08s0,0,0,.06h-.23v.07h-.25v.08h-.87v-.06a.57.57,0,0,1-.38-.09c-.11-.09-.11,0-.16-.07s-.1,0-.14,0,0-.06-.05-.06a.21.21,0,0,1-.18-.09h-.12s0-.08,0-.08h0v-.09h-.12s-.1-.06-.12-.11-.08-.07-.11-.13a.28.28,0,0,0-.09-.1l-.1-.14-.32-.16h.2l.05-.09H119v-.07h.33v.08h.25V60h.23s.08,0,.09.07h.68c0-.07.09-.06.13-.06h.19v-.08h.22v-.08h.18v-.08h.1v-.07a.72.72,0,0,1,.18-.09.12.12,0,0,0,.08-.09h.11c0-.09,0-.06.07-.12a.35.35,0,0,0,.09-.1H122l.07-.08a.44.44,0,0,0,.08-.11l.12-.15h0c0-.07.08-.14.16-.16h0s0-.1.07-.12.09-.16.18-.18h0s0-.1.08-.12,0,0,.06-.09l.11-.13s0-.11.08-.11.07-.08.11-.11a2,2,0,0,0,.13-.19c0-.06,0,0,0,0a.22.22,0,0,1,.14-.16h0a.49.49,0,0,1,.08-.12s.06-.1.11-.15a.5.5,0,0,0,.13-.19c.06,0,.06-.07.11-.09a.15.15,0,0,0,.08-.11c0-.07.06-.08.09-.14s.07-.06.09-.1.09-.07.11-.13,0-.06,0-.06a.35.35,0,0,1,.11-.14c.06,0,0,0,.06-.08s.07-.12.13-.14h0a.48.48,0,0,1,.15-.22c.06-.07.07-.16.12-.23a.49.49,0,0,0,.12-.13.83.83,0,0,1,.08-.12.48.48,0,0,0,.12-.16s0-.09.07-.09.06-.09.11-.11,0-.1.09-.13.07-.11.11-.16l.09-.1.1-.1c.05,0,.07-.13.12-.18a.76.76,0,0,0,.11-.14c0-.06.09-.07.09-.14s.06-.11.09-.17l.11-.15h0a.76.76,0,0,0,.11-.14l.12-.12v-.08l.05-.08a.44.44,0,0,0,.12-.18.31.31,0,0,1,.06-.13c.07,0,.06-.1.12-.1s.06,0,.06-.09.07-.09.09-.15a.41.41,0,0,1,.1-.13.48.48,0,0,1,.08-.11.36.36,0,0,0,.13-.23l0,0a.64.64,0,0,1,.1-.13l.1-.13a.2.2,0,0,0,.08-.12h.15a.81.81,0,0,0,.31,0h.53v-.07H129V51.6h.32c.05,0,.06,0,.06-.09h.32s.07,0,.07-.09h.4v-.07h.37v-.07h.39s-.08.08-.08.16-.1.15-.17.19-.06.06-.07.09a.72.72,0,0,1-.14.24.16.16,0,0,0-.06.08.42.42,0,0,1-.11.15l-.08.12-.1.13c0,.06-.09.09-.12.16a.94.94,0,0,1-.12.22l-.12.17-.09.1-.1.11s0,.1-.08.12-.06.11-.1.15a1.62,1.62,0,0,0-.1.18l-.07.09a.28.28,0,0,0-.09.1c0,.07-.09.16-.14.22s0,.09-.08.09-.07.07-.1.11a1.57,1.57,0,0,1-.12.21c-.05.05,0,0,0,.05h0l-.1.11-.07.08a.15.15,0,0,1-.09.14c-.09,0-.08.15-.15.18s-.06.06-.07.1a1.37,1.37,0,0,1-.13.2,2.39,2.39,0,0,1-.13.21.76.76,0,0,0-.11.14l-.09.09-.08.13a.36.36,0,0,1-.07.1l-.1.1a1,1,0,0,0-.11.17l-.1.17a.54.54,0,0,1-.07.13c-.07,0-.1.13-.16.18s-.16.24-.26.33-.06.06-.07.1l-.09.14a1.28,1.28,0,0,0-.11.2h0a.28.28,0,0,0-.09.1l-.09.13c0,.06-.1.08-.12.17s-.06.06-.09.09l-.09.12-.09.13a.53.53,0,0,0-.12.14l-.08.1-.1.11-.09.14-.15.2s-.07,0-.08.09a1,1,0,0,1-.17.27v.09h-.06v.07l-.07.07a.13.13,0,0,0-.11.06h-.13v.06h-.08s0,.05-.07.06h-.1s-.08.06-.13.07h0c0,.08-.1.07-.16.07v.06s-.11,0-.15,0H124Z" transform="translate(0 -0.01)"/><path class="cls-13" d="M118.62,60l.12.17.1.14a.28.28,0,0,1,.09.1c0,.06.09.07.11.13s.08.07.12.11v.09h-.06l-.09.06h-.15V61h-.06c-.09,0-.11,0-.13.08h-.13v.08h-.19l-.06.07h-.37v.07h-.65v-.08H117c0-.07,0-.1-.09-.09h-.27q0-.11-.09-.09h-.11V61h-.11v-.08h-.13a.1.1,0,0,1-.11-.05h0c-.1,0-.16-.08-.24-.09h0a.21.21,0,0,0-.18-.09c0-.1-.1-.06-.15-.08l-.07-.06-.1-.08h0a.26.26,0,0,1-.23-.09h0a.19.19,0,0,0-.14-.09h0s-.08,0-.09-.07h0c-.08,0-.14-.06-.21-.08h0l-.13-.1a.18.18,0,0,1-.17-.07.57.57,0,0,1-.21-.13h0s-.08,0-.1-.06-.07,0-.11,0v-.06a.44.44,0,0,1-.31-.17v-.08h-.06l-.1-.14-.12-.17a1,1,0,0,0-.14-.22.91.91,0,0,1-.11-.16h0a.08.08,0,0,0,0-.07s-.06-.06-.08-.1a.64.64,0,0,1-.1-.13l-.1-.15-.06-.07-.09-.11a.28.28,0,0,1-.09-.1l-.14-.22a.44.44,0,0,0-.07-.08s0-.06-.07-.08a.19.19,0,0,1-.06-.1h0l-.06-.11h0l-.46-.41h0l-.05-.06-.08-.1s0-.1-.08-.12,0-.11-.1-.14-.06-.1-.1-.12,0-.09-.1-.12,0-.06,0-.09v-.09s-.08-.18-.17-.2h0l-.09-.12-.16-.21-.06-.08-.12-.14-.06-.09a.44.44,0,0,1-.08-.11l-.14-.27h0l-.11-.1a.36.36,0,0,0-.07-.1l-.09-.13-.09-.11a.15.15,0,0,0-.09-.14c-.09,0-.09-.21-.17-.28s0-.1-.09-.11,0-.1-.1-.11a.14.14,0,0,1-.07-.1c0-.06-.07-.08-.1-.13a1.06,1.06,0,0,0-.09-.11l-.08-.16a.61.61,0,0,0-.07-.14c-.05,0-.08-.11-.13-.15s0-.07-.07-.1l-.1-.12s-.06-.11-.12-.13h0l-.11-.15h0v-.12h0l-.13-.2-.07-.07c-.07-.07-.08-.06-.1-.11s-.06,0-.06-.08,0-.06-.06-.09a.38.38,0,0,1-.15-.28h0s-.08-.05-.09-.1-.13-.11-.14-.22h0c-.05,0,0,0,0-.08h.39v.07h.43v.08h.12c0,.07,0,.09.08.09H109v.08h.37v.08h.38v.07h.37v.07h.3v.08l.12.15a.75.75,0,0,1,.13.25.07.07,0,0,1,.07.07c0,.07,0,.06.07.09l.1.14.09.12s.09.06.09.09.1.07.1.16.05.1.06.15h0s0,.1.08.14a1.1,1.1,0,0,0,.15.16s0,.07.06.1a.19.19,0,0,1,.1.1s.13.11.14.22h0s.14.1.12.22H112a.9.9,0,0,0,.14.2s0,.08.06.08.06.12.12.14,0,0,.06.08,0,.1.09.12,0,.1.1.14,0,.1.09.11.06.09.11.12,0,.09.08.12.06.11.11.16l.13.14v.09a1.66,1.66,0,0,1,.25.34l.13.13a1.43,1.43,0,0,0,.14.2c.07,0,.1.17.17.22l.07.07s0,.1.08.12.06.12.11.15,0,0,.06.06.06.13.12.14h0s0,.1.07.12.08.12.12.17l.07.09a1.07,1.07,0,0,0,.14.16c.07.05.1.15.17.21s.1.18.19.22h0A.49.49,0,0,0,115,58s.06.11.1.14a.47.47,0,0,1,.09.12.08.08,0,0,0,.07.08c.07,0,.07.08.11.12l.09.12a.71.71,0,0,1,.1.14l.17.19h.06c.06.07.1.14.15.21l.17.19h.07a.22.22,0,0,1,0,.08v.07h.35a.23.23,0,0,0,.17.15s.11,0,.12.1H117v.08h.1v.08h.24V60h.25v.08h.68c.07,0,.13,0,.19,0s0,0,0-.06Z" transform="translate(0 -0.01)"/><path class="cls-14" d="M118.56,61.06h.18V61h.06c.06,0,.07,0,.07-.08H119l.09-.06h.24s0,.1,0,.08h.12a.21.21,0,0,0,.18.09l0,.06c0,.06.11,0,.14,0a.19.19,0,0,1,.16.07c.05.07.25,0,.38.09v.06H118v-.07h.28v-.07h.06C118.55,61.15,118.55,61.15,118.56,61.06Z" transform="translate(0 -0.01)"/><path class="cls-15" d="M119.7,33.42v.14c0,.06,0,0,0,0v.11h0l-.17-.22s-.1,0-.11-.08-.1,0-.11,0l-.09.07h0a.26.26,0,0,1-.14.11.14.14,0,0,1,0-.09s.11-.06.1-.15Z" transform="translate(0 -0.01)"/><path class="cls-16" d="M135.62,51.55c-.05,0-.05.1-.07.16h0v-.17s0-.14,0-.18,0-.06,0-.06v-.18h0Z" transform="translate(0 -0.01)"/><path class="cls-17" d="M102.8,51.62s0-.06-.06-.07v-.42h.07v.08h0v.24h0Z" transform="translate(0 -0.01)"/><path class="cls-17" d="M117,61.22h.19v.08H117Z" transform="translate(0 -0.01)"/><path class="cls-18" d="M118.1,61.23v.07H118v-.07Z" transform="translate(0 -0.01)"/><path class="cls-19" d="M118,61.23v.07h-.12v-.07Z" transform="translate(0 -0.01)"/><path class="cls-20" d="M117.62,60h-.23v-.08h-.24v-.08h-.1v-.08h-.12c0-.1-.07-.09-.12-.1a.23.23,0,0,1-.17-.15h-.09v-.07a.22.22,0,0,0,0-.08h-.07l-.17-.19c-.05-.07-.09-.14-.15-.21h-.06l-.17-.19a.71.71,0,0,0-.1-.14l-.09-.12a.12.12,0,0,0-.11-.12c-.11,0,0,0-.07-.08a.47.47,0,0,0-.09-.12.41.41,0,0,0-.1-.14s0-.08-.08-.12h0a1.94,1.94,0,0,0-.19-.22c-.07-.06-.1-.16-.17-.21a1.07,1.07,0,0,1-.14-.16l-.07-.09a.27.27,0,0,0-.12-.17c-.06,0,0-.08-.07-.12h0c-.06,0-.08-.09-.12-.14s0,0-.06-.06,0-.11-.11-.15,0-.08-.08-.12l-.07-.07c-.07,0-.1-.17-.17-.22a1.43,1.43,0,0,1-.14-.2l-.13-.13a1.66,1.66,0,0,0-.25-.34v-.09l-.13-.14s-.06-.12-.11-.16,0-.1-.08-.12-.06-.09-.11-.12-.06-.09-.09-.11,0-.11-.1-.14-.06-.08-.09-.12,0-.08-.06-.08,0-.13-.12-.14,0,0-.06-.08a.9.9,0,0,1-.14-.2h-.06a.27.27,0,0,0-.12-.22h0a.92.92,0,0,1-.14-.22c0-.09-.07-.07-.1-.1s0-.07-.06-.1-.1-.11-.15-.16,0-.09-.08-.14h0s0-.14-.06-.15-.1-.07-.1-.16-.06-.06-.09-.09l-.09-.12-.1-.14s-.06,0-.07-.09,0-.07-.07-.07a.75.75,0,0,0-.13-.25l-.12-.15V51.8h-.06v-.14h0c0-.06,0-.09-.06-.08h0v-.09h-.06l-.06-.07h0l-.07-.14h0v-.07c0-.07,0-.09-.06-.08h0v-.08l-.06,0c-.06,0,0,0-.06,0l-.07-.07h0l-.07-.14h0c0-.08-.1-.13-.11-.22h0v-.09h0l-.11-.11-.05-.08V50.2h-.07c0-.11,0-.13-.07-.15h0V50l-.1-.06c0-.05-.07-.08-.1-.13a.54.54,0,0,0-.07-.13s0-.08,0-.08,0-.11-.11-.12,0-.07,0-.1l-.12-.17h0a.39.39,0,0,1-.14-.25h0l-.12-.16v-.09h-.07v-.12a.13.13,0,0,0-.06-.1h0c0-.07-.1-.09-.08-.16v-.09h0v-.15l-.06-.06h-.06v-.07h-.06a.23.23,0,0,0-.07-.16l-.07-.13h-.05l-.06-.11s-.09-.09-.08-.17a.84.84,0,0,1-.21-.35h0s0-.11-.06-.1V46.8c-.07,0,0-.09-.08-.11s0-.1-.06-.15h0s0-.1,0-.11,0,0,0-.07a.5.5,0,0,1-.13-.25h0a.33.33,0,0,0-.07-.16.3.3,0,0,1-.08-.2h0v-.07c0-.07,0-.09,0-.13v-.12h0v-.14c-.06,0-.05-.06-.07-.09s0-.12,0-.16V44.8h-.07v-.64a1,1,0,0,0,.13-.16h.69v.07h.21v.08h.18v.08h-.71v.08h.13s.07,0,.07.06h.11a.07.07,0,0,1,.07.06h0a.31.31,0,0,1,.13.06,1.11,1.11,0,0,0,.29.14h0c.09,0,.15.13.25.08v.08h.11c0,.05,0,.07.07.07a.1.1,0,0,1,.09.07h.1V45h.11v.06c.09,0,.14.14.24.09v.07h.11a.08.08,0,0,0,.07.08.09.09,0,0,1,.08.06c0,.06.07,0,.1,0s0,0,.06,0,.12.08.17.12l.11.06v.05h.11v.06a.54.54,0,0,1,.22.15l.22.14h0l.1.09h.1a.72.72,0,0,0,.18.11c.07,0,0,0,0,0h.07a.27.27,0,0,1,.08.07l.11.1h0v.07l.19.12v.06h.15l.08.05a.07.07,0,0,0,.06.07,1.24,1.24,0,0,1,.18.14h0c0,.05.08,0,.1.08s.06,0,.09,0l.07.06h0l.08.05h.07a.38.38,0,0,0,.18.15v.06h.07c0,.06,0,.09.06.08s.12.09.16.16H113l.11.15h.09l.12.12.13.13h.07V48s.06,0,.06.08h.1v.07a.23.23,0,0,0,.15.11c.07,0,.07,0,.08.08a.07.07,0,0,0,.09.07h0v.06h.1l.1.15h.09a.15.15,0,0,0,.1.12.37.37,0,0,1,.16.17h.1l.11.15h.08v.07a.23.23,0,0,1,.15.1.91.91,0,0,1,.11.16h.08l.14.15h.06c0,.06.08.13.13.15a.59.59,0,0,1,.17.18h.11s.06.07.06.1,0,.06.07.06,0,.11.07.1H116v.07h.11l.11.15h.07l.06.07c0,.06.08.09.13.09s0,0,0,0,.06.08.09.09a.66.66,0,0,1,.18.19h.09a.73.73,0,0,0,.21.22c.08.07.15.17.25.2l.1.14h.09c0,.08,0,.07.07.1l.15.14a.43.43,0,0,1,.13.17h.09c0,.05,0,.09.07.08h0l.15.12c.06,0,.09.15.18.14l.1.15h.16v.07h-.11a.14.14,0,0,1,0,.11s-.07.08-.11.14h-.08l-.18.24h.55l-.18.23h-.09v.06a.81.81,0,0,0-.19.29h0s0,.12-.1.14,0,0-.07.08l-.12.16V54h0v.1a.41.41,0,0,1-.14.2v.14h-.06v.2h-.06V55h0c0,.09,0,.21-.06.26v.46h0v1.35s.06.06.06.12v.21h.06v.13h.06v.15h.06a.5.5,0,0,0,.06.24h0a.06.06,0,0,0,0,.06v0a.35.35,0,0,0,.14.2v.13c.07.08.12.17.19.26a2.11,2.11,0,0,1,.19.23,1.38,1.38,0,0,0,.22.26h.08l.11.15h.09c0,.09.08.06.11.1a.28.28,0,0,0,.15.08v.07h.17v.08h-.2v.07h-.17l0,.09h-.37s-.07,0-.08.07H118A.67.67,0,0,0,117.62,60Z" transform="translate(0 -0.01)"/><path class="cls-21" d="M119.25,52.53h-.16l-.1-.15c-.09,0-.12-.09-.18-.14l-.15-.12h0s-.06,0-.07-.08h-.09a.43.43,0,0,0-.13-.17l-.15-.14s-.09,0-.07-.1h-.09l-.1-.14c-.1,0-.17-.13-.25-.2a.73.73,0,0,1-.21-.22h-.09c0-.08-.09-.16-.18-.19s-.06-.06-.09-.09,0,0,0,0a.15.15,0,0,1-.13-.09l-.06-.07h-.07l-.11-.15h-.11v-.07h0V49.8c0-.18,0-.11,0-.14v-.59a.18.18,0,0,1,0-.16s0,0,0-.08v-.55h.06V47.6h.06V47a.17.17,0,0,1,0-.1.11.11,0,0,0,0-.11v-.46a.2.2,0,0,1,0-.15v-.59c.06,0,.06-.07.06-.13V45c.07,0,.06,0,.06-.11V44.7H117v-.58h0v-.63h.06v-.55h0a1.09,1.09,0,0,0,0-.36v-.11h.07V42h.06v-.4h.41v-.48s.07,0,.06-.08v-.41h0v-.16a.43.43,0,0,0,0-.16v-.16h.06v-.46a.07.07,0,0,0,.07-.07v-.35h.06v-.42s.07,0,.06-.08v-.16a.45.45,0,0,1,0-.23s.07,0,0-.08v-.17H118v-.38s.07,0,.07-.06V37h.06v-.32h0v-.3h.06v-.26h.06v-.3h0V35.6h.07v-.23h.07v-.23c.07,0,.07,0,0-.11s.06-.15.08-.22a.77.77,0,0,0,.08-.29h0a2.44,2.44,0,0,0,.1-.24c0-.09.09-.14.09-.24s.08-.12.12-.18H119v-.09h0a.26.26,0,0,0,.14-.11h0a.1.1,0,0,0,.09-.07c0-.07.07,0,.11,0s.07.07.11.08l.17.22h0l.07.13h0c0,.06,0,.13.06.15s.09.12.08.22,0,0,0,.08v.27a.18.18,0,0,0,0,.16V35H120v.14s0,.05,0,.08h0v.25H120v.29h.06V36h.54v.3h.06v.22h.07V37h.06v.33h.06v.38h.06v.4H121v.39h.06v.4h.06v.38c0,.1,0,.09,0,.09V40h.07v.15a1.41,1.41,0,0,0,0,.41h0V41h.06v.48h.06V42h0v.56h.27v.66h0v.61a.17.17,0,0,0,.06.13v.31c.06,0,.06.06.06.12v.52h.06v.65h.06v.6a.17.17,0,0,0,0,.1v.85a.11.11,0,0,1,0,.08v.68a.09.09,0,0,0,0,.07v1.59h0V50h-.1a.22.22,0,0,1,0,.08l-.06.06-.17.14c0,.05-.12.05-.15.13s0,0-.06.08h-.1c0,.08,0,.07-.07.08v.06s-.11,0-.12.09h0a.11.11,0,0,0-.1.08c0,.08-.13,0-.15.15s-.06,0-.07.08h-.1c0,.08,0,.07-.07.08v.07c-.1,0-.15.09-.2.17h-.09v.07a1.5,1.5,0,0,0-.14.16H120l-.11.15a.17.17,0,0,0-.14.09c0,.06-.08.1-.13.16h-.08l-.06.06h0a.26.26,0,0,0-.16.18h-.1s0,.08-.06.07h0S119.28,52.53,119.25,52.53Z" transform="translate(0 -0.01)"/><path class="cls-13" d="M114.72,48.67h-.1l-.1-.15h-.1v-.06h0a.08.08,0,0,1-.1-.06h0s0-.08-.08-.08-.11-.07-.15-.11,0,0,0-.07H114c0-.05,0-.08-.06-.08s0,0,0-.07h-.07l-.13-.13a.68.68,0,0,1-.12-.12h-.09l-.11-.15h-.08c0-.07-.08-.14-.16-.16v-.5h-.06v-.23h-.06v-.25H113v-.22h-.07v-.07c0-.15,0-.16-.07-.18v-.23h-.23V45.5h0v-.23h-.06V45h-.06v-.25h-.07v-.26a.38.38,0,0,1-.05-.21v-.08h0v-.25h-.06V43.6h-.06v-.23h-.06v-.3h-.07v-.24H112v-.32H112V42h-.06v-.32h-.07v-.16c0-.11,0-.13-.06-.16v-.32h0v0a.53.53,0,0,0,0-.25h0v-.24h0v-.37h-.06v-.32h-.06v-.4h0V39c0-.06,0-.1-.06-.11V37.83h-.06V36.12h.06a.37.37,0,0,1,.13-.27v-.08s.05-.06.09-.05h.14v.07h.13a.13.13,0,0,1,.1.05l.09.07V36h.1v.08h.06v.07h.06l.09.06c0,.05,0,.07.06.06v.08l.33.35c0,.08.11.12.14.21s.06.06.09.1,0,0,0,.07h0v.15a.21.21,0,0,1,.08.11c0,.07.07.09.1.14a.16.16,0,0,0,.08.06.27.27,0,0,1,.09.16h0a.45.45,0,0,0,.11.17,1.51,1.51,0,0,1,.11.22h0v.16a.37.37,0,0,0,0,.11.1.1,0,0,0,.09.1.09.09,0,0,1,0,.07v.06l.1.13c0,.07,0,.09.06.08v.13c0,.05.11.09.12.14s0,.06.08.07v.13h0v.08h0s0,.12.07.13.05.09.08.12v.07l.06.1c0,.11.08.16.14.23v.09h.06v.06l.08.17h0v.05a.56.56,0,0,1,.13.24h0l.07.14a.42.42,0,0,0,.09.16.12.12,0,0,0,.09.12c.09,0,0,.05,0,.07s-.07,0-.09.07a.74.74,0,0,0,0,.21V42a.38.38,0,0,1,0,.15.14.14,0,0,0,0,.09v.34c0,.11,0,.13-.06.15v.52c0,.17,0,.12-.07.15v.44a.17.17,0,0,1,0,.1.67.67,0,0,0,0,.2v.28a.53.53,0,0,1,0,.25.17.17,0,0,0,0,.1v.41a0,0,0,0,1,0,.05.43.43,0,0,0-.05.25v.31a.2.2,0,0,1,0,.15.14.14,0,0,0,0,.09v.41c0,.06,0,.13-.06.15v.67h-.06v.47a.21.21,0,0,1,0,.11.28.28,0,0,0,0,.18A1.73,1.73,0,0,1,114.72,48.67Z" transform="translate(0 -0.01)"/><path class="cls-21" d="M102.8,51.62v-.56s.08,0,.06-.06l.08-.06h0v-.06h.17V50.8h.19s.06,0,.06-.08h2.06v.06h.77c0,.06,0,.09.06.09h.52V51h.63v.08h0c0,.11.1.13.14.22s.06.07.09.1h0c0,.13.1.18.15.28s0,0,.06.09,0,0,.06.08.08.06.1.11,0,.08.07.07l.13.2h0v.12h0l.11.15h0c.06,0,.09.08.12.13l.1.12a.11.11,0,0,0,.07.1c.07,0,.08.1.13.15a.61.61,0,0,1,.07.14l.08.16s.08.06.09.11.08.07.1.13a.14.14,0,0,0,.07.1s.06.08.1.11.05.08.09.11.08.22.17.28.06.1.09.14l.09.11.09.13a.36.36,0,0,1,.07.1l.11.1h0l.14.27a.44.44,0,0,0,.08.11l.06.09.12.14.06.08.16.21.09.12h0s.11.14.17.2,0,.07,0,.09v.09a.25.25,0,0,0,.1.12s.06.09.1.12,0,.11.1.14.06.08.08.12l.08.1,0,.06h0l.13.19h0l.06.11h0s0,.08.06.1,0,.06.07.08,0,0,.07.08l.14.22a.28.28,0,0,0,.09.1l.09.11.06.07.1.15a.64.64,0,0,0,.1.13.55.55,0,0,1,.08.1s0,0,0,.07h0a.91.91,0,0,0,.11.16,1,1,0,0,1,.14.22l.12.17.1.14H113v.08a.14.14,0,0,1-.12-.06h-.06c-.06,0,0-.09-.08-.08h0s0-.12-.08-.07h0v-.08h-.14a.09.09,0,0,0-.11-.08s-.1,0-.14-.08,0-.11-.12-.07h0c0-.09,0-.09-.08-.08h0v-.08h-.12v-.08h-.15a.16.16,0,0,0-.13-.06h0c0-.06-.09-.07-.14-.1a.57.57,0,0,1-.13-.08l-.09-.06a.1.1,0,0,1-.09-.07h0s-.08,0-.08-.06l-.11-.08h-.05l-.19-.14h-.06v-.1h0v-.08h-.11v-.07h-.18v-.07a.2.2,0,0,1-.19-.07c0-.07,0,0-.06,0v-.06h0a.22.22,0,0,1-.2-.1c0-.06-.12,0-.16-.09a.16.16,0,0,0-.13-.08h0c0-.08-.12-.08-.18-.13a.82.82,0,0,0-.2-.12l-.09-.07s-.08,0-.09-.06a.16.16,0,0,0-.18-.11h0l-.21-.15v-.07a.58.58,0,0,1-.26-.18h-.1V56h-.14a1.09,1.09,0,0,1-.24-.17l-.12-.08-.13-.09a.33.33,0,0,0-.13-.07.38.38,0,0,1-.13-.09.06.06,0,0,1,0-.06h-.11v-.06h-.11v-.06a.14.14,0,0,1-.13-.08c0-.08,0,0-.06,0l-.07-.06-.11-.08h0l-.15-.1h0l-.11-.08h0a.24.24,0,0,1-.11-.06c-.05,0-.1-.14-.18-.11v-.06l-.12-.07h0l-.07-.06v-.06c0-.06-.11,0-.13-.08s0,0-.06,0,0,0-.07,0a.52.52,0,0,1-.11-.1.24.24,0,0,0-.13-.09l-.07-.07V54s-.09,0-.11-.07,0,0-.08,0h0v-.07l-.12-.06h0c-.06,0-.09-.06-.13-.11s-.07,0-.08-.06-.1-.08-.14-.12l-.08-.08h0a.18.18,0,0,1-.07-.05l-.13-.11h0c0-.08-.07-.06-.1-.1s0-.12-.1-.13h-.68c0-.07,0-.09-.06-.08h0V52.9h-.07a.76.76,0,0,1-.11-.14,1.8,1.8,0,0,0-.19-.2s0-.11,0-.08l-.16-.23v-.09h-.06V52Z" transform="translate(0 -0.01)"/><path class="cls-22" d="M114.72,48.67a1.63,1.63,0,0,0,0-.58.28.28,0,0,1,0-.18.21.21,0,0,0,0-.11v-.47h.06v-.67c.06,0,.06-.09.06-.15V46a.14.14,0,0,1,0-.09.19.19,0,0,0,0-.15v-.31a.43.43,0,0,1,0-.25,0,0,0,0,0,0-.05v-.41a.17.17,0,0,1,0-.1.53.53,0,0,0,0-.25v-.28a.67.67,0,0,1,0-.2.17.17,0,0,0,0-.1v-.44c.06,0,.07-.08.07-.15v-.52c.06,0,.06-.08.06-.15v-.34a.14.14,0,0,1,0-.09.38.38,0,0,0,0-.15v-.35a.74.74,0,0,1,0-.21.07.07,0,0,1,.09-.07v.07a.22.22,0,0,0,.06.18h0l.07.12h0v.11l.06.13h0v0c0,.08.07.08.07.15h0v.11a1.18,1.18,0,0,0,.11.19h0v.09h0a.38.38,0,0,0,.13.24l.06.15s0,.12.07.1a.5.5,0,0,0,.13.25c0,.06,0,.13.07.15a.11.11,0,0,1,0,.08H116v.14c.06,0,.06,0,.06.08h.05v.13h.06s0,.11.05.09,0,.15.07.16,0,.05,0,.07a.17.17,0,0,0,.13.18v.31c0,.06,0,.11-.06.11v.45c0,.06,0,.12-.06.13V46a.2.2,0,0,0,0,.15v.46a.11.11,0,0,1,0,.11.17.17,0,0,0,0,.1v.57h-.06V48h-.06v.63a.49.49,0,0,0,0,.16v.59s0,.09,0,.14v.56H116V50h-.06a.08.08,0,0,1-.07-.06c0-.06,0-.05-.06-.1h-.11c0-.07-.09-.15-.17-.18s-.08-.09-.13-.15h-.06l-.14-.15h.42a.91.91,0,0,0-.11-.16.25.25,0,0,0-.15-.1V49h-.08l-.11-.15h-.1a.37.37,0,0,0-.16-.17.15.15,0,0,1-.1-.12h0Z" transform="translate(0 -0.01)"/><path class="cls-17" d="M105.31,50.72h-1.48v-.08h1.47Z" transform="translate(0 -0.01)"/><path class="cls-23" d="M106.93,43.35h-.6a1,1,0,0,1-.13.16v.08h0a.09.09,0,0,1,0-.07v-.08a.16.16,0,0,1,.06-.08s.09-.11.16-.1h.52Z" transform="translate(0 -0.01)"/><path class="cls-24" d="M111.1,36.38v.88H111v-.9Z" transform="translate(0 -0.01)"/><path class="cls-17" d="M106.09,50.8h-.53v-.06h.5A.08.08,0,0,1,106.09,50.8Z" transform="translate(0 -0.01)"/><path class="cls-25" d="M112.62,36.73l-.33-.35V36.3s.07,0,.07.05h0a.48.48,0,0,0,.1.09.47.47,0,0,1,.09.12h0A.57.57,0,0,1,112.62,36.73Z" transform="translate(0 -0.01)"/><path class="cls-26" d="M112.26,44h0v.08a.38.38,0,0,0,0,.21v.19h-.06v-.12a.74.74,0,0,0,0-.21A.42.42,0,0,1,112.26,44Z" transform="translate(0 -0.01)"/><path class="cls-18" d="M111,37.28h.06v.49H111Z" transform="translate(0 -0.01)"/><path class="cls-27" d="M113.26,37.59a.16.16,0,0,1-.08-.06c0-.05-.08-.07-.1-.14a.21.21,0,0,0-.08-.11V37.2h.06c0,.1.06.11.09.15a1,1,0,0,1,.11.15h0Z" transform="translate(0 -0.01)"/><path class="cls-28" d="M109.55,50.25h0c0,.09.07.14.11.22h0l.07.14h0c0-.07-.06-.09-.08-.13a.4.4,0,0,0-.13-.13Z" transform="translate(0 -0.01)"/><path class="cls-17" d="M110.39,51.47h0v.14h-.24v-.07h.18Z" transform="translate(0 -0.01)"/><path class="cls-15" d="M117.33,42.85v.4h-.06V42.9S117.29,42.85,117.33,42.85Z" transform="translate(0 -0.01)"/><path class="cls-15" d="M117.39,42.32a1.09,1.09,0,0,1,0,.36h0v-.29C117.33,42.35,117.37,42.34,117.39,42.32Z" transform="translate(0 -0.01)"/><path class="cls-29" d="M117.78,39.49v.32h-.06v-.32Z" transform="translate(0 -0.01)"/><path class="cls-15" d="M117.46,41.86v.32h-.07V41.9S117.43,41.87,117.46,41.86Z" transform="translate(0 -0.01)"/><path class="cls-24" d="M111.31,35.78v.08a.37.37,0,0,0-.13.27h-.06a.22.22,0,0,1,0-.16V35.9l.14-.15Z" transform="translate(0 -0.01)"/><path class="cls-16" d="M111.89,46.47h-.07v-.06l-.19-.12v-.07h.07a.57.57,0,0,1,.18.12A.72.72,0,0,0,111.89,46.47Z" transform="translate(0 -0.01)"/><path class="cls-29" d="M117.85,39v.27c0,.06,0,.06-.07.07V39Z" transform="translate(0 -0.01)"/><path class="cls-17" d="M118.62,35v.34h-.07A.45.45,0,0,1,118.62,35Z" transform="translate(0 -0.01)"/><path class="cls-18" d="M111.22,38.52v.32h-.07v-.31Z" transform="translate(0 -0.01)"/><path class="cls-15" d="M117.52,41.37v.32h-.06v-.32Z" transform="translate(0 -0.01)"/><path class="cls-29" d="M117.71,40a.43.43,0,0,1,0,.16v.16h-.09V40Z" transform="translate(0 -0.01)"/><path class="cls-30" d="M109.3,51.38h-.24V51.3h.2A.56.56,0,0,1,109.3,51.38Z" transform="translate(0 -0.01)"/><path class="cls-15" d="M114,38.8v-.06a.09.09,0,0,0,0-.07.58.58,0,0,0-.09-.1.37.37,0,0,1-.05-.11c.06,0,.07,0,.1.06a.85.85,0,0,0,.09.14A.24.24,0,0,1,114,38.8Z" transform="translate(0 -0.01)"/><path class="cls-18" d="M111.23,38.93a.17.17,0,0,1,.06.11v.21h0A.59.59,0,0,1,111.23,38.93Z" transform="translate(0 -0.01)"/><path class="cls-15" d="M108.46,48.6h0a.39.39,0,0,0,.14.25h0c-.07,0-.11-.11-.17-.16Z" transform="translate(0 -0.01)"/><path class="cls-17" d="M103.46,50.73c0,.06,0,.09-.06.08h-.15s0-.08.06-.08Z" transform="translate(0 -0.01)"/><path class="cls-31" d="M114.38,39.35a.09.09,0,0,1-.08-.07c0-.07-.07-.09-.12-.14v-.07a.09.09,0,0,1,.08.07.53.53,0,0,0,.12.14Z" transform="translate(0 -0.01)"/><path class="cls-16" d="M106.11,43.6h0v.33h-.06v-.31Z" transform="translate(0 -0.01)"/><path class="cls-17" d="M106.62,50.89h-.25v-.08h.2S106.62,50.87,106.62,50.89Z" transform="translate(0 -0.01)"/><path class="cls-32" d="M106.41,50.81v.08h-.14s-.06,0-.06-.09Z" transform="translate(0 -0.01)"/><path class="cls-29" d="M118.23,36.79V37h-.06v-.24Z" transform="translate(0 -0.01)"/><path class="cls-33" d="M111.55,40.72h0a.53.53,0,0,1,0,.25h-.06Z" transform="translate(0 -0.01)"/><path class="cls-29" d="M117.91,38.67v.25h-.06v-.24Z" transform="translate(0 -0.01)"/><path class="cls-30" d="M109.62,51.47h-.19v-.08h.19Z" transform="translate(0 -0.01)"/><path class="cls-29" d="M118.17,37.13v.19c0,.06,0,0-.07.06v-.2S118.14,37.13,118.17,37.13Z" transform="translate(0 -0.01)"/><path class="cls-26" d="M108.48,51.22h-.19v-.08h.14S108.48,51.16,108.48,51.22Z" transform="translate(0 -0.01)"/><path class="cls-31" d="M111.74,41.71h.07V42h-.07Z" transform="translate(0 -0.01)"/><path class="cls-33" d="M111.87,42.28h.06v.24h-.06Z" transform="translate(0 -0.01)"/><path class="cls-15" d="M117.62,40.88v.25h-.06v-.24Z" transform="translate(0 -0.01)"/><path class="cls-29" d="M118.1,37.52v.24H118v-.25Z" transform="translate(0 -0.01)"/><path class="cls-26" d="M112.45,44.84h.06v.22h0A.43.43,0,0,1,112.45,44.84Z" transform="translate(0 -0.01)"/><path class="cls-28" d="M103.84,50.64v.08h-.22c0-.06,0-.08.07-.08Z" transform="translate(0 -0.01)"/><path class="cls-33" d="M112,42.86h.07v.23H112Z" transform="translate(0 -0.01)"/><path class="cls-28" d="M110.06,51v.07h0l.07.14h-.06a.09.09,0,0,1,0-.07c0-.07-.09-.07-.08-.16Z" transform="translate(0 -0.01)"/><path class="cls-17" d="M118.42,35.88v.23h-.06v-.22Z" transform="translate(0 -0.01)"/><path class="cls-32" d="M117.14,44.5v-.08h0v-.1h.06v.23Z" transform="translate(0 -0.01)"/><path class="cls-15" d="M117.2,44.26h-.06V44h.06Z" transform="translate(0 -0.01)"/><path class="cls-23" d="M107.18,43.43H107v-.07h.14A.35.35,0,0,1,107.18,43.43Z" transform="translate(0 -0.01)"/><path class="cls-26" d="M112.16,36.18h-.06v-.07H112V36h.09a.69.69,0,0,0,.11.13Z" transform="translate(0 -0.01)"/><path class="cls-27" d="M112.13,43.42h.06v.24h-.06Z" transform="translate(0 -0.01)"/><path class="cls-27" d="M110,51.54h-.19v-.07H110Z" transform="translate(0 -0.01)"/><path class="cls-29" d="M118.29,36.47v.23h0v-.22Z" transform="translate(0 -0.01)"/><path class="cls-19" d="M107.44,51h0Z" transform="translate(0 -0.01)"/><path class="cls-26" d="M111.94,36h-.06V36l-.09-.07.08-.06c0,.09,0,.11.08.09Z" transform="translate(0 -0.01)"/><path class="cls-26" d="M111.16,38v.23h-.06V38Z" transform="translate(0 -0.01)"/><path class="cls-31" d="M111.42,40.07h.06v.22h-.06Z" transform="translate(0 -0.01)"/><path class="cls-15" d="M107.18,51H107v-.07h.17Z" transform="translate(0 -0.01)"/><path class="cls-25" d="M108.15,48.14h0a.36.36,0,0,1,.06.1v.12a.06.06,0,0,1-.06-.06A.43.43,0,0,0,108.15,48.14Z" transform="translate(0 -0.01)"/><path class="cls-17" d="M103.21,50.81v.08h-.13v-.08Z" transform="translate(0 -0.01)"/><path class="cls-23" d="M106.15,44.16h.07v.17h-.07Z" transform="translate(0 -0.01)"/><path class="cls-30" d="M108.79,51.3h-.07a.08.08,0,0,1-.08-.09h.14Z" transform="translate(0 -0.01)"/><path class="cls-17" d="M118.55,35.39v.16h-.07v-.17Z" transform="translate(0 -0.01)"/><path class="cls-26" d="M112.38,44.57h.07v.17s-.08,0-.07-.1Z" transform="translate(0 -0.01)"/><path class="cls-33" d="M111.93,42.61H112v.17s-.07,0-.07-.09Z" transform="translate(0 -0.01)"/><path class="cls-31" d="M112.77,46.13h.07v.16C112.76,46.29,112.75,46.28,112.77,46.13Z" transform="translate(0 -0.01)"/><path class="cls-31" d="M112.7,45.88c.08,0,.09,0,.07.18h-.07Z" transform="translate(0 -0.01)"/><path class="cls-29" d="M118.36,36.22v.16h-.06V36.2Z" transform="translate(0 -0.01)"/><path class="cls-26" d="M112.19,43.75h.06v.17h-.06Z" transform="translate(0 -0.01)"/><path class="cls-31" d="M112.84,46.37h.06v.17h-.06Z" transform="translate(0 -0.01)"/><path class="cls-31" d="M112.62,45.64h.06v.17h-.06Z" transform="translate(0 -0.01)"/><path class="cls-33" d="M112.07,43.18h.06v.17h-.06Z" transform="translate(0 -0.01)"/><path class="cls-26" d="M112.52,45.15h.1v.17h-.06Z" transform="translate(0 -0.01)"/><path class="cls-23" d="M109.88,50.72h.06l.06.05v.08a.06.06,0,0,1-.06-.06h0v-.08Z" transform="translate(0 -0.01)"/><path class="cls-23" d="M106.09,43.93h.06v.16h-.06Z" transform="translate(0 -0.01)"/><path class="cls-25" d="M115.08,40.58h0l-.08-.17A.17.17,0,0,1,115.08,40.58Z" transform="translate(0 -0.01)"/><path class="cls-33" d="M111.49,40.46h0v.17h0Z" transform="translate(0 -0.01)"/><path class="cls-34" d="M107.83,47.61h.06a.06.06,0,0,0,.06.06v.09a.07.07,0,0,1-.07-.07C107.88,47.62,107.81,47.67,107.83,47.61Z" transform="translate(0 -0.01)"/><path class="cls-33" d="M113,46.86H113V47H113Z" transform="translate(0 -0.01)"/><path class="cls-17" d="M113.05,47.18v.19s-.06,0-.06-.08Z" transform="translate(0 -0.01)"/><path class="cls-18" d="M115.85,42h0l-.06-.13h0S115.89,41.88,115.85,42Z" transform="translate(0 -0.01)"/><path class="cls-23" d="M107.37,43.51h-.12v-.08C107.33,43.42,107.35,43.43,107.37,43.51Z" transform="translate(0 -0.01)"/><path class="cls-24" d="M117.11,44.37h0a.17.17,0,0,1-.13-.18h0Z" transform="translate(0 -0.01)"/><path class="cls-33" d="M112.9,46.63H113v.17h-.06Z" transform="translate(0 -0.01)"/><path class="cls-33" d="M111.81,42h.06v.15h-.06Z" transform="translate(0 -0.01)"/><path class="cls-23" d="M107.62,43.6h-.13v-.08h.12Z" transform="translate(0 -0.01)"/><path class="cls-15" d="M117.26,43.52v.15h-.06v-.16Z" transform="translate(0 -0.01)"/><path class="cls-33" d="M111.62,41h0v.15h0Z" transform="translate(0 -0.01)"/><path class="cls-29" d="M117.62,40.57v.15h0Z" transform="translate(0 -0.01)"/><path class="cls-19" d="M111.16,38h-.06v-.17h.06Z" transform="translate(0 -0.01)"/><path class="cls-26" d="M108.79,51.3v-.08c.08,0,.11,0,.13.07Z" transform="translate(0 -0.01)"/><path class="cls-26" d="M112.62,45.39h0v.16h0Z" transform="translate(0 -0.01)"/><path class="cls-16" d="M107.77,43.68h-.15V43.6h.12Z" transform="translate(0 -0.01)"/><path class="cls-18" d="M111.42,39.84V40h-.06v-.15Z" transform="translate(0 -0.01)"/><path class="cls-24" d="M111.68,35.8h-.13v-.07h.13Z" transform="translate(0 -0.01)"/><path class="cls-31" d="M107.51,51Z" transform="translate(0 -0.01)"/><path class="cls-17" d="M118.48,35.65v.15h0v-.15Z" transform="translate(0 -0.01)"/><path class="cls-18" d="M111.35,39.49v.17h-.06v-.17Z" transform="translate(0 -0.01)"/><path class="cls-28" d="M109.42,50.07l.11.11h0v.09s-.06,0-.06-.05h0S109.41,50.12,109.42,50.07Z" transform="translate(0 -0.01)"/><path class="cls-27" d="M111.35,39.49h0v-.15h0Z" transform="translate(0 -0.01)"/><path class="cls-32" d="M117.26,43.75v.15h0Z" transform="translate(0 -0.01)"/><path class="cls-19" d="M117.53,41.14h.09v.15h-.06Z" transform="translate(0 -0.01)"/><path class="cls-30" d="M106.92,51h-.12v-.07h.13Z" transform="translate(0 -0.01)"/><path class="cls-25" d="M111.1,36.38H111v-.15h.06Z" transform="translate(0 -0.01)"/><path class="cls-29" d="M118,38.26v.16h-.06v-.14Z" transform="translate(0 -0.01)"/><path class="cls-15" d="M117.62,40.57h0v-.15h0Z" transform="translate(0 -0.01)"/><path class="cls-15" d="M108.08,51.13H108v-.07h.12Z" transform="translate(0 -0.01)"/><path class="cls-19" d="M108,51.06v.07h-.11v-.07Z" transform="translate(0 -0.01)"/><path class="cls-33" d="M111.68,41.39c.06,0,.06,0,.06.16h0Z" transform="translate(0 -0.01)"/><path class="cls-23" d="M109.23,49.75c.07,0,.08,0,.07.15S109.23,49.82,109.23,49.75Z" transform="translate(0 -0.01)"/><path class="cls-23" d="M109.13,49.62l.1.06v.07h0C109.19,49.68,109.11,49.68,109.13,49.62Z" transform="translate(0 -0.01)"/><path class="cls-18" d="M115.94,42.15h0c0-.07-.09-.07-.07-.15h.06Z" transform="translate(0 -0.01)"/><path class="cls-13" d="M115.62,41.59h0c0-.08-.08-.1-.06-.18h.06Z" transform="translate(0 -0.01)"/><path class="cls-31" d="M111.62,41.21h.06v.1C111.62,41.31,111.62,41.29,111.62,41.21Z" transform="translate(0 -0.01)"/><path class="cls-23" d="M106.23,44.42v.16C106.23,44.64,106.21,44.51,106.23,44.42Z" transform="translate(0 -0.01)"/><path class="cls-17" d="M106.92,51v-.07H107V51Z" transform="translate(0 -0.01)"/><path class="cls-19" d="M111.22,38.52h-.06v-.09C111.24,38.43,111.24,38.44,111.22,38.52Z" transform="translate(0 -0.01)"/><path class="cls-31" d="M114.5,39.58h0V39.5h.06Z" transform="translate(0 -0.01)"/><path class="cls-28" d="M117.26,43.52h0v-.09h0Z" transform="translate(0 -0.01)"/><path class="cls-25" d="M108.27,48.34h.07v.09h-.06Z" transform="translate(0 -0.01)"/><path class="cls-23" d="M110.26,51.29h.06v.09h-.06v-.1Z" transform="translate(0 -0.01)"/><path class="cls-25" d="M118,37.85V38H118v-.09Z" transform="translate(0 -0.01)"/><path class="cls-23" d="M109.3,49.9h.07V50h-.05Z" transform="translate(0 -0.01)"/><path class="cls-33" d="M111.42,39.84h-.06v-.1h.06Z" transform="translate(0 -0.01)"/><path class="cls-25" d="M115,40.33h-.06v-.09H115Z" transform="translate(0 -0.01)"/><path class="cls-15" d="M119.19,33.66v.09h-.06v-.08Z" transform="translate(0 -0.01)"/><path class="cls-33" d="M111.43,40.31h.06v.08h0Z" transform="translate(0 -0.01)"/><path class="cls-29" d="M118,38H118V38S118,38,118,38Z" transform="translate(0 -0.01)"/><path class="cls-17" d="M103,50.89V51h0Z" transform="translate(0 -0.01)"/><path class="cls-31" d="M111.69,41.55h0v.08h0Z" transform="translate(0 -0.01)"/><path class="cls-31" d="M114.44,39.49h0v-.07S114.45,39.42,114.44,39.49Z" transform="translate(0 -0.01)"/><path class="cls-31" d="M114.18,39c-.05,0-.07,0-.06-.08S114.19,39,114.18,39Z" transform="translate(0 -0.01)"/><path class="cls-32" d="M117.62,40.72h0c0,.06,0,.09-.06.08Z" transform="translate(0 -0.01)"/><path class="cls-23" d="M110.33,51.39s.06,0,.06.08h-.06Z" transform="translate(0 -0.01)"/><path class="cls-23" d="M110.06,51H110v-.07S110.07,50.91,110.06,51Z" transform="translate(0 -0.01)"/><path class="cls-31" d="M117.26,43.75h0v-.08h.06Z" transform="translate(0 -0.01)"/><path class="cls-35" d="M117.91,38.42H118c0,.06,0,.09-.06.08Z" transform="translate(0 -0.01)"/><path class="cls-28" d="M110.26,51.29h0c-.07,0-.07,0-.06-.09Z" transform="translate(0 -0.01)"/><path class="cls-28" d="M109.88,50.72h0c-.08,0-.08,0-.07-.09Z" transform="translate(0 -0.01)"/><path class="cls-16" d="M111.56,46.22h0Z" transform="translate(0 -0.01)"/><path class="cls-17" d="M113,47.27h0v0Z" transform="translate(0 -0.01)"/><path class="cls-36" d="M119.25,52.53s.06,0,.07-.05h0s.05,0,.06-.07h.1a.26.26,0,0,1,.16-.18h0l.06-.06h.08c0-.06.11-.1.13-.16a.17.17,0,0,1,.14-.09l.11-.15h.08a.2.2,0,0,1,.14-.16c.07,0,0,0,0-.07h.24c0-.08.1-.17.2-.17V51.3s.09,0,.07-.08h.1s0-.09.07-.08.11-.07.15-.15.07-.06.1-.08h0c0-.09.08-.07.12-.09v-.06s.09,0,.07-.08h.1s0-.09.06-.08.1-.08.15-.13l.17-.14.06-.06a.22.22,0,0,0,0-.08h.1v-.08a.07.07,0,0,0,.07-.07.33.33,0,0,0,.22-.18h.14v-.07a.16.16,0,0,1,.06-.08h.09c0-.07,0-.07.07-.08v-.05s.09,0,.11-.07a.17.17,0,0,1,.17-.13c.08,0,0-.07,0-.07s0,0,.06-.08h.1a.32.32,0,0,0,.07-.1s0,0,.06-.06.11,0,.13-.08.08-.08.13-.09v-.07s.07,0,.09-.08h.09v-.08l.1-.09h.06s.12,0,.16-.13,0,0,.06-.06h.08l.11-.15h.15v-.07a.17.17,0,0,0,.13-.1l.07-.06h.08l.11-.16h.1v-.07s.08-.12.15-.11.08-.06.12-.08h0c.05,0,.06,0,.07-.08h.11c0-.06,0-.08.07-.07s.06,0,.06-.08h.11l.06-.08v-.07H126l.21-.15h0l.09-.08h.15l.19-.12v-.07s.07,0,.09,0,0,0,.08,0a.28.28,0,0,1,.2-.15h.07v-.08h.06s.07,0,0-.06h.08v-.08h0l.11-.07h0l.09-.07h.06a.14.14,0,0,0,.11-.07.26.26,0,0,1,.13-.1.07.07,0,0,0,.07-.08h.1v0l.21-.12a.17.17,0,0,1,.11-.06c.06,0,.09-.06.12-.1s.08,0,.13-.08v-.06h.1v-.06h.12v-.06h.1v-.06h.11v-.06a.13.13,0,0,0,.15-.08c0-.08.07,0,.1,0v-.06h.1v-.07h.12V45h0a.16.16,0,0,0,.11-.05h.06c.06,0,.08,0,.09-.06h0s.08,0,.09-.07h0a.15.15,0,0,0,.12-.07H130c.06,0,0-.07.08-.07h.12V44.6h.19v-.08h.12a.08.08,0,0,0,.08-.09h.17v-.09h.76v.08h0c0,.06,0,0,.07.06v.65h0v.48h0c0,.06,0,.14-.07.17a.61.61,0,0,0,0,.12l-.06.16v.16a.22.22,0,0,0-.05.08l-.06.08v.11h0a.14.14,0,0,1,0,.09c-.06,0-.06.09-.08.15a.28.28,0,0,1-.11.13V46h0l-.08.17s-.06,0-.07,0h0s0,.09,0,.09h0v.09h0v.14h0a.56.56,0,0,1-.13.24v.05s-.06.11-.12.13,0,.05-.06.09v.08a.71.71,0,0,1-.1.14.17.17,0,0,0-.05.15h.21l-.12.16-.06.08v.14h-.06V48l-.1.12a.24.24,0,0,0,0,.12h-.05c0,.09-.07.14-.12.21l-.08.1H130v.14h-.06s-.09.15-.14.21l-.12.13v.13s-.07,0-.08.06-.05.07-.08.1l-.1.15-.13.14v.12a.08.08,0,0,0-.08.06l-.07.11c0,.05-.09.07-.1.11s-.09.07-.08.14h0v.13a.08.08,0,0,0-.08.07c0,.07,0,.07-.08.11s-.08.06-.1.1a.14.14,0,0,1,0,.09h0v.09h0V51h-.06v.05l-.1.11a.44.44,0,0,0-.08.11.3.3,0,0,1-.09.13.14.14,0,0,0,0,.09v.07h-.06v.08h0a.2.2,0,0,1-.08.12l-.1.13a.64.64,0,0,0-.1.13l0,0a.36.36,0,0,1-.13.23.88.88,0,0,1-.08.11.41.41,0,0,0-.1.13c0,.06-.08.07-.09.15s-.07,0-.06.09,0,.1-.12.1a.31.31,0,0,0-.06.13.44.44,0,0,1-.12.18l0,.08v.08a.68.68,0,0,0-.12.12.76.76,0,0,1-.11.14h0l-.11.15c0,.06-.09.09-.09.17s-.06.08-.09.14a.76.76,0,0,1-.11.14s-.07.14-.12.18a.47.47,0,0,0-.1.1l-.09.1a.64.64,0,0,1-.11.16s0,.11-.09.13-.05.1-.11.11-.06.06-.07.09a.48.48,0,0,1-.12.16l-.08.12a.49.49,0,0,1-.12.13c-.05.07-.06.16-.12.23a.48.48,0,0,0-.15.22h0l-.13.14s0,.08-.06.08,0,.13-.11.14,0,0,0,.06-.09.06-.11.13-.07.06-.09.1-.08.07-.09.14a.15.15,0,0,1-.08.11s0,.11-.11.09a.5.5,0,0,1-.13.19.23.23,0,0,1-.11.15s0,.08-.08.12h0c-.07,0-.1.09-.14.16s0,0,0,0-.08.15-.13.19,0,.11-.11.11,0,.07-.08.11l-.11.13s0,.08-.06.09,0,.08-.08.12h0c-.09,0-.11.14-.18.18s0,.08-.07.12h0c-.08,0-.12.09-.16.16h0l-.12.15a.44.44,0,0,1-.08.11l-.07.08h-.07s-.08.06-.09.1-.1,0-.07.12h-.11a.12.12,0,0,1-.08.09c-.06,0-.11.08-.18.09s0,0,0,.07H122v.08h-.18v.08h-.22v.08h-.19s-.1,0-.13.06h-.63c0-.07,0-.08-.09-.07h-.94v-.08h-.23V59.7h-.13v-.08h-.17v-.07a.14.14,0,0,1-.15-.08c0-.08-.11,0-.11-.1h-.09l-.11-.15h-.08a1.38,1.38,0,0,1-.22-.26,2.11,2.11,0,0,0-.19-.23c-.07-.09-.12-.18-.19-.26v-.13a.35.35,0,0,1-.14-.2v0a.06.06,0,0,1,0-.06h0a.5.5,0,0,1-.06-.24h-.06v-.15h-.06v-.13h-.06V57.3c0-.06,0-.11-.06-.12v-.37a.09.09,0,0,1,0-.13v-.85h0v-.46c.1,0,0-.17.06-.26h.05V55h.06v-.2h.06v-.14a.41.41,0,0,0,.14-.2v-.1h0v-.11l.12-.16a.08.08,0,0,1,.07-.08c.07,0,0-.12.1-.14h0a.81.81,0,0,1,.19-.29V53.5h.09l.18-.23h.09l.18-.24H119a.16.16,0,0,1,.11-.14s0-.07,0-.11h.11Zm1.16,4.37v.34h0v.25l.23.28h.08v.07H121v-.08h.14l.07-.09.16-.18a.16.16,0,0,1,.07-.13.27.27,0,0,0,.07-.08l.1-.1s.07-.06.08-.1.07-.09.1-.14l.09-.11a.64.64,0,0,1,.1-.13l.15-.1h0s0-.11.08-.12,0-.07.07-.09.09-.06.09-.1.1-.07.1-.15.09-.14.16-.19a.27.27,0,0,0,.07-.08,1.29,1.29,0,0,1,.19-.32l.07-.09a.76.76,0,0,1,.11-.14l.1-.12a.75.75,0,0,0,.07-.12.61.61,0,0,0,.12-.16s.09-.06.1-.1.07-.07.1-.12a.26.26,0,0,1,.07-.11l.12-.16.06-.08.1-.1s.07-.06.08-.1a.43.43,0,0,1,.13-.17v-.12h.06V53.4h-.06v-.1l-.15-.22h-.1V53h-.2v.07h-.08l-.25.34c-.12.09-.2.28-.34.4s0,0,0,.06a1.27,1.27,0,0,0-.21.25,1,1,0,0,0-.19.26s0,.06-.08.08-.07.1-.11.14a.83.83,0,0,0-.08.12,1.46,1.46,0,0,0-.16.19l-.07.07-.08.13c-.06,0-.07.11-.11.15s0,.09-.08.1,0,.08-.06.08,0,.06-.08.08-.1.16-.17.22l-.06.07s0,.11-.09.12-.07.08-.1.12a.81.81,0,0,0-.12.14l-.09.15c-.12.13-.24.27-.35.41a.09.09,0,0,0,0,.07Zm4.88-5.84h-.37v.06c0,.06-.08.11-.15.12s-.08.06-.11.1l-.12.17v.08l-.18.22c0,.06,0,.15-.07.17v.44l.06.08h.07v.11a.53.53,0,0,0,.69,0,.71.71,0,0,1,.1-.14l.09-.1.08-.13a.39.39,0,0,1,.08-.1.06.06,0,0,0,0-.06.35.35,0,0,1,.14-.2v-.46h-.06a.17.17,0,0,0-.06-.16c-.06,0-.06-.09-.1-.15h-.09Z" transform="translate(0 -0.01)"/><path class="cls-13" d="M125.75,47a.07.07,0,0,0-.07.07h-.06s0,.09-.07.08h0a.13.13,0,0,0-.12.08c0,.08-.1.08-.15.11v.07h-.1l-.11.16H125a.08.08,0,0,0-.07.06.17.17,0,0,1-.13.1v.07h-.09l-.11.15h-.08a.06.06,0,0,0-.06.06c0,.06-.11.08-.16.13h-.06a.11.11,0,0,0,0-.08.86.86,0,0,1,0-.39v-.29a.54.54,0,0,0,0-.18.33.33,0,0,1,0-.14v-.53h0a1.8,1.8,0,0,1,0-.61V46a.31.31,0,0,0,0-.19v-.57a.17.17,0,0,0,0-.1.17.17,0,0,1,0-.1v-.59l-.07-.05v-.49a.31.31,0,0,0,0-.19v-.6a.11.11,0,0,0,0-.08.4.4,0,0,1,0-.26,3.69,3.69,0,0,0,0-.47,1.5,1.5,0,0,1,0-.3v-.35a.14.14,0,0,0,0-.09.34.34,0,0,1,0-.2V41.2a.11.11,0,0,0,0-.08,1.08,1.08,0,0,1,.11-.18l.07-.16a.49.49,0,0,1,.11-.14.66.66,0,0,1,.11-.24l.09-.17a1.14,1.14,0,0,1,.1-.19.64.64,0,0,0,.1-.13l.07-.15h0a.73.73,0,0,1,.2-.35l.08-.2c.07,0,0-.12.11-.1h0c0-.1.08-.15.12-.22V38.8h0a.64.64,0,0,1,.08-.14l.12-.17a.17.17,0,0,0,0-.1h.06s.09-.07.09-.11.06-.05.07-.09V38.1h0V38c.07,0,.06-.06.06-.12s.11-.11.14-.2.06-.07.09-.1,0-.05,0-.08h0V37.4h.06v-.06h0l.09-.13a.35.35,0,0,0,.12-.21l.13-.17h.09l.22-.27v-.05h0a.9.9,0,0,1,.15-.19,1.33,1.33,0,0,1,.19-.14v-.06h.11v-.07h.25V36h.21a.55.55,0,0,1,.17.27v.17h.06V38h-.06v.47h-.06V39h0v.4h-.07v.32h-.07V40h-.06v.38a.06.06,0,0,0-.06.08V41h-.06v.24s0,0-.06,0v0a.54.54,0,0,0,0,.18v.07h-.06v.3s-.07,0,0,.1v.24h-.06v.24h-.06V43h-.07v.23h-.07v.3H127v.22h-.07v.32h-.06v.24h-.06v.23h-.06v.32h-.07v.23h-.06v.24h-.06v.22h-.07V46h-.06v.22s-.06,0-.07.05a.56.56,0,0,0,0,.13v.07h-.07v.23h0V47Z" transform="translate(0 -0.01)"/><path class="cls-20" d="M135.62,51.13v.24a.25.25,0,0,1-.05.18c0,.06,0,.07,0,.08v.15h0l0,.12-.09.13s-.06,0-.06,0h0l-.1.11-.13.15h0l-.08.12H135v.08h-.09s0,.07-.05.07-.07.09-.11.12a.12.12,0,0,1-.05.05h-.07v.06l-.18.2h-.13v.07a.26.26,0,0,0-.06.09h-.06c-.06.07-.1.14-.19.15h0l-.08.07a.31.31,0,0,1-.21.16h0l-.11.09h0l-.09,0h0v.08c0,.08-.1.09-.16.1s-.09.09-.14.13-.11.1-.17.1-.09.11-.17.09v.07a.21.21,0,0,0-.13.07s-.09.12-.16.11h0c0,.09-.08.06-.12.09h0l-.32.21c0,.07-.1,0-.12.08s-.09.06-.14.08V55h0c-.06,0-.12,0-.15.07s0,0-.07,0v.06h0l-.11.07h-.05s-.08,0-.08.07h0c-.07,0-.11.07-.17.09l-.18.13-.14.08c-.09,0-.13.12-.21.14s-.08.08-.12.11l-.13,0h0l-.12.09-.18.1h0l-.11.06a.23.23,0,0,0-.07.07.38.38,0,0,1-.15.09.11.11,0,0,0-.1.07h-.06l-.08,0h0c0,.07-.11.06-.16.11s-.07,0-.1,0-.06,0-.06.06h0a.12.12,0,0,0-.11.07c0,.07-.07,0-.11,0h0l-.13.09h-.13v.06h-.12v.07h-.11v.06a.17.17,0,0,0-.14.08c0,.08-.07,0-.11,0v.06c-.06,0-.15,0-.17.07a1.71,1.71,0,0,0-.23.13s-.08.07-.12.11-.11,0-.14.09h0s-.06,0-.06,0h0c-.08,0-.14.07-.21.1h0a.09.09,0,0,1-.1,0h-.11v.08H127v.07h-.13v.09h-.12v.09h-.18V58h0c0,.06-.08.06-.13.07h-.07s0,0-.09,0h-.07v.08h-.11v.09h0c-.07,0-.07,0-.08.07h-.12v-.09a1,1,0,0,0,.17-.27s0-.06.08-.09l.15-.2.09-.14.1-.11.08-.1a.53.53,0,0,1,.12-.14l.09-.13.09-.12a.09.09,0,0,1,.09-.09c.09,0,.08-.11.12-.17l.09-.13a.28.28,0,0,1,.09-.1h0a1.28,1.28,0,0,1,.11-.2l.09-.14s.07,0,.07-.1.16-.23.26-.33.09-.14.16-.18a.54.54,0,0,0,.07-.13l.1-.17a1,1,0,0,1,.11-.17l.1-.1a.36.36,0,0,0,.07-.1l.08-.13.09-.09a.76.76,0,0,1,.11-.14,2.39,2.39,0,0,0,.13-.21,1.37,1.37,0,0,0,.13-.2s.07,0,.07-.1.1-.13.15-.18a.8.8,0,0,0,.09-.14l.07-.08.1-.11h0v0a.51.51,0,0,1,.12-.21c.05-.06,0-.11.1-.11s.05-.06.08-.09.09-.15.14-.22a.28.28,0,0,1,.09-.1l.07-.09a1.62,1.62,0,0,1,.1-.18.17.17,0,0,1,.1-.15c.1,0,0-.08.08-.12l.1-.11.09-.1.12-.17a.94.94,0,0,0,.12-.22c0-.07.09-.1.12-.16l.1-.13.08-.12a.42.42,0,0,0,.11-.15.16.16,0,0,1,.06-.08.72.72,0,0,0,.14-.24s.06,0,.07-.09a.27.27,0,0,1,.17-.19c.08,0,.09-.07.08-.16h.11V51h-.17v-.07h.52v-.08h.68v-.07h2v.06a.57.57,0,0,0,.26,0h.06v.08h.2l.09.06a.06.06,0,0,0,.08.06Z" transform="translate(0 -0.01)"/><path class="cls-22" d="M123.4,41.1a.11.11,0,0,1,0,.08.54.54,0,0,1,0,.18.34.34,0,0,0,0,.2.14.14,0,0,1,0,.09V42a1.5,1.5,0,0,0,0,.3,3.69,3.69,0,0,1,0,.47.4.4,0,0,0,0,.26.11.11,0,0,1,0,.08v.6a.31.31,0,0,1,0,.19v.49l.07.05V45a.17.17,0,0,0,0,.1.17.17,0,0,1,0,.1v.57a.21.21,0,0,1,0,.19v.09a1.8,1.8,0,0,0,0,.61h0v.53a.33.33,0,0,0,0,.14.54.54,0,0,1,0,.18v.29a.86.86,0,0,0,0,.39.11.11,0,0,1,0,.08s0,.08-.1.09,0,.05,0,.08h-.09s0,.09-.09.08v.07a.14.14,0,0,0-.13.09c0,.09-.09.06-.13.08s0,0-.06.06,0,.06-.07.1h-.1s0,.08-.06.08,0,0,0,.07-.12.07-.17.13-.07,0-.11.07v0a.07.07,0,0,0-.07.08h-.09a.16.16,0,0,0-.06.08v.07h-.08a.33.33,0,0,1-.22.18c0,.06,0,.08-.07.07h0V48.22a.09.09,0,0,1,0-.07v-.68a.11.11,0,0,0,0-.08c-.06,0,0-.1,0-.15v-.7a.17.17,0,0,1,0-.1v-.6h-.06v-.65h-.06v-.52c0-.06,0-.11-.06-.12v-.31h0v-.12l.06-.11h0l.1-.24h0v-.14h0l0-.07h0s0-.07,0-.09.06-.19.12-.26,0-.07.07-.07V43h0v-.23h.06v-.11a.11.11,0,0,0,0-.11h0a.56.56,0,0,0,.11-.2h0a.41.41,0,0,1,.13-.25l.09-.22h0v-.07s0-.14.11-.15.13-.17.14-.31,0-.06,0-.08Z" transform="translate(0 -0.01)"/><path class="cls-16" d="M134.43,50.72h-1v-.07h1Z" transform="translate(0 -0.01)"/><path class="cls-33" d="M127.68,37.52V36.29h0v1.19Z" transform="translate(0 -0.01)"/><path class="cls-37" d="M132,43.34h-.57v-.08H132Z" transform="translate(0 -0.01)"/><path class="cls-26" d="M125.37,37.75c0,.06,0,.13-.06.12V38h0v.09s-.06,0-.07.09-.06.07-.09.11h-.06v-.05l.09-.1h0c0-.07.06-.1.1-.15h0a.51.51,0,0,1,.07-.17A.15.15,0,0,1,125.37,37.75Z" transform="translate(0 -0.01)"/><path class="cls-37" d="M129.15,49.76v-.07l.13-.14.1-.15a.31.31,0,0,0,.08-.1s0-.06.08-.06,0,.08,0,.08h0c0,.08-.06.09-.08.15s-.07.06-.09.1l-.08.12C129.21,49.75,129.19,49.76,129.15,49.76Z" transform="translate(0 -0.01)"/><path class="cls-37" d="M128.77,50.33v-.08h0c0-.07.07-.08.08-.14s.07-.06.1-.11l.07-.11a.08.08,0,0,1,.08-.06v.06l-.12.16-.09.13s-.08.07-.09.11Z" transform="translate(0 -0.01)"/><path class="cls-37" d="M128,51.47a.14.14,0,0,1,0-.09.3.3,0,0,0,.09-.13.44.44,0,0,1,.08-.11l.1-.11V51h.06a.14.14,0,0,1,0,.09.26.26,0,0,0-.1.13l-.06.08-.1.12v.08Z" transform="translate(0 -0.01)"/><path class="cls-26" d="M126,36.84a.35.35,0,0,1-.12.21l-.09.13h0v.06h-.06v-.08s.06-.08.09-.12l.09-.13a.3.3,0,0,0,.09-.13h0Z" transform="translate(0 -0.01)"/><path class="cls-25" d="M133.47,50.65v.07h-.4s0-.08.06-.08Z" transform="translate(0 -0.01)"/><path class="cls-37" d="M129.54,49.19v-.08l.08-.1c0-.06.09-.14.14-.21s0,0,.06,0,0,.07,0,.08h0c0,.06,0,.08-.07.13l-.1.12h0A.15.15,0,0,1,129.54,49.19Z" transform="translate(0 -0.01)"/><path class="cls-37" d="M128.46,50.8h0a.14.14,0,0,0,0-.09l.1-.1a.28.28,0,0,0,.08-.11s0-.06.08-.07v.06l-.12.16a.05.05,0,0,0,0,.06c0,.06-.06.07-.08.12Z" transform="translate(0 -0.01)"/><path class="cls-35" d="M121.78,44.14v.12h0a.31.31,0,0,1-.06-.13v-.28h.06v.3h0l0-.07Z" transform="translate(0 -0.01)"/><path class="cls-30" d="M121.32,40.73h0a1.41,1.41,0,0,1,0-.41h.07Z" transform="translate(0 -0.01)"/><path class="cls-34" d="M132.24,44.09v-.5h0v.5Z" transform="translate(0 -0.01)"/><path class="cls-23" d="M132.88,50.73v.07h-.29v-.07Z" transform="translate(0 -0.01)"/><path class="cls-27" d="M125.75,47v-.14h0v-.23h.07a.39.39,0,0,1,0,.26.43.43,0,0,0,0,.16h-.07Z" transform="translate(0 -0.01)"/><path class="cls-15" d="M126.46,36.3v.05l-.22.27h-.09l.12-.15a.59.59,0,0,0,.1-.11h0S126.43,36.3,126.46,36.3Z" transform="translate(0 -0.01)"/><path class="cls-27" d="M127.62,38.19v-.4h.06v.4Z" transform="translate(0 -0.01)"/><path class="cls-30" d="M121.38,41.22h-.06v-.4c.05,0,.05.08.06.13Z" transform="translate(0 -0.01)"/><path class="cls-27" d="M126.72,42.93v-.39h.06v.22h-.06v.17Z" transform="translate(0 -0.01)"/><path class="cls-28" d="M121.18,39.56c-.05,0-.05-.05-.05-.09v-.3h.06v.32A.17.17,0,0,1,121.18,39.56Z" transform="translate(0 -0.01)"/><path class="cls-37" d="M130.37,47.87v-.08l.06-.08.12-.16h.07a.11.11,0,0,1,0,.08.64.64,0,0,0-.1.13C130.47,47.8,130.44,47.87,130.37,47.87Z" transform="translate(0 -0.01)"/><path class="cls-27" d="M127.35,39.92V39.6h.07v.32Z" transform="translate(0 -0.01)"/><path class="cls-30" d="M130.19,51.14v.07H130v-.08Z" transform="translate(0 -0.01)"/><path class="cls-30" d="M129.35,51.3c0,.06,0,.09-.06.09h-.2s0-.08,0-.08Z" transform="translate(0 -0.01)"/><path class="cls-30" d="M129.74,51.22c0,.06,0,.09-.07.09h-.2a.07.07,0,0,1,.07-.07Z" transform="translate(0 -0.01)"/><path class="cls-30" d="M129,51.39v.08h-.25v-.08Z" transform="translate(0 -0.01)"/><path class="cls-16" d="M135.14,50.81a.57.57,0,0,1-.26,0v-.06h.25Z" transform="translate(0 -0.01)"/><path class="cls-25" d="M132.56,50.73v.07h-.26v-.06Z" transform="translate(0 -0.01)"/><path class="cls-37" d="M126.78,46.22v.07l-.19.12s0,.07-.07,0v-.08l.19-.11S126.73,46.2,126.78,46.22Z" transform="translate(0 -0.01)"/><path class="cls-34" d="M131.15,46.55v-.06h0V46.4h0s0,0,0-.09a.06.06,0,0,1,.06-.06h0a.17.17,0,0,1,0,.14v.09s-.06,0-.06.08Z" transform="translate(0 -0.01)"/><path class="cls-27" d="M127.29,40.31V40h.06v.31Z" transform="translate(0 -0.01)"/><path class="cls-32" d="M131.08,51h-.2a.09.09,0,0,1-.07,0h.27Z" transform="translate(0 -0.01)"/><path class="cls-15" d="M121.06,38.68H121v-.32h.06Z" transform="translate(0 -0.01)"/><path class="cls-17" d="M121,38.27h-.06V38H121Z" transform="translate(0 -0.01)"/><path class="cls-37" d="M130.78,47.24v-.08s0-.08.06-.09,0-.14.12-.13V47a.18.18,0,0,1-.06.09C130.84,47.12,130.83,47.21,130.78,47.24Z" transform="translate(0 -0.01)"/><path class="cls-35" d="M121.62,43.52h0v-.25h0Z" transform="translate(0 -0.01)"/><path class="cls-30" d="M121.25,40.16h-.07v-.25h.07Z" transform="translate(0 -0.01)"/><path class="cls-23" d="M132.17,50.81v.08H132v-.08Z" transform="translate(0 -0.01)"/><path class="cls-15" d="M121.62,43.27h0V43c.06,0,.08,0,.07.1Z" transform="translate(0 -0.01)"/><path class="cls-27" d="M127,41.89v-.25H127a.43.43,0,0,0,0,.16C127,41.85,127,41.89,127,41.89Z" transform="translate(0 -0.01)"/><path class="cls-30" d="M120.86,37.46h-.06v-.25h.06Z" transform="translate(0 -0.01)"/><path class="cls-33" d="M126.26,45v-.24h.06V45Z" transform="translate(0 -0.01)"/><path class="cls-16" d="M132,50.81v.08h-.2v-.08Z" transform="translate(0 -0.01)"/><path class="cls-25" d="M134.43,50.72v-.07h.19v.08Z" transform="translate(0 -0.01)"/><path class="cls-27" d="M127,41.55a.54.54,0,0,1,0-.18s0,0,0-.06h0v.23Z" transform="translate(0 -0.01)"/><path class="cls-30" d="M120.8,37.12h-.06v-.25h.06Z" transform="translate(0 -0.01)"/><path class="cls-15" d="M121.45,42.12v-.26h.06v.24Z" transform="translate(0 -0.01)"/><path class="cls-31" d="M126.62,43.6v-.22h.07v.23Z" transform="translate(0 -0.01)"/><path class="cls-17" d="M120.55,35.81h-.06v-.22h.07Z" transform="translate(0 -0.01)"/><path class="cls-27" d="M127.55,38.52v-.24h.06v.26Z" transform="translate(0 -0.01)"/><path class="cls-17" d="M121.38,41.55V41.3h.06v.25Z" transform="translate(0 -0.01)"/><path class="cls-15" d="M121.51,42.61v-.24h.06v.22Z" transform="translate(0 -0.01)"/><path class="cls-27" d="M126.45,44.17v-.25h.07v.24Z" transform="translate(0 -0.01)"/><path class="cls-17" d="M120.67,36.38h-.06v-.22h.06Z" transform="translate(0 -0.01)"/><path class="cls-35" d="M128.62,51.47v.07h-.19v-.07Z" transform="translate(0 -0.01)"/><path class="cls-16" d="M131.46,51h-.2v-.07h.2Z" transform="translate(0 -0.01)"/><path class="cls-30" d="M121.51,42.61h.11v.24h-.06Z" transform="translate(0 -0.01)"/><path class="cls-18" d="M127.1,41.29v-.22h.06v.23Z" transform="translate(0 -0.01)"/><path class="cls-24" d="M127.23,35.73v.08h-.18v-.08Z" transform="translate(0 -0.01)"/><path class="cls-23" d="M131.46,51v-.07h.16V51Z" transform="translate(0 -0.01)"/><path class="cls-18" d="M122.47,42.85V43h0v-.08s.08,0,.06-.1Z" transform="translate(0 -0.01)"/><path class="cls-17" d="M120.48,35.5h-.07v-.17h.07Z" transform="translate(0 -0.01)"/><path class="cls-37" d="M131.16,43.43c0,.07,0,.1-.08.09H131v-.09Z" transform="translate(0 -0.01)"/><path class="cls-27" d="M125.88,46.47v-.13s.05,0,.07-.05v.17Z" transform="translate(0 -0.01)"/><path class="cls-33" d="M126.19,45.25v-.17h.07v.16Z" transform="translate(0 -0.01)"/><path class="cls-28" d="M134.62,50.72v-.08h.07c.05,0,.07,0,.07.08Z" transform="translate(0 -0.01)"/><path class="cls-37" d="M131.35,43.35v.09h-.13v-.07Z" transform="translate(0 -0.01)"/><path class="cls-34" d="M132.16,44.35v-.18h.05v.16Z" transform="translate(0 -0.01)"/><path class="cls-18" d="M127.16,41v0Z" transform="translate(0 -0.01)"/><path class="cls-17" d="M120.35,35h-.06v-.16h.06Z" transform="translate(0 -0.01)"/><path class="cls-27" d="M126,46.81v.07L126,47h0v-.08Z" transform="translate(0 -0.01)"/><path class="cls-33" d="M126.13,45.49v-.17h.06v.16Z" transform="translate(0 -0.01)"/><path class="cls-33" d="M126.07,45.74v-.16h.06v.16Z" transform="translate(0 -0.01)"/><path class="cls-37" d="M131,43.52v.08h-.13v-.08Z" transform="translate(0 -0.01)"/><path class="cls-16" d="M135.32,50.89h-.12v-.08h.11Z" transform="translate(0 -0.01)"/><path class="cls-15" d="M127.42,39.58v-.17h.06v.11S127.46,39.59,127.42,39.58Z" transform="translate(0 -0.01)"/><path class="cls-31" d="M126.52,43.86v-.17h.1v.16Z" transform="translate(0 -0.01)"/><path class="cls-27" d="M125.94,46.23v-.16H126v.1S126,46.23,125.94,46.23Z" transform="translate(0 -0.01)"/><path class="cls-31" d="M126.84,42.46v-.17h.06v.16Z" transform="translate(0 -0.01)"/><path class="cls-28" d="M121.25,39.91h-.07v-.15h.07Z" transform="translate(0 -0.01)"/><path class="cls-17" d="M120.62,36.06h-.06v-.17h.06Z" transform="translate(0 -0.01)"/><path class="cls-27" d="M127.48,39.4h-.06v-.15h.07Z" transform="translate(0 -0.01)"/><path class="cls-33" d="M127.67,36.22h0V36h.06Z" transform="translate(0 -0.01)"/><path class="cls-15" d="M120.87,37.69v-.17h.06v.18Z" transform="translate(0 -0.01)"/><path class="cls-28" d="M127.92,51.62v-.08H128s.07,0,.08.05S128,51.62,127.92,51.62Z" transform="translate(0 -0.01)"/><path class="cls-30" d="M121.38,41.55h.06v.16h-.06Z" transform="translate(0 -0.01)"/><path class="cls-33" d="M127.22,40.65v-.18h.06v.16Z" transform="translate(0 -0.01)"/><path class="cls-30" d="M120.87,37.69h.06v.15h-.06Z" transform="translate(0 -0.01)"/><path class="cls-35" d="M121.12,39.09h-.06v-.17h.06Z" transform="translate(0 -0.01)"/><path class="cls-32" d="M130.62,51.06v.07h-.13v-.07Z" transform="translate(0 -0.01)"/><path class="cls-15" d="M127.55,38.76v-.18h.07v.16Z" transform="translate(0 -0.01)"/><path class="cls-33" d="M126.33,44.66v-.15h.06v.15Z" transform="translate(0 -0.01)"/><path class="cls-27" d="M127.49,39v-.16h0Z" transform="translate(0 -0.01)"/><path class="cls-34" d="M132.24,43.52s-.07,0-.07-.06h0s0-.05,0-.08h.06l.07.06Z" transform="translate(0 -0.01)"/><path class="cls-31" d="M126.39,44.42v-.16h.06v.17Z" transform="translate(0 -0.01)"/><path class="cls-25" d="M121.7,43.86h-.08v-.17h.06Z" transform="translate(0 -0.01)"/><path class="cls-28" d="M121.12,38.91h-.06v-.15h.06Z" transform="translate(0 -0.01)"/><path class="cls-15" d="M127.49,39h0v.15h0Z" transform="translate(0 -0.01)"/><path class="cls-32" d="M121.45,42.12h0v.16h0Z" transform="translate(0 -0.01)"/><path class="cls-31" d="M126.9,42.2V42h0v.14Z" transform="translate(0 -0.01)"/><path class="cls-37" d="M130.76,43.6v.07h-.14V43.6Z" transform="translate(0 -0.01)"/><path class="cls-15" d="M130.43,51.06v.07h-.12v-.07Z" transform="translate(0 -0.01)"/><path class="cls-27" d="M126,46v-.17h.07S126,45.92,126,46Z" transform="translate(0 -0.01)"/><path class="cls-26" d="M126.62,43.33v-.15h0C126.72,43.25,126.71,43.31,126.62,43.33Z" transform="translate(0 -0.01)"/><path class="cls-18" d="M122.55,42.66v.11h-.06V42.6Z" transform="translate(0 -0.01)"/><path class="cls-37" d="M127.43,45.73v.08h-.08v-.08Z" transform="translate(0 -0.01)"/><path class="cls-34" d="M127.23,45.89V46h-.07C127.15,45.91,127.17,45.86,127.23,45.89Z" transform="translate(0 -0.01)"/><path class="cls-17" d="M120.41,35.23h0v-.08A.06.06,0,0,1,120.41,35.23Z" transform="translate(0 -0.01)"/><path class="cls-27" d="M127,42h0c0-.07,0-.08,0-.1Z" transform="translate(0 -0.01)"/><path class="cls-37" d="M130.31,48v-.09h.06V48Z" transform="translate(0 -0.01)"/><path class="cls-28" d="M132,43.34v-.07h.08v.08Z" transform="translate(0 -0.01)"/><path class="cls-37" d="M129.86,48.69v-.08h0v.09Z" transform="translate(0 -0.01)"/><path class="cls-31" d="M126.71,43.18h-.09v-.06h.07Z" transform="translate(0 -0.01)"/><path class="cls-26" d="M126.72,42.93h0V43h0Z" transform="translate(0 -0.01)"/><path class="cls-27" d="M127.29,40.47h-.06c0-.07,0-.09.06-.08Z" transform="translate(0 -0.01)"/><path class="cls-34" d="M127.34,45.82c0,.06,0,.06,0,.06v-.06Z" transform="translate(0 -0.01)"/><path class="cls-37" d="M127.29,45.82v.06h-.06C127.22,45.81,127.25,45.82,127.29,45.82Z" transform="translate(0 -0.01)"/><path class="cls-26" d="M127.62,38.58h-.06v-.06h.06Z" transform="translate(0 -0.01)"/><path class="cls-27" d="M126.1,46.75Z" transform="translate(0 -0.01)"/><path class="cls-37" d="M127.5,45.69h0v0Z" transform="translate(0 -0.01)"/><path class="cls-23" d="M135,52.41h0l.13-.15.1-.11h0a.05.05,0,0,1,.06,0v.06l-.21.26Z" transform="translate(0 -0.01)"/><path class="cls-23" d="M134.49,52.94v-.06h.07a.12.12,0,0,0,.05-.05s.06-.1.11-.12,0,0,.05-.07h0v.06l-.09.1c-.06,0-.09.08-.14.13S134.53,53,134.49,52.94Z" transform="translate(0 -0.01)"/><path class="cls-16" d="M126.33,58.59v-.07h.11v-.08h.18v.05l-.17.11Z" transform="translate(0 -0.01)"/><path class="cls-15" d="M134.08,53.35s0-.09.06-.09,0,0,0-.07h.06c0,.05,0,.09,0,.1s0,0,0,.07Z" transform="translate(0 -0.01)"/><path class="cls-17" d="M123.62,60.15c0-.07,0-.09.13-.07S123.71,60.17,123.62,60.15Z" transform="translate(0 -0.01)"/><path class="cls-16" d="M135.41,51.91l.05-.12h0V52Z" transform="translate(0 -0.01)"/><path class="cls-16" d="M125.1,59.25h.06a.1.1,0,0,1-.12.08v-.07Z" transform="translate(0 -0.01)"/><path class="cls-16" d="M125.48,59.09V59h.07v.09Z" transform="translate(0 -0.01)"/><path class="cls-16" d="M125.88,58.84v-.07h.1S125.94,58.86,125.88,58.84Z" transform="translate(0 -0.01)"/><path class="cls-16" d="M126.19,58.68v-.09h.07v.08Z" transform="translate(0 -0.01)"/><path class="cls-16" d="M125.22,59.25c0-.09,0-.09.08-.07v.07Z" transform="translate(0 -0.01)"/><path class="cls-16" d="M126.07,58.76v-.09h.07C126.15,58.75,126.12,58.78,126.07,58.76Z" transform="translate(0 -0.01)"/><path class="cls-16" d="M125.35,59.17v-.09h.07C125.42,59.18,125.42,59.18,125.35,59.17Z" transform="translate(0 -0.01)"/><path class="cls-17" d="M123.49,60.24c0-.07,0-.11.09-.08v.08Z" transform="translate(0 -0.01)"/><path class="cls-23" d="M134.86,52.61v-.08h.07v.07Z" transform="translate(0 -0.01)"/><path class="cls-17" d="M123.81,60.07V60h.06v.09Z" transform="translate(0 -0.01)"/><path class="cls-17" d="M123.94,60h0v0Z" transform="translate(0 -0.01)"/><path class="cls-35" d="M108,56h.11v.08h.1a.58.58,0,0,0,.26.18v.07a.16.16,0,0,1-.11-.05.31.31,0,0,0-.13-.06h0c-.05,0-.1,0-.13-.07s0,0,0,0a.08.08,0,0,1,0-.15Z" transform="translate(0 -0.01)"/><path class="cls-30" d="M110.34,57.53h.11v.07h.17v.08a.13.13,0,0,1-.13,0h0a.08.08,0,0,1-.1-.05Z" transform="translate(0 -0.01)"/><path class="cls-25" d="M104.73,53.68h.08c.08,0,.07,0,.11.07v.06h-.11l-.07-.07A.21.21,0,0,0,104.73,53.68Z" transform="translate(0 -0.01)"/><path class="cls-17" d="M116.74,61.14h.07c.06,0,.08,0,.09.09h-.15Z" transform="translate(0 -0.01)"/><path class="cls-17" d="M116.17,60.89h.13V61h-.13Z" transform="translate(0 -0.01)"/><path class="cls-17" d="M116.49,61.06h.06a.09.09,0,0,1,.09.09h-.14Z" transform="translate(0 -0.01)"/><path class="cls-17" d="M112.78,59h.11v.08C112.81,59.1,112.79,59.09,112.78,59Z" transform="translate(0 -0.01)"/><path class="cls-25" d="M104.56,53.55l.12.06v.07h-.06s0-.11-.08-.08Z" transform="translate(0 -0.01)"/><path class="cls-35" d="M112.38,58.77c.07,0,.11,0,.12.07S112.41,58.82,112.38,58.77Z" transform="translate(0 -0.01)"/><path class="cls-25" d="M103.62,52.7c.06,0,.09,0,.1.13l-.1-.07Z" transform="translate(0 -0.01)"/><path class="cls-17" d="M112.62,58.92a.12.12,0,0,1,.11.08h-.11Z" transform="translate(0 -0.01)"/><path class="cls-35" d="M112,58.52h.07v.08H112Z" transform="translate(0 -0.01)"/><path class="cls-35" d="M112.11,58.6h.08v.08S112.12,58.66,112.11,58.6Z" transform="translate(0 -0.01)"/><path class="cls-35" d="M112.25,58.68c.07,0,.07,0,.08.08h-.07Z" transform="translate(0 -0.01)"/><path class="cls-17" d="M116.35,61h.07v.09S116.37,61.07,116.35,61Z" transform="translate(0 -0.01)"/><path class="cls-17" d="M113,59.1c.07,0,.07,0,.08.07H113Z" transform="translate(0 -0.01)"/><path class="cls-17" d="M102.8,51.62h.07v.1C102.82,51.73,102.8,51.69,102.8,51.62Z" transform="translate(0 -0.01)"/><path class="cls-17" d="M113.09,59.17c.06,0,.06,0,.08.08h-.08Z" transform="translate(0 -0.01)"/><path class="cls-25" d="M103.45,52.53h.07v.08h-.06Z" transform="translate(0 -0.01)"/><path class="cls-17" d="M102.88,51.78h.06v.09h-.06Z" transform="translate(0 -0.01)"/><path class="cls-30" d="M110.62,57.7h.06v.1h-.06Z" transform="translate(0 -0.01)"/><path class="cls-25" d="M103.53,52.61s.07,0,.06.08S103.52,52.67,103.53,52.61Z" transform="translate(0 -0.01)"/><path class="cls-35" d="M108,56Z" transform="translate(0 -0.01)"/><path class="cls-30" d="M119.26,60.73h-.13v-.09h.12Z" transform="translate(0 -0.01)"/><path class="cls-30" d="M119.36,60.81s0,0,0-.08S119.36,60.77,119.36,60.81Z" transform="translate(0 -0.01)"/><path class="cls-12" d="M117.62,60a.69.69,0,0,1,.35,0h-.35Z" transform="translate(0 -0.01)"/><path class="cls-12" d="M118.34,60.06c0-.05,0-.08.08-.07h.14v.06S118.41,60.11,118.34,60.06Z" transform="translate(0 -0.01)"/><path class="cls-18" d="M118.42,61.14v.07h-.15s0-.07.06-.07Z" transform="translate(0 -0.01)"/><path class="cls-18" d="M118.75,61v.08h-.13C118.62,61,118.62,61,118.75,61Z" transform="translate(0 -0.01)"/><path class="cls-18" d="M118.88,60.89c0,.1,0,.1-.07.08V60.9Z" transform="translate(0 -0.01)"/><path class="cls-18" d="M118.56,61.06c0,.09,0,.09-.08.08v-.08Z" transform="translate(0 -0.01)"/><path class="cls-19" d="M102.81,51.21v.26h0v-.24Z" transform="translate(0 -0.01)"/><path class="cls-21" d="M116.43,50.15h.06v.1C116.43,50.26,116.43,50.21,116.43,50.15Z" transform="translate(0 -0.01)"/><path class="cls-13" d="M114.74,48.67Z" transform="translate(0 -0.01)"/><path class="cls-38" d="M120.41,56.9l.14-.13a.09.09,0,0,1,0-.07c.11-.14.23-.28.35-.41l.09-.15a.81.81,0,0,1,.12-.14s0-.1.1-.12.06-.08.09-.12l.06-.07c.07-.06.09-.17.17-.22s0-.07.08-.08,0-.06.06-.08,0-.08.08-.1,0-.12.11-.15l.08-.13.07-.07a1.46,1.46,0,0,1,.16-.19.83.83,0,0,1,.08-.12,1.48,1.48,0,0,1,.11-.14s0-.09.08-.08a1,1,0,0,1,.19-.26,1.27,1.27,0,0,1,.21-.25v-.06a2.24,2.24,0,0,1,.34-.4l.25-.34h.08V53h.3V53h.1l.15.22v.1h.06v.46h-.06V54a.43.43,0,0,0-.13.17.11.11,0,0,1-.08.1c-.08,0-.08.06-.1.1l-.06.08-.12.16a.26.26,0,0,0-.07.11c0,.05-.09.05-.1.12s-.07.06-.1.1a.61.61,0,0,1-.12.16.75.75,0,0,1-.07.12l-.1.12a.76.76,0,0,0-.11.14l-.07.09a1.29,1.29,0,0,0-.19.32.27.27,0,0,1-.07.08c-.07.05-.09.15-.16.19a.15.15,0,0,0-.1.15c0,.09-.06.07-.09.1s0,.07-.07.09-.05.07-.08.12h0l-.15.1a.64.64,0,0,0-.1.13l-.09.11c0,.05-.08.07-.1.14s0,.07-.08.1-.08.06-.1.1a.27.27,0,0,1-.07.08s0,.1-.07.13l-.16.18-.07.09h-.14v.08h-.23V57.8h-.09l-.23-.28v-.25h0V57.2c.06,0,0-.1,0-.16Z" transform="translate(0 -0.01)"/><path class="cls-38" d="M125.29,51.06v.07h.09a.21.21,0,0,0,.1.15s.06.1.06.16h.06v.46a.35.35,0,0,0-.14.2.06.06,0,0,1,0,.06.39.39,0,0,0-.08.1l-.08.13-.09.1a.71.71,0,0,0-.1.14.53.53,0,0,1-.69,0v-.11h-.07l-.06-.08V52c.07,0,.06-.11.07-.17l.18-.22v-.08l.12-.17s.07-.1.11-.1.09-.09.15-.12,0,0,0-.06Z" transform="translate(0 -0.01)"/><path class="cls-29" d="M125.75,47h.06c0,.06,0,.09-.06.08Z" transform="translate(0 -0.01)"/><path class="cls-39" d="M407.71,21.45s-4.59,21.37,15.84,23.91L424.81,43S409,28.1,407.71,21.45Z" transform="translate(0 -0.01)"/><path class="cls-39" d="M431.31,42.82l-4.75,1-.48.1s-12.67-10.29-12.46-33.25a57.13,57.13,0,0,0,6,9.57C424.62,26.9,430.36,35.77,431.31,42.82Z" transform="translate(0 -0.01)"/><path class="cls-39" d="M460,21.45s.79,21.37-19.64,23.91L439,43S458.7,28.1,460,21.45Z" transform="translate(0 -0.01)"/><path class="cls-39" d="M454.11,10.68c.15,23-16.31,33.25-16.31,33.25l-.48-.1-4.75-1c.94-7,6.66-15.92,11.68-22.57A51.43,51.43,0,0,1,454.11,10.68Z" transform="translate(0 -0.01)"/><path class="cls-40" d="M407.71,21.45S405,42.82,425.45,45.36L426.71,43S409,28.1,407.71,21.45Z" transform="translate(0 -0.01)"/><path class="cls-40" d="M433.21,42.82l-4.75,1-.48.1s-14.57-10.29-14.36-33.25c0,0,3.73,4,8,9.57C426.55,26.9,432.26,35.77,433.21,42.82Z" transform="translate(0 -0.01)"/><path class="cls-40" d="M434.81,45a3,3,0,0,1-2.55.34c-12.2-2.85-10-42.6-10-42.6.68.32,3.32,5.37,6.12,11.9C433.32,26.13,438.73,42.15,434.81,45Z" transform="translate(0 -0.01)"/><path class="cls-40" d="M460,21.45s2.69,21.37-17.74,23.91L441,43S458.7,28.1,460,21.45Z" transform="translate(0 -0.01)"/><path class="cls-40" d="M454.11,10.68c.15,23-14.41,33.25-14.41,33.25l-.48-.1-4.75-1c.94-7,6.66-15.92,11.68-22.57C450.38,14.68,454.11,10.68,454.11,10.68Z" transform="translate(0 -0.01)"/><path class="cls-39" d="M446.15,20.28c-.61,8.68-2.2,18.23-6,22.69a7.4,7.4,0,0,1-.88.89l-4.75-1C435.41,35.77,441.13,26.9,446.15,20.28Z" transform="translate(0 -0.01)"/><path class="cls-40" d="M435.75,1.64c-1.08,4.41-2.14,8.82-3.21,13.23L432,17.16c-.31,1.31-.63,2.63-.87,4-.3,1.59-.49,3.2-.68,4.81l-.51,4.26c-.35,3-.7,6,.21,8.94a6.26,6.26,0,0,0,1,2A5,5,0,0,0,434.83,43a8.23,8.23,0,0,0,3.95-.92,7.12,7.12,0,0,0,2.7-2,7.46,7.46,0,0,0,1.29-4.49c0-3-.86-6-1.22-9-.39-3.37-.09-6.74-.16-10.12a47.91,47.91,0,0,0-2.47-14.24C438.19-.06,436.42-1.07,435.75,1.64Z" transform="translate(0 -0.01)"/><path class="cls-40" d="M201,83.23s-4.59,17,15.84,19l1.26-1.9S202.19,88.52,201,83.23Z" transform="translate(0 -0.01)"/><path class="cls-40" d="M224,99.65l-4.67,1-.47.11S205.5,93.23,204.18,75a47.6,47.6,0,0,0,6.6,7.3C216.28,87.34,222.56,94.1,224,99.65Z" transform="translate(0 -0.01)"/><path class="cls-40" d="M224.62,101.89a3.69,3.69,0,0,1-2.55.27C209.87,99.89,214,68.22,214,68.22c.68.26,1.42,4.28,4.22,9.48C223.08,86.84,228.49,99.6,224.62,101.89Z" transform="translate(0 -0.01)"/><path class="cls-40" d="M251.62,83.11s.79,17-19.64,19l-1.27-1.9S250.36,88.41,251.62,83.11Z" transform="translate(0 -0.01)"/><path class="cls-40" d="M245.77,74.53c.15,18.33-16.31,26.49-16.31,26.49l-.48-.08-4.75-.79c.94-5.62,6.66-12.69,11.68-18A48.93,48.93,0,0,1,245.77,74.53Z" transform="translate(0 -0.01)"/><path class="cls-40" d="M228.91,100.23a7.48,7.48,0,0,1-2.72,1.66h0a5.68,5.68,0,0,1-1,.27c-3,.56-4.05-1.17-3.87-4.09.28-5.22,4.39-14.27,8.09-21,2.66-4.87,7-8.56,7.66-8.81C237.06,68.22,236.88,92.88,228.91,100.23Z" transform="translate(0 -0.01)"/><path class="cls-40" d="M225.5,63.22s-13.62,33.24-1.9,38.25S228.51,66.17,225.5,63.22Z" transform="translate(0 -0.01)"/><path class="cls-39" d="M201,83.23s-4.59,17,15.84,19l1.26-1.9S202.19,88.52,201,83.23Z" transform="translate(0 -0.01)"/><path class="cls-39" d="M223.94,99.66l-4.67,1-.48.1S205.5,93.22,204.2,75a48.05,48.05,0,0,0,6.59,7.3C216.29,87.34,222.55,94.11,223.94,99.66Z" transform="translate(0 -0.01)"/><path class="cls-39" d="M224.62,101.89a3.69,3.69,0,0,1-2.55.27C209.87,99.89,214,68.22,214,68.22c.68.26,1.42,4.28,4.22,9.48C223.08,86.84,228.49,99.6,224.62,101.89Z" transform="translate(0 -0.01)"/><path class="cls-39" d="M251.62,83.11s.79,17-19.64,19l-1.27-1.9S250.36,88.41,251.62,83.11Z" transform="translate(0 -0.01)"/><path class="cls-39" d="M245.77,74.53c.15,18.33-16.31,26.49-16.31,26.49l-.48-.08-4.75-.79c.94-5.62,6.66-12.69,11.68-18A48.93,48.93,0,0,1,245.77,74.53Z" transform="translate(0 -0.01)"/><path class="cls-39" d="M228.91,100.23a7.48,7.48,0,0,1-2.72,1.66h0a5.68,5.68,0,0,1-1,.27c-3,.56-4.05-1.17-3.87-4.09.28-5.22,4.39-14.27,8.09-21,2.66-4.87,7-8.56,7.66-8.81C237.06,68.22,236.88,92.88,228.91,100.23Z" transform="translate(0 -0.01)"/><path class="cls-39" d="M225.5,62.74s-13.62,33.65-1.9,38.73S228.51,65.72,225.5,62.74Z" transform="translate(0 -0.01)"/><path class="cls-40" d="M200.62,83.11s-2.69,17,17.74,19l1.26-1.9S201.87,88.41,200.62,83.11Z" transform="translate(0 -0.01)"/><path class="cls-40" d="M225.91,99.58l-4.67,1-.47.1s-15.24-7.38-16.64-25.64c0,0,4,3,8.63,7.17C218.18,87.28,224.48,94,225.91,99.58Z" transform="translate(0 -0.01)"/><path class="cls-39" d="M224.87,100.14l-4.75.79c-4.51-3.18-6.29-11.36-6.94-18.78C218.21,87.45,223.92,94.52,224.87,100.14Z" transform="translate(0 -0.01)"/><path class="cls-40" d="M226.47,101.89a3.69,3.69,0,0,1-2.55.27c-12.2-2.27-10-33.94-10-33.94.68.26,3.32,4.28,6.12,9.48C225,86.84,230.39,99.6,226.47,101.89Z" transform="translate(0 -0.01)"/><path class="cls-40" d="M251.62,83.11s2.69,17-17.74,19l-1.26-1.9S250.36,88.41,251.62,83.11Z" transform="translate(0 -0.01)"/><path class="cls-40" d="M245.77,74.53A30.94,30.94,0,0,1,231.36,101l-.48-.08-4.75-.79c.94-5.62,6.66-12.69,11.68-18C242,77.72,245.77,74.53,245.77,74.53Z" transform="translate(0 -0.01)"/><path class="cls-39" d="M237.81,82.18c-.61,6.91-2.2,14.52-6.05,18.08a6.67,6.67,0,0,1-.88.71l-4.75-.8C227.07,94.52,232.79,87.45,237.81,82.18Z" transform="translate(0 -0.01)"/><path class="cls-40" d="M230.81,100.23a7.48,7.48,0,0,1-2.72,1.66h0a5.68,5.68,0,0,1-1,.27c-3,.56-4.05-1.17-3.87-4.09.28-5.22,4.39-14.27,8.09-21,2.66-4.87,5.11-8.56,5.76-8.81C237.06,68.22,238.78,92.88,230.81,100.23Z" transform="translate(0 -0.01)"/><path class="cls-39" d="M226.47,101.89a4,4,0,0,1-1.92-.49c-5.74-2.85-5.86-13.54-4.49-23.7C225,86.84,230.39,99.6,226.47,101.89Z" transform="translate(0 -0.01)"/><path class="cls-39" d="M230.81,100.23a2.82,2.82,0,0,1-2.72,1.66h0a4.28,4.28,0,0,1-1.63-.49,7.35,7.35,0,0,1-3.24-3.33c.28-5.22,4.39-14.27,8.09-21C232.62,86.43,233.06,96.38,230.81,100.23Z" transform="translate(0 -0.01)"/><path class="cls-40" d="M225.5,63.22s-11.72,33.24,0,38.25S228.51,66.17,225.5,63.22Z" transform="translate(0 -0.01)"/><g class="cls-41"><text class="cls-42" transform="translate(254.12 98.15)">A</text><text class="cls-43" transform="translate(279.75 98.15)">g</text><text class="cls-42" transform="translate(301.06 98.15)">a</text><text class="cls-44" transform="translate(320.14 98.15)">v</text><text class="cls-43" transform="translate(339.22 98.15)">e </text><text class="cls-44" transform="translate(368.02 98.15)">C</text><text class="cls-44" transform="translate(394.91 98.15)">o</text><text class="cls-43" transform="translate(415.29 98.15)">.</text></g></svg>