<svg id="eecc4465-eafb-4b62-b7e4-7201942d514a" xmlns="http://www.w3.org/2000/svg" xmlns:xlink="http://www.w3.org/1999/xlink" viewBox="0 0 679.9 768.06"><defs><style>.cls-1{opacity:0.2;}.cls-2{fill:#3f3d56;}.cls-3{fill:#7ac0a8;}.cls-22,.cls-24,.cls-4{opacity:0.1;}.cls-24,.cls-4{isolation:isolate;}.cls-5{fill:url(#linear-gradient);}.cls-6{opacity:0.9;}.cls-7{fill:#e5e7eb;}.cls-8{fill:#fff;}.cls-9{fill:#ececf3;}.cls-10{fill:#737144;opacity:0.18;}.cls-11{opacity:0.5;}.cls-12{opacity:0.38;}.cls-13{fill:#d6d8e0;}.cls-14{fill:url(#linear-gradient-2);}.cls-15{fill:#cfdba8;}.cls-16{fill:url(#linear-gradient-3);}.cls-17{fill:#a0616a;}.cls-18{fill:#5668b0;opacity:0.99;}.cls-19{fill:#c1b44b;}.cls-20{fill:#98ac8a;opacity:0.4;}.cls-21{fill:#f86d70;}.cls-23{fill:#a7c4ac;}.cls-24{fill:#010101;}.cls-25{opacity:0.75;}.cls-26{opacity:0.4;}</style><linearGradient id="linear-gradient" x1="633.15" y1="-39.9" x2="633.15" y2="702" gradientTransform="matrix(1, 0, 0, -1, -260, 702.05)" gradientUnits="userSpaceOnUse"><stop offset="0" stop-color="gray" stop-opacity="0.25"/><stop offset="0.54" stop-color="gray" stop-opacity="0.12"/><stop offset="1" stop-color="gray" stop-opacity="0.1"/></linearGradient><linearGradient id="linear-gradient-2" x1="372.74" y1="428.65" x2="372.74" y2="536.9" gradientTransform="matrix(1, 0, 0, -1, -0.1, 767.95)" xlink:href="#linear-gradient"/><linearGradient id="linear-gradient-3" x1="417.06" y1="158.65" x2="573.57" y2="158.65" xlink:href="#linear-gradient"/></defs><title>mobile</title><g class="cls-1"><path class="cls-2" d="M505.11,701.05A23.18,23.18,0,0,1,503,704.3q-10.51-7.39-21.38-14.51l.47-.93a20.59,20.59,0,0,1,7.27-7.92c4-2.46,8.51-3,12.22-1s5.78,6,6,10.67A20.63,20.63,0,0,1,505.11,701.05Z" transform="translate(-0.1 -0.05)"/><ellipse class="cls-2" cx="503.36" cy="676.65" rx="17.05" ry="13.02" transform="translate(-330.29 804.68) rotate(-62.09)"/><ellipse class="cls-2" cx="513.12" cy="658.23" rx="17.05" ry="13.02" transform="translate(-308.83 803.51) rotate(-62.09)"/><ellipse class="cls-2" cx="522.87" cy="639.82" rx="17.05" ry="13.02" transform="translate(-287.37 802.34) rotate(-62.09)"/><ellipse class="cls-2" cx="532.62" cy="621.42" rx="17.05" ry="13.02" transform="translate(-265.92 801.16) rotate(-62.09)"/><path class="cls-3" d="M556.25,472.55a61.78,61.78,0,0,1-1-8.58l32.92,11.08L555.34,458a62.45,62.45,0,0,1,22.08-44.23l31.81,46-24.7-51.16a62.37,62.37,0,1,1,58.36,109.89,62.57,62.57,0,0,1,1,13.39l-50-.4,49.28,8.12a62.35,62.35,0,0,1-36.29,47,62.37,62.37,0,1,1-86.65-45.89,62.4,62.4,0,0,1,36.1-68.15Z" transform="translate(-0.1 -0.05)"/><path class="cls-4" d="M636.64,558.76a62.11,62.11,0,0,1-29.84,27.83,62.37,62.37,0,1,1-86.65-45.89C517.73,527.41,639.92,552.57,636.64,558.76Z" transform="translate(-0.1 -0.05)"/></g><g class="cls-1"><path class="cls-2" d="M217,621.72a43,43,0,0,0,2.39,7q23.12-8.85,46.75-17c-.14-.64-.28-1.3-.44-2a39.49,39.49,0,0,0-9.83-18.22c-6.29-6.48-14.45-9.64-22.3-7.72s-13.63,8.47-16.24,17.09A39.57,39.57,0,0,0,217,621.72Z" transform="translate(-0.1 -0.05)"/><ellipse class="cls-2" cx="231.87" cy="576.75" rx="25.07" ry="32.81" transform="translate(-130.27 71.4) rotate(-13.72)"/><ellipse class="cls-2" cx="222.35" cy="537.79" rx="25.07" ry="32.81" transform="translate(-121.3 68.03) rotate(-13.72)"/><ellipse class="cls-2" cx="212.84" cy="498.82" rx="25.07" ry="32.81" transform="translate(-112.33 64.66) rotate(-13.72)"/><ellipse class="cls-2" cx="203.33" cy="459.87" rx="25.07" ry="32.81" transform="translate(-103.37 61.3) rotate(-13.72)"/><path class="cls-3" d="M229.38,171.05a117.76,117.76,0,0,0,5.81-15.56l-66.55,5.11L238,144.19a120.32,120.32,0,0,0-20.33-93l-81.12,70.86,70.26-83.83A120.07,120.07,0,1,0,46,215.77a119.72,119.72,0,0,0-8.11,24.52l93.59,22.88-95.8-8.12a120.13,120.13,0,0,0,45.54,105A120.07,120.07,0,1,0,264.59,315.3,120.08,120.08,0,0,0,229.38,171.05Z" transform="translate(-0.1 -0.05)"/><path class="cls-4" d="M38.66,294a119.5,119.5,0,0,0,42.56,66,120.07,120.07,0,1,0,183.37-44.75C275.38,291.6,35.46,280.9,38.66,294Z" transform="translate(-0.1 -0.05)"/></g><path class="cls-5" d="M560,168.31h-2.23V48.05c0-26.52-21.83-48-48.76-48H235.88c-26.93,0-48.76,21.5-48.76,48V97.9h-.65a2.85,2.85,0,0,0-2.87,2.82v24a2.85,2.85,0,0,0,2.87,2.82h.7v24.51h-.88a2.84,2.84,0,0,0-2.86,2.82h0v45.89a2.85,2.85,0,0,0,2.86,2.83h.88v18h-.76a2.84,2.84,0,0,0-2.87,2.81h0v46.34a2.84,2.84,0,0,0,2.86,2.82h.77V694c0,26.52,21.83,48,48.76,48H509c26.93,0,48.76-21.5,48.76-48V258.25H560a2.85,2.85,0,0,0,2.87-2.82v-84.3A2.85,2.85,0,0,0,560,168.31Z" transform="translate(-0.1 -0.05)"/><g class="cls-6"><rect class="cls-7" x="547.08" y="171.21" width="10.77" height="88.82" rx="2.29"/><rect class="cls-7" x="188.95" y="101.63" width="6.05" height="29.24" rx="2.29"/><rect class="cls-7" x="188.73" y="155.16" width="6.82" height="50.89" rx="2.29"/><rect class="cls-7" x="188.84" y="223.86" width="6.49" height="51.33" rx="2.29"/><rect class="cls-8" x="192.37" y="5" width="360.52" height="732.71" rx="38.99"/><rect class="cls-7" x="337.86" y="26.88" width="50.35" height="10.22" rx="3.87"/><circle class="cls-7" cx="401.61" cy="31.99" r="5.8"/></g><path class="cls-9" d="M502.1,24.14H460.83v5a23.58,23.58,0,0,1-23.58,23.57H305.67a23.58,23.58,0,0,1-23.58-23.57v-5H243.37a28.63,28.63,0,0,0-28.63,28.63h0V690.05a28.63,28.63,0,0,0,28.63,28.63H502.1a28.63,28.63,0,0,0,28.63-28.63h0V52.77A28.63,28.63,0,0,0,502.1,24.14Z" transform="translate(-0.1 -0.05)"/><ellipse class="cls-10" cx="92.01" cy="753.5" rx="57.19" ry="9.67"/><g class="cls-11"><ellipse class="cls-3" cx="619.92" cy="700.3" rx="32.64" ry="5.52"/><path class="cls-3" d="M633.51,691.32a9.49,9.49,0,0,0,3.12-4.69c.4-1.87-.4-4.11-2.18-4.79-2-.76-4.13.62-5.75,2s-3.47,3-5.59,2.7a8.49,8.49,0,0,0,2.63-8,3.25,3.25,0,0,0-.73-1.61c-1.11-1.19-3.12-.68-4.44.25-4.22,3-5.4,8.71-5.43,13.87-.42-1.86-.06-3.8-.07-5.71s-.54-4-2.15-5.06a6.54,6.54,0,0,0-3.27-.76c-1.9-.07-4,.12-5.31,1.5-1.61,1.73-1.19,4.62.21,6.52s3.53,3.09,5.5,4.4a12.29,12.29,0,0,1,3.92,3.74,3.31,3.31,0,0,1,.29.67h11.9A33,33,0,0,0,633.51,691.32Z" transform="translate(-0.1 -0.05)"/></g><g class="cls-12"><ellipse class="cls-3" cx="85.22" cy="638.02" rx="32.64" ry="5.52"/><path class="cls-3" d="M98.82,629a9.46,9.46,0,0,0,3.11-4.7c.4-1.86-.39-4.1-2.18-4.78-2-.76-4.13.62-5.74,2s-3.48,3-5.59,2.7a8.55,8.55,0,0,0,2.63-8,3.42,3.42,0,0,0-.73-1.62c-1.11-1.18-3.12-.67-4.45.26-4.22,3-5.4,8.7-5.42,13.86-.43-1.86-.07-3.8-.08-5.71s-.53-4-2.14-5a6.48,6.48,0,0,0-3.28-.77c-1.89-.07-4,.12-5.3,1.51-1.61,1.73-1.19,4.62.21,6.52s3.53,3.08,5.49,4.4a12.08,12.08,0,0,1,3.92,3.74,4,4,0,0,1,.3.67H91.46A33.87,33.87,0,0,0,98.82,629Z" transform="translate(-0.1 -0.05)"/></g><rect class="cls-13" x="238.88" y="77" width="51.09" height="51.09"/><rect class="cls-13" x="327.67" y="80.65" width="107.04" height="9.73"/><rect class="cls-13" x="327.67" y="97.68" width="176.37" height="9.73"/><rect class="cls-13" x="327.67" y="114.71" width="176.37" height="9.73"/><rect class="cls-13" x="239.27" y="170.66" width="51.09" height="51.09"/><rect class="cls-13" x="328.06" y="174.31" width="107.04" height="9.73"/><rect class="cls-13" x="328.06" y="191.34" width="176.37" height="9.73"/><rect class="cls-13" x="328.06" y="208.36" width="176.37" height="9.73"/><rect class="cls-13" x="239.66" y="264.32" width="51.09" height="51.09"/><rect class="cls-13" x="328.46" y="267.96" width="107.04" height="9.73"/><rect class="cls-13" x="328.46" y="284.99" width="176.37" height="9.73"/><rect class="cls-13" x="328.46" y="302.02" width="176.37" height="9.73"/><rect class="cls-13" x="240.05" y="357.97" width="51.09" height="51.09"/><rect class="cls-13" x="328.85" y="361.62" width="107.04" height="9.73"/><rect class="cls-13" x="328.85" y="378.65" width="176.37" height="9.73"/><rect class="cls-13" x="328.85" y="395.68" width="176.37" height="9.73"/><rect class="cls-13" x="240.45" y="451.63" width="51.09" height="51.09"/><rect class="cls-13" x="329.24" y="455.28" width="107.04" height="9.73"/><rect class="cls-13" x="329.24" y="472.31" width="176.37" height="9.73"/><rect class="cls-13" x="329.24" y="489.34" width="176.37" height="9.73"/><rect class="cls-13" x="240.84" y="545.29" width="51.09" height="51.09"/><rect class="cls-13" x="329.63" y="548.94" width="107.04" height="9.73"/><rect class="cls-13" x="329.63" y="565.97" width="176.37" height="9.73"/><rect class="cls-13" x="329.63" y="583" width="176.37" height="9.73"/><rect class="cls-13" x="241.23" y="638.95" width="51.09" height="51.09"/><rect class="cls-13" x="330.02" y="642.6" width="107.04" height="9.73"/><rect class="cls-13" x="330.02" y="659.63" width="176.37" height="9.73"/><rect class="cls-13" x="330.02" y="676.66" width="176.37" height="9.73"/><rect class="cls-14" x="154.91" y="231.05" width="435.45" height="108.25"/><rect class="cls-8" x="157.34" y="233.49" width="431.8" height="103.39"/><g class="cls-11"><rect class="cls-15" x="329.46" y="263.29" width="107.04" height="9.73"/><rect class="cls-15" x="329.46" y="280.32" width="176.37" height="9.73"/><rect class="cls-15" x="329.46" y="297.35" width="176.37" height="9.73"/></g><path class="cls-16" d="M310.18,325.59c-2.72-2.69-7.24-3.58-10.51-1.6-2.54,1.53-3.94,4.38-5.22,7.07-1.87,4-4.61,7.74-5.45,12.06-2.31,11.91-11.79,21.16-15.59,32.67-1.36,4.11-2,8.52-4.15,12.27a39.05,39.05,0,0,1-3.4,4.68,132,132,0,0,0-13,19.83c-2.16.42-4.08,2.25-5.92,3.68a20.45,20.45,0,0,1-8,3.79,7.57,7.57,0,0,0-3.28,1.2c-1.38,1.15-1.57,3.22-2.69,4.61a7.18,7.18,0,0,1-3,2c0-.35-.05-.7-.06-1.06,0-1.85-.08-3.71-.08-5.57a20.94,20.94,0,0,0-.06-27.18,40.72,40.72,0,0,1,1.15-8.59c.35-1.37.3-3.05-.81-3.94-.55-.43-1.26-.59-1.85-1a8.11,8.11,0,0,1-2-2.54,10.79,10.79,0,0,0-13.58-3.47c-3.61,1.9-5.8,5.7-9,8.28-1.64,1.32-3.53,2.31-5.17,3.64a21.44,21.44,0,0,0-6.69,10.88A62.59,62.59,0,0,0,190,410.14a11.61,11.61,0,0,0,.15,3.9,10.21,10.21,0,0,0,1.47,3,33.65,33.65,0,0,0,12.43,11.85,5,5,0,0,1,0,.77,5.53,5.53,0,0,1-.22,1.19l-.58-.16c-2.14-.48-4.45-.42-6.37-1.49-3.28-1.84-4.27-6.33-7.41-8.39a6.78,6.78,0,0,0-.84-.45,56.12,56.12,0,0,0-3.22-16.67c-.92-2.56-2-5.17-1.91-7.9.12-2.53,1.33-4.86,2.41-7.15,3.77-7.9,6.41-16.28,9-24.63q2.49-7.87,5-15.75a24.83,24.83,0,0,0,4.39-4.18,22.3,22.3,0,0,0,5.09-10.93,15.49,15.49,0,0,0-2.81-11.56,6.69,6.69,0,0,0-4.7-2.88,6.12,6.12,0,0,0-4.39,2,19.5,19.5,0,0,0-3.76,6.46c-1.64,3.87-3.3,7.89-3.14,12.09.13,3.48,1.43,7.37-.6,10.2-6.65,9.27-11.67,19.93-16.94,30.07a53.28,53.28,0,0,0-3.42,7.54,42.06,42.06,0,0,0-1.79,13c-.05,8.25,1.08,16.46,2.2,24.64.51,3.69,1.16,7.61,2.91,10.8a45.05,45.05,0,0,0-1.79,12.16,6.81,6.81,0,0,0,.44,2.79,11.43,11.43,0,0,0,2.21,2.78,12.43,12.43,0,0,1,3,9.84,28,28,0,0,0,.89,9.86c2,8.88,4,17.75,5.6,26.7a17,17,0,0,1,.38,5.08c-.31,2.42-1.65,4.72-1.36,7.15a26.73,26.73,0,0,1,.64,3.42,8.69,8.69,0,0,1-.6,2.56c-2.28,6.63-8.41,21.83-8.34,28.85l1.6-.38c-1.61,9.11-5.38,17.82-7.36,26.9a90,90,0,0,0-1.86,20.12,74.71,74.71,0,0,1-.16,9.1c-.31,2.69-1,5.32-1.38,8a72.54,72.54,0,0,0-.48,10.83,111.09,111.09,0,0,0,1,17c1.53,9.6-1.15,19.14-1.88,28.83a173.77,173.77,0,0,1-2.3,20.22c-.55,2.82-1.24,5.62-1.62,8.47-1.12,8.46.51,17.18-1.25,25.53-.83,3.91-2.31,8.3-.13,11.64.69,1,1.68,1.87,2.43,2.88a3.65,3.65,0,0,1,.7,3.53c-.43.92-1.43,1.52-1.68,2.5-.4,1.54,1.21,2.8,2.65,3.46l.41.16a3.69,3.69,0,0,0,.78,3,6.37,6.37,0,0,0,3.07,1.6l18.88,5.72c4.21,1.28,8.79,2.54,13,1.5a3.19,3.19,0,0,0,.75,1.62,6.37,6.37,0,0,0,3.07,1.6L221,766.21c4.82,1.46,10.11,2.9,14.74.92a8.34,8.34,0,0,0,3.38-2.55,8.91,8.91,0,0,0,1.2-7.47,6,6,0,0,0-1.82-3.34,8,8,0,0,0-4.36-1.43,8.79,8.79,0,0,1-3.82-1,2.71,2.71,0,0,1-.87-.91c1.08-1.07,2.13-2.17,3.14-3.32-.82-.28-1.11-1.46-1.19-2.32-1.19-12.74,3.61-25.19,5.43-37.85a81,81,0,0,0,.48-19.18c-.22-2.41-.55-4.81-.65-7.23-.47-12.6,5.55-24.72,5.34-37.33-.1-5.9,3-11.72,4.51-17.43,1.32-5.06,1.36-10.36,1.39-15.6l.24-41.26c0-5.58,0-11.29-1.78-16.56a21,21,0,0,1-.72-9.06c5.09-2.25,9.91-5.58,15.35-5,1.45-3.85-.27-16.68-1.63-20.57a88.48,88.48,0,0,1-3-47.64c1.23-5.69-.46-11.74.91-17.41a10.56,10.56,0,0,1,1.49-3.74,4,4,0,0,1,3.43-1.81c0-3.47-.07-7-.3-10.52a24.94,24.94,0,0,0,5.57-6.41c3-5,4.71-10.63,6.78-16.07,3.67-9.6,8.68-18.61,12.89-28s4.62-19.66,8-29.38a22.07,22.07,0,0,1,10.75-12.38c2-1,4.13-1.72,5.58-3.36a9,9,0,0,0,1.94-4.77A12.63,12.63,0,0,0,310.18,325.59Zm-117,413.13c.41-.45.81-.9,1.19-1.39-1.26-.2-2.8-1.12-2.83-2.4a13.39,13.39,0,0,1,.82-3.75,15,15,0,0,0,.28-6.66c-.28-1.55-.8-3-1.12-4.58a40.87,40.87,0,0,1-.6-5.18,85.81,85.81,0,0,0-3.64-18.36c-1.81-5.79.67-11.65,1.31-17.68.31-2.86.17-5.81,1.17-8.5.59-1.6,1.56-3,2.15-4.62,1.37-3.71.56-7.84-.28-11.71,5.92-10.73,7.88-23.53,10.11-35.61q1.88-10.17,3.76-20.33c.55-3,1.16-6.16,3-8.58a105.53,105.53,0,0,1,2.28,27.34,40.36,40.36,0,0,0,.1,8c.46,2.91,1.67,5.66,2.37,8.52,1.56,6.31.65,12.94,1,19.43.13,2.62.47,5.24.58,7.86.49,11.59-3.39,22.86-7.22,33.81-2.35,6.71-2.87,14.34-4,21.37-1.06,6.73-2.11,13.47-2.65,20.26-.16,2.07-.29,4.2-.54,6.3a15.83,15.83,0,0,0-1.95-.31,8.79,8.79,0,0,1-3.82-1,4.43,4.43,0,0,1-1.47-2.23Z" transform="translate(-0.1 -0.05)"/><path class="cls-2" d="M234.16,752.44a8.11,8.11,0,0,1,4.36,1.42,6.05,6.05,0,0,1,1.82,3.32,8.82,8.82,0,0,1-1.2,7.43,8.34,8.34,0,0,1-3.38,2.52c-4.63,2-9.92.55-14.74-.9l-18.88-5.69a6.44,6.44,0,0,1-3.07-1.59,4.16,4.16,0,0,1-.08-4.85,9.53,9.53,0,0,1,4-3.19c5.88-2.86,12.5-3.52,19-3.64,2.4,0,4.76-.57,6.39,1.28.86,1,.71,2.06,2,2.91A8.6,8.6,0,0,0,234.16,752.44Z" transform="translate(-0.1 -0.05)"/><path class="cls-2" d="M198.49,742.05a7.91,7.91,0,0,1,4.36,1.41,6.15,6.15,0,0,1,1.82,3.32,8.82,8.82,0,0,1-1.2,7.43,8.3,8.3,0,0,1-3.38,2.53c-4.63,2-9.92.54-14.74-.91l-18.88-5.69a6.22,6.22,0,0,1-3.07-1.59,4.16,4.16,0,0,1-.08-4.85,9.4,9.4,0,0,1,4-3.19c5.88-2.86,12.49-3.52,19-3.64,2.39,0,4.76-.57,6.39,1.28.86,1,.71,2.07,2,2.91A8.82,8.82,0,0,0,198.49,742.05Z" transform="translate(-0.1 -0.05)"/><path class="cls-2" d="M214.89,537.16a232.45,232.45,0,0,0-33.48-.94,6.66,6.66,0,0,0-2.17.34c-2.46,1-2.84,4.22-3.08,6.86-.94,10.67-5.65,20.62-8,31.09a88.91,88.91,0,0,0-1.86,20,73,73,0,0,1-.16,9c-.31,2.68-1,5.29-1.38,8a71.66,71.66,0,0,0-.48,10.76,109.41,109.41,0,0,0,1,16.87c1.53,9.54-1.15,19-1.88,28.64a171.57,171.57,0,0,1-2.3,20.09c-.55,2.8-1.24,5.58-1.62,8.41-1.12,8.41.51,17.08-1.25,25.37-.83,3.88-2.31,8.24-.13,11.56.69,1,1.68,1.86,2.43,2.86a3.64,3.64,0,0,1,.7,3.51c-.43.91-1.43,1.51-1.68,2.48-.4,1.53,1.21,2.79,2.65,3.44,10.85,4.89,24.84,1.44,32.16-8-1.26-.2-2.8-1.11-2.83-2.38a13.25,13.25,0,0,1,.82-3.73,14.81,14.81,0,0,0,.28-6.62c-.28-1.53-.8-3-1.12-4.55a40.46,40.46,0,0,1-.6-5.14,84.62,84.62,0,0,0-3.64-18.24c-1.81-5.75.67-11.57,1.31-17.57.31-2.83.17-5.77,1.17-8.44.59-1.59,1.56-3,2.15-4.59,1.37-3.69.56-7.78-.28-11.63,5.92-10.67,7.88-23.38,10.11-35.38q1.88-10.1,3.76-20.2c.55-3,1.16-6.11,3-8.52a104.2,104.2,0,0,1,2.28,27.17,40,40,0,0,0,.1,7.89c.46,2.89,1.67,5.62,2.37,8.47,1.56,6.26.65,12.85,1,19.3.13,2.6.47,5.2.58,7.81.49,11.51-3.39,22.71-7.22,33.58-2.35,6.67-2.87,14.25-4,21.23-1.06,6.69-2.11,13.38-2.65,20.13-.49,6.2-.7,12.91-4.56,17.78,3.52,2.29,7.17,4.62,11.29,5.41a21,21,0,0,0,13.93-2.69,44.06,44.06,0,0,0,11-9.36c-.82-.28-1.11-1.46-1.19-2.31-1.19-12.65,3.61-25,5.43-37.6a80,80,0,0,0,.48-19.06c-.22-2.39-.55-4.77-.65-7.17-.47-12.52,5.55-24.57,5.34-37.09-.1-5.86,3-11.65,4.51-17.32,1.32-5,1.36-10.29,1.39-15.49l.24-41c0-5.55,0-11.22-1.78-16.46-2.2-6.29.31-13.53.69-20.18A83.28,83.28,0,0,1,214.89,537.16Z" transform="translate(-0.1 -0.05)"/><path class="cls-17" d="M250.55,419.37a130.74,130.74,0,0,1,15.31-24.18,39.74,39.74,0,0,0,3.4-4.64c2.15-3.72,2.79-8.11,4.15-12.19,3.8-11.44,13.28-20.63,15.59-32.46.84-4.29,3.58-8,5.45-12,1.28-2.68,2.68-5.5,5.22-7,3.27-2,7.79-1.07,10.51,1.6a12.47,12.47,0,0,1,3.21,10.55,8.78,8.78,0,0,1-1.94,4.74c-1.45,1.63-3.62,2.37-5.58,3.35a21.94,21.94,0,0,0-10.75,12.29c-3.34,9.66-3.76,19.88-8,29.19s-9.22,18.26-12.89,27.79c-2.07,5.41-3.74,11-6.78,16s-7.82,9.19-13.56,9.94a34.06,34.06,0,0,0-1.68-10.64C251,427.74,248.73,423.05,250.55,419.37Z" transform="translate(-0.1 -0.05)"/><path class="cls-17" d="M188.63,426.83a55.28,55.28,0,0,0-3.24-20.78c-.92-2.55-2-5.14-1.91-7.85.12-2.51,1.33-4.83,2.41-7.1,3.77-7.85,6.41-16.18,9-24.48l5-15.64a24.66,24.66,0,0,0,4.39-4.15A22.2,22.2,0,0,0,209.37,336a15.31,15.31,0,0,0-2.81-11.49,6.67,6.67,0,0,0-4.7-2.85,6,6,0,0,0-4.39,2,19.42,19.42,0,0,0-3.76,6.42c-1.64,3.84-3.3,7.84-3.14,12,.13,3.46,1.43,7.32-.6,10.13-6.65,9.21-11.67,19.8-16.94,29.87a52.69,52.69,0,0,0-3.42,7.49,41.39,41.39,0,0,0-1.79,12.94c0,8.2,1.08,16.35,2.2,24.48.7,5.08,1.64,10.62,5.49,14C179.52,435.87,183.54,430.85,188.63,426.83Z" transform="translate(-0.1 -0.05)"/><circle class="cls-17" cx="213.98" cy="409.94" r="20.75"/><path class="cls-17" d="M204,431.84c-.5,3.76-2.51,7.11-4.47,10.35-1.19,2-2.69,4.13-5,4.35a100,100,0,0,0,18.84,7.58,21.52,21.52,0,0,0,6.89,1.11,17,17,0,0,0,5.73-1.47,28.43,28.43,0,0,0,16.14-19,37.5,37.5,0,0,1-7.7-.59c-1.42-.26-3-.68-3.78-1.85a6,6,0,0,1-.78-3.35q-.15-5.19,0-10.38a41,41,0,0,0-15.08,1.85c-2,.65-4,1.44-6,1.95-1.26.31-4.73,0-5.66.73C201.67,424.23,204.37,429.29,204,431.84Z" transform="translate(-0.1 -0.05)"/><path class="cls-18" d="M213.15,444.45a13.05,13.05,0,0,0-9.92-11.58c-2.14-.47-4.45-.42-6.37-1.48-3.28-1.83-4.27-6.29-7.41-8.34s-7.62-.91-10.36,1.69-4.13,6.28-5.25,9.88a49.79,49.79,0,0,0-2.69,15.15,6.77,6.77,0,0,0,.44,2.78,11.82,11.82,0,0,0,2.21,2.77,12.29,12.29,0,0,1,3,9.76,27.74,27.74,0,0,0,.89,9.81c2,8.81,4,17.63,5.6,26.52a17.14,17.14,0,0,1,.38,5c-.31,2.4-1.65,4.69-1.36,7.09a26.26,26.26,0,0,1,.64,3.41,8.5,8.5,0,0,1-.6,2.53c-2.28,6.6-8.41,21.7-8.34,28.67,10.65-2.73,26.35-3.34,37.34-3.38a78.44,78.44,0,0,1,9.07.4c7.23.77,14.63,2.88,21.64.93,6.5-1.81,12.27-7,19-6.34,1.45-3.83-.27-16.58-1.63-20.44a87.35,87.35,0,0,1-3-47.33c1.23-5.66-.46-11.66.91-17.29a10.39,10.39,0,0,1,1.49-3.72,4,4,0,0,1,3.43-1.8,127.45,127.45,0,0,0-2.5-26.93c-.67-3.15-2.06-6.87-5.23-7.41-2.86-.48-5.27,1.93-7.56,3.71a20.53,20.53,0,0,1-8,3.76,7.48,7.48,0,0,0-3.28,1.19c-1.38,1.14-1.57,3.2-2.69,4.59-2,2.49-6.47,2.27-7.89,5.14a18.78,18.78,0,0,0-.76,2.63,9.63,9.63,0,0,1-3.29,4.25A18.62,18.62,0,0,1,213.15,444.45Z" transform="translate(-0.1 -0.05)"/><path class="cls-19" d="M230.94,387.93c.35-1.37.3-3-.81-3.92-.55-.43-1.26-.59-1.85-1a8.07,8.07,0,0,1-2-2.53,10.85,10.85,0,0,0-13.61-3.43c-3.61,1.89-5.8,5.67-9,8.23-1.64,1.32-3.53,2.3-5.17,3.61a21.34,21.34,0,0,0-6.69,10.82A61.15,61.15,0,0,0,190,412.48a11.5,11.5,0,0,0,.15,3.88,10.19,10.19,0,0,0,1.47,2.95c3.29,5,7.65,9.55,13.1,12.12s12.08,3,17.46.31a3.14,3.14,0,0,0,1.34-1.08,3.74,3.74,0,0,0,.2-2.31,15.87,15.87,0,0,1,1.75-8.84c1-2,2.49-3.72,3.3-5.8a20.79,20.79,0,0,0,.94-7.18C229.79,400.26,229.36,394,230.94,387.93Z" transform="translate(-0.1 -0.05)"/><rect class="cls-20" x="239.49" y="260.4" width="51.09" height="51.09"/><path class="cls-17" d="M273,303.82a6.71,6.71,0,0,1-3.46,3.14,8.59,8.59,0,0,1-2.75.52,7.84,7.84,0,0,1-3-.37,6.92,6.92,0,0,1-3.17-2.53,15.84,15.84,0,0,1-1.84-3.68,4.15,4.15,0,0,1-.37-2.08,3,3,0,0,0,2-1.13,2.53,2.53,0,0,0,0-2c-.06-.2-.12-.39-.19-.57-.15-.44-.67-1.27-.31-1.64s1.2-.36,1.53-.51a14.7,14.7,0,0,1,3.11-1.39,7.52,7.52,0,0,1,2.95.19,1,1,0,0,1,.37.14.8.8,0,0,1,.27.4c.28.68.44,1.43.66,2.13a4.36,4.36,0,0,0,1.1,1.95,5.42,5.42,0,0,0,1.53.92l1.34.61a1.76,1.76,0,0,1,.63.41,1.7,1.7,0,0,1,.3.82A7.62,7.62,0,0,1,273,303.82Z" transform="translate(-0.1 -0.05)"/><path class="cls-4" d="M268.84,294.47a7,7,0,0,1-8.39,1.25c-.06-.2-.12-.39-.19-.57-.15-.44-.67-1.27-.31-1.64s1.2-.36,1.53-.51a14.7,14.7,0,0,1,3.11-1.39,7.52,7.52,0,0,1,3,.19,1,1,0,0,1,.37.14.8.8,0,0,1,.27.4C268.46,293.05,268.62,293.77,268.84,294.47Z" transform="translate(-0.1 -0.05)"/><circle class="cls-17" cx="263.74" cy="289.31" r="6.94"/><path class="cls-21" d="M284.89,311.38H252.23c-1-2.23-1.9-4.47-2.91-6.7h0a4.75,4.75,0,0,1,.59-1.5,1.62,1.62,0,0,1,1.34-.75c.29,0,.62.11.83-.1s.14-.38.29-.52a1.22,1.22,0,0,1,.79-.12,1.81,1.81,0,0,0,1.54-.77,2.46,2.46,0,0,1,.39-.51,2.23,2.23,0,0,1,.84-.22c.81-.18,1.29-1,1.9-1.51a1.13,1.13,0,0,1,1.2-.33.72.72,0,0,1,.25.21,2.23,2.23,0,0,1,.33.83,7.38,7.38,0,0,0,2.61,4.21,5.92,5.92,0,0,0,8.94-2.23,11.75,11.75,0,0,0,.82-3.79v-.17a2.88,2.88,0,0,1,2.38.47,13.25,13.25,0,0,0,2.12,1.33c.89.35,2,.35,2.61,1,.26.26.44.62.77.78a2.38,2.38,0,0,0,.64.15,3.81,3.81,0,0,1,2.51,2.2,17.08,17.08,0,0,1,1.4,5.06Z" transform="translate(-0.1 -0.05)"/><path class="cls-2" d="M259.05,278.1a5.41,5.41,0,0,0-1.21,1.4,7,7,0,0,1-2.42,2.38,3,3,0,0,0-1.11.69,1.94,1.94,0,0,0-.29.78,14.63,14.63,0,0,0-.31,2.95,3.17,3.17,0,0,0,.24,1.46c.2.42.58.78.65,1.24a3.94,3.94,0,0,1-.12,1.08.93.93,0,0,0,.37,1,2.68,2.68,0,0,0,.56.13c1,.22,1.34,1.4,1.49,2.37.34,0,.49-.41.57-.73l1-4.65c.12-.5.3-1.09.81-1.26a2.7,2.7,0,0,1,1.06,0c1.38.12,2.54-.95,3.89-1.25a5.3,5.3,0,0,1,1.32-.08c1.06,0,2.3.49,2.53,1.48a.5.5,0,0,0,.21.44.94.94,0,0,0,.47,0c.67-.07,1.07.69,1.27,1.31l.7,2.27c.11.34.29.75.66.79a.69.69,0,0,0,.69-.61,2.61,2.61,0,0,0-.14-1c-.33-1.48.18-3,.49-4.49s.36-3.2-.68-4.35c-.38-.41-.88-.72-1.23-1.16s-.51-.91-.85-1.32a8.75,8.75,0,0,0-4.85-2.12A9.92,9.92,0,0,0,259.05,278.1Z" transform="translate(-0.1 -0.05)"/><g class="cls-22"><path d="M271.43,290.82c-.37,0-.55-.45-.66-.79l-.7-2.27c-.2-.62-.6-1.38-1.27-1.32a.94.94,0,0,1-.47,0c-.15-.08-.17-.27-.21-.44-.23-1-1.47-1.43-2.53-1.48a4.87,4.87,0,0,0-1.32.09c-1.35.29-2.51,1.36-3.89,1.24a3.14,3.14,0,0,0-1.06,0c-.51.18-.69.76-.81,1.27-.35,1.55-.69,3.1-1,4.64-.08.32-.23.71-.57.73-.15-1-.49-2.15-1.49-2.37a2.17,2.17,0,0,1-.56-.13.63.63,0,0,1-.29-.33,3.25,3.25,0,0,1-.08.43.93.93,0,0,0,.37,1,2.68,2.68,0,0,0,.56.13c1,.22,1.34,1.4,1.49,2.37.34,0,.49-.41.57-.73.35-1.55.69-3.1,1-4.65.12-.5.3-1.09.81-1.26a2.7,2.7,0,0,1,1.06,0c1.38.12,2.54-.95,3.89-1.25a5.3,5.3,0,0,1,1.32-.08c1.06,0,2.3.49,2.53,1.48a.5.5,0,0,0,.21.44.94.94,0,0,0,.47,0c.67-.07,1.07.69,1.27,1.31l.7,2.27c.11.34.29.75.66.79a.7.7,0,0,0,.69-.61,2,2,0,0,0-.1-.8A.63.63,0,0,1,271.43,290.82Z" transform="translate(-0.1 -0.05)"/><path d="M254.6,287.94c-.07-.46-.45-.82-.65-1.24a2.54,2.54,0,0,1-.23-.9v.5a3.17,3.17,0,0,0,.24,1.46c.16.34.44.64.58,1A2.28,2.28,0,0,0,254.6,287.94Z" transform="translate(-0.1 -0.05)"/><path d="M272.47,284.73a13,13,0,0,0-.57,4,24.28,24.28,0,0,1,.57-2.92,7.66,7.66,0,0,0,.17-2.24A9,9,0,0,1,272.47,284.73Z" transform="translate(-0.1 -0.05)"/></g><path class="cls-21" d="M254.84,311.38h-7.79a24.38,24.38,0,0,1,1.83-6.08,1.39,1.39,0,0,1,.33-.53.31.31,0,0,1,.11-.09c.23-.18.55-.25.8-.42s.28-.35.51-.42a6.85,6.85,0,0,1,2.54.42,2.54,2.54,0,0,1,.67.17,2.24,2.24,0,0,1,1.06,1.3C255.56,307.52,255.06,309.46,254.84,311.38Z" transform="translate(-0.1 -0.05)"/><path class="cls-23" d="M134,719.67s1.3,27.91-32.24,31.19l-2.09-3.12S131.89,728.37,134,719.67Z" transform="translate(-0.1 -0.05)"/><path class="cls-24" d="M134,719.67s1.3,27.91-32.24,31.19l-2.09-3.12S131.89,728.37,134,719.67Z" transform="translate(-0.1 -0.05)"/><path class="cls-23" d="M134,719.67s4.41,27.91-29.13,31.19l-2.06-3.12S131.89,728.37,134,719.67Z" transform="translate(-0.1 -0.05)"/><path class="cls-23" d="M50.77,719.87s-7.53,27.9,26,31.19l2.07-3.12S52.81,728.55,50.77,719.87Z" transform="translate(-0.1 -0.05)"/><path class="cls-23" d="M88.55,746.82l-7.67,1.64-.77.18s-21.87-12.36-24-42.34a77.48,77.48,0,0,0,10.83,12C75.94,726.61,86.25,737.71,88.55,746.82Z" transform="translate(-0.1 -0.05)"/><path class="cls-23" d="M89.63,750.5a5.93,5.93,0,0,1-4.18.44c-20-3.72-13.27-55.72-13.27-55.72,1.12.43,2.33,7,6.93,15.57C87.1,725.79,96,746.74,89.63,750.5Z" transform="translate(-0.1 -0.05)"/><path class="cls-23" d="M124.35,705.58c.25,30.1-26.77,43.49-26.77,43.49l-.79-.13-7.8-1.3c1.54-9.22,10.94-20.83,19.18-29.55A80.45,80.45,0,0,1,124.35,705.58Z" transform="translate(-0.1 -0.05)"/><path class="cls-23" d="M96.68,747.77a12.07,12.07,0,0,1-4.47,2.73h0a8.45,8.45,0,0,1-1.64.44c-4.93.92-6.65-1.92-6.36-6.71.46-8.57,7.21-23.43,13.29-34.48,4.36-8,11.49-14,12.57-14.46C110.06,695.22,109.76,735.71,96.68,747.77Z" transform="translate(-0.1 -0.05)"/><path class="cls-23" d="M91.08,687S68.72,741.59,88,749.81,96,691.86,91.08,687Z" transform="translate(-0.1 -0.05)"/><path class="cls-24" d="M50.77,719.87s-7.53,27.9,26,31.19l2.07-3.12S52.81,728.55,50.77,719.87Z" transform="translate(-0.1 -0.05)"/><path class="cls-24" d="M88.52,746.84l-7.67,1.64-.79.16s-21.82-12.37-24-42.35a77.86,77.86,0,0,0,10.82,12C76,726.61,86.23,737.73,88.52,746.84Z" transform="translate(-0.1 -0.05)"/><path class="cls-24" d="M89.63,750.5a5.93,5.93,0,0,1-4.18.44c-20-3.72-13.27-55.72-13.27-55.72,1.12.43,2.33,7,6.93,15.57C87.1,725.79,96,746.74,89.63,750.5Z" transform="translate(-0.1 -0.05)"/><path class="cls-24" d="M124.35,705.58c.25,30.1-26.77,43.49-26.77,43.49l-.79-.13-7.8-1.3c1.54-9.22,10.94-20.83,19.18-29.55A80.45,80.45,0,0,1,124.35,705.58Z" transform="translate(-0.1 -0.05)"/><path class="cls-24" d="M96.68,747.77a12.07,12.07,0,0,1-4.47,2.73h0a8.45,8.45,0,0,1-1.64.44c-4.93.92-6.65-1.92-6.36-6.71.46-8.57,7.21-23.43,13.29-34.48,4.36-8,11.49-14,12.57-14.46C110.06,695.22,109.76,735.71,96.68,747.77Z" transform="translate(-0.1 -0.05)"/><path class="cls-24" d="M91.08,686.23S68.72,741.47,88,749.81,96,691.12,91.08,686.23Z" transform="translate(-0.1 -0.05)"/><path class="cls-23" d="M50.23,719.67s-4.42,27.91,29.12,31.19l2.07-3.12S52.28,728.37,50.23,719.67Z" transform="translate(-0.1 -0.05)"/><path class="cls-23" d="M91.75,746.71l-7.67,1.72-.77.17s-25-12.12-27.32-42.1c0,0,6.57,4.93,14.17,11.77C79.06,726.51,89.4,737.56,91.75,746.71Z" transform="translate(-0.1 -0.05)"/><path class="cls-24" d="M90,747.63l-7.8,1.29c-7.4-5.22-10.32-18.65-11.39-30.83C79.11,726.79,88.48,738.4,90,747.63Z" transform="translate(-0.1 -0.05)"/><path class="cls-23" d="M92.67,750.5a6,6,0,0,1-4.19.44c-20-3.72-16.41-55.72-16.41-55.72,1.11.43,5.45,7,10,15.57C90.22,725.79,99.1,746.74,92.67,750.5Z" transform="translate(-0.1 -0.05)"/><path class="cls-23" d="M124.35,705.58a50.78,50.78,0,0,1-23.65,43.48l-.79-.14-7.8-1.29c1.54-9.23,10.93-20.84,19.18-29.55C118.23,710.82,124.35,705.58,124.35,705.58Z" transform="translate(-0.1 -0.05)"/><path class="cls-24" d="M111.29,718.14c-1,11.35-3.62,23.84-9.94,29.68A11.5,11.5,0,0,1,99.91,749l-7.8-1.31C93.65,738.4,103,726.79,111.29,718.14Z" transform="translate(-0.1 -0.05)"/><path class="cls-23" d="M99.79,747.77a12,12,0,0,1-4.46,2.73h0a8.45,8.45,0,0,1-1.64.44c-4.93.92-6.65-1.92-6.36-6.71.46-8.57,7.21-23.43,13.29-34.48,4.36-8,8.38-14,9.45-14.46C110.06,695.22,112.88,735.71,99.79,747.77Z" transform="translate(-0.1 -0.05)"/><path class="cls-24" d="M92.67,750.5a6.53,6.53,0,0,1-3.15-.8c-9.43-4.68-9.62-22.23-7.37-38.91C90.22,725.79,99.1,746.74,92.67,750.5Z" transform="translate(-0.1 -0.05)"/><path class="cls-24" d="M99.79,747.77a4.61,4.61,0,0,1-4.46,2.73h0a7.18,7.18,0,0,1-2.68-.8,12.19,12.19,0,0,1-5.32-5.47c.46-8.57,7.21-23.43,13.29-34.48C102.77,725.12,103.49,741.45,99.79,747.77Z" transform="translate(-0.1 -0.05)"/><path class="cls-23" d="M91.08,687s-19.24,54.58,0,62.8S96,691.86,91.08,687Z" transform="translate(-0.1 -0.05)"/><g class="cls-25"><path class="cls-23" d="M111.17,617.09s.8,17.24-19.92,19.27L90,634.43S109.89,622.46,111.17,617.09Z" transform="translate(-0.1 -0.05)"/><path class="cls-24" d="M111.17,617.09s.8,17.24-19.92,19.27L90,634.43S109.89,622.46,111.17,617.09Z" transform="translate(-0.1 -0.05)"/><path class="cls-23" d="M111.17,617.09s2.73,17.24-18,19.27l-1.28-1.93S109.89,622.46,111.17,617.09Z" transform="translate(-0.1 -0.05)"/><path class="cls-23" d="M59.78,617.21s-4.65,17.24,16.07,19.27l1.27-1.93S61,622.57,59.78,617.21Z" transform="translate(-0.1 -0.05)"/><path class="cls-23" d="M83.12,633.86l-4.74,1-.48.11s-13.5-7.64-14.84-26.16a48,48,0,0,0,6.69,7.41C75.33,621.38,81.7,628.23,83.12,633.86Z" transform="translate(-0.1 -0.05)"/><path class="cls-23" d="M83.79,636.13a3.74,3.74,0,0,1-2.59.28C68.83,634.1,73,602,73,602c.69.26,1.44,4.34,4.28,9.61C82.22,620.87,87.71,633.81,83.79,636.13Z" transform="translate(-0.1 -0.05)"/><path class="cls-23" d="M105.24,608.39c.15,18.59-16.55,26.86-16.55,26.86l-.48-.08-4.82-.8c1-5.7,6.75-12.87,11.85-18.26A49,49,0,0,1,105.24,608.39Z" transform="translate(-0.1 -0.05)"/><path class="cls-23" d="M88.14,634.45a7.55,7.55,0,0,1-2.76,1.68h0a5.14,5.14,0,0,1-1,.28c-3,.56-4.1-1.19-3.92-4.15.28-5.29,4.45-14.47,8.2-21.3,2.7-4.94,7.1-8.68,7.77-8.93C96.4,602,96.22,627,88.14,634.45Z" transform="translate(-0.1 -0.05)"/><path class="cls-23" d="M84.68,596.92s-13.81,33.71-1.93,38.79S87.73,599.91,84.68,596.92Z" transform="translate(-0.1 -0.05)"/><path class="cls-24" d="M59.78,617.21s-4.65,17.24,16.07,19.27l1.27-1.93S61,622.57,59.78,617.21Z" transform="translate(-0.1 -0.05)"/><path class="cls-24" d="M83.1,633.87l-4.74,1-.49.1s-13.47-7.65-14.79-26.17a47.92,47.92,0,0,0,6.68,7.41C75.34,621.38,81.69,628.24,83.1,633.87Z" transform="translate(-0.1 -0.05)"/><path class="cls-24" d="M83.79,636.13a3.74,3.74,0,0,1-2.59.28C68.83,634.1,73,602,73,602c.69.26,1.44,4.34,4.28,9.61C82.22,620.87,87.71,633.81,83.79,636.13Z" transform="translate(-0.1 -0.05)"/><path class="cls-24" d="M105.24,608.39c.15,18.59-16.55,26.86-16.55,26.86l-.48-.08-4.82-.8c1-5.7,6.75-12.87,11.85-18.26A49,49,0,0,1,105.24,608.39Z" transform="translate(-0.1 -0.05)"/><path class="cls-24" d="M88.14,634.45a7.55,7.55,0,0,1-2.76,1.68h0a5.14,5.14,0,0,1-1,.28c-3,.56-4.1-1.19-3.92-4.15.28-5.29,4.45-14.47,8.2-21.3,2.7-4.94,7.1-8.68,7.77-8.93C96.4,602,96.22,627,88.14,634.45Z" transform="translate(-0.1 -0.05)"/><path class="cls-24" d="M84.68,596.43s-13.81,34.13-1.93,39.28S87.73,599.45,84.68,596.43Z" transform="translate(-0.1 -0.05)"/><path class="cls-23" d="M59.45,617.09s-2.73,17.24,18,19.27l1.28-1.93S60.72,622.46,59.45,617.09Z" transform="translate(-0.1 -0.05)"/><path class="cls-23" d="M85.09,633.79l-4.73,1.07-.48.1S64.43,627.47,63,609c0,0,4.05,3,8.75,7.28C77.26,621.32,83.64,628.14,85.09,633.79Z" transform="translate(-0.1 -0.05)"/><path class="cls-24" d="M84,634.36l-4.82.8c-4.57-3.23-6.38-11.52-7-19C77.29,621.49,83.08,628.66,84,634.36Z" transform="translate(-0.1 -0.05)"/><path class="cls-23" d="M85.66,636.13a3.72,3.72,0,0,1-2.58.28C70.7,634.1,72.94,602,72.94,602c.68.26,3.36,4.34,6.2,9.61C84.15,620.87,89.64,633.81,85.66,636.13Z" transform="translate(-0.1 -0.05)"/><path class="cls-23" d="M105.24,608.39a31.38,31.38,0,0,1-14.62,26.85l-.49-.08-4.81-.8c1-5.7,6.75-12.87,11.84-18.26C101.45,611.62,105.24,608.39,105.24,608.39Z" transform="translate(-0.1 -0.05)"/><path class="cls-24" d="M97.16,616.14c-.62,7-2.23,14.73-6.13,18.34a7.89,7.89,0,0,1-.9.72l-4.81-.81C86.27,628.66,92.07,621.49,97.16,616.14Z" transform="translate(-0.1 -0.05)"/><path class="cls-23" d="M90.06,634.45a7.43,7.43,0,0,1-2.75,1.68h0a5.14,5.14,0,0,1-1,.28c-3,.56-4.11-1.19-3.92-4.15.28-5.29,4.45-14.47,8.2-21.3,2.7-4.94,5.18-8.68,5.84-8.93C96.4,602,98.15,627,90.06,634.45Z" transform="translate(-0.1 -0.05)"/><path class="cls-24" d="M85.66,636.13a4,4,0,0,1-1.94-.49c-5.83-2.89-6-13.74-4.56-24C84.15,620.87,89.64,633.81,85.66,636.13Z" transform="translate(-0.1 -0.05)"/><path class="cls-24" d="M90.06,634.45a2.83,2.83,0,0,1-2.75,1.68h0a4.37,4.37,0,0,1-1.66-.49,7.5,7.5,0,0,1-3.28-3.38c.28-5.29,4.45-14.47,8.2-21.3C91.9,620.45,92.35,630.55,90.06,634.45Z" transform="translate(-0.1 -0.05)"/><path class="cls-23" d="M84.68,596.92s-11.89,33.71,0,38.79S87.73,599.91,84.68,596.92Z" transform="translate(-0.1 -0.05)"/></g><path class="cls-23" d="M111.34,617.81s.78,16.85-19.48,18.84l-1.26-1.89S110.09,623.06,111.34,617.81Z" transform="translate(-0.1 -0.05)"/><path class="cls-24" d="M111.34,617.81s.78,16.85-19.48,18.84l-1.26-1.89S110.09,623.06,111.34,617.81Z" transform="translate(-0.1 -0.05)"/><path class="cls-23" d="M111.34,617.81s2.67,16.85-17.59,18.84l-1.25-1.89S110.09,623.06,111.34,617.81Z" transform="translate(-0.1 -0.05)"/><path class="cls-23" d="M61.09,617.93s-4.55,16.85,15.71,18.84l1.25-1.89S62.32,623.17,61.09,617.93Z" transform="translate(-0.1 -0.05)"/><path class="cls-23" d="M83.91,634.21l-4.63,1-.47.11S65.6,627.84,64.3,609.73A46.33,46.33,0,0,0,70.84,617C76.29,622,82.52,628.7,83.91,634.21Z" transform="translate(-0.1 -0.05)"/><path class="cls-23" d="M84.56,636.43a3.61,3.61,0,0,1-2.52.27C69.94,634.45,74,603,74,603c.68.26,1.41,4.25,4.19,9.4C83,621.51,88.4,634.16,84.56,636.43Z" transform="translate(-0.1 -0.05)"/><path class="cls-23" d="M105.54,609.3c.15,18.17-16.18,26.27-16.18,26.27l-.47-.08-4.71-.79c.93-5.57,6.6-12.58,11.58-17.85A48.46,48.46,0,0,1,105.54,609.3Z" transform="translate(-0.1 -0.05)"/><path class="cls-23" d="M88.82,634.78a7.37,7.37,0,0,1-2.7,1.65h0a5.57,5.57,0,0,1-1,.27c-3,.55-4-1.16-3.84-4.06.28-5.18,4.36-14.15,8-20.82,2.64-4.83,7-8.49,7.6-8.74C96.9,603,96.72,627.49,88.82,634.78Z" transform="translate(-0.1 -0.05)"/><path class="cls-23" d="M85.44,598.08S71.93,631,83.55,636,88.42,601,85.44,598.08Z" transform="translate(-0.1 -0.05)"/><path class="cls-24" d="M61.09,617.93s-4.55,16.85,15.71,18.84l1.25-1.89S62.32,623.17,61.09,617.93Z" transform="translate(-0.1 -0.05)"/><path class="cls-24" d="M83.89,634.22l-4.63,1-.48.1s-13.18-7.48-14.46-25.59A46.77,46.77,0,0,0,70.85,617C76.3,622,82.51,628.71,83.89,634.22Z" transform="translate(-0.1 -0.05)"/><path class="cls-24" d="M84.56,636.43a3.61,3.61,0,0,1-2.52.27C69.94,634.45,74,603,74,603c.68.26,1.41,4.25,4.19,9.4C83,621.51,88.4,634.16,84.56,636.43Z" transform="translate(-0.1 -0.05)"/><path class="cls-24" d="M105.54,609.3c.15,18.17-16.18,26.27-16.18,26.27l-.47-.08-4.71-.79c.93-5.57,6.6-12.58,11.58-17.85A48.46,48.46,0,0,1,105.54,609.3Z" transform="translate(-0.1 -0.05)"/><path class="cls-24" d="M88.82,634.78a7.37,7.37,0,0,1-2.7,1.65h0a5.57,5.57,0,0,1-1,.27c-3,.55-4-1.16-3.84-4.06.28-5.18,4.36-14.15,8-20.82,2.64-4.83,7-8.49,7.6-8.74C96.9,603,96.72,627.49,88.82,634.78Z" transform="translate(-0.1 -0.05)"/><path class="cls-24" d="M85.44,597.61S71.93,631,83.55,636,88.42,600.56,85.44,597.61Z" transform="translate(-0.1 -0.05)"/><path class="cls-23" d="M60.77,617.81s-2.67,16.85,17.59,18.84l1.25-1.89S62,623.06,60.77,617.81Z" transform="translate(-0.1 -0.05)"/><path class="cls-23" d="M85.84,634.14l-4.63,1-.46.1S65.63,628,64.25,609.85c0,0,4,3,8.55,7.11C78.18,621.94,84.43,628.62,85.84,634.14Z" transform="translate(-0.1 -0.05)"/><path class="cls-24" d="M84.81,634.69l-4.71.79c-4.47-3.16-6.24-11.27-6.88-18.63C78.21,622.11,83.87,629.12,84.81,634.69Z" transform="translate(-0.1 -0.05)"/><path class="cls-23" d="M86.4,636.43a3.63,3.63,0,0,1-2.53.27C71.77,634.45,74,603,74,603c.68.26,3.3,4.25,6.07,9.4C84.92,621.51,90.29,634.16,86.4,636.43Z" transform="translate(-0.1 -0.05)"/><path class="cls-23" d="M105.54,609.3a30.7,30.7,0,0,1-14.29,26.26l-.48-.08-4.71-.79c.93-5.57,6.61-12.58,11.58-17.85C101.84,612.46,105.54,609.3,105.54,609.3Z" transform="translate(-0.1 -0.05)"/><path class="cls-24" d="M97.64,616.88c-.6,6.86-2.18,14.4-6,17.93a6.58,6.58,0,0,1-.87.71l-4.71-.8C87,629.12,92.67,622.11,97.64,616.88Z" transform="translate(-0.1 -0.05)"/><path class="cls-23" d="M90.7,634.78A7.42,7.42,0,0,1,88,636.43h0a5.92,5.92,0,0,1-1,.27c-3,.55-4-1.16-3.83-4.06.27-5.18,4.35-14.15,8-20.82,2.64-4.83,5.07-8.49,5.71-8.74C96.9,603,98.61,627.49,90.7,634.78Z" transform="translate(-0.1 -0.05)"/><path class="cls-24" d="M86.4,636.43a4,4,0,0,1-1.91-.49c-5.69-2.82-5.81-13.42-4.45-23.5C84.92,621.51,90.29,634.16,86.4,636.43Z" transform="translate(-0.1 -0.05)"/><path class="cls-24" d="M90.7,634.78A2.78,2.78,0,0,1,88,636.43h0a4.18,4.18,0,0,1-1.62-.49,7.22,7.22,0,0,1-3.21-3.3c.27-5.17,4.35-14.15,8-20.82C92.5,621.1,92.93,631,90.7,634.78Z" transform="translate(-0.1 -0.05)"/><path class="cls-23" d="M85.44,598.08s-11.62,33,0,37.93S88.42,601,85.44,598.08Z" transform="translate(-0.1 -0.05)"/><g class="cls-11"><path class="cls-23" d="M645.87,678.65s.8,17.24-19.92,19.27L624.66,696S644.59,684,645.87,678.65Z" transform="translate(-0.1 -0.05)"/><path class="cls-24" d="M645.87,678.65s.8,17.24-19.92,19.27L624.66,696S644.59,684,645.87,678.65Z" transform="translate(-0.1 -0.05)"/><path class="cls-23" d="M645.87,678.65s2.73,17.24-18,19.27L626.6,696S644.59,684,645.87,678.65Z" transform="translate(-0.1 -0.05)"/><path class="cls-23" d="M594.48,678.78S589.83,696,610.55,698l1.27-1.92S595.74,684.14,594.48,678.78Z" transform="translate(-0.1 -0.05)"/><path class="cls-23" d="M617.82,695.43l-4.74,1-.48.11s-13.5-7.63-14.84-26.15a48.43,48.43,0,0,0,6.69,7.4C610,682.94,616.4,689.8,617.82,695.43Z" transform="translate(-0.1 -0.05)"/><path class="cls-23" d="M618.49,697.7a3.68,3.68,0,0,1-2.59.27c-12.37-2.3-8.19-34.42-8.19-34.42.69.27,1.44,4.34,4.28,9.62C616.92,682.44,622.41,695.38,618.49,697.7Z" transform="translate(-0.1 -0.05)"/><path class="cls-23" d="M639.93,670c.16,18.59-16.54,26.87-16.54,26.87l-.48-.08-4.82-.81c.95-5.7,6.75-12.86,11.85-18.25A49.34,49.34,0,0,1,639.93,670Z" transform="translate(-0.1 -0.05)"/><path class="cls-23" d="M622.84,696a7.69,7.69,0,0,1-2.76,1.68h0a5.89,5.89,0,0,1-1,.27c-3,.57-4.1-1.18-3.92-4.15.28-5.29,4.45-14.47,8.2-21.29,2.7-4.94,7.1-8.68,7.77-8.94C631.1,663.55,630.92,688.56,622.84,696Z" transform="translate(-0.1 -0.05)"/><path class="cls-23" d="M619.38,658.48s-13.81,33.71-1.93,38.79S622.43,661.47,619.38,658.48Z" transform="translate(-0.1 -0.05)"/><path class="cls-24" d="M594.48,678.78S589.83,696,610.55,698l1.27-1.92S595.74,684.14,594.48,678.78Z" transform="translate(-0.1 -0.05)"/><path class="cls-24" d="M617.8,695.44l-4.74,1-.49.1s-13.47-7.64-14.79-26.16a47.85,47.85,0,0,0,6.68,7.4C610,682.94,616.39,689.81,617.8,695.44Z" transform="translate(-0.1 -0.05)"/><path class="cls-24" d="M618.49,697.7a3.68,3.68,0,0,1-2.59.27c-12.37-2.3-8.19-34.42-8.19-34.42.69.27,1.44,4.34,4.28,9.62C616.92,682.44,622.41,695.38,618.49,697.7Z" transform="translate(-0.1 -0.05)"/><path class="cls-24" d="M639.93,670c.16,18.59-16.54,26.87-16.54,26.87l-.48-.08-4.82-.81c.95-5.7,6.75-12.86,11.85-18.25A49.34,49.34,0,0,1,639.93,670Z" transform="translate(-0.1 -0.05)"/><path class="cls-24" d="M622.84,696a7.69,7.69,0,0,1-2.76,1.68h0a5.89,5.89,0,0,1-1,.27c-3,.57-4.1-1.18-3.92-4.15.28-5.29,4.45-14.47,8.2-21.29,2.7-4.94,7.1-8.68,7.77-8.94C631.1,663.55,630.92,688.56,622.84,696Z" transform="translate(-0.1 -0.05)"/><path class="cls-24" d="M619.38,658s-13.81,34.12-1.93,39.27S622.43,661,619.38,658Z" transform="translate(-0.1 -0.05)"/><path class="cls-23" d="M594.15,678.65s-2.73,17.24,18,19.27l1.28-1.92S595.41,684,594.15,678.65Z" transform="translate(-0.1 -0.05)"/><path class="cls-23" d="M619.79,695.36l-4.73,1.06-.48.1s-15.45-7.48-16.87-26c0,0,4,3,8.75,7.27C612,682.88,618.34,689.71,619.79,695.36Z" transform="translate(-0.1 -0.05)"/><path class="cls-24" d="M618.74,695.92l-4.82.81c-4.57-3.23-6.38-11.53-7-19.05C612,683.05,617.78,690.22,618.74,695.92Z" transform="translate(-0.1 -0.05)"/><path class="cls-23" d="M620.36,697.7a3.66,3.66,0,0,1-2.58.27c-12.38-2.3-10.14-34.42-10.14-34.42.68.27,3.36,4.34,6.2,9.62C618.85,682.44,624.34,695.38,620.36,697.7Z" transform="translate(-0.1 -0.05)"/><path class="cls-23" d="M639.93,670a31.36,31.36,0,0,1-14.61,26.86l-.49-.08-4.81-.81c1-5.7,6.75-12.87,11.84-18.25C636.15,673.19,639.93,670,639.93,670Z" transform="translate(-0.1 -0.05)"/><path class="cls-24" d="M631.86,677.71c-.62,7-2.23,14.73-6.13,18.34a7.89,7.89,0,0,1-.9.72L620,696C621,690.22,626.77,683.05,631.86,677.71Z" transform="translate(-0.1 -0.05)"/><path class="cls-23" d="M624.76,696A7.56,7.56,0,0,1,622,697.7h0a5.89,5.89,0,0,1-1,.27c-3,.57-4.11-1.18-3.92-4.15.28-5.29,4.45-14.47,8.2-21.29,2.7-4.94,5.18-8.68,5.84-8.94C631.1,663.55,632.85,688.56,624.76,696Z" transform="translate(-0.1 -0.05)"/><path class="cls-24" d="M620.36,697.7a4,4,0,0,1-1.94-.5c-5.83-2.89-5.95-13.73-4.56-24C618.85,682.44,624.34,695.38,620.36,697.7Z" transform="translate(-0.1 -0.05)"/><path class="cls-24" d="M624.76,696A2.86,2.86,0,0,1,622,697.7h0a4.21,4.21,0,0,1-1.66-.5,7.4,7.4,0,0,1-3.28-3.38c.28-5.29,4.45-14.47,8.2-21.29C626.6,682,627.05,692.11,624.76,696Z" transform="translate(-0.1 -0.05)"/><path class="cls-23" d="M619.38,658.48s-11.89,33.71,0,38.79S622.43,661.47,619.38,658.48Z" transform="translate(-0.1 -0.05)"/></g><g class="cls-11"><path class="cls-23" d="M646,679.37s.78,16.86-19.48,18.84l-1.26-1.88S644.79,684.63,646,679.37Z" transform="translate(-0.1 -0.05)"/><path class="cls-24" d="M646,679.37s.78,16.86-19.48,18.84l-1.26-1.88S644.79,684.63,646,679.37Z" transform="translate(-0.1 -0.05)"/><path class="cls-23" d="M646,679.37s2.67,16.86-17.59,18.84l-1.25-1.88S644.79,684.63,646,679.37Z" transform="translate(-0.1 -0.05)"/><path class="cls-23" d="M595.79,679.49s-4.55,16.86,15.71,18.84l1.25-1.88S597,684.74,595.79,679.49Z" transform="translate(-0.1 -0.05)"/><path class="cls-23" d="M618.61,695.77l-4.63,1-.47.1S600.3,689.41,599,671.3a46.78,46.78,0,0,0,6.54,7.24C611,683.57,617.22,690.27,618.61,695.77Z" transform="translate(-0.1 -0.05)"/><path class="cls-23" d="M619.26,698a3.61,3.61,0,0,1-2.52.26c-12.1-2.25-8-33.65-8-33.65.68.25,1.41,4.24,4.19,9.4C617.74,683.07,623.1,695.72,619.26,698Z" transform="translate(-0.1 -0.05)"/><path class="cls-23" d="M640.24,670.86c.15,18.18-16.18,26.27-16.18,26.27l-.47-.08-4.71-.78c.93-5.57,6.6-12.58,11.58-17.85A48.15,48.15,0,0,1,640.24,670.86Z" transform="translate(-0.1 -0.05)"/><path class="cls-23" d="M623.52,696.35a7.37,7.37,0,0,1-2.7,1.65h0a4.81,4.81,0,0,1-1,.26c-3,.56-4-1.16-3.84-4,.28-5.18,4.36-14.15,8-20.83,2.64-4.83,7-8.49,7.6-8.73C631.6,664.61,631.42,689.06,623.52,696.35Z" transform="translate(-0.1 -0.05)"/><path class="cls-23" d="M620.14,659.65s-13.51,33-1.89,37.93S623.12,662.57,620.14,659.65Z" transform="translate(-0.1 -0.05)"/><path class="cls-24" d="M595.79,679.49s-4.55,16.86,15.71,18.84l1.25-1.88S597,684.74,595.79,679.49Z" transform="translate(-0.1 -0.05)"/><path class="cls-24" d="M618.59,695.78l-4.63,1-.48.09S600.3,689.4,599,671.29a47.82,47.82,0,0,0,6.54,7.24C611,683.57,617.21,690.28,618.59,695.78Z" transform="translate(-0.1 -0.05)"/><path class="cls-24" d="M619.26,698a3.61,3.61,0,0,1-2.52.26c-12.1-2.25-8-33.65-8-33.65.68.25,1.41,4.24,4.19,9.4C617.74,683.07,623.1,695.72,619.26,698Z" transform="translate(-0.1 -0.05)"/><path class="cls-24" d="M640.24,670.86c.15,18.18-16.18,26.27-16.18,26.27l-.47-.08-4.71-.78c.93-5.57,6.6-12.58,11.58-17.85A48.15,48.15,0,0,1,640.24,670.86Z" transform="translate(-0.1 -0.05)"/><path class="cls-24" d="M623.52,696.35a7.37,7.37,0,0,1-2.7,1.65h0a4.81,4.81,0,0,1-1,.26c-3,.56-4-1.16-3.84-4,.28-5.18,4.36-14.15,8-20.83,2.64-4.83,7-8.49,7.6-8.73C631.6,664.61,631.42,689.06,623.52,696.35Z" transform="translate(-0.1 -0.05)"/><path class="cls-24" d="M620.14,659.17s-13.51,33.37-1.89,38.41S623.12,662.13,620.14,659.17Z" transform="translate(-0.1 -0.05)"/><path class="cls-23" d="M595.46,679.37s-2.66,16.86,17.6,18.84l1.25-1.88S596.7,684.63,595.46,679.37Z" transform="translate(-0.1 -0.05)"/><path class="cls-23" d="M620.54,695.7l-4.63,1-.46.09s-15.12-7.31-16.5-25.42c0,0,4,3,8.55,7.11C612.88,683.51,619.13,690.18,620.54,695.7Z" transform="translate(-0.1 -0.05)"/><path class="cls-24" d="M619.51,696.26l-4.71.78c-4.47-3.15-6.24-11.26-6.88-18.62C612.91,683.68,618.57,690.69,619.51,696.26Z" transform="translate(-0.1 -0.05)"/><path class="cls-23" d="M621.1,698a3.63,3.63,0,0,1-2.53.26c-12.1-2.25-9.92-33.65-9.92-33.65.68.25,3.3,4.24,6.07,9.4C619.62,683.07,625,695.72,621.1,698Z" transform="translate(-0.1 -0.05)"/><path class="cls-23" d="M640.24,670.86A30.69,30.69,0,0,1,626,697.12l-.48-.08-4.71-.78c.93-5.57,6.61-12.58,11.58-17.85C636.54,674,640.24,670.86,640.24,670.86Z" transform="translate(-0.1 -0.05)"/><path class="cls-24" d="M632.34,678.45c-.6,6.85-2.18,14.4-6,17.93a6.5,6.5,0,0,1-.87.7l-4.71-.79C621.69,690.69,627.37,683.68,632.34,678.45Z" transform="translate(-0.1 -0.05)"/><path class="cls-23" d="M625.4,696.35a7.42,7.42,0,0,1-2.69,1.65h0a5.08,5.08,0,0,1-1,.26c-3,.56-4-1.16-3.83-4,.27-5.18,4.35-14.15,8-20.83,2.64-4.83,5.07-8.49,5.71-8.73C631.6,664.61,633.31,689.06,625.4,696.35Z" transform="translate(-0.1 -0.05)"/><path class="cls-24" d="M621.1,698a4,4,0,0,1-1.91-.49c-5.69-2.83-5.81-13.43-4.45-23.5C619.62,683.07,625,695.72,621.1,698Z" transform="translate(-0.1 -0.05)"/><path class="cls-24" d="M625.4,696.35a2.79,2.79,0,0,1-2.69,1.65h0a4.36,4.36,0,0,1-1.62-.49,7.27,7.27,0,0,1-3.21-3.3c.27-5.18,4.35-14.15,8-20.83C627.2,682.66,627.63,692.53,625.4,696.35Z" transform="translate(-0.1 -0.05)"/><path class="cls-23" d="M620.14,659.65s-11.63,33,0,37.93S623.12,662.57,620.14,659.65Z" transform="translate(-0.1 -0.05)"/></g><g class="cls-26"><ellipse class="cls-3" cx="631.02" cy="742.05" rx="41.5" ry="7.02"/><path class="cls-3" d="M648.26,730.61a12.06,12.06,0,0,0,4-6c.51-2.38-.51-5.22-2.77-6.09-2.54-1-5.25.79-7.31,2.54s-4.41,3.82-7.11,3.44a10.77,10.77,0,0,0,3.34-10.17,4.08,4.08,0,0,0-.92-2c-1.41-1.51-4-.87-5.65.32-5.36,3.81-6.86,11.07-6.9,17.63-.54-2.36-.08-4.83-.09-7.26s-.69-5.08-2.73-6.43a8.39,8.39,0,0,0-4.16-1c-2.42-.09-5.09.15-6.75,1.91-2,2.2-1.52,5.87.26,8.29s4.49,3.93,7,5.59a15.72,15.72,0,0,1,5,4.76,4.29,4.29,0,0,1,.37.85h15.13A41.72,41.72,0,0,0,648.26,730.61Z" transform="translate(-0.1 -0.05)"/></g><g class="cls-25"><path class="cls-23" d="M664,714.51s1,21.92-25.32,24.5L637,736.56S662.35,721.34,664,714.51Z" transform="translate(-0.1 -0.05)"/><path class="cls-24" d="M664,714.51s1,21.92-25.32,24.5L637,736.56S662.35,721.34,664,714.51Z" transform="translate(-0.1 -0.05)"/><path class="cls-23" d="M664,714.51s3.47,21.92-22.87,24.5l-1.62-2.45S662.35,721.34,664,714.51Z" transform="translate(-0.1 -0.05)"/><path class="cls-23" d="M598.64,714.67s-5.92,21.91,20.43,24.49l1.62-2.45S600.24,721.49,598.64,714.67Z" transform="translate(-0.1 -0.05)"/><path class="cls-23" d="M628.31,735.84l-6,1.29-.61.14s-17.17-9.71-18.87-33.25a61.24,61.24,0,0,0,8.51,9.41C618.41,720,626.51,728.68,628.31,735.84Z" transform="translate(-0.1 -0.05)"/><path class="cls-23" d="M629.16,738.72a4.68,4.68,0,0,1-3.29.35c-15.73-2.92-10.41-43.76-10.41-43.76.87.34,1.83,5.52,5.44,12.23C627.18,719.32,634.15,735.77,629.16,738.72Z" transform="translate(-0.1 -0.05)"/><path class="cls-23" d="M656.43,703.45c.2,23.63-21,34.15-21,34.15l-.62-.1-6.12-1c1.21-7.24,8.59-16.36,15.06-23.21A63.11,63.11,0,0,1,656.43,703.45Z" transform="translate(-0.1 -0.05)"/><path class="cls-23" d="M634.69,736.58a9.51,9.51,0,0,1-3.5,2.14h0a6.48,6.48,0,0,1-1.29.35c-3.87.73-5.23-1.51-5-5.27.36-6.73,5.66-18.4,10.43-27.08,3.43-6.28,9-11,9.87-11.36C645.2,695.31,645,727.11,634.69,736.58Z" transform="translate(-0.1 -0.05)"/><path class="cls-23" d="M630.3,688.87s-17.56,42.85-2.45,49.31S634.18,692.67,630.3,688.87Z" transform="translate(-0.1 -0.05)"/><path class="cls-24" d="M598.64,714.67s-5.92,21.91,20.43,24.49l1.62-2.45S600.24,721.49,598.64,714.67Z" transform="translate(-0.1 -0.05)"/><path class="cls-24" d="M628.29,735.85l-6,1.29-.62.13s-17.13-9.72-18.81-33.27a60.76,60.76,0,0,0,8.5,9.41C618.42,720,626.49,728.69,628.29,735.85Z" transform="translate(-0.1 -0.05)"/><path class="cls-24" d="M629.16,738.72a4.68,4.68,0,0,1-3.29.35c-15.73-2.92-10.41-43.76-10.41-43.76.87.34,1.83,5.52,5.44,12.23C627.18,719.32,634.15,735.77,629.16,738.72Z" transform="translate(-0.1 -0.05)"/><path class="cls-24" d="M656.43,703.45c.2,23.63-21,34.15-21,34.15l-.62-.1-6.12-1c1.21-7.24,8.59-16.36,15.06-23.21A63.11,63.11,0,0,1,656.43,703.45Z" transform="translate(-0.1 -0.05)"/><path class="cls-24" d="M634.69,736.58a9.51,9.51,0,0,1-3.5,2.14h0a6.48,6.48,0,0,1-1.29.35c-3.87.73-5.23-1.51-5-5.27.36-6.73,5.66-18.4,10.43-27.08,3.43-6.28,9-11,9.87-11.36C645.2,695.31,645,727.11,634.69,736.58Z" transform="translate(-0.1 -0.05)"/><path class="cls-24" d="M630.3,688.25s-17.56,43.38-2.45,49.93S634.18,692.09,630.3,688.25Z" transform="translate(-0.1 -0.05)"/><path class="cls-23" d="M598.22,714.51s-3.47,21.92,22.87,24.5l1.63-2.45S599.83,721.34,598.22,714.51Z" transform="translate(-0.1 -0.05)"/><path class="cls-23" d="M630.83,735.75l-6,1.35-.6.13s-19.65-9.52-21.46-33.06c0,0,5.16,3.87,11.13,9.24C620.86,719.89,629,728.56,630.83,735.75Z" transform="translate(-0.1 -0.05)"/><path class="cls-24" d="M629.48,736.47l-6.12,1c-5.82-4.1-8.11-14.65-9-24.22C620.9,720.11,628.26,729.22,629.48,736.47Z" transform="translate(-0.1 -0.05)"/><path class="cls-23" d="M631.55,738.72a4.69,4.69,0,0,1-3.29.35c-15.73-2.92-12.89-43.76-12.89-43.76.87.34,4.28,5.52,7.89,12.23C629.63,719.32,636.6,735.77,631.55,738.72Z" transform="translate(-0.1 -0.05)"/><path class="cls-23" d="M656.43,703.45a39.87,39.87,0,0,1-18.58,34.14l-.62-.1-6.12-1c1.21-7.25,8.59-16.36,15.06-23.21C651.62,707.56,656.43,703.45,656.43,703.45Z" transform="translate(-0.1 -0.05)"/><path class="cls-24" d="M646.17,713.31c-.79,8.91-2.84,18.72-7.8,23.31a8.49,8.49,0,0,1-1.14.92l-6.12-1C632.32,729.22,639.7,720.11,646.17,713.31Z" transform="translate(-0.1 -0.05)"/><path class="cls-23" d="M637.14,736.58a9.51,9.51,0,0,1-3.5,2.14h0a6.48,6.48,0,0,1-1.29.35c-3.87.73-5.23-1.51-5-5.27.36-6.73,5.66-18.4,10.43-27.08,3.43-6.28,6.59-11,7.42-11.36C645.2,695.31,647.42,727.11,637.14,736.58Z" transform="translate(-0.1 -0.05)"/><path class="cls-24" d="M631.55,738.72a5,5,0,0,1-2.48-.63c-7.4-3.67-7.55-17.45-5.79-30.55C629.63,719.32,636.6,735.77,631.55,738.72Z" transform="translate(-0.1 -0.05)"/><path class="cls-24" d="M637.14,736.58a3.59,3.59,0,0,1-3.5,2.14h0a5.43,5.43,0,0,1-2.11-.63,9.51,9.51,0,0,1-4.17-4.29c.36-6.73,5.66-18.4,10.43-27.08C639.48,718.79,640,731.62,637.14,736.58Z" transform="translate(-0.1 -0.05)"/><path class="cls-23" d="M630.3,688.87s-15.11,42.85,0,49.31S634.18,692.67,630.3,688.87Z" transform="translate(-0.1 -0.05)"/></g><path class="cls-23" d="M664.19,715.42s1,21.44-24.76,24l-1.6-2.4S662.6,722.11,664.19,715.42Z" transform="translate(-0.1 -0.05)"/><path class="cls-24" d="M664.19,715.42s1,21.44-24.76,24l-1.6-2.4S662.6,722.11,664.19,715.42Z" transform="translate(-0.1 -0.05)"/><path class="cls-23" d="M664.19,715.42s3.39,21.44-22.36,24l-1.59-2.4S662.6,722.11,664.19,715.42Z" transform="translate(-0.1 -0.05)"/><path class="cls-23" d="M600.31,715.58s-5.79,21.43,20,23.95l1.59-2.4S601.87,722.25,600.31,715.58Z" transform="translate(-0.1 -0.05)"/><path class="cls-23" d="M629.32,736.28l-5.89,1.26-.59.14s-16.8-9.5-18.46-32.52a60.6,60.6,0,0,0,8.32,9.21C619.64,720.76,627.55,729.28,629.32,736.28Z" transform="translate(-0.1 -0.05)"/><path class="cls-23" d="M630.15,739.1a4.58,4.58,0,0,1-3.21.34c-15.39-2.86-10.19-42.79-10.19-42.79.86.33,1.79,5.4,5.32,12C628.21,720.13,635,736.21,630.15,739.1Z" transform="translate(-0.1 -0.05)"/><path class="cls-23" d="M656.82,704.61C657,727.72,636.25,738,636.25,738l-.6-.1-6-1c1.18-7.09,8.4-16,14.73-22.7A61,61,0,0,1,656.82,704.61Z" transform="translate(-0.1 -0.05)"/><path class="cls-23" d="M635.56,737a9.33,9.33,0,0,1-3.43,2.09h0a6.9,6.9,0,0,1-1.26.34c-3.78.71-5.11-1.47-4.88-5.15.35-6.59,5.54-18,10.2-26.48,3.35-6.14,8.83-10.79,9.66-11.11C645.84,696.65,645.61,727.74,635.56,737Z" transform="translate(-0.1 -0.05)"/><path class="cls-23" d="M631.26,690.35s-17.17,41.91-2.39,48.22S635.06,694.07,631.26,690.35Z" transform="translate(-0.1 -0.05)"/><path class="cls-24" d="M600.31,715.58s-5.79,21.43,20,23.95l1.59-2.4S601.87,722.25,600.31,715.58Z" transform="translate(-0.1 -0.05)"/><path class="cls-24" d="M629.29,736.29l-5.88,1.26-.61.13s-16.76-9.51-18.39-32.53a59.41,59.41,0,0,0,8.3,9.2C619.65,720.76,627.54,729.29,629.29,736.29Z" transform="translate(-0.1 -0.05)"/><path class="cls-24" d="M630.15,739.1a4.58,4.58,0,0,1-3.21.34c-15.39-2.86-10.19-42.79-10.19-42.79.86.33,1.79,5.4,5.32,12C628.21,720.13,635,736.21,630.15,739.1Z" transform="translate(-0.1 -0.05)"/><path class="cls-24" d="M656.82,704.61C657,727.72,636.25,738,636.25,738l-.6-.1-6-1c1.18-7.09,8.4-16,14.73-22.7A61,61,0,0,1,656.82,704.61Z" transform="translate(-0.1 -0.05)"/><path class="cls-24" d="M635.56,737a9.33,9.33,0,0,1-3.43,2.09h0a6.9,6.9,0,0,1-1.26.34c-3.78.71-5.11-1.47-4.88-5.15.35-6.59,5.54-18,10.2-26.48,3.35-6.14,8.83-10.79,9.66-11.11C645.84,696.65,645.61,727.74,635.56,737Z" transform="translate(-0.1 -0.05)"/><path class="cls-24" d="M631.26,689.74s-17.17,42.43-2.39,48.83S635.06,693.5,631.26,689.74Z" transform="translate(-0.1 -0.05)"/><path class="cls-23" d="M599.89,715.42s-3.39,21.44,22.37,24l1.59-2.4S601.47,722.11,599.89,715.42Z" transform="translate(-0.1 -0.05)"/><path class="cls-23" d="M631.78,736.19l-5.89,1.32-.59.13s-19.22-9.31-21-32.33c0,0,5,3.79,10.88,9C622,720.68,630,729.17,631.78,736.19Z" transform="translate(-0.1 -0.05)"/><path class="cls-24" d="M630.47,736.9l-6,1c-5.69-4-7.93-14.32-8.75-23.68C622.07,720.9,629.27,729.81,630.47,736.9Z" transform="translate(-0.1 -0.05)"/><path class="cls-23" d="M632.48,739.1a4.57,4.57,0,0,1-3.21.34c-15.38-2.86-12.61-42.79-12.61-42.79.86.33,4.19,5.4,7.72,12C630.6,720.13,637.43,736.21,632.48,739.1Z" transform="translate(-0.1 -0.05)"/><path class="cls-23" d="M656.82,704.61A39,39,0,0,1,638.65,738l-.61-.1-6-1c1.19-7.09,8.4-16,14.73-22.7C652.11,708.63,656.82,704.61,656.82,704.61Z" transform="translate(-0.1 -0.05)"/><path class="cls-24" d="M646.78,714.25c-.77,8.71-2.77,18.31-7.63,22.8a8.83,8.83,0,0,1-1.11.89l-6-1C633.24,729.81,640.45,720.9,646.78,714.25Z" transform="translate(-0.1 -0.05)"/><path class="cls-23" d="M638,737a9.33,9.33,0,0,1-3.43,2.09h0a6.9,6.9,0,0,1-1.26.34c-3.79.71-5.11-1.47-4.88-5.15.35-6.59,5.53-18,10.2-26.48,3.35-6.14,6.44-10.79,7.26-11.11C645.84,696.65,648,727.74,638,737Z" transform="translate(-0.1 -0.05)"/><path class="cls-24" d="M632.48,739.1a4.9,4.9,0,0,1-2.42-.62c-7.23-3.59-7.39-17.07-5.66-29.88C630.6,720.13,637.43,736.21,632.48,739.1Z" transform="translate(-0.1 -0.05)"/><path class="cls-24" d="M638,737a3.55,3.55,0,0,1-3.43,2.09h0a5.53,5.53,0,0,1-2.06-.62,9.24,9.24,0,0,1-4.08-4.19c.35-6.59,5.53-18,10.2-26.48C640.24,719.61,640.79,732.15,638,737Z" transform="translate(-0.1 -0.05)"/><path class="cls-23" d="M631.26,690.35s-14.78,41.91,0,48.22S635.06,694.07,631.26,690.35Z" transform="translate(-0.1 -0.05)"/></svg>