<svg xmlns="http://www.w3.org/2000/svg" xmlns:xlink="http://www.w3.org/1999/xlink" viewBox="0 0 1118.01 749.52"><defs><style>.cls-1{fill:#a7c4ac;}.cls-2{fill:#010101;}.cls-2,.cls-22,.cls-24,.cls-3,.cls-5{opacity:0.1;}.cls-2,.cls-21,.cls-22,.cls-3,.cls-5{isolation:isolate;}.cls-11,.cls-3{fill:#a7c5ac;}.cls-4{fill:#5f5d7e;}.cls-6{fill:#474157;}.cls-7{fill:#ffd037;}.cls-8{fill:#65617d;}.cls-9{fill:#9d9cb5;}.cls-10{fill:#c8cad7;}.cls-12,.cls-22{fill:#fff;}.cls-13{fill:#ededf4;}.cls-14{fill:url(#linear-gradient);}.cls-15{fill:#67647e;}.cls-16{fill:#444053;}.cls-17{fill:#efb7b9;}.cls-18{fill:#a36468;}.cls-19{fill:#b07473;}.cls-20{fill:#e1e7ef;}.cls-21{opacity:0.2;}.cls-23{fill:#585268;}.cls-25{fill:#a6c3aa;}</style><linearGradient id="linear-gradient" x1="646.18" y1="-59.11" x2="646.18" y2="661.97" gradientTransform="translate(1441.08 690.41) rotate(180)" gradientUnits="userSpaceOnUse"><stop offset="0" stop-color="gray" stop-opacity="0.25"/><stop offset="0.54" stop-color="gray" stop-opacity="0.12"/><stop offset="1" stop-color="gray" stop-opacity="0.1"/></linearGradient></defs><title>Asset 1</title><g id="Layer_2" data-name="Layer 2"><g id="b5fd0f28-1473-49d3-b766-fd4b3ddcb807"><path class="cls-1" d="M398.36,471.52s1.13,24.32-28.1,27.18L368.44,496S396.56,479.1,398.36,471.52Z"/><path class="cls-2" d="M398.36,471.52s1.13,24.32-28.1,27.18L368.44,496S396.56,479.1,398.36,471.52Z"/><path class="cls-1" d="M398.36,471.52s3.85,24.32-25.38,27.18l-1.8-2.71S396.56,479.1,398.36,471.52Z"/><path class="cls-3" d="M649.58,113.21c-71.67-2.28-139.94-23.52-205.12-46.75S314.7,17.46,244.74,5.18c-45-7.92-96.45-9-132.71,13.1-34.88,21.3-46.16,58.08-52.22,92.21-4.56,25.67-7.24,52.69,5.25,76.73,8.68,16.68,24.08,30.71,34.73,46.69,37.07,55.62,10.87,124.2-29.3,178.5C51.65,437.85,29.8,462.19,15.26,489.3S-6,547.49,6.72,575.15c12.61,27.42,42.65,48,75.2,62.5,66.1,29.42,144,37.84,220,42.61,168.09,10.59,337.09,6,505.72,1.41,62.39-1.7,125-3.41,186.43-12.27,34.08-4.92,69.27-12.72,94-31.56,31.42-23.91,39.2-64.41,18.15-94.39-35.3-50.3-132.92-62.8-157.6-116.77C935,397,949,363.85,968.74,336.31c42.34-59.11,113.32-111,117.06-178.54,2.57-46.41-31.55-92.89-84.31-114.85-55.3-23-132-20.12-172.79,18C786.69,100.13,712.87,115.23,649.58,113.21Z"/><polygon class="cls-4" points="288.93 384.33 288.61 401.97 285.99 544.99 263.58 597.48 186.34 598.36 186.34 392.45 266.95 386.07 288.93 384.33"/><polygon class="cls-5" points="288.93 384.33 288.61 401.97 285.99 544.99 263.58 597.48 186.34 598.36 186.34 392.45 266.95 386.07 288.93 384.33"/><polygon class="cls-4" points="288.93 384.33 288.61 401.97 285.99 544.99 263.58 597.48 269.48 402.31 269.46 402.18 266.95 386.07 288.93 384.33"/><polygon class="cls-5" points="266.95 386.07 288.93 384.33 288.61 401.97 269.46 402.18 186.34 403.11 186.34 392.45 266.95 386.07"/><polygon class="cls-4" points="983.22 392.45 983.22 597.17 965.24 597.17 893.3 544.7 893.3 386.68 957.57 380.64 961.51 382.45 965.24 384.17 983.22 392.45"/><rect class="cls-5" x="965.24" y="382.45" width="17.98" height="214.72"/><polygon class="cls-5" points="983.22 382.45 983.22 394.22 965.24 394.43 893.3 395.22 893.3 386.68 957.57 380.64 961.51 382.45 965.24 384.17 965.24 382.45 983.22 382.45"/><polygon class="cls-4" points="983.22 375.77 983.22 392.45 99.67 402.31 99.67 381.08 182.8 364.27 906.27 358.97 983.22 375.77"/><polygon class="cls-5" points="983.22 375.77 983.22 392.45 99.67 402.31 99.67 381.08 983.22 375.77"/><ellipse class="cls-5" cx="250.23" cy="369.65" rx="39.83" ry="2.55"/><rect class="cls-6" x="232.6" y="358.79" width="38.75" height="10.19"/><rect class="cls-6" x="226.44" y="325.68" width="50.63" height="35.56"/><rect class="cls-5" x="232.22" y="358.79" width="38.75" height="10.19"/><rect class="cls-5" x="226.28" y="325.68" width="50.63" height="35.56"/><rect class="cls-6" x="235.15" y="358.79" width="38.75" height="10.19"/><circle class="cls-5" cx="254.14" cy="313.44" r="1.27"/><circle class="cls-5" cx="268.04" cy="306.01" r="1.27"/><circle class="cls-5" cx="262.63" cy="312.49" r="1.27"/><circle class="cls-5" cx="259.87" cy="306.23" r="1.27"/><rect class="cls-5" x="235.15" y="358.79" width="38.75" height="3.72"/><rect class="cls-6" x="228.99" y="325.68" width="50.63" height="35.56"/><circle class="cls-5" cx="261.79" cy="319.52" r="1.27"/><circle class="cls-5" cx="254.14" cy="321.11" r="1.27"/><path class="cls-7" d="M387.24,472.07c0,2.91-.33,5.26-.73,5.26s-.73-2.35-.73-5.26.41-1.53.81-1.53S387.24,469.17,387.24,472.07Z"/><ellipse class="cls-3" cx="358.85" cy="566.01" rx="65.98" ry="10.13"/><path class="cls-8" d="M392.8,501.89l-.32,2.58-.44,3.64-.18,1.51-.44,3.65-.2,1.51-.44,3.64-5,41.39c-.45,3.7-6.48,6.58-13.77,6.58H345.72c-7.28,0-13.31-2.88-13.76-6.58l-5.06-41.39-.44-3.64-.18-1.51-.46-3.65-.18-1.51-.44-3.64-.32-2.58c-.25-2.09,3-3.85,7.14-3.85h53.65C389.79,498,393.06,499.8,392.8,501.89Z"/><polygon class="cls-9" points="392.49 504.46 392.04 508.1 325.65 508.1 325.2 504.46 392.49 504.46"/><polygon class="cls-9" points="391.86 509.62 391.42 513.26 326.28 513.26 325.83 509.62 391.86 509.62"/><polygon class="cls-9" points="391.23 514.78 390.79 518.42 326.91 518.42 326.46 514.78 391.23 514.78"/><path class="cls-10" d="M559,361.31v2.06H498.1V361.7a20,20,0,0,0,1.38-37H558.6a20,20,0,0,0,.41,36.58Z"/><path class="cls-5" d="M558.6,324.73A20,20,0,0,0,547.55,338h-37a20.1,20.1,0,0,0-11.07-13.27Z"/><path class="cls-10" d="M428.35,314.23V325.8c0,6.38,4.68,11.56,10.44,11.56H618c5.76,0,10.44-5.18,10.44-11.56V314.23Z"/><path class="cls-5" d="M559,361.31v2.06H498.1V361.7a20,20,0,0,0,4.7-2.5h52.48A19,19,0,0,0,559,361.31Z"/><rect class="cls-10" x="477.98" y="359.84" width="101.17" height="6.1" rx="3.05"/><path class="cls-4" d="M628.44,187.54A10.45,10.45,0,0,0,618,177.1H438.79a10.44,10.44,0,0,0-10.44,10.44h0V316.48H628.44Z"/><path class="cls-11" d="M623,192.19V303a5.14,5.14,0,0,1-5.14,5.14H439a5.14,5.14,0,0,1-5.14-5.14h0V192.19a5.07,5.07,0,0,1,.74-2.56,5.18,5.18,0,0,1,4.45-2.57H617.84A5.15,5.15,0,0,1,623,192.19Z"/><circle class="cls-12" cx="528.4" cy="182.07" r="2.41"/><circle class="cls-12" cx="528.4" cy="326.28" r="5.94"/><path class="cls-12" d="M623,192.19H433.81a5.14,5.14,0,0,1,5.14-5.14H617.84a5.14,5.14,0,0,1,5.14,5.14Z"/><circle class="cls-13" cx="438.96" cy="189.62" r="1.28"/><circle class="cls-13" cx="442.81" cy="189.62" r="1.28"/><circle class="cls-13" cx="446.66" cy="189.62" r="1.28"/><path class="cls-14" d="M650.55,416.63s12,4.88,26.73,10.73a39.74,39.74,0,0,1,1.16,5.14c.26,3.4,7,8.19,7,8.19s12.5,2.26,21.91,4.91c7.31,2,8.32-2,7.38-3.56l2.19.84c.49,20.24,1.05,35,1.05,35s3.2,0,8.25.24c.06.64.12,1.3.19,2,1.93,20,5.48,53,8.23,55.74,4,3.87,2.23,32.39.69,37.43s0,41.31,0,41.31,6.19,22.16,5.67,46.34,6.7,36.78,6.7,36.78l2.59.19c0,.67-.08,1.33-.11,2-.12,2.19-.21,4.38-.24,6.37a15.69,15.69,0,0,1-3,8.42,51.67,51.67,0,0,0-8.39,19.75,41,41,0,0,0-.64,4.8,3.09,3.09,0,0,1,0,.62s2.4,7.06,24.92,9.41S782,735.34,782,735.34s.11-.46.25-1.3a49,49,0,0,0,.09-16.66c-.79-4.3-.11-11.74.87-18.56.1-.71.21-1.41.31-2.1a12.51,12.51,0,0,0,5.17-2.4c7-6.43,0-57.55,0-57.55S776,595,779.11,588.91s6.7-20.65,6.7-20.65V517.38c5-8.07,7.25-19.11,8.18-29.16.06-.67.12-1.33.17-2,4.17.08,8.17-.07,11.8-.32l1,2c5.9,11.43,11.9,22.75,13.37,24.42,3.09,3.53.51,19.65,0,27.71S826,564.21,826,564.21c-7.73,4.53-9.28,57.93-9.28,57.93s5.67,13.1-6.19,27.71-7.22,42.32-5.67,41.31c.41-.27,2.92.14,6.49.73a17.13,17.13,0,0,1-3.4,6.52c-3.83,4.76-5.14,12.22-5.52,18.18a63.17,63.17,0,0,0,0,9.33l8.59,6s5.33,0,5.33,4.71,13.06,9.4,13.06,9.4,19.42,5.37,34.38,0c4.85-1.74,6.33-4.73,5.76-8.36-1.18-7.59-11.33-18-18.65-25.56-4.94-5.13-7.19-11.93-8.19-17.82-.11-.63-.2-1.25-.28-1.86a5.89,5.89,0,0,0,1.59-1.31c6.19-7.56,12.89-28.21,12.89-28.21s-3.06-21.1,3.64-40.28c5-14.19,11.07-47.45,13.89-63.74A63.54,63.54,0,0,0,875,541c-1.3-11.89-3.3-33.92-2.59-51.36.24-5.69.07-14.74-.32-25.35v-.15c3.67-6.93,11.63-18.24,24.91-19.17,19.25-1.35,9.28-11.92,9.28-11.92S895,353.71,887.55,339.63c-.12-.24-.25-.48-.39-.71-1.1-1.75-2.3-5.25-3.57-9.92-7.33-27.05-16.71-93.69-16.71-93.69l-1.15-16.21c11.48,5.63,32.78,15.9,41.37,18.9,12,4.2,28.7,1.51,32.83-12.26s-13.06-41.64-13.06-41.64c-2.53-9.88-20-30.45-29.09-40.66-.88-1.33-1.75-2.65-2.6-3.91-2.34-3.49-4.45-6.57-5.79-8.38l-.13.25c-.33-.46-.64-.89-.91-1.25l-.22.44c-3.25-6-6.9-12.17-9.73-15.48-6.58-7.68-35.28-15.94-38.12-13.67-2.07,1.65,6.52,8.85,12.53,13.27l-5.74-3.88-12.83-11.1-5.65-3.82a6.08,6.08,0,0,0-.74-.42,40.58,40.58,0,0,0-6.52-33.86c-.4-.55-.83-1.1-1.26-1.63,5.91-4.92,7.78-13,7.78-20.2v-.27a14.38,14.38,0,0,0-3.43-7.21c.09.18.18.38.26.57A11.67,11.67,0,0,0,816,28.44c-5-.08-9.19,3.2-13.58,5.45a35.05,35.05,0,0,1-29.25,1c-2.71-1.16-5.44-2.7-8.38-2.46s-5.27,2.13-7.27,4.1A47.73,47.73,0,0,0,746.45,53c-.74,1.81-1.4,3.74-2.83,5.1a19.91,19.91,0,0,1-3.52,2.3,18.92,18.92,0,0,0-8.39,12.28,26.37,26.37,0,0,0,1.51,14.85,22.32,22.32,0,0,0,5.54,8.6c1.87,1.73,4.11,3,6.09,4.63a23.73,23.73,0,0,1,2.51,2.4,47.56,47.56,0,0,0-23.67,13.12,61.93,61.93,0,0,0-12,16.12c-8.37,15.73-13.45,25.52-16.47,31.73-1.51.46-2.44.68-2.44.68s-11.34,10.07-11.17,39h0l-8.77,57.76V291s-11.29,32.07-9.44,58.61a5.35,5.35,0,0,0,.07,1.06l-.92,4.51a10.33,10.33,0,0,0-2,6.68,8.33,8.33,0,0,0,.18,2.44L656.13,387l.87.92-2.37,6.67C645.7,408.9,650.55,416.63,650.55,416.63Zm66.32-162c.57.39.89.59.89.59s5,44.77,2,71.39l-10.53-.72-5-1.54L706,310.12s6.41-37.49,10.81-55.49Zm41.38-129.95,1-1.54c-.21.55-.42,1.09-.64,1.59ZM710.72,326.39l5.45.56,3.45.72-.18,1.41ZM827.85,132.83c0-.49,0-1-.1-1.49l4.28,2.54.26.16c-1.48-.43-3-.81-4.44-1.16Zm33.22,19.8c-.59-.92-1.23-1.81-1.9-2.67,3,.72,4.86,1.14,4.86,1.14a13.42,13.42,0,0,1,7.12.72,37.64,37.64,0,0,0,2.47,4.32l7.9,15.3s-1.72.17-5.16-1.51S861.07,152.63,861.07,152.63ZM711,440.63l2.47,1h0C712.9,441.8,712,441.4,711,440.63Z"/><path class="cls-15" d="M796.55,111.92c3.18,1.87,3.28,9.86,2.79,16.27-.35,4.69-1,8.53-1,8.53L819,187s7.67-35.84,7.79-51.84a12.08,12.08,0,0,0-.57-3.72C822.64,119.93,802.36,113.53,796.55,111.92Z"/><path class="cls-15" d="M795.06,111.52s.56.13,1.53.4A3.18,3.18,0,0,0,795.06,111.52Z"/><path class="cls-15" d="M802.23,723.85l8.33,6s5.17,0,5.17,4.67,12.66,9.33,12.66,9.33,18.84,5.33,33.34,0c4.7-1.73,6.14-4.69,5.59-8.3-1.15-7.53-11-17.82-18.09-25.37-4.79-5.09-7-11.84-7.94-17.68a52.53,52.53,0,0,1-.56-12.65l-30.5-2.17a20.21,20.21,0,0,1,0,14.29,18.74,18.74,0,0,1-2.67,4.58c-3.72,4.72-5,12.13-5.36,18A65.6,65.6,0,0,0,802.23,723.85Z"/><path class="cls-15" d="M739.55,737.68s2.33,7,24.17,9.34,18.67-13.84,18.67-13.84.11-.46.25-1.29a49.91,49.91,0,0,0,.08-16.54c-.76-4.26-.1-11.65.85-18.42,1.12-8.06,2.65-15.25,2.65-15.25l-33.84,2.5s-.59,6.89-.93,13.85c-.11,2.17-.2,4.34-.23,6.32a15.76,15.76,0,0,1-2.92,8.35,52.16,52.16,0,0,0-8.08,19.6,42.76,42.76,0,0,0-.62,4.76A5.58,5.58,0,0,0,739.55,737.68Z"/><path class="cls-5" d="M810.23,677.68a20.21,20.21,0,0,1,0,14.29c8.75,1.49,25.06,4.5,31.06.53a52.53,52.53,0,0,1-.56-12.65Z"/><path class="cls-5" d="M751.46,698c6.18.44,22.81,1.31,32.12-1.1,1.12-8.06,2.65-15.25,2.65-15.25l-33.84,2.5S751.8,691.07,751.46,698Z"/><path class="cls-16" d="M727.06,464.85s.52,6.25,1.35,15c1.87,19.86,5.32,52.65,8,55.32,3.84,3.85,2.17,32.15.67,37.15s0,41,0,41a183.37,183.37,0,0,1,5.5,46c-.5,24,6.5,36.5,6.5,36.5s33,3,39.83-3.38,0-57.12,0-57.12-12.36-41.47-9.36-47.47,6.5-20.5,6.5-20.5v-50.5c4.85-8,7-19,7.93-28.94a152.55,152.55,0,0,0,.07-25.56s6.21,12.7,12.54,25.26c5.72,11.35,11.54,22.58,13,24.24,3,3.5.5,19.5,0,27.5s5.5,24,5.5,24c-7.5,4.5-9,57.5-9,57.5s5.5,13-6,27.5-7,42-5.5,41,32,7.5,38,0,12.5-28,12.5-28-3-21,3.5-40c4.82-14.08,10.73-47.09,13.47-63.26a64.83,64.83,0,0,0,.49-17.76c-1.26-11.81-3.2-33.67-2.51-51,.23-5.65.07-14.63-.31-25.16-1.29-36.1-5.19-90.34-5.19-90.34l-27.1-18.36-17.89-12.12-4.38.67-81.62,12.61-3.17,40.26Z"/><path class="cls-5" d="M837.46,355.49l1.43,7.86s12,57.5,14.5,87,13,21,13,21a46.67,46.67,0,0,1,3.36-7.16c-1.29-36.1-5.19-90.34-5.19-90.34Z"/><path class="cls-17" d="M751.73,137.35s56,44.83,45.66,35.83c-5.66-4.94-1.81-26,2.83-44,3.82-14.85,8.17-27.63,8.17-27.63s-48.88-45.73-45.33-8.34c1.25,13.18.21,22.55-1.66,29.17C758,134.51,751.73,137.35,751.73,137.35Z"/><path class="cls-5" d="M756.39,125.43l35.5,27.75,10.33-11.5s8.84-3.83,9.5.5,3.17,31-2,33.5-11.83,4.17-17.66,3.34-12.34-7.34-16.67-9.84-20.33-15.5-20.33-15.5l-8-11.16Z"/><path class="cls-18" d="M756.39,126.43l35.5,27.75,10.33-11.5s8.84-3.83,9.5.5,3.17,31-2,33.5-11.83,4.17-17.66,3.34-12.34-7.34-16.67-9.84-20.33-15.5-20.33-15.5l-8-11.16Z"/><path class="cls-5" d="M727.06,464.85s.52,6.25,1.35,15c11,.42,32.34,1.72,47.32,5.64A82,82,0,0,0,794,487.88a152.55,152.55,0,0,0,.07-25.56s6.21,12.7,12.54,25.26a130.82,130.82,0,0,0,16.13-2.09l-6.67-86.67s.22-29.09-.88-54.83l-81.63,12.64-3.17,40.26Z"/><path class="cls-5" d="M788.39,150.85s-24.25-26.51-30-22.3S748.92,143,748.92,143l19.75,21.66Z"/><path class="cls-18" d="M787.39,149.85s-24.25-26.51-30-22.3S747.92,142,747.92,142l19.75,21.66Z"/><path class="cls-5" d="M807.55,166.84l-14-17.55s2.2-16.59,7.32-14.47,6.68,10.61,6.68,10.61Z"/><path class="cls-18" d="M808.55,165.68l-13.93-17.55s2.2-16.59,7.32-14.47,6.61,10.61,6.61,10.61Z"/><path class="cls-5" d="M744.39,134.18s28.71,31,45.85,33.08c1.55.19,3.1.45,4.63.76,4.48.88,14.24,0,12.69-25.63l2.16-4.54L823.06,146l4.5,36.66,8,94,11.83,104.67s-36.33-3.5-46.5,5.67-13-50-13-50L760.06,217l-29.67-77.17Z"/><path class="cls-5" d="M730.39,143.85,760.06,221l27.83,120s2.84,59.16,13,50c3.32-3,9.44-4.64,16.17-5.49A147.09,147.09,0,0,1,842,385c3.32.18,5.41.38,5.41.38L835.55,280.68l-8-94L823.05,150l-13.33-8.17-2.17,4.54c0,.67.07,1.33.1,2,.94,23.68-8.43,24.52-12.78,23.66-1.54-.31-3.08-.57-4.64-.76-12.14-1.49-30.08-17.46-39.51-26.64-3.89-3.8-6.34-6.44-6.34-6.44Z"/><path class="cls-11" d="M730.39,140.85,760.06,218l27.83,120s2.84,59.16,13,50c3.32-3,9.44-4.64,16.17-5.49A147.09,147.09,0,0,1,842,382c3.32.18,5.41.38,5.41.38L835.55,277.68l-8-94L823.05,147l-13.33-8.17-2.17,4.54c0,.67.07,1.33.1,2,.94,23.68-8.43,24.52-12.78,23.66-1.54-.31-3.08-.57-4.64-.76-12.14-1.49-30.08-17.46-39.51-26.64-3.89-3.8-6.34-6.44-6.34-6.44Z"/><path class="cls-5" d="M807.55,143.39c0,.67.07,1.33.1,2l.23.16c3.52,2.32,9.17,41.5,9.17,41.5l7.33,99.83,13.5,74.5s1.77,8.49,4.09,20.62c3.32.18,5.41.38,5.41.38l-11.83-104.7-8-94L823.05,147l-13.33-8.17Z"/><path class="cls-15" d="M798.37,136.72s8,6.48,11.52,8.8,9.17,41.5,9.17,41.5l7.33,99.83,13.5,74.5s12,57.5,14.5,87,13,21,13,21,7.84-23,26.5-24.33,9-11.84,9-11.84-10.93-78.77-18.12-92.8c-.12-.24-.24-.47-.38-.7-1.06-1.74-2.23-5.21-3.46-9.85-7.11-26.84-16.2-93-16.2-93l-5.67-82C844.55,131.18,799.55,132,799.55,132Z"/><path class="cls-5" d="M730.39,140.85,760.06,218l27.83,120s2.84,59.16,13,50c3.32-3,9.44-4.64,16.17-5.49-.12-20.34-.74-56.84-3.67-72.18a203.12,203.12,0,0,1-3.16-42.5l-36.34-79.17s-27.33-33.69-27.5-38.51c-.06-1.78,1.88-5.08,4.34-8.55-3.89-3.8-6.34-6.44-6.34-6.44Z"/><path class="cls-15" d="M821.72,483.52l-6.66-86.67s.5-64.67-3.67-86.5a202.45,202.45,0,0,1-3.17-42.5l-36.33-79.17s-27.33-33.69-27.5-38.51,14.31-20.85,14.31-20.85-31.64,3.7-35.81,17.86-27,19.67-27,19.67-11,10-10.83,38.67,35,51.16,35,51.16,5.83,54,.83,78.34-.67,142.66-.67,142.66,33.5.34,54.5,5.84S821.72,483.52,821.72,483.52Z"/><path class="cls-19" d="M772.39,346l-25.67,97.16s-3.5,8.67-21.5,2-70.33-28.33-70.33-28.33-4.67-7.67,4-21.83l26.17-76.67Z"/><polygon class="cls-20" points="739.19 388.98 697.69 343.35 671.19 332.6 660.31 387.47 710.69 442.22 739.19 388.98"/><path class="cls-17" d="M694.84,404.22s12.34,7.25,15.59,7.5,14.73,21.92,9.88,21.75-16.13-6-15-3,8.48,12,10.62,11.15,3.13,6.6-6,4-21.25-4.88-21.25-4.88-6.5-4.75-6.75-8.12-5.87-21.13-5.87-21.13Z"/><path class="cls-17" d="M893,148.22s-10.68-23-17.06-30.68-34.21-15.82-37-13.57,14,14.89,17,16.51-19.39,16.67-19.84,17-17.5-1.52-8.75,4.23,34.62,11.61,34.62,11.61a13,13,0,0,1,10,2.39C876.93,159.35,893,148.22,893,148.22Z"/><path class="cls-5" d="M670.78,405.38a68.8,68.8,0,0,0,5.66,13.35c2.5-2.26,26.37-10.13,26.37-10.13l-2.65-4.09-4.32-6.66s-21.28-4.62-24.9,0C669.72,399.4,669.94,402.26,670.78,405.38Z"/><path class="cls-18" d="M669.78,404.38a68.8,68.8,0,0,0,5.66,13.35c2.5-2.26,26.37-10.13,26.37-10.13l-2.65-4.09-4.32-6.66s-21.28-4.62-24.9,0C668.72,398.4,668.94,401.26,669.78,404.38Z"/><path class="cls-5" d="M868.55,153.43a34.26,34.26,0,0,0,2.7,4.94c3.85,6.07,9.68,13.23,9.68,13.23s22.74-10.46,22.74-10.92-6.9-11.33-12.51-19.9c-2.27-3.46-4.32-6.52-5.62-8.31,0,0-8.49,17.76-16.87,17.88C866.48,150.38,867.65,151.26,868.55,153.43Z"/><path class="cls-18" d="M869.55,154.43a34.26,34.26,0,0,0,2.7,4.94c3.85,6.07,9.68,13.23,9.68,13.23s22.74-10.46,22.74-10.92-6.9-11.33-12.51-19.9c-2.27-3.46-4.32-6.52-5.62-8.31,0,0-8.49,17.76-16.87,17.88C867.48,151.38,868.65,152.26,869.55,154.43Z"/><polygon class="cls-19" points="741.31 337.85 744.23 329.1 703.25 326.22 718.56 327.85 738.06 332.03 736.56 337.85 741.31 337.85"/><path class="cls-5" d="M669.78,404.38c4.52-2.13,16.58-6.56,29.38-.87l-4.32-6.66s-21.28-4.62-24.9,0C668.72,398.4,668.94,401.26,669.78,404.38Z"/><path class="cls-15" d="M667.39,350.35c.1,1.45.19,2.9.28,4.34.25,4.41.42,8.78.53,13,.5,19.54-.31,35.66-.31,35.66s15.5-9.33,32-1.5l1.66-31.62v-.55l1.69-13.83,5.48-44.67s10.33-62,13.5-64.33-23.5-52.5-23.5-52.5l-13.67,11.17-8.5,57.33v29.33S665.55,324,667.39,350.35Z"/><path class="cls-5" d="M869.06,153l3.2,6.35c3.85,6.07,9.68,13.23,9.68,13.23s22.74-10.46,22.74-10.92-6.9-11.33-12.51-19.9c-1.73-2-2.78-3.1-2.78-3.1C896.06,155.18,869.06,153,869.06,153Z"/><path class="cls-15" d="M849.72,150.17l9.34,4.68s11.5,15.5,14.83,17.17,5,1.5,5,1.5L869.06,154s27,2.16,20.33-14.34c0,0,30.17,33,33.5,46.34,0,0,16.67,27.66,12.67,41.33s-20.17,16.33-31.84,12.17-47.5-22.5-47.5-22.5Z"/><path class="cls-5" d="M883.22,182.68s25.17,28.17,23.17,32S884.55,188.35,883.22,182.68Z"/><path class="cls-21" d="M769.64,106.85s-35.42-10.67-55.42,27.83-20.67,41.17-19.67,43,39.83-8.33,42-3.83-22,23-22,23l93.66,71-39.35-83.64a63.39,63.39,0,0,0-10.46-16.07c-6.47-7.24-15.32-18.33-12.19-21.75,2.76-3,7.18-10.83,13.14-19.84C763.72,119.94,770.66,112.49,769.64,106.85Z"/><path class="cls-15" d="M770.64,105.85s-35.42-10.67-55.42,27.83-20.67,41.17-19.67,43,39.83-8.33,42-3.83-22,23-22,23l92.66,72-38.35-84.64a63.39,63.39,0,0,0-10.46-16.07c-6.47-7.24-15.32-18.33-12.19-21.75,2.76-3,7.18-10.83,13.14-19.84C764.72,118.94,771.66,111.49,770.64,105.85Z"/><path class="cls-5" d="M770.64,105.85s-35.42-10.67-55.42,27.83-20.67,41.17-19.67,43,39.83-8.33,42-3.83-22,23-22,23l92.66,72L768,179.14a35.19,35.19,0,0,0-6.24-9.39c-6.33-6.82-18.11-20.49-14.57-24.36,2.76-3,7.18-10.83,13.14-19.84C764.72,118.94,771.66,111.49,770.64,105.85Z"/><circle class="cls-16" cx="763.39" cy="275.01" r="7.33"/><circle class="cls-16" cx="763.39" cy="320.51" r="7.33"/><path class="cls-15" d="M668.2,367.69c4.22,1,24.23.55,33.33,2.54v-.55l1.69-13.83c-10.26-1.28-32.56-3.71-35.58-1.16C663.73,358,663.17,366.54,668.2,367.69Z"/><path class="cls-5" d="M668.2,368.69c4.22,1,24.23.55,33.33,2.54v-.55l1.69-13.83c-10.26-1.28-32.56-3.71-35.58-1.16C663.73,359,663.17,367.54,668.2,368.69Z"/><path class="cls-5" d="M668.2,367.69c4.22,1,24.23.55,33.33,2.54v-.55l1.69-13.83c-10.26-1.28-32.56-3.71-35.58-1.16C663.73,358,663.17,366.54,668.2,367.69Z"/><circle class="cls-16" cx="672.56" cy="361.01" r="4.42"/><path class="cls-22" d="M756.06,378.68l-18.67,63.67s-5,2.33-5-1.83S756.06,378.68,756.06,378.68Z"/><path class="cls-5" d="M763.22,119.25a38,38,0,0,0,3.69,2.63c6.35,4,12,9.44,20.1,9.44a40.7,40.7,0,0,0,13.21-2.17c3.82-14.85,8.17-27.63,8.17-27.63s-48.88-45.73-45.33-8.34C764.31,106.36,765.09,112.63,763.22,119.25Z"/><path class="cls-17" d="M746,88.26A41.06,41.06,0,1,0,787,47.2h0A40.87,40.87,0,0,0,746,87.88Z"/><path class="cls-20" d="M810.28,122.63a4.59,4.59,0,0,0,1.92,2.25l6.52,4,12.19,7.41L850.2,148a13.22,13.22,0,0,0,1.38.75,16.57,16.57,0,0,0,14.63.2,12,12,0,0,0,6.83-8.52,14.27,14.27,0,0,0-5.22-14,1,1,0,0,0-.36-.19,35.17,35.17,0,0,1-11.4-5.57l-12.14-8.4-10.84-9.91-5.48-3.79a5.13,5.13,0,0,0-5.51-.2C816.47,101.63,805.28,110,810.28,122.63Z"/><path class="cls-18" d="M818.72,128.82l12.19,7.41c2.54-10.24,9-17.47,14.61-22.93l-12.44-11C823.62,107,819.86,122.63,818.72,128.82Z"/><path class="cls-5" d="M851.55,148.7a16.57,16.57,0,0,0,14.63.2,12,12,0,0,0,6.83-8.52,14.27,14.27,0,0,0-5.22-14,30.89,30.89,0,0,0-8.3,5.21,23.3,23.3,0,0,0-7.18,11.3A23.75,23.75,0,0,0,851.55,148.7Z"/><path class="cls-5" d="M746,88.26a40.76,40.76,0,0,0,3.82,17.31,23.41,23.41,0,0,1,5.52,8.76c2.78,3.38,3.87,5.29,7.58,7.63,1.49-1.57,4.85-2.52,5.46-4.55,1.55-5.23.67-10.82.59-16.27,0-2.42.34-5.28,2.47-6.44,1.77-1,4-.28,5.74.7s3.47,2.25,5.47,2.48c3,.34,5.74-1.77,7.42-4.25s2.65-5.38,4.24-7.92c2.1-3.35,5.2-5.92,8.25-8.42,3.49-2.88,6.88-6.07,10.6-8.65,2.22-1.55,4.88-2.27,7.07-3.83l.35-.26A41.06,41.06,0,0,0,746,88.26Z"/><path class="cls-23" d="M826.85,42.87c-.87-5.76-5.64-11.17-11.46-11.27-4.81-.08-8.91,3.18-13.17,5.41a33.25,33.25,0,0,1-28.37,1c-2.61-1.15-5.27-2.68-8.12-2.44s-5.12,2.1-7.1,4a47.67,47.67,0,0,0-10.76,16.3c-.71,1.8-1.36,3.71-2.74,5.07a20.51,20.51,0,0,1-3.42,2.27,18.84,18.84,0,0,0-8.09,12.17,26.74,26.74,0,0,0,1.47,14.75,22.52,22.52,0,0,0,5.37,8.53c1.82,1.71,4,3,5.91,4.59a23.68,23.68,0,0,1,8,21.89c5.32,1.22,10.42-3.54,12-8.77s.67-10.81.59-16.27c0-2.42.34-5.27,2.47-6.43,1.77-1,4-.28,5.74.7s3.46,2.24,5.47,2.48c3,.34,5.74-1.77,7.42-4.25s2.64-5.38,4.24-7.92c2.09-3.35,5.2-5.92,8.25-8.42,3.49-2.88,6.88-6.07,10.59-8.65,2.23-1.55,4.89-2.27,7.08-3.83C824.8,59.07,826.85,50.43,826.85,42.87Z"/><path class="cls-5" d="M795.06,111.52s.56.13,1.53.4A3.18,3.18,0,0,0,795.06,111.52Z"/><g class="cls-24"><path d="M764.33,113.14c1.55-5.23.67-10.82.59-16.27,0-2.42.34-5.28,2.47-6.44,1.77-1,4-.28,5.74.7s3.46,2.25,5.47,2.48c3,.34,5.74-1.76,7.42-4.25s2.64-5.38,4.24-7.92c2.09-3.35,5.2-5.92,8.25-8.42,3.49-2.87,6.88-6.07,10.59-8.65,2.23-1.55,4.89-2.27,7.08-3.83,6.62-4.74,8.67-13.38,8.67-20.93a14.54,14.54,0,0,0-1.33-4.16,14.46,14.46,0,0,1,3.33,7.18c0,7.55-2,16.19-8.67,20.93-2.19,1.56-4.85,2.28-7.08,3.83C807.39,70,804,73.17,800.51,76c-3,2.5-6.16,5.07-8.25,8.42-1.6,2.54-2.55,5.44-4.24,7.92s-4.44,4.59-7.42,4.25c-2-.23-3.7-1.51-5.47-2.48s-4-1.66-5.74-.7c-2.13,1.16-2.51,4-2.47,6.44.08,5.45,1,11-.59,16.27s-6.66,10-12,8.76a22.22,22.22,0,0,0,.31-2.84C759.09,121.7,763,117.63,764.33,113.14Z"/><path d="M738.46,95.42c1.82,1.71,4,3,5.91,4.59a23.12,23.12,0,0,1,5.21,6.31,22.84,22.84,0,0,0-3.21-3.31c-1.92-1.59-4.09-2.88-5.91-4.59a19.1,19.1,0,0,1-3.64-4.78A16.24,16.24,0,0,0,738.46,95.42Z"/></g><path class="cls-5" d="M793.7,452.38c.73,2.17,1.77,4.29,1.91,6.58.24,3.89-2.14,7.52-2.31,11.42-.2,4.54,2.56,8.61,5.2,12.3-3.13,0-6.55-1.08-8.14-3.77a12,12,0,0,1-1.17-3.29c-2.83-11.29-5.58-23.64-.66-34.18a15,15,0,0,1,3.25-4.88C792.61,441.88,791.91,447.11,793.7,452.38Z"/><path class="cls-5" d="M871.92,372.7l8.31-11.21c2-2.71,4.07-5.53,4.79-8.82.78-3.61-.13-7.35-.25-11v-1.25c-.12-.24-.24-.47-.38-.7-1.06-1.74-2.23-5.21-3.46-9.85a11.91,11.91,0,0,0-2.76,4.25c-3.87,9.44-.29,20.52-3.49,30.2C873.76,367.1,872.26,369.76,871.92,372.7Z"/><path class="cls-5" d="M825.79,562.94a18.93,18.93,0,0,0,20.76-9.18"/><path class="cls-5" d="M778.39,588.21a27.59,27.59,0,0,1-17.85-4.9"/><path class="cls-5" d="M810.74,648.63c5.33,2.17,10.08,5.54,15.27,8s11.2,4.08,16.7,2.36"/><ellipse class="cls-4" cx="522.88" cy="638.91" rx="85.12" ry="24.55"/><ellipse class="cls-5" cx="522.88" cy="631" rx="17.03" ry="4.91"/><rect class="cls-4" x="513.41" y="501.5" width="17.5" height="129.5"/><path class="cls-5" d="M530.91,507.91v15c-3.5-1.08-11.49-5.63-17.5-9.21V501.5h3.65Z"/><path class="cls-6" d="M489.68,445.12s57.78-14.87,72.16-26,70.85,41.25,63.39,61-34.62,34.08-34.62,34.08-75.12,12.22-87.9-13.27S489.68,445.12,489.68,445.12Z"/><path class="cls-5" d="M489.68,445.12s57.78-14.87,72.16-26,70.85,41.25,63.39,61-34.62,34.08-34.62,34.08-75.12,12.22-87.9-13.27S489.68,445.12,489.68,445.12Z"/><path class="cls-6" d="M484.68,439.12s57.78-14.87,72.16-26,70.85,41.25,63.39,61-34.62,34.08-34.62,34.08-75.12,12.22-87.9-13.27S484.68,439.12,484.68,439.12Z"/><path class="cls-5" d="M603.44,337.21a3.4,3.4,0,0,1-.64-.09A1.42,1.42,0,0,1,603.44,337.21Z"/><path class="cls-6" d="M432.26,394.84c-5.77-1.41-21.68-2.71-29.25,22.68a113.37,113.37,0,0,1-6.71,17.17C389,449.6,379.66,480.25,420.91,487l99,22.5s53,6.5,56.5,4,3-8,3-8-58.5,0-70-18-12-42.5-12-42.5,1.44-37.83-59-48.82C436.37,395.81,434.31,395.34,432.26,394.84Z"/><path class="cls-5" d="M432.26,395c-5.77-1.41-21.68-2.71-29.25,22.68a113.48,113.48,0,0,1-6.71,17.18c-7.27,14.9-16.64,45.56,24.61,52.31l99,22.5s53,6.5,56.5,4,3-8,3-8-58.5,0-70-18-12-42.5-12-42.5,1.44-37.83-59-48.82C436.37,396,434.31,395.51,432.26,395Z"/><path class="cls-6" d="M639.79,369A15.31,15.31,0,0,0,624.34,356c-12.71.24-49,1.78-71.12,11.56-4.86,2.15-9.73,4.24-14.73,6-4.52,1.61-9.91,4.18-12.58,7.87s-65.5,52,25,98.5c0,0,48.5,13.81,67.5-18.59,0,0,13.5-34.81,12.5-46.86s9-44.55,9-44.55S639.89,369.63,639.79,369Z"/><path class="cls-5" d="M639.79,377.73c-1.14-7-7.8-12.06-15.45-11.93-14.24.24-58.07,2-78.43,14.27,0,0-15.5,9.23-20,9.23s-65.5,48,25,90.93c0,0,48.5,12.74,67.5-17.17,0,0,13.5-32.13,12.5-43.25s9-41.13,9-41.13S639.89,378.33,639.79,377.73Z"/><rect class="cls-4" x="575.41" y="480" width="16" height="34.07"/><path class="cls-5" d="M231.11,303.44s-4.59,21.37,15.84,23.91l1.26-2.38S232.35,310.09,231.11,303.44Z"/><path class="cls-5" d="M254.71,324.81l-4.75,1-.48.1S236.81,315.62,237,292.66a57.13,57.13,0,0,0,6,9.57C248.05,308.89,253.76,317.76,254.71,324.81Z"/><path class="cls-5" d="M283.35,303.44s.79,21.37-19.64,23.91L262.44,325S282.1,310.09,283.35,303.44Z"/><path class="cls-5" d="M277.51,292.67c.15,23-16.31,33.25-16.31,33.25l-.48-.1-4.75-1c.94-7.05,6.66-15.92,11.68-22.57A51.43,51.43,0,0,1,277.51,292.67Z"/><path class="cls-25" d="M231.11,303.44s-2.69,21.37,17.74,23.91l1.26-2.38S232.35,310.09,231.11,303.44Z"/><path class="cls-25" d="M256.61,324.81l-4.75,1-.48.1S236.81,315.62,237,292.66c0,0,3.73,4,8,9.57C250,308.89,255.66,317.76,256.61,324.81Z"/><path class="cls-25" d="M258.21,327a3,3,0,0,1-2.55.34c-12.2-2.85-10-42.6-10-42.6.68.32,3.32,5.37,6.12,11.9C256.72,308.12,262.13,324.14,258.21,327Z"/><path class="cls-25" d="M280.8,304.74s2.69,21.37-17.74,23.91l-1.26-2.38S279.55,311.39,280.8,304.74Z"/><path class="cls-25" d="M277.51,292.67c.15,23-14.41,33.25-14.41,33.25l-.48-.1-4.75-1c.94-7.05,6.66-15.92,11.68-22.57C273.78,296.67,277.51,292.67,277.51,292.67Z"/><path class="cls-5" d="M269.55,302.27c-.61,8.68-2.2,18.23-6.05,22.69a7.4,7.4,0,0,1-.88.89l-4.75-1C258.81,317.76,264.53,308.89,269.55,302.27Z"/><path class="cls-25" d="M259.15,283.63q-1.62,6.62-3.21,13.24l-.55,2.28c-.31,1.31-.63,2.63-.88,4-.29,1.59-.48,3.2-.67,4.81l-.51,4.26c-.36,3-.7,6,.2,8.94a6.4,6.4,0,0,0,1,2,5,5,0,0,0,3.68,1.78,8.25,8.25,0,0,0,4-.93,7.14,7.14,0,0,0,2.7-2,7.51,7.51,0,0,0,1.29-4.49c0-3-.87-6-1.22-9-.39-3.37-.09-6.75-.16-10.13a48,48,0,0,0-2.47-14.24C261.59,281.93,259.81,280.92,259.15,283.63Z"/><path class="cls-1" d="M325.87,471.69S319.3,496,348.53,498.88l1.8-2.72S327.64,479.26,325.87,471.69Z"/><path class="cls-1" d="M358.79,495.18l-6.68,1.44-.68.15s-19.05-10.77-20.94-36.9a67.82,67.82,0,0,0,9.44,10.45C347.8,477.57,356.78,487.24,358.79,495.18Z"/><path class="cls-1" d="M359.73,498.39a5.29,5.29,0,0,1-3.65.39c-17.45-3.25-11.56-48.56-11.56-48.56,1,.37,2,6.12,6,13.56C357.53,476.86,365.27,495.11,359.73,498.39Z"/><path class="cls-1" d="M390,459.24c.22,26.23-23.33,37.9-23.33,37.9L366,497l-6.8-1.13c1.35-8,9.53-18.16,16.71-25.75A69.77,69.77,0,0,1,390,459.24Z"/><path class="cls-1" d="M365.87,496a10.57,10.57,0,0,1-3.89,2.38h0a9.19,9.19,0,0,1-1.43.39c-4.3.8-5.8-1.68-5.54-5.86.4-7.46,6.28-20.41,11.57-30,3.81-7,10-12.25,11-12.61C377.53,450.22,377.27,485.5,365.87,496Z"/><path class="cls-1" d="M361,443.06s-19.49,47.56-2.72,54.73S365.3,447.28,361,443.06Z"/><path class="cls-2" d="M325.87,471.69S319.3,496,348.53,498.88l1.8-2.72S327.64,479.26,325.87,471.69Z"/><path class="cls-2" d="M358.76,495.2l-6.68,1.43-.69.14s-19-10.79-20.87-36.91a67.67,67.67,0,0,0,9.42,10.44C347.81,477.57,356.77,487.26,358.76,495.2Z"/><path class="cls-2" d="M359.73,498.39a5.29,5.29,0,0,1-3.65.39c-17.45-3.25-11.56-48.56-11.56-48.56,1,.37,2,6.12,6,13.56C357.53,476.86,365.27,495.11,359.73,498.39Z"/><path class="cls-2" d="M390,459.24c.22,26.23-23.33,37.9-23.33,37.9L366,497l-6.8-1.13c1.35-8,9.53-18.16,16.71-25.75A69.77,69.77,0,0,1,390,459.24Z"/><path class="cls-2" d="M365.87,496a10.57,10.57,0,0,1-3.89,2.38h0a9.19,9.19,0,0,1-1.43.39c-4.3.8-5.8-1.68-5.54-5.86.4-7.46,6.28-20.41,11.57-30,3.81-7,10-12.25,11-12.61C377.53,450.22,377.27,485.5,365.87,496Z"/><path class="cls-2" d="M361,442.38s-19.49,48.14-2.72,55.41S365.3,446.64,361,442.38Z"/><path class="cls-1" d="M325.39,471.52s-3.85,24.32,25.38,27.18l1.81-2.71S327.18,479.1,325.39,471.52Z"/><path class="cls-1" d="M361.58,495.08l-6.68,1.51-.68.14s-21.8-10.56-23.8-36.68c0,0,5.72,4.29,12.34,10.25C350.52,477.49,359.53,487.12,361.58,495.08Z"/><path class="cls-2" d="M360.09,495.89l-6.8,1.13c-6.45-4.55-9-16.26-9.93-26.87C350.56,477.73,358.73,487.84,360.09,495.89Z"/><path class="cls-1" d="M362.38,498.39a5.3,5.3,0,0,1-3.65.39c-17.46-3.25-14.31-48.56-14.31-48.56,1,.37,4.75,6.12,8.76,13.56C360.25,476.86,368,495.11,362.38,498.39Z"/><path class="cls-1" d="M390,459.24a44.25,44.25,0,0,1-20.62,37.89l-.68-.11-6.8-1.13c1.35-8.05,9.53-18.16,16.71-25.76C384.65,463.81,390,459.24,390,459.24Z"/><path class="cls-2" d="M378.6,470.19c-.87,9.89-3.14,20.77-8.65,25.87a10.14,10.14,0,0,1-1.26,1l-6.8-1.14C363.24,487.84,371.42,477.73,378.6,470.19Z"/><path class="cls-1" d="M368.59,496a10.57,10.57,0,0,1-3.89,2.38h0a9.19,9.19,0,0,1-1.43.39c-4.3.8-5.8-1.68-5.54-5.86.4-7.46,6.28-20.41,11.57-30,3.81-7,7.31-12.25,8.24-12.61C377.53,450.22,380,485.5,368.59,496Z"/><path class="cls-2" d="M362.38,498.39a5.74,5.74,0,0,1-2.75-.7c-8.21-4.08-8.38-19.37-6.42-33.91C360.25,476.86,368,495.11,362.38,498.39Z"/><path class="cls-2" d="M368.59,496a4,4,0,0,1-3.89,2.38h0a6.22,6.22,0,0,1-2.34-.7,10.58,10.58,0,0,1-4.63-4.77c.4-7.46,6.28-20.41,11.57-30C371.18,476.27,371.81,490.51,368.59,496Z"/><path class="cls-1" d="M361,443.06s-16.77,47.56,0,54.73S365.3,447.28,361,443.06Z"/></g></g></svg>
