<svg id="a6dc9487-50e2-4fb9-af91-bf1b7118d463" xmlns="http://www.w3.org/2000/svg" xmlns:xlink="http://www.w3.org/1999/xlink" viewBox="0 0 1103.83 724.44"><defs><style>.cls-1,.cls-3,.cls-9{fill:#a7c5ac;}.cls-1,.cls-11,.cls-2,.cls-23{opacity:0.1;}.cls-1,.cls-11,.cls-13,.cls-16,.cls-23,.cls-6,.cls-7,.cls-8,.cls-9{isolation:isolate;}.cls-4{fill:#fff;}.cls-5{fill:#3f3d56;}.cls-6{fill:#fa5959;}.cls-6,.cls-7,.cls-8{opacity:0.8;}.cls-7{fill:#fed253;}.cls-8{fill:#8ccf4d;}.cls-13,.cls-9{opacity:0.2;}.cls-10{fill:none;stroke:#3f3d56;stroke-miterlimit:10;}.cls-12{fill:#a8a8a8;}.cls-14{fill:url(#linear-gradient);}.cls-15{fill:#65617d;}.cls-16{opacity:0.05;}.cls-17{fill:#6d5217;}.cls-18{fill:#e3e8f4;}.cls-19{fill:#ee8e9e;}.cls-20{fill:#e6e8ec;}.cls-21{fill:#565387;}.cls-22{fill:#a7c4ac;}.cls-23{fill:#010101;}</style><linearGradient id="linear-gradient" x1="891.79" y1="-80.77" x2="891.79" y2="187.17" gradientTransform="matrix(1, 0, 0, -1, -48.1, 613.9)" gradientUnits="userSpaceOnUse"><stop offset="0" stop-color="gray" stop-opacity="0.25"/><stop offset="0.54" stop-color="gray" stop-opacity="0.12"/><stop offset="1" stop-color="gray" stop-opacity="0.1"/></linearGradient></defs><title>pic3</title><ellipse class="cls-1" cx="838.59" cy="674.07" rx="192" ry="43"/><g class="cls-2"><path class="cls-3" d="M625,26.79C625,182.89,723,309.2,844,309.2" transform="translate(-4.8 9.27)"/></g><path class="cls-1" d="M632.25,74c-70.75.54-138.73-15.45-203.73-33.27S299.05,2.91,229.73-5.27c-44.62-5.27-95.4-4.44-130.47,16C65.51,30.39,55.52,62.62,50.59,92.36c-3.71,22.38-5.52,45.86,7.54,66.22,9,14.13,24.6,25.73,35.6,39.19C132,244.6,108.26,304.87,70.32,353.28c-17.79,22.71-38.6,44.5-52.1,68.48s-19.18,51.1-5.79,74.6c13.28,23.28,43.54,40,76.09,51.45,66.13,23.1,143.21,27.7,218.26,29.16,166.14,3.25,332.71-6.63,498.83-16.5,61.47-3.66,123.22-7.34,183.48-17.15,33.46-5.45,67.92-13.44,91.74-30.61,30.25-21.8,36.68-57.11,15-82.33-36.37-42.29-133-49.68-159-95.53-14.31-25.24-1.57-54.37,17-78.92,39.94-52.64,108.35-100,110-158.62,1.1-40.25-34-79.28-86.68-96.43-55.25-18-130.79-12.79-169.85,21.61C767.07,57.91,694.73,73.57,632.25,74Z" transform="translate(-4.8 9.27)"/><path class="cls-4" d="M946.9,31.19V549.6c0,15.42-14.88,28-33.24,28H210.24c-18.36,0-33.23-12.54-33.23-28V31.19C177,15.74,191.88,0,210.24,0L913.57,1.71C931.9,1.71,946.9,15.74,946.9,31.19Z" transform="translate(-4.8 9.27)"/><path class="cls-5" d="M946.9,31.35v24H177v-24A31.35,31.35,0,0,1,208.35,0H915.5a31.36,31.36,0,0,1,31.4,31.32Z" transform="translate(-4.8 9.27)"/><circle class="cls-6" cx="209.5" cy="36.94" r="11.08"/><circle class="cls-7" cx="246.53" cy="27.67" r="11.08" transform="translate(167.94 273.78) rotate(-79.1)"/><circle class="cls-8" cx="273.96" cy="36.94" r="11.08"/><rect class="cls-9" x="452.2" y="179.97" width="70.01" height="33.22" rx="8.57"/><rect class="cls-9" x="594.04" y="179.97" width="70.01" height="33.22" rx="8.57"/><polyline class="cls-10" points="487.01 212.44 557.09 303.95 629.28 212.01"/><rect class="cls-11" x="503.57" y="301.02" width="107.03" height="50.79" rx="8.57"/><rect class="cls-3" x="505.75" y="302.06" width="102.68" height="48.73" rx="8.57"/><line class="cls-10" x1="487.49" y1="179.97" x2="486.58" y2="147.62"/><polyline class="cls-10" points="670.42 149.2 629.28 179.97 586.01 149.2"/><rect class="cls-9" x="451.81" y="115.97" width="70.01" height="33.22" rx="8.57"/><rect class="cls-9" x="635.41" y="115.97" width="70.01" height="33.22" rx="8.57"/><rect class="cls-9" x="551.01" y="115.97" width="70.01" height="33.22" rx="8.57"/><line class="cls-10" x1="557.09" y1="350.78" x2="556.82" y2="439.28"/><path class="cls-10" d="M561.43,462.49Z" transform="translate(-4.8 9.27)"/><polyline class="cls-10" points="457.62 502.38 556.62 471.75 656.02 502.16"/><rect class="cls-9" x="521.82" y="439.28" width="70.01" height="33.22" rx="8.57"/><rect class="cls-9" x="827.37" y="239.9" width="33.22" height="70.01" rx="8.57"/><rect class="cls-9" x="827.37" y="349.53" width="33.22" height="70.01" rx="8.57"/><rect class="cls-9" x="621.02" y="501.93" width="70.01" height="33.22" rx="8.57"/><rect class="cls-9" x="422.62" y="501.94" width="70.01" height="33.22" rx="8.57"/><rect class="cls-9" x="523.56" y="501.94" width="70.01" height="33.22" rx="8.57"/><line class="cls-10" x1="796.2" y1="329.72" x2="827.36" y2="384.21"/><line class="cls-10" x1="730.31" y1="329.05" x2="763.02" y2="329.05"/><line class="cls-10" x1="608.43" y1="326.42" x2="697.71" y2="329.05"/><line class="cls-10" x1="827.36" y1="274.9" x2="796.35" y2="329.48"/><rect class="cls-9" x="697.71" y="293.84" width="33.22" height="70.01" rx="8.57"/><rect class="cls-9" x="762.98" y="294.71" width="33.22" height="70.01" rx="8.57"/><rect class="cls-9" x="253.59" y="239.89" width="33.22" height="70.01" rx="8.57"/><rect class="cls-9" x="253.59" y="349.53" width="33.22" height="70.01" rx="8.57"/><line class="cls-10" x1="317.98" y1="329.72" x2="286.81" y2="384.21"/><line class="cls-10" x1="383.86" y1="329.05" x2="351.16" y2="329.05"/><line class="cls-10" x1="505.75" y1="326.42" x2="416.47" y2="329.05"/><line class="cls-10" x1="286.81" y1="274.9" x2="317.82" y2="329.48"/><rect class="cls-9" x="383.25" y="293.85" width="33.22" height="70.01" rx="8.57"/><rect class="cls-9" x="317.98" y="294.71" width="33.22" height="70.01" rx="8.57"/><ellipse class="cls-1" cx="170.63" cy="616.46" rx="17.52" ry="2.96"/><path class="cls-12" d="M157.91,588.75s14.86-.42,19.32-3.34,22.84-6.42,24-1.73,22.3,23.33,5.55,23.45-39-2.4-43.43-4.89S157.91,588.75,157.91,588.75Z" transform="translate(-4.8 9.27)"/><path class="cls-13" d="M207.25,605.71c-16.14.09-37.51-1.75-41.82-3.59-3.28-1.39-4.58-6.39-5-8.7h-.48s.91,8.06,5.21,9.89S190.82,607,207,606.9c4.67,0,6.27-1.19,6.19-2.9C212.5,605.05,210.73,605.69,207.25,605.71Z" transform="translate(-4.8 9.27)"/><path class="cls-14" d="M956.22,648.79l-27.67-40.12s-.52-9.93-2.33-12.26-.39-7.48-.39-7.48,1.94-2.84.26-3.09-.26-6.58-.26-6.58l-.13-10.07s1.55-9.67.26-12a3.82,3.82,0,0,1,.13-4.13s1.55-5.55,0-7-1.17-10.06-.78-16.89-2.71-10.71-2.71-11.74-10.22-11.1-10.22-12-6.46-4.64-10.34-5.68-5.82-1.8-5.69-2.32-6.08-2.58-6.08-2.58-5.43-.38-7.5-3.09-8.4-3.5-8.57-3.52a3.49,3.49,0,0,0-.12-.54l-.12-.58c.49-.82.94-1.66,1.35-2.53l.36-.79a11,11,0,0,0,6.36-2,8.72,8.72,0,0,0,3.1-6.19,13.56,13.56,0,0,0-1.51-6.87c-1.14-2.33-2.8-4.73-2.23-7.25.25-1.09.9-2,1.24-3.11a8.17,8.17,0,0,0-.93-6.11c-1-1.87-2.34-3.52-3.43-5.34a20.73,20.73,0,0,1-2.73-7.54,11.7,11.7,0,0,0-1-4.11,7.51,7.51,0,0,0-2.27-2.29,22.67,22.67,0,0,0-13.9-4.21c-3.52.12-7,1.07-10.52.64a39.45,39.45,0,0,1-6.15-1.61c-4.33-1.28-9.34-1.81-13.11.67s-5.28,7.36-7.84,11.18c-2.27,3.38-5.58,6.21-7.3,9.79a.33.33,0,0,1,0-.21,12.13,12.13,0,0,0-1,2.61c-.66,2.81-.11,5.75.57,8.55.36,1.45.84,3,2.09,3.82s3,.63,4.52.89c-.06.25-.12.49-.17.74A29.5,29.5,0,0,0,840,500.3v.78a19.73,19.73,0,0,1-.14,2.22h0s-13-2.67-16.49-.87S813,505.66,812,506.69s-3.62.26-6,6.32-2.58,12.26-5.56,15.09-4.52,4.78-4.65,6.84.38,2.58-.78,3.23-2.84,3.35-2.33,4.38c0,0,.65,2.58-1.42,3.87a4.31,4.31,0,0,0-1.81,3.87s-.78,2.84-2.59,3.48-3,4.91-3,4.91l-5.86,6.74-11.63-12.86a4.9,4.9,0,0,0-6.91-.35l-5.61,5.2a11.27,11.27,0,0,0-5.71,3.4,15.2,15.2,0,0,0-3,4.4L742.07,568a4.79,4.79,0,0,0-1.61,3.44,4.85,4.85,0,0,0,.81,5.32l7.44,8.24v.07a13,13,0,0,0-7.2,2.93c-11.12,9.8-11.25,18.83-9.57,23s15.77,20,15.77,20,8.19,10.65,20,16.31h0l-.08.09c-.24.25-.47.52-.7.81l-.19.25-.18.25-.21.31-.16.25-.23.37a2,2,0,0,1-.14.25c-.09.16-.18.33-.26.5l-.09.17c-.11.22-.21.46-.32.7a1.16,1.16,0,0,0-.1.26c0,.08-.14.34-.2.52l-.12.33c-.06.16-.11.33-.17.5s-.07.24-.11.37l-.15.56-.09.35c-.08.3-.14.61-.21.93l-.06.37a5.67,5.67,0,0,1-.11.66c0,.23-.05.31-.07.47a2.66,2.66,0,0,1-.08.64c-.08.22,0,.33,0,.49a3.63,3.63,0,0,0,0,.74v.45a10.7,10.7,0,0,1,0,1.25c-.26,15.09.62,17.28.62,17.28s1.83,4.81,6.87,5.15a9.09,9.09,0,0,0,2.21-.12c6.72-1.16,22.5-3.87,28.06-2.83,3.34.62,9.53-.3,13.93-1.13l1.17-.23.8,2.57,2.56-.7,2.17,1.25,1.37.79c2.55,8.65,12.91,5.7,12.91,5.7l2.46,1.42,25,.64a50.62,50.62,0,0,0,8.84,4.25,9,9,0,0,0,1.25.27,57.55,57.55,0,0,0,7,.13c1.92,0,3.4-.13,3.4-.13s-.26-6.77-.62-14.36c9.53-.4,18-1,23.11-1.89,13.26-2.34,18.81-14.5,20.86-21a60.07,60.07,0,0,1,1.3,8,59.11,59.11,0,0,0,2.07,7,23.61,23.61,0,0,0,2.85,5.16c9.83-3.35,3.88-8.38,1.81-10.57s1.42-4,1.42-4,2.72-1.81,2.46-3.49-.39-3.48,8.4-3.35S956.22,648.79,956.22,648.79ZM819.68,566.42c.11.74,1.34,8.68,2.45,10.77a14.11,14.11,0,0,1,.29,4.25c-5.21-.41-10.64-.64-10.64-.64a1.18,1.18,0,0,1,.28.67l-.82-.19c-.38-.09-.78-.18-1.19-.29l9.6-14.59Zm-19,30.25,9,1.43.76.12a30.5,30.5,0,0,0-.47,4.26c0,.13.2.29.49.48a11.7,11.7,0,0,0-.17,2.13c.14.72,4.36,2.26,9.2,3.54-.07.26-.14.5-.2.74h0c-4.27-2.25-11-3.3-11.78-5s-23.61-9.63-23.61-9.63-.84-.45-2.28-1.14l6,1.14,1.66-.17a89.69,89.69,0,0,0,11.38,2.1Z" transform="translate(-4.8 9.27)"/><path class="cls-15" d="M926.79,654.4S923.2,676.05,905,679.26s-78.94,2.56-78.94,2.56-34.73-5-47.29-34.34-20.63-41-9.87-41.53,68.82,19.61,72.15,19.87S930,581.22,926.79,654.4Z" transform="translate(-4.8 9.27)"/><path class="cls-16" d="M926.79,654.4S923.2,676.05,905,679.26s-78.94,2.56-78.94,2.56-34.73-5-47.29-34.34-20.63-41-9.87-41.53,68.82,19.61,72.15,19.87S930,581.22,926.79,654.4Z" transform="translate(-4.8 9.27)"/><path class="cls-5" d="M763.9,678.49s1.81,4.77,6.8,5.12a8.93,8.93,0,0,0,2.19-.12c6.67-1.16,22.3-3.85,27.81-2.82,3.32.61,9.45-.3,13.82-1.12,2.9-.55,5-1.06,5-1.06s-5.12-17-5.77-17.56-23.06-14-23.06-14l-17.79-1.24h0a9.38,9.38,0,0,0-6,3.54c-1.87,2.27-3.48,6-3.59,12.1C763,676.31,763.9,678.49,763.9,678.49Z" transform="translate(-4.8 9.27)"/><path class="cls-16" d="M763.9,678.49s1.81,4.77,6.8,5.12a74.27,74.27,0,0,1-4.82-7l.09-12.43a21.89,21.89,0,0,1,7-18.45h-.07s-9.35.64-9.61,15.64S763.9,678.49,763.9,678.49Z" transform="translate(-4.8 9.27)"/><path class="cls-11" d="M840.9,651.32l16.53-12.94,26-25.63s-2.81-.14-7-.32c-1,.67-4,2.78-4.12,5.35-.12,3.14-7,.22-10.62,2s-21.1,24.28-24.18,24.12-5.51-1.56-6.79.62l-.09.14Z" transform="translate(-4.8 9.27)"/><path class="cls-11" d="M766.9,649.22c.59.28,1.19.56,1.79.82,12.56,5.38,28.07,16.66,29.22,18.71.71,1.25,9.7,6.71,16.64,10.8,2.9-.55,5-1.06,5-1.06s-5.12-17-5.77-17.56-23.06-14-23.06-14l-17.82-1.24h0A9.37,9.37,0,0,0,766.9,649.22Z" transform="translate(-4.8 9.27)"/><path class="cls-15" d="M732,612.49c1.67,4.1,15.64,19.86,15.64,19.86s8.84,11.54,21.4,16.92,28.06,16.66,29.22,18.71c.74,1.32,10.75,7.35,17.8,11.49l1.58.92,3.5,2,1.85,1.07s4.29-3.45,8.57-6.92,8.41-6.86,8.48-7c.12-.38,1.79-4.74,1.4-5-.2-.13-1.08-1.91-2.69-4a18.17,18.17,0,0,0-6.53-5.4c-5.9-2.69-8.46-8.82-8.46-8.82s-.56-.4-1.41-.94a17,17,0,0,0-5.77-2.57c-2.82-.35-8.07-6.12-8.07-6.12s-3.59-2.31-5-5.25S782.28,615,780.44,613.71l48.18,30.95,11.53,7.41,16.54-12.94,26-25.63s-3.5-.17-8.58-.39c-12.65-.55-35.1-1.41-37.94-.77a21.4,21.4,0,0,1-7,.46s-6.4.29-10.63-1.94-10.9-3.28-11.67-4.93-23.45-9.61-23.45-9.61-30.88-16.4-41.91-6.66S730.33,608.39,732,612.49Z" transform="translate(-4.8 9.27)"/><path class="cls-17" d="M831.57,518.43l4,13.19,5.13,29.74,18.83,1.28,5.46-9,5.44-9s3.39-12,5.83-23.64c2.15-10.28,3.56-20.26,1.22-21.34-2.08-1-3.45-4.43-4.34-8.15-.11-.46-.22-.93-.31-1.39a75.1,75.1,0,0,1-1.25-9.56s-39.47-2.05-34,14.23a25.75,25.75,0,0,1,1.49,8.65c0,.74-.06,1.47-.14,2.2A18.44,18.44,0,0,1,831.57,518.43Z" transform="translate(-4.8 9.27)"/><path class="cls-18" d="M823.36,516.25l1.42,22.42,3.2,19.1,3.59,8.84,3.2,48.38s30.9,3.57,38.42-.06a3.32,3.32,0,0,0,1.36-1.07c9.07-13.7,6.1-53.4,6.1-53.4l3.46-25.63-2.31-13.3-5.57-.6-4.29-.45s-1,1.19-2.37,3c-3.8,5-10.79,14.88-10.32,19,.64,5.64-.77,11.4-3,12.3s-4,2.44-4.35.9-.77-1.92-.39-4.1-1.67-8.85-1.67-8.85-3.46-7.81-3.2-11.15-.38-7.17-1.41-8.07-2.43-1.79-1.28-5.89-5.05-12.05-5.05-12.05Z" transform="translate(-4.8 9.27)"/><path class="cls-11" d="M864.18,572.26l1.29,38.32,7.4,4.1a3.38,3.38,0,0,0,1.36-1.06c9.07-13.71,6.1-53.41,6.1-53.41l3.46-25.63-2.31-13.3-5.57-.6c2.15-10.28,3.56-20.26,1.22-21.34-2.08-1-3.45-4.43-4.34-8.15h0l-4,27.11s.33,2.45.45,5a14.43,14.43,0,0,1-.32,4.77c-.9,2.31-.26,6.41-.26,6.41-2.31,4.07-3.47,11.61-4,18.89C863.9,563,864.18,572.26,864.18,572.26Z" transform="translate(-4.8 9.27)"/><path class="cls-5" d="M872.9,490.58s6.46.8,8.51,3.5,7.43,3.07,7.43,3.07,6.15,2,6,2.56,1.79,1.29,5.63,2.31,10.26,4.74,10.26,5.64,10.17,10.89,10.17,11.92,3.08,4.87,2.69,11.66-.77,15.38.77,16.79,0,6.92,0,6.92a3.76,3.76,0,0,0-.13,4.1C925.51,561.36,924,571,924,571l.12,10s-1.41,6.28.26,6.54-.26,3.08-.26,3.08-1.41,5.12.39,7.43,2.31,12.17,2.31,12.17l27.42,39.86s.39,7.3-8.33,7.18-8.59,1.66-8.33,3.33-2.43,3.46-2.43,3.46-3.46,1.79-1.41,4,7.94,7.18-1.8,10.51a23.52,23.52,0,0,1-2.82-5.13,57.24,57.24,0,0,1-2.05-6.92s-.9-9.74-2.69-11-1.54-7.43-1.54-7.43,2.57-5-1-7-55.62-30.89-55.62-30.89l-1.3-38.37s-.9-28.32,4.48-37.81c0,0-.64-4.1.26-6.41s-.13-9.74-.13-9.74Z" transform="translate(-4.8 9.27)"/><path class="cls-11" d="M839.33,506s-12.89-2.66-16.35-.86-10.25,3.2-11.28,4.23-3.58.25-5.89,6.28-2.56,12.17-5.51,15-4.49,4.74-4.62,6.79.39,2.56-.76,3.21-2.82,3.33-2.31,4.35,26.65,23.58,26.65,23.58,1.29,8.59,2.44,10.77-1.28,32.16-3.84,34.22,17.3,1.86,17.3,1.86.89-19.68,1.66-20.7-.51-22-.51-22-.13-17.94,1.54-22.68,1.48-20.5,1.48-20.5,1.47-9.46,3.26-11.67S839.33,506,839.33,506Z" transform="translate(-4.8 9.27)"/><path class="cls-5" d="M838.9,505.57s-12.88-2.65-16.34-.86-10.22,3.19-11.24,4.19-3.59.26-5.9,6.28-2.56,12.18-5.51,15-4.48,4.74-4.61,6.79.38,2.56-.77,3.2-2.82,3.33-2.31,4.36,26.68,23.62,26.68,23.62,1.28,8.58,2.44,10.76-1.29,32.17-3.85,34.22,17.3,1.86,17.3,1.86.9-19.67,1.67-20.7-.52-22-.52-22-.12-17.94,1.54-22.68,1.42-20.55,1.42-20.55,1.47-9.46,3.26-11.66S838.9,505.57,838.9,505.57Z" transform="translate(-4.8 9.27)"/><path class="cls-11" d="M837.59,494.72a25.75,25.75,0,0,1,1.49,8.65,29.36,29.36,0,0,0,33.72-13.32,75.1,75.1,0,0,1-1.25-9.56S832.08,478.44,837.59,494.72Z" transform="translate(-4.8 9.27)"/><path class="cls-17" d="M818.11,474.47a29.35,29.35,0,1,0,.64-6.1A29.35,29.35,0,0,0,818.11,474.47Z" transform="translate(-4.8 9.27)"/><path class="cls-5" d="M799.27,542.39l-7,2.18s.65,2.56-1.41,3.84a4.31,4.31,0,0,0-1.79,3.85s-.77,2.82-2.56,3.46-3,4.87-3,4.87l-5.9,6.79s-2.17,1.79-1.79,2.69-2.31,1.15-2.31,1.15L774.9,594l12.18,2.3,7.56-.77,6.15-2.3,5.38-3.21,2.44-6.28,10.76-16.4Z" transform="translate(-4.8 9.27)"/><path class="cls-19" d="M775.31,573s-15.64-22.56-27.3-10.38,4.74,31.91,8.59,31.27,22.17-1.67,22.17-1.67Z" transform="translate(-4.8 9.27)"/><rect class="cls-5" x="731.38" y="533.05" width="63.54" height="81.83" rx="1.54" transform="translate(-99.81 1002.02) rotate(-62.96)"/><rect class="cls-3" x="737.33" y="539.48" width="51.83" height="68.78" transform="translate(-99.68 1002.07) rotate(-62.96)"/><circle class="cls-20" cx="725.5" cy="566.27" r="1.13"/><circle class="cls-20" cx="791.81" cy="600.24" r="1.86"/><path class="cls-17" d="M765.18,577.76c-.12,16.92,34.86,20.5,34.86,20.5l8.94,1.42,4,.64,1.67-16.54s-1.83-.27-4.12-.8c-3.39-.79-7.78-2.16-8.7-4.07C800.3,575.71,765.31,560.84,765.18,577.76Z" transform="translate(-4.8 9.27)"/><path class="cls-11" d="M818.75,468.37a3.43,3.43,0,0,1,2.15,1c1,1.05,1,2.91,2.33,3.55a2.59,2.59,0,0,0,1.53.18c3.41-.48,5.38-4.33,8.65-5.39a8.7,8.7,0,0,1,5.73.5,4.17,4.17,0,0,1,1.9,1.21c1.1,1.42.33,3.51.84,5.22.7,2.38,3.54,3.33,6,3.64s5.23.48,6.88,2.34a6.28,6.28,0,0,1,1.22,5,4,4,0,0,0,0,1.83c.68,1.93,4,1.64,4.87.12.64-1.1.45-2,1.94-2.32a6.26,6.26,0,0,1,3.14.54A23.27,23.27,0,0,0,874,487a29.35,29.35,0,0,0-53.12-25,29.66,29.66,0,0,0-2.15,6.41Z" transform="translate(-4.8 9.27)"/><path class="cls-5" d="M856,486.61a4.08,4.08,0,0,1,0-1.84,6.28,6.28,0,0,0-1.22-5c-1.65-1.86-4.42-2-6.88-2.34s-5.3-1.26-6-3.64c-.51-1.71.26-3.8-.84-5.21a4.19,4.19,0,0,0-1.9-1.22,8.7,8.7,0,0,0-5.73-.5c-3.27,1.06-5.24,4.91-8.65,5.39a2.59,2.59,0,0,1-1.53-.18c-1.29-.64-1.34-2.5-2.33-3.55-1.56-1.65-4.51-.58-6.42-1.81-1.24-.8-1.72-2.36-2.07-3.79-.67-2.79-1.22-5.71-.56-8.5,1.11-4.77,5.37-8,8.09-12.11,2.54-3.79,4-8.59,7.77-11.11s8.7-1.94,13-.66a37.61,37.61,0,0,0,6.09,1.59c3.46.43,6.94-.51,10.43-.63A22.48,22.48,0,0,1,871,435.68a7.64,7.64,0,0,1,2.25,2.28,11.54,11.54,0,0,1,1,4.08,20.75,20.75,0,0,0,2.71,7.5c1.07,1.8,2.43,3.43,3.4,5.3a8.21,8.21,0,0,1,.92,6.07c-.33,1-1,2-1.23,3.09-.57,2.5,1.08,4.89,2.21,7.2a13.51,13.51,0,0,1,1.5,6.83,8.61,8.61,0,0,1-3.08,6.14,11.07,11.07,0,0,1-6.49,2,22.83,22.83,0,0,1-8.27-1.27,6.26,6.26,0,0,0-3.14-.54c-1.49.3-1.3,1.22-1.94,2.32C860,488.24,856.64,488.53,856,486.61Z" transform="translate(-4.8 9.27)"/><path class="cls-11" d="M840.15,652.09l16.54-12.94,26-25.63s-3.5-.17-8.58-.39a5.6,5.6,0,0,0-1.82,3.5c-.12,3.13-7,.22-10.62,2s-21.13,24.27-24.21,24.13-5.51-1.56-6.79.62l-.09.14a3.68,3.68,0,0,1-2,1.16Z" transform="translate(-4.8 9.27)"/><path class="cls-15" d="M806.83,651.19l8.31,26.52,1.3,4.16,4-1.08,8.72-2.4L868,667.72A33.55,33.55,0,0,0,882,664a42.43,42.43,0,0,1,24.14-5.26c5.13.48,10.84-1.73,15.58-10.49,0,0,10.76-31.78-16.41-40.88s-28.46,4.84-28.46,4.84l-.37.23c-1,.67-4,2.78-4.12,5.35-.12,3.14-7,.22-10.62,2s-21.2,24.28-24.28,24.12-5.51-1.56-6.79.62l-.09.14c-1,1.31-3.81,1.61-5.69,1.67h-1.78l-.24.07-2,.59Z" transform="translate(-4.8 9.27)"/><path class="cls-11" d="M809,599.68l4,.64,1.67-16.54s-1.83-.27-4.12-.8C811.13,585.28,809.76,594.2,809,599.68Z" transform="translate(-4.8 9.27)"/><path class="cls-11" d="M913.77,522.43s11.92-3.46,9,30.38-25,55.23-25,55.23S872.4,619.19,861,617.4a198,198,0,0,0-19.73-2.18,28.85,28.85,0,0,0-11.54-3.08c-6.4-.25-19.86-4.23-20.12-5.51s3.34-20.12,1.8-21.53c0,0,17.94.74,19.73,2s4.36.37,6.28,0,7.82-5.49,19.48-1c0,0,4,.38,5.51-.64s4-.26,4-.26a11.61,11.61,0,0,0,2.79-1.41c.38-.51,3.46,0,3.46,0a1.36,1.36,0,0,0,1.82-.62,1.33,1.33,0,0,0,.1-.28,8.36,8.36,0,0,1,1.79-2.82s3.46-19.48,10-26.78c0,0,1.92-1.67,1.41-3.72S898.39,518.33,913.77,522.43Z" transform="translate(-4.8 9.27)"/><path class="cls-5" d="M913.46,519.83s11.92-3.46,9,30.38-25,55.23-25,55.23-25.38,11.15-36.78,9.36-19.78-2.18-19.78-2.18a29.13,29.13,0,0,0-11.53-3.08c-6.41-.25-19.86-4.23-20.12-5.51s3.33-20.12,1.79-21.53c0,0,17.94.74,19.74,2s4.36.36,6.28,0,7.82-5.5,19.48-1c0,0,4,.38,5.51-.64s4-.26,4-.26a11.2,11.2,0,0,0,2.78-1.41c.38-.51,3.46,0,3.46,0a1.36,1.36,0,0,0,1.82-.62,1.33,1.33,0,0,0,.1-.28,8.54,8.54,0,0,1,1.8-2.82s3.46-19.48,10-26.78c0,0,1.93-1.67,1.41-3.72S898.08,515.73,913.46,519.83Z" transform="translate(-4.8 9.27)"/><path class="cls-11" d="M820.9,647l16.92,20.48c.07-.06.11-.1.11-.12.13-.38,1.79-4.74,1.41-5s-3.33-6.67-9.23-9.36a17.6,17.6,0,0,1-7.24-6.6Z" transform="translate(-4.8 9.27)"/><path class="cls-11" d="M821.13,682.42l1.85,1.07s4.29-3.45,8.57-6.92,8.41-6.86,8.48-7c.12-.38,1.79-4.74,1.4-5-.2-.13-1.08-1.91-2.69-4-11.48-3.22-4.17,4.75-3.2,5.11,0,0-14-3.2-14.74,12A18,18,0,0,0,821.13,682.42Z" transform="translate(-4.8 9.27)"/><path class="cls-5" d="M835.28,688.9l2.44,1.41,24.73.64a50.76,50.76,0,0,0,8.76,4.21,7.42,7.42,0,0,0,1.24.28,58.65,58.65,0,0,0,6.89.13c1.9,0,3.36-.13,3.36-.13s-1.17-31.2-2-34.48c-.42-1.57-2.5-1.22-4.54-.44a29.21,29.21,0,0,0-4.43,2.24s-10.51,1-12.18,1.93-6.4-.52-9.35,0-8.2-3.47-8.2-3.47c-14.36-4.74-6.28,4.1-5.26,4.48,0,0-14-3.2-14.73,12S835.28,688.9,835.28,688.9Z" transform="translate(-4.8 9.27)"/><path class="cls-21" d="M871,676.82c.27,6.46,5.3,14.48,8.3,18.72,1.9,0,3.36-.13,3.36-.13s-1.17-31.2-2-34.48c-.42-1.57-2.5-1.22-4.54-.44C873.63,665.14,870.82,671.62,871,676.82Z" transform="translate(-4.8 9.27)"/><path class="cls-11" d="M871,676.82c.27,6.46,5.3,14.48,8.3,18.72,1.9,0,3.36-.13,3.36-.13s-1.17-31.2-2-34.48c-.42-1.57-2.5-1.22-4.54-.44C873.63,665.14,870.82,671.62,871,676.82Z" transform="translate(-4.8 9.27)"/><path class="cls-16" d="M866.81,677.68c1.7,6.23,1.68,13.22,4.4,17.45a7.42,7.42,0,0,0,1.24.28,58.65,58.65,0,0,0,6.89.13c1.9,0,3.36-.13,3.36-.13s-1.17-31.2-2-34.48c-.42-1.57-2.5-1.22-4.54-.44a29.21,29.21,0,0,0-4.43,2.24S864.63,669.7,866.81,677.68Z" transform="translate(-4.8 9.27)"/><path class="cls-11" d="M781.48,614.45s12.29,4,22.7,18.16Z" transform="translate(-4.8 9.27)"/><g class="cls-2"><path d="M881.31,460.67a.41.41,0,0,1-.07.28,10.86,10.86,0,0,1-.43,1.07A8.1,8.1,0,0,1,881.31,460.67Z" transform="translate(-4.8 9.27)"/><path d="M811.8,454.46a12,12,0,0,1,1-2.59c-.07.22-.13.44-.19.67-.65,2.79-.11,5.71.57,8.49.35,1.44.83,3,2.07,3.8,1.91,1.22,4.86.16,6.42,1.81,1,1,1,2.91,2.33,3.55a2.59,2.59,0,0,0,1.53.18c3.4-.48,5.38-4.33,8.65-5.39a8.7,8.7,0,0,1,5.73.5,4.19,4.19,0,0,1,1.9,1.22c1.09,1.41.33,3.5.83,5.21.71,2.38,3.55,3.32,6,3.64s5.23.48,6.88,2.34a6.28,6.28,0,0,1,1.22,5,3.78,3.78,0,0,0,0,1.83c.68,1.92,4,1.64,4.87.12.64-1.1.44-2,1.94-2.33a6.5,6.5,0,0,1,3.14.55A23.3,23.3,0,0,0,875,484.3a11.07,11.07,0,0,0,6.49-2,7.54,7.54,0,0,0,2-2.42,8.19,8.19,0,0,1-2.77,4.34,11.07,11.07,0,0,1-6.49,2,23,23,0,0,1-8.3-1.32,6.26,6.26,0,0,0-3.14-.54c-1.49.3-1.3,1.22-1.94,2.32-.87,1.52-4.19,1.81-4.87-.11a4.08,4.08,0,0,1,0-1.84,6.28,6.28,0,0,0-1.22-5c-1.65-1.86-4.42-2-6.88-2.34s-5.3-1.26-6-3.64c-.51-1.71.26-3.8-.84-5.21a4.27,4.27,0,0,0-1.9-1.22,8.7,8.7,0,0,0-5.73-.5c-3.27,1.06-5.25,4.91-8.65,5.39a2.59,2.59,0,0,1-1.53-.18c-1.29-.64-1.34-2.5-2.33-3.55-1.56-1.65-4.51-.58-6.42-1.81-1.24-.8-1.72-2.36-2.07-3.79A17.94,17.94,0,0,1,811.8,454.46Z" transform="translate(-4.8 9.27)"/></g><path class="cls-11" d="M883.3,557c-2.35,3.17-5,6.1-7.11,9.45s-3.54,7.27-3.11,11.19c2.15-2.2,3.13-5.25,4.49-8,2.29-4.68,5.72-8.65,8.62-13,.55-.82,4.09-5.57,2.3-5.8C887,550.7,884.1,556,883.3,557Z" transform="translate(-4.8 9.27)"/><path class="cls-22" d="M255.36,537.12s2.13,45.69-52.79,51.07l-3.41-5.11S252,551.36,255.36,537.12Z" transform="translate(-4.8 9.27)"/><path class="cls-23" d="M255.36,537.12s2.13,45.69-52.79,51.07l-3.41-5.11S252,551.36,255.36,537.12Z" transform="translate(-4.8 9.27)"/><path class="cls-22" d="M255.36,537.12s7.23,45.69-47.68,51.07l-3.39-5.11S252,551.36,255.36,537.12Z" transform="translate(-4.8 9.27)"/><ellipse class="cls-1" cx="240.58" cy="714.31" rx="65.98" ry="10.13"/><path class="cls-22" d="M119.16,537.44s-12.33,45.7,42.58,51.07l3.39-5.11S122.5,551.66,119.16,537.44Z" transform="translate(-4.8 9.27)"/><path class="cls-22" d="M181,581.58l-12.55,2.68-1.26.3s-35.81-20.24-39.35-69.32a128,128,0,0,0,17.74,19.62C160.37,548.49,177.25,566.66,181,581.58Z" transform="translate(-4.8 9.27)"/><path class="cls-22" d="M182.79,587.6a9.81,9.81,0,0,1-6.86.72c-32.79-6.1-21.71-91.23-21.71-91.23,1.82.7,3.81,11.51,11.34,25.49C178.65,547.14,193.19,581.44,182.79,587.6Z" transform="translate(-4.8 9.27)"/><path class="cls-22" d="M239.64,514.06c.4,49.26-43.84,71.2-43.84,71.2l-1.29-.22-12.77-2.12c2.53-15.11,17.9-34.11,31.39-48.38A130.69,130.69,0,0,1,239.64,514.06Z" transform="translate(-4.8 9.27)"/><path class="cls-22" d="M194.32,583.14A20,20,0,0,1,187,587.6h0a14.62,14.62,0,0,1-2.69.72c-8.06,1.51-10.89-3.14-10.4-11,.75-14,11.8-38.36,21.74-56.45,7.15-13.09,18.82-23,20.59-23.68C216.23,497.09,215.74,563.38,194.32,583.14Z" transform="translate(-4.8 9.27)"/><path class="cls-22" d="M185.15,483.65s-36.61,89.35-5.1,102.82S193.24,491.58,185.15,483.65Z" transform="translate(-4.8 9.27)"/><path class="cls-23" d="M119.32,537.44s-13.92,45.81,48,51.19l3.82-5.11S123.07,551.69,119.32,537.44Z" transform="translate(-4.8 9.27)"/><path class="cls-23" d="M181,581.6l-12.55,2.69-1.29.27s-35.73-20.27-39.22-69.35a127.85,127.85,0,0,0,17.71,19.62C160.4,548.49,177.22,566.68,181,581.6Z" transform="translate(-4.8 9.27)"/><path class="cls-23" d="M182.79,587.6a9.81,9.81,0,0,1-6.86.72c-32.79-6.1-21.71-91.23-21.71-91.23,1.82.7,3.81,11.51,11.34,25.49C178.65,547.14,193.19,581.44,182.79,587.6Z" transform="translate(-4.8 9.27)"/><path class="cls-23" d="M239.64,514.06c.4,49.26-43.84,71.2-43.84,71.2l-1.29-.22-12.77-2.12c2.53-15.11,17.9-34.11,31.39-48.38A130.69,130.69,0,0,1,239.64,514.06Z" transform="translate(-4.8 9.27)"/><path class="cls-23" d="M194.32,583.14A20,20,0,0,1,187,587.6h0a14.62,14.62,0,0,1-2.69.72c-8.06,1.51-10.89-3.14-10.4-11,.75-14,11.8-38.36,21.74-56.45,7.15-13.09,18.82-23,20.59-23.68C216.23,497.09,215.74,563.38,194.32,583.14Z" transform="translate(-4.8 9.27)"/><path class="cls-23" d="M185.15,482.36s-36.61,90.45-5.1,104.11S193.24,490.37,185.15,482.36Z" transform="translate(-4.8 9.27)"/><path class="cls-22" d="M122.79,537.44s-7.23,45.7,47.69,51.07l3.39-5.11S126.15,551.69,122.79,537.44Z" transform="translate(-4.8 9.27)"/><path class="cls-22" d="M186.26,581.39l-12.56,2.82-1.26.27s-41-19.84-44.73-68.92c0,0,10.75,8.06,23.2,19.27C165.48,548.33,182.41,566.42,186.26,581.39Z" transform="translate(-4.8 9.27)"/><path class="cls-23" d="M183.46,582.89,170.69,585c-12.12-8.55-16.91-30.54-18.65-50.48C165.56,548.78,180.91,567.79,183.46,582.89Z" transform="translate(-4.8 9.27)"/><path class="cls-22" d="M187.76,587.6a9.79,9.79,0,0,1-6.85.72c-32.8-6.1-26.88-91.23-26.88-91.23,1.82.7,8.92,11.51,16.45,25.49C183.76,547.14,198.3,581.44,187.76,587.6Z" transform="translate(-4.8 9.27)"/><path class="cls-22" d="M239.64,514.06a83.12,83.12,0,0,1-38.74,71.17l-1.29-.21-12.76-2.13c2.52-15.1,17.9-34.11,31.39-48.38C229.61,522.63,239.64,514.06,239.64,514.06Z" transform="translate(-4.8 9.27)"/><path class="cls-23" d="M218.24,534.62c-1.64,18.57-5.91,39-16.26,48.6a19.72,19.72,0,0,1-2.37,1.9L186.85,583C189.37,567.79,204.75,548.78,218.24,534.62Z" transform="translate(-4.8 9.27)"/><path class="cls-22" d="M199.43,583.14a19.93,19.93,0,0,1-7.32,4.46h0a14.74,14.74,0,0,1-2.68.72c-8.07,1.51-10.89-3.14-10.41-11,.76-14,11.8-38.36,21.75-56.45,7.15-13.09,13.74-23,15.48-23.68C216.23,497.09,220.85,563.38,199.43,583.14Z" transform="translate(-4.8 9.27)"/><path class="cls-23" d="M187.76,587.6a10.71,10.71,0,0,1-5.16-1.32c-15.43-7.66-15.75-36.39-12.07-63.7C183.76,547.14,198.3,581.44,187.76,587.6Z" transform="translate(-4.8 9.27)"/><path class="cls-23" d="M199.43,583.14a7.58,7.58,0,0,1-7.32,4.46h0a11.66,11.66,0,0,1-4.38-1.32,19.9,19.9,0,0,1-8.71-8.95c.76-14,11.8-38.36,21.75-56.45C204.29,546,205.47,572.79,199.43,583.14Z" transform="translate(-4.8 9.27)"/><path class="cls-22" d="M185.15,483.65s-31.5,89.35,0,102.82S193.24,491.58,185.15,483.65Z" transform="translate(-4.8 9.27)"/></svg>