<svg id="ad7c1fe1-eb22-473c-bc85-8b4fe073a50d" xmlns="http://www.w3.org/2000/svg" xmlns:xlink="http://www.w3.org/1999/xlink" viewBox="0 0 1094.72 788.66"><defs><style>.cls-1,.cls-23{fill:#a7c5ac;}.cls-1{opacity:0.23;}.cls-1,.cls-13,.cls-20,.cls-22,.cls-23,.cls-25,.cls-4,.cls-9{isolation:isolate;}.cls-2{opacity:0.5;}.cls-3{fill:#d0d2d5;}.cls-13,.cls-20,.cls-21,.cls-22,.cls-23,.cls-4,.cls-9{opacity:0.1;}.cls-5{fill:#3f3d56;}.cls-6{fill:url(#linear-gradient);}.cls-7{fill:#fbbebe;}.cls-8{fill:#ffe29a;}.cls-9{fill:#3e0a00;}.cls-10{fill:#f86d70;}.cls-11{fill:#ffe17b;}.cls-12{fill:#434175;}.cls-13,.cls-16,.cls-25{fill:#a7c4ac;}.cls-14{fill:none;stroke:#3f3d56;stroke-miterlimit:10;stroke-width:12px;}.cls-15{fill:#2f2e41;}.cls-17{fill:#c95643;}.cls-18{fill:url(#linear-gradient-2);}.cls-19,.cls-20{fill:#9cc;}.cls-22{fill:#010101;}.cls-24{fill:#f2f2f2;}.cls-25{opacity:0.3;}.cls-26{fill:#e6e6e6;}</style><linearGradient id="linear-gradient" x1="2864.54" y1="683.89" x2="2864.54" y2="991.22" gradientTransform="matrix(0.51, 0.86, 0.86, -0.51, -1500.94, -1905.91)" gradientUnits="userSpaceOnUse"><stop offset="0" stop-color="gray" stop-opacity="0.25"/><stop offset="0.54" stop-color="gray" stop-opacity="0.12"/><stop offset="1" stop-color="gray" stop-opacity="0.1"/></linearGradient><linearGradient id="linear-gradient-2" x1="1093.88" y1="-27.04" x2="1093.88" y2="301.35" gradientTransform="matrix(-1, -0.04, 0.04, -1, 1995.48, 756.6)" xlink:href="#linear-gradient"/></defs><title>undraw_monitor_iqpq</title><path class="cls-1" d="M648.89,103.21C589.54,101.33,533,83.74,479,64.5S371.56,23.92,313.62,13.75C276.35,7.19,233.74,6.29,203.71,24.6,174.83,42.24,165.49,72.7,160.47,101c-3.78,21.26-6,43.64,4.35,63.55,7.18,13.81,19.94,25.43,28.76,38.66,30.7,46.06,9,102.86-24.27,147.83-15.6,21.07-33.7,41.22-45.74,63.68s-17.6,48.19-7.07,71.09c10.44,22.71,35.32,39.76,62.28,51.76C233.52,561.9,298,568.87,361,572.82c139.21,8.77,279.17,4.95,418.82,1.17,51.67-1.41,103.52-2.82,154.39-10.16,28.23-4.08,57.37-10.54,77.85-26.14,26-19.8,32.46-53.34,15-78.17-29.23-41.66-110.08-52-130.52-96.7-11.27-24.62.33-52,16.67-74.84,35.06-49,93.84-91.93,96.94-147.86C1012.28,101.68,984,63.19,940.33,45,894.53,26,831,28.34,797.23,59.91,762.44,92.38,701.31,104.89,648.89,103.21Z" transform="translate(0 -0.03)"/><g class="cls-2"><rect class="cls-3" x="960.72" y="367.66" width="134" height="134" rx="14.12"/><path class="cls-4" d="M1008.72,406.2h38s32,28,0,57h-38S976.72,437.2,1008.72,406.2Z" transform="translate(0 -0.03)"/><rect class="cls-5" x="1012.72" y="422.16" width="5" height="15"/><rect class="cls-5" x="1037.72" y="420.16" width="5" height="18"/><path class="cls-5" d="M1027.72,446.19h0a6,6,0,0,1,6,6v5h-12v-5A6,6,0,0,1,1027.72,446.19Z" transform="translate(0 -0.03)"/></g><path class="cls-6" d="M621.77,238.46c3.17-.07,6.33.17,9.49,0,2.89-.14,5.76-.61,8.65-.9,4.94-.49,9.92-.45,14.88-.66,3.26-.14,6.7-.46,9.34-2.38,2.48-1.79,3.86-4.71,6.07-6.83,9-8.65,15.17-20.22,23.17-29.82,2-2.44,4.09-4.87,5.9-7.48,3.47-5,5.92-10.67,8.36-16.27a45.88,45.88,0,0,0,2.4-6.42c.45-1.76.68-3.58,1.28-5.3,1.24-3.52,4.22-6.6,4.58-10.31l-.42.06c3.64-4.63,3.08-12.7,4.88-18.63a79.7,79.7,0,0,1,4.17-10.29l6.69-14.57c1.15-2.5,2.35-5.08,4.34-7,2.41-2.33,5.77-3.49,8.19-5.81a12.66,12.66,0,0,0,3.14-5.11l.21.2c1.28,1.25,2.28,2.78,3.53,4.07,2.69,2.78,6.42,4.37,9.16,7.1,1.4,1.39,2.55,3.08,4.24,4.09a4.69,4.69,0,0,0,5.44-.67c4.91-4.32,12.23-4.72,17.54-8.53,1.47-1.06,2.75-2.35,4.13-3.51a56.26,56.26,0,0,1,10.67-6.7,26.68,26.68,0,0,1,6.59.94c3.08.85,6.09,2.26,9.29,2.2a13.38,13.38,0,0,0,7.81-3,8,8,0,0,0,3.36-5,6.41,6.41,0,0,0-2.4-5.4c-.22-.19-.45-.36-.68-.53a6.72,6.72,0,0,0-2.41-4.65,16,16,0,0,0-5.45-2.78,11.62,11.62,0,0,0-3.44-.78A15.6,15.6,0,0,0,809.13,69a51.2,51.2,0,0,1-10.47,2.2c-.63.06-1.91-.07-3-.08l-.37-1.06c-4.16,1.92-9,.34-13.56.35-2.22,0-4.43.39-6.64.53a59.92,59.92,0,0,1-7.34-.16l-7.39-.47a87.44,87.44,0,0,1-9.42-1c-.83-1.69-1.66-3.38-2.59-5a46.86,46.86,0,0,0-5.49-7.63,26.91,26.91,0,0,1,2.64-2l.18-.11c.23-.13.51-.27.82-.41a18.93,18.93,0,0,0,27.06-17.08,13.56,13.56,0,0,0,1.6-.73c.3-.16.6-.33.89-.52l.43-.29a9.85,9.85,0,0,0,.78-.67c.12-.12.24-.24.35-.37a4.78,4.78,0,0,0,.57-.84h0c.06-.12.12-.23.17-.35s0-.09,0-.14a.88.88,0,0,0,.1-.26c0-.08,0-.12,0-.18l.06-.24V31.9a.81.81,0,0,1,0-.22V29.43a1.31,1.31,0,0,0,0-.28V29a.55.55,0,0,0-.07-.3v-.14l-.09-.32v-.12a1.39,1.39,0,0,0-.1-.33v-.1l-.12-.36v-.06a1.76,1.76,0,0,0-.17-.52c-.75-2.16-1.56-4.31-2.42-6.43a15.78,15.78,0,0,0-2.78-4.86c-1.77-1.88-4.31-2.82-6.43-4.32-2.5-1.76-4.37-4.25-6.49-6.47S755.25.43,752.2.06a15.18,15.18,0,0,0-7.06,1.29c-18.37,6.78-33.41,20.14-49.88,30.74-6.41,4.13-13.59,8-21.18,7.47l6.7,10.64c.32.52.65,1,1,1.54s.7,1,1.07,1.5a12,12,0,0,0,3.51,3.22,7.65,7.65,0,0,0,1.08.52,8.88,8.88,0,0,0,1,.31c2.39.57,5,.09,7.42-.39.83-.16,1.66-.33,2.48-.52l1-.28h.16v.16c-.56,1-1.09,1.91-1.56,2.9a61.06,61.06,0,0,0-3.57,11.12c-1.89,7.5-3.79,15.16-3.29,22.86.17,2.6.61,5.26-.14,7.76-.36,1.23-1,2.49-.66,3.71a16.75,16.75,0,0,1,.92,2.18c.16,1.16-.76,2.16-1.42,3.12s-1,2.49-.06,3.16a5.39,5.39,0,0,0-3.57,4.45,3.88,3.88,0,0,1-.34,1.71,4.21,4.21,0,0,1-1,.93,5.37,5.37,0,0,0-1.87,3.36c-1.93,0-3.56,1.88-5.32,3a21.49,21.49,0,0,1-4.85,1.76c-4.83,1.54-9,4.71-12.77,8.05-2.1,1.83-4.22,3.85-5.14,6.47-.3.86-.46,1.76-.72,2.63a18.3,18.3,0,0,1-2.32,4.74,34.32,34.32,0,0,1-7,7.82,18.58,18.58,0,0,0-3.6,3.86c-1.53,2.21-4.64,2.87-6.28,5a24.07,24.07,0,0,1-2,3c-1.27,1.2-3.19,1.3-4.81,2-3.79,1.57-5.54,6-8.92,8.34a.92.92,0,0,1-.67.22c-.29,0-.46-.35-.71-.52-.49-.33-1.14-.08-1.72.07s-1.36.09-1.51-.49c-8.15-4.94-16.16-10.3-24.32-15.24L586.56,162l-19.9-12.06a1.48,1.48,0,0,0-1.57,0l-.62.43c-1-1.06-2.11-2-2.77-2.78-.27-.31-.54-.62-.82-.92a1.22,1.22,0,0,0,.53-.1,1,1,0,0,0,.43-1.3,3.2,3.2,0,0,0-.92-1.17,22.15,22.15,0,0,1-2.39-2.73,25.87,25.87,0,0,0-2.63-3.44,4.86,4.86,0,0,0-3.9-1.55,6.18,6.18,0,0,0-2.26.91,37.09,37.09,0,0,0-7.5,5.75.79.79,0,0,0-.33.62c0,.2.2.35.22.54a.66.66,0,0,1-.19.5,21.08,21.08,0,0,1-4.73,4.31q-3.81,2.85-7.45,5.92a10.44,10.44,0,0,0-3.48,4.25,8.32,8.32,0,0,0,.61,5.9c1.66,3.91,4.57,7.15,7.45,10.28a3.67,3.67,0,0,0,1.91,1.34,2.46,2.46,0,0,0,1.73-.42c1.77-1.16,2.06-3.56,2.19-5.66.05-1,.11-1.92.17-2.88a1.36,1.36,0,0,1,.11-.56,1.34,1.34,0,0,1,.61-.49l2.75-1.45c-.08-.13-.17-.26-.26-.39a11.23,11.23,0,0,1,6.49-.42c1.46.43,2.8,1.3,4.2,1.84a9.33,9.33,0,0,0,1,5.42c5.13.53,9.75,2.81,14.34,5.11a114.2,114.2,0,0,1,10.78,6.09q4.25,2.76,8.3,5.77c3.84,2.84,7.55,5.85,11.22,8.89a53.54,53.54,0,0,0,7.67,5.65c7.22,4,16.9,4.19,23.53-.86,8.36-6.37,19-9.68,28-15.19a31.68,31.68,0,0,0,7.25-5.57,4.94,4.94,0,0,1-.12.77c-.54,2.49-2.69,4.29-3.5,6.81-.63,2-.4,4.31-1.62,6-.93,1.29-2.67,2.21-2.72,3.8,0,.44.13.88.13,1.32a4,4,0,0,1-.48,1.59c-1,2.25-2.12,4.61-4.17,6-.8.55-1.82,1.05-2,2a1.79,1.79,0,0,1-.21.79c-.34.47-1.09.22-1.63.42-.75.28-.87,1.25-1.17,2a3.24,3.24,0,0,1-3.27,1.92c-6.83-.83-13.54,2.26-20.42,2.08-2.37-.07-4.73-.31-7.11-.33-7.3-.06-14.45,2-21.48,4a11.35,11.35,0,0,0-1.42,4.5,17.36,17.36,0,0,1-7.35.28,16.27,16.27,0,0,0-1.84-.25,2.75,2.75,0,0,0,.16-1.42,40.15,40.15,0,0,0-8.23,3.67c-1.71,1-3.52,2.4-3.68,4.37a6.54,6.54,0,0,0,.32,2.24l.93,3.53a3.71,3.71,0,0,0,.83,1.77c.31.3.72.48,1,.8a3.12,3.12,0,0,1,.54,1.27l.78,3.06a19.46,19.46,0,0,1,.62,3.11c.09,1,0,1.92.07,2.88a31.15,31.15,0,0,0,.69,4.7l1.11,5.54a19,19,0,0,0,1.31,4.5c.47,1,1.1,1.86,1.48,2.86.3.77.44,1.59.8,2.32a6.18,6.18,0,0,0,2.9,2.68,3.33,3.33,0,0,0,1.41.44c1.42,0,2.44-1.32,3.1-2.58a15.53,15.53,0,0,0,2.07-7.52c0-1.06-.21-2.11-.3-3.17-.24-3,.62-5.92.62-8.91a1.74,1.74,0,0,0-1.25-1.82c.09-2.54.08-5.23,1.42-7.4a11.18,11.18,0,0,1,2.44-2.65c.37,1.18.78,2.35,1.24,3.49C605.94,240.8,613.8,238.66,621.77,238.46ZM784.36,84.89c-.54.2-1.09.4-1.65.58-4.66,1.55-10,3.06-14.82,2a12.82,12.82,0,0,1-4.06-2l-.35-.22C770.27,84.06,777.36,84.35,784.36,84.89Z" transform="translate(0 -0.03)"/><path class="cls-7" d="M811.42,74.6a15.41,15.41,0,0,1,5.31-1.23,11.82,11.82,0,0,1,3.42.79,16.18,16.18,0,0,1,5.44,2.8,6.51,6.51,0,0,1,2.41,5.4c-.23,2-1.71,3.73-3.33,5a13.24,13.24,0,0,1-7.76,3c-3.18,0-6.18-1.38-9.25-2.23a26.52,26.52,0,0,0-6.86-1,15.11,15.11,0,0,1-3.49-.22,3.74,3.74,0,0,1-2.68-2.06,5.28,5.28,0,0,1,0-3c.23-1.24.19-4.18,1.29-4.92.88-.6,4-.12,5.08-.21A50.71,50.71,0,0,0,811.42,74.6Z" transform="translate(0 -0.03)"/><path class="cls-8" d="M740,54.47a46.13,46.13,0,0,1,7.75,10c3.52,6.14,5.76,13.28,11.06,18a36.24,36.24,0,0,0,4.47,3.23,12.82,12.82,0,0,0,4.06,2c4.76,1.07,10.1-.42,14.74-2a93.19,93.19,0,0,0,13.33-6A11,11,0,0,0,797,85.18c1.11,1.57,3.38,2.49,5,1.5a59.53,59.53,0,0,0-11.53,7.13c-1.37,1.16-2.64,2.44-4.1,3.49-5.27,3.79-12.56,4.17-17.43,8.47a4.69,4.69,0,0,1-5.41.65c-1.69-1-2.84-2.72-4.23-4.11-2.74-2.74-6.46-4.34-9.15-7.13-1.25-1.29-2.25-2.82-3.53-4.08-1.83-1.8-4.21-3-5.89-5-1.25-1.47-2-3.26-3.17-4.83-1-1.36-2.18-2.55-3.07-4-2.18-3.47-2.16-8-.91-11.89S737.7,57.86,740,54.47Z" transform="translate(0 -0.03)"/><path class="cls-9" d="M740,54.47a46.13,46.13,0,0,1,7.75,10c3.52,6.14,5.76,13.28,11.06,18a36.24,36.24,0,0,0,4.47,3.23,12.82,12.82,0,0,0,4.06,2c4.76,1.07,10.1-.42,14.74-2a93.19,93.19,0,0,0,13.33-6A11,11,0,0,0,797,85.18c1.11,1.57,3.38,2.49,5,1.5a59.53,59.53,0,0,0-11.53,7.13c-1.37,1.16-2.64,2.44-4.1,3.49-5.27,3.79-12.56,4.17-17.43,8.47a4.69,4.69,0,0,1-5.41.65c-1.69-1-2.84-2.72-4.23-4.11-2.74-2.74-6.46-4.34-9.15-7.13-1.25-1.29-2.25-2.82-3.53-4.08-1.83-1.8-4.21-3-5.89-5-1.25-1.47-2-3.26-3.17-4.83-1-1.36-2.18-2.55-3.07-4-2.18-3.47-2.16-8-.91-11.89S737.7,57.86,740,54.47Z" transform="translate(0 -0.03)"/><path class="cls-7" d="M562.3,146.82a10.25,10.25,0,0,0-2.82-2.55,8.6,8.6,0,0,0-5.27-.54c-4.46.68-8.6,2.72-12.52,5-3.16,1.81-6.3,3.82-8.56,6.67a6.94,6.94,0,0,0-1.51,3,6.15,6.15,0,0,0,.23,2.73,6.62,6.62,0,0,0,3.57,4.62c2.09.82,4.42-.05,6.52-.85,2.82-1.09,5.92-2.1,8.82-1.24,2.15.64,4,2.27,6.27,2.33,2.67.08,4.83-2.08,6.53-4.14,1.47-1.8,4.69-5,4.48-7.58S563.88,148.63,562.3,146.82Z" transform="translate(0 -0.03)"/><path class="cls-7" d="M596,224.65a17.27,17.27,0,0,1-7.5.31c-1.52-.28-3.38-.64-4.35.55a3.64,3.64,0,0,0-.61,1.48c-2.49,10.19-.21,21,4,30.65a.92.92,0,0,0,.28.42c.27.2.64.06.95-.07a11.46,11.46,0,0,0,2.83-1.65c1.92-1.74,2.33-4.57,2.42-7.16s.05-5.33,1.39-7.55c1.68-2.75,5.19-4.09,6.57-7,1.11-2.37.53-5.18-.45-7.6-.33-.84-.46-3-1.24-3.41S596.89,224.41,596,224.65Z" transform="translate(0 -0.03)"/><path class="cls-10" d="M562,145.8a1,1,0,0,0,.42-1.3,3.32,3.32,0,0,0-.92-1.18,20.69,20.69,0,0,1-2.38-2.74,28.2,28.2,0,0,0-2.63-3.44,4.84,4.84,0,0,0-3.89-1.56,6,6,0,0,0-2.25.9,36.63,36.63,0,0,0-7.45,5.72c-.17.17-.36.38-.32.62s.2.34.22.54a.68.68,0,0,1-.18.49,20.85,20.85,0,0,1-4.7,4.29q-3.78,2.84-7.4,5.9a10.31,10.31,0,0,0-3.45,4.23,8.4,8.4,0,0,0,.63,5.89c1.67,3.92,4.58,7.16,7.45,10.31a3.75,3.75,0,0,0,1.92,1.35,2.44,2.44,0,0,0,1.72-.42c1.75-1.15,2-3.55,2.15-5.64l.16-2.89a1.29,1.29,0,0,1,.11-.55,1.34,1.34,0,0,1,.61-.49l2.72-1.44a8.76,8.76,0,0,0-8-4.16,3,3,0,0,1-2.14-.29,1.75,1.75,0,0,1,0-2.44,5.35,5.35,0,0,1,2.36-1.31c7.17-2.63,13.65-6.85,20.61-10a5.26,5.26,0,0,1,2.46-.57C560.54,145.67,561.36,146.08,562,145.8Z" transform="translate(0 -0.03)"/><path class="cls-10" d="M590.26,250.52c-.32.6-.43,1.3-.78,1.89a1.4,1.4,0,0,1-1.7.7,1.78,1.78,0,0,1-.66-.89,37.36,37.36,0,0,1-2.45-22.06,13.91,13.91,0,0,1,1.07-3.52c.53-1.08,1.3-2.18,1.08-3.36a39.41,39.41,0,0,0-8.18,3.64c-1.7,1-3.49,2.39-3.65,4.35a6.8,6.8,0,0,0,.33,2.24l.94,3.53a3.56,3.56,0,0,0,.84,1.77c.3.3.71.49,1,.81a3,3,0,0,1,.54,1.26l.79,3.06a20.53,20.53,0,0,1,.63,3.12c.09,1,0,1.92.08,2.88a30.86,30.86,0,0,0,.7,4.69l1.13,5.54a19.55,19.55,0,0,0,1.32,4.5c.47,1,1.1,1.86,1.49,2.87.29.77.44,1.59.8,2.32a6.28,6.28,0,0,0,2.89,2.69,3.34,3.34,0,0,0,1.41.45c1.41.05,2.42-1.32,3.08-2.58a15.52,15.52,0,0,0,2-7.5c0-1.06-.22-2.11-.31-3.17-.25-3,.59-5.91.58-8.9C595.25,248.05,591.29,248.58,590.26,250.52Z" transform="translate(0 -0.03)"/><path class="cls-7" d="M737,76.29A22,22,0,0,1,729,70a38.09,38.09,0,0,1-3-4.45,134.68,134.68,0,0,1-9.75-20.07c4.26.87,8.73,1.66,12.92.46a18,18,0,0,0,6-3.18,51.88,51.88,0,0,0,6.32-6.17,61.2,61.2,0,0,0,5,8c1.07,1.44,4.69,4.37,4.42,6.33s-4.27,2.94-5.89,3.87l-.17.11a22.54,22.54,0,0,0-6.15,5.73C735.54,65.13,734.45,71.35,737,76.29Z" transform="translate(0 -0.03)"/><path class="cls-4" d="M745.08,54.79a18.73,18.73,0,0,1-9.85-12,51.88,51.88,0,0,0,6.32-6.17,61.2,61.2,0,0,0,5,8C747.62,46.06,751.24,49,751,51S746.7,53.86,745.08,54.79Z" transform="translate(0 -0.03)"/><circle class="cls-7" cx="754.08" cy="37.5" r="18.73"/><path class="cls-11" d="M713.11,154.2a8.75,8.75,0,0,1-8.62.21,16.41,16.41,0,0,1-3.72-3.13c-6.15-6.31-12-13-16.11-20.83a14.44,14.44,0,0,1-1.82-5.37,5.93,5.93,0,0,1,1.93-5.12,4.21,4.21,0,0,0,1-.93,3.83,3.83,0,0,0,.33-1.7,5.3,5.3,0,0,1,3.54-4.43c-1-.68-.6-2.19.05-3.16s1.56-2,1.4-3.12a16.75,16.75,0,0,0-.92-2.18c-.36-1.22.29-2.48.64-3.7.73-2.5.29-5.16.11-7.76-.53-7.7,1.34-15.34,3.19-22.83a61.74,61.74,0,0,1,3.52-11.1,31.51,31.51,0,0,1,1.54-2.89,77.18,77.18,0,0,1,6.29-8.75,11.33,11.33,0,0,1,4.29-3.84,4.24,4.24,0,0,1,.5-.18,10.93,10.93,0,0,1,3.82-.29c3.38.21,6.93,1,9.34,3.38s3.19,5.72,4.28,8.94A25.23,25.23,0,0,0,729,58.57c1.59,3.16,4.18,5.68,6.73,8.13l2.77,2.67c1.39,1.34,3.8,1,5.11,2.41A6.49,6.49,0,0,1,744.73,74a34.81,34.81,0,0,1,2.55,11.33,18.66,18.66,0,0,1-.15,2.59,13.64,13.64,0,0,1-3.79,8c-2.4,2.31-5.74,3.45-8.13,5.77-2,1.92-3.16,4.49-4.3,7q-3.3,7.26-6.61,14.54a82.39,82.39,0,0,0-4.11,10.25C718.11,140.49,719.29,150.35,713.11,154.2Z" transform="translate(0 -0.03)"/><path class="cls-12" d="M655.36,236.6c-4.94.2-9.89.14-14.81.61-2.87.28-5.73.75-8.61.87-3.14.14-6.29-.11-9.44-.05-7.93.17-15.75,2.28-23.38,4.46a44.44,44.44,0,0,1-3.31-16.57,10.65,10.65,0,0,1,0-1.13,11.38,11.38,0,0,1,1.41-4.58c7-2,14.1-4,21.37-3.9,2.37,0,4.72.28,7.08.35,6.85.21,13.51-2.86,20.31-2a3.2,3.2,0,0,0,3.25-1.91c.29-.74.41-1.71,1.16-2,.54-.2,1.28.05,1.62-.41a2.21,2.21,0,0,0,.21-.79c.2-1,1.21-1.45,2-2,2-1.38,3.13-3.74,4.13-6a4.19,4.19,0,0,0,.47-1.58c0-.44-.14-.88-.13-1.33,0-1.58,1.77-2.49,2.69-3.78,1.21-1.7,1-4,1.59-6,.8-2.52,2.93-4.31,3.46-6.79a4.94,4.94,0,0,0,.12-.77,31.34,31.34,0,0,1-7.21,5.54c-8.88,5.47-19.5,8.74-27.79,15.07-6.58,5-16.22,4.85-23.42.78a54.36,54.36,0,0,1-7.66-5.67c-3.66-3-7.36-6.07-11.19-8.93q-4-3-8.29-5.79A114.13,114.13,0,0,0,570.25,176c-4.58-2.32-9.19-4.62-14.29-5.17a10.5,10.5,0,0,1-.28-8.64,29.16,29.16,0,0,1,4.68-7.55,21.6,21.6,0,0,1,5.36-5.47,1.46,1.46,0,0,1,1.56,0l19.82,12.17,3.71,2.27c8.13,5,16.13,10.35,24.26,15.32.15.57.94.64,1.51.49s1.22-.39,1.71-.06c.24.16.41.46.71.52a1,1,0,0,0,.66-.22c3.36-2.31,5.08-6.75,8.85-8.3,1.61-.66,3.52-.76,4.78-2a23,23,0,0,0,2-3c1.63-2.13,4.72-2.77,6.23-5a18.33,18.33,0,0,1,3.57-3.84,33.94,33.94,0,0,0,7-7.79,17.94,17.94,0,0,0,2.29-4.72c.26-.87.42-1.77.71-2.63.91-2.62,3-4.63,5.09-6.45,3.79-3.32,7.88-6.47,12.68-8a21.8,21.8,0,0,0,4.83-1.75c1.93-1.18,3.7-3.37,5.91-2.86a5.05,5.05,0,0,1,2.19,1.38,70.25,70.25,0,0,1,7.45,8.53q5.35,6.81,10.69,13.63a15.75,15.75,0,0,0,4.19,4.15,11.5,11.5,0,0,0,7.75,1c-.35,3.71-3.3,6.77-4.52,10.29-.59,1.71-.82,3.53-1.26,5.28a42.84,42.84,0,0,1-2.37,6.41c-2.4,5.59-4.82,11.21-8.26,16.23-1.78,2.61-3.83,5-5.84,7.45-7.93,9.57-14,21.11-23,29.72-2.18,2.11-3.56,5-6,6.81C662,236.17,658.55,236.47,655.36,236.6Z" transform="translate(0 -0.03)"/><path class="cls-4" d="M693,109.72a5.4,5.4,0,0,0-2.5.75c1.83-.64,4.06,1.07,5.75.26.79-.38.67-.49,0-.72C695.28,109.67,694.06,110,693,109.72Z" transform="translate(0 -0.03)"/><rect class="cls-3" x="935.34" y="452.83" width="78" height="14" transform="translate(-97.7 352.52) rotate(-19.55)"/><path class="cls-3" d="M959.83,493.64l66.91-23.76a7,7,0,0,1,8.94,4.25h0a7,7,0,0,1-4.26,8.94l-66.91,23.76h0l-4.68-13.19Z" transform="translate(0 -0.03)"/><path class="cls-5" d="M896.09,452.6l16.3-5.79a58,58,0,0,1,74.06,35.25l5.79,16.3a22.67,22.67,0,0,1-13.78,29l-49.59,17.61a22.68,22.68,0,0,1-29-13.78L882.3,481.56A22.68,22.68,0,0,1,896.09,452.6Z" transform="translate(0 -0.03)"/><path class="cls-4" d="M692.14,119.48a3.89,3.89,0,0,0-2.11-.13,4.45,4.45,0,0,0-2.75,1.35,1.47,1.47,0,0,0,1.23,0,7.1,7.1,0,0,1,2-.22c.58,0,2.31.64,2.76.36C693.93,120.41,692.59,119.65,692.14,119.48Z" transform="translate(0 -0.03)"/><path class="cls-4" d="M747.13,87.94a19.4,19.4,0,0,1-4.28-2.06c-3.51-2.23-6.46-5.26-9.93-7.54a56.24,56.24,0,0,0-5.43-3l-11.71-6a11.7,11.7,0,0,0-2.84-1.16c-1.91-.42-4.06.86-6,.59a7.22,7.22,0,0,1-4.88-3.37,17.6,17.6,0,0,1-2.2-5.67,29.09,29.09,0,0,1-.67-3.59,16,16,0,0,1-.07-3.79,9.48,9.48,0,0,1,3.3-6.46,12,12,0,0,1,4.64-2,19.37,19.37,0,0,1,3.21-.53,11.43,11.43,0,0,1,1.85,0c4.42.35,8.16,3.35,11.11,6.65,1.55,1.74,3,3.61,4.48,5.38A25.23,25.23,0,0,0,729,58.54c1.59,3.16,4.18,5.68,6.73,8.13l2.77,2.67c1.39,1.34,3.8,1,5.11,2.41A6.49,6.49,0,0,1,744.75,74a34.7,34.7,0,0,1,2.53,11.36A18.66,18.66,0,0,1,747.13,87.94Z" transform="translate(0 -0.03)"/><path class="cls-4" d="M656.06,215.92l-60.26,8.87a11.38,11.38,0,0,1,1.41-4.58c7-2,14.1-4,21.37-3.9,2.37,0,4.72.28,7.08.35,6.85.21,13.51-2.86,20.31-2a3.2,3.2,0,0,0,3.25-1.91c.29-.74.41-1.71,1.16-2,.54-.2,1.28.05,1.62-.41a2.21,2.21,0,0,0,.21-.79c.2-1,1.21-1.45,2-2,2-1.38,3.13-3.74,4.13-6a4.19,4.19,0,0,0,.47-1.58c0-.44-.14-.88-.13-1.33,0-1.58,1.77-2.49,2.69-3.78,1.21-1.7,1-4,1.59-6,.8-2.52,2.93-4.31,3.46-6.79l.26-.34,10.26-4Z" transform="translate(0 -0.03)"/><ellipse class="cls-13" cx="425" cy="668.64" rx="425" ry="33"/><ellipse class="cls-13" cx="800.72" cy="752.89" rx="275" ry="35.77"/><path class="cls-14" d="M475.25,642l.28-14.16q20-1.14,40-1.52c7.74-.14,15.58-.19,23.07,1.75,5.19,1.35,10.1,3.63,15.22,5.23,10.2,3.18,21,3.6,31.71,3.89,10.39.29,21.24.39,30.57-4.2,16.15-8,22.94-27.65,23.73-45.64s-2.79-36.12-.3-54" transform="translate(0 -0.03)"/><polygon class="cls-3" points="511.81 669.63 333.62 667.35 334.14 662.78 342.76 587.39 499.24 587.39 510.76 662.78 511.64 668.49 511.81 669.63"/><polygon class="cls-4" points="511.64 668.49 422.71 668.49 333.62 667.35 334.14 662.78 510.76 662.78 511.64 668.49"/><rect class="cls-3" x="303.92" y="663.92" width="236.45" height="5.71"/><path class="cls-5" d="M766,134.62a14.87,14.87,0,0,0-14.74-15H90.84a14.88,14.88,0,0,0-14.8,15v400.3H766Z" transform="translate(0 -0.03)"/><path class="cls-3" d="M76,530.88v46.89a14.8,14.8,0,0,0,14.8,14.8H751.16a14.8,14.8,0,0,0,14.8-14.8V530.88Z" transform="translate(0 -0.03)"/><rect class="cls-15" x="104.6" y="144.77" width="636.23" height="359.81"/><path class="cls-16" d="M424.43,574.78a15.44,15.44,0,0,0,12.13-5.89h0a15.28,15.28,0,0,0,1.2-1.77l-8.46-1.39,9.15.07a15.45,15.45,0,0,0,.29-12.22L426.47,560l11.32-8.32a15.42,15.42,0,1,0-25.43,17.25h0A15.42,15.42,0,0,0,424.43,574.78Z" transform="translate(0 -0.03)"/><polygon class="cls-4" points="439.85 592.53 510.94 663.92 500.03 592.53 439.85 592.53"/><path class="cls-14" d="M745.18,141.87l38.18-50.59c2.28-3,4.63-6.13,7.76-8.29,9-6.22,22.19-2.54,29.72,5.43s10.69,19.06,13,29.78A316.26,316.26,0,0,1,841,193.35c-.32,13.29-1.51,26.72-5.74,39.33-6.42,19.18-19.43,35.33-29.26,53-15.83,28.47-22.46,66.44-2.42,92.13,6.53,8.37,15.42,14.77,21.45,23.51,6.81,9.87,9.46,21.94,12,33.66,3.79,17.7,7.59,35.51,8.29,53.6,2.26,58.49-31.09,116.93-82.59,144.75-35.75,19.32-79,24.92-110.09,51.12-11,9.23-20.48,22.8-17.78,36.86,2.2,11.41,12.22,20.08,23.22,23.85s22.93,3.46,34.53,2.8a636.33,636.33,0,0,0,83-10.25c23.23-4.44,46.42-8.27,66.67-20.49a14,14,0,0,0,5.05-4.53c1.31-2.19,1.53-4.84,1.71-7.39.55-7.51,1.07-15.3-1.58-22.35-3.09-8.24-10.14-14.48-13.52-22.6s-2.77-17.47-.58-26c2.7-10.54,7.61-20.36,12.55-30.05,4.81-9.44,9.69-18.85,15.35-27.8,15.94-25.16,37.72-46,59.27-66.55" transform="translate(0 -0.03)"/><path class="cls-7" d="M808.36,69.35a15,15,0,0,1,5.31-1.23,11.88,11.88,0,0,1,3.42.78,16,16,0,0,1,5.44,2.81,6.51,6.51,0,0,1,2.41,5.4c-.23,2-1.71,3.72-3.33,5a13.24,13.24,0,0,1-7.76,3c-3.18,0-6.18-1.38-9.25-2.24a26.52,26.52,0,0,0-6.86-1,15.11,15.11,0,0,1-3.49-.23,3.75,3.75,0,0,1-2.68-2,5.47,5.47,0,0,1,0-3c.24-1.24.2-4.19,1.3-4.93.88-.59,4-.11,5.08-.2A51.37,51.37,0,0,0,808.36,69.35Z" transform="translate(0 -0.03)"/><path class="cls-8" d="M794.49,70.35c-4.14,1.9-9,.32-13.5.31-2.21,0-4.41.37-6.61.5a59.44,59.44,0,0,1-7.31-.19l-7.32-.5A62,62,0,0,1,747,68.71c-3.58-4.22-9.39-6.08-13.71-9.52-3.46-2.76-5.94-6.52-8.89-9.83s-6.69-6.3-11.1-6.65a16.35,16.35,0,0,0-5.07.54,11.9,11.9,0,0,0-4.63,2,9.44,9.44,0,0,0-3.3,6.46,21.63,21.63,0,0,0,.73,7.38,17.57,17.57,0,0,0,2.2,5.68,7.33,7.33,0,0,0,4.89,3.37c1.93.26,4.07-1,6-.6a11.7,11.7,0,0,1,2.84,1.16l11.72,6a56.09,56.09,0,0,1,5.42,3C737.54,80,740.48,83,744,85.24s7.94,3.63,11.84,2.17c12-4.47,25.52-2.39,38.25-1.28-.08-.24.44-.46.59-.66a10.71,10.71,0,0,0,2-7.49A37,37,0,0,0,794.49,70.35Z" transform="translate(0 -0.03)"/><path class="cls-17" d="M774.36,36.66a6.83,6.83,0,0,0,3-2.68c1.14-2.11.44-4.7-.34-7s-1.57-4.31-2.44-6.43a15.33,15.33,0,0,0-2.78-4.87c-1.77-1.89-4.3-2.84-6.41-4.33-2.5-1.77-4.37-4.28-6.48-6.49S754.22.6,751.18.23a14.94,14.94,0,0,0-6.82,1.27C726.1,8.21,711.17,21.5,694.82,32c-6.36,4.11-13.5,7.94-21,7.39l6.71,10.66c1.71,2.73,3.63,5.62,6.63,6.79,2.65,1,5.61.5,8.39,0A22.67,22.67,0,0,0,701.94,55c4-2.17,6.57-6.68,10.87-8.25,3.21-1.17,6.79-.45,10,.67s6.36,2.64,9.74,3.1c6,.81,12-1.9,17-5.4,3-2.08,5.73-4.47,9-6a13.52,13.52,0,0,1,8-1.41C769.58,38.09,771.36,38.23,774.36,36.66Z" transform="translate(0 -0.03)"/><path class="cls-4" d="M777.36,34c1.12-2.07.46-4.61-.3-6.84a6,6,0,0,1-.5,3.77,7,7,0,0,1-3,2.68c-3,1.58-4.82,1.44-7.9.93a13.67,13.67,0,0,0-8,1.41c-3.25,1.57-6,4-9,6-5,3.5-11,6.2-17,5.39-3.39-.45-6.52-2-9.74-3.1s-6.81-1.84-10-.67c-4.29,1.57-6.83,6.09-10.86,8.25a22.67,22.67,0,0,1-6.39,1.92c-2.79.54-5.75,1.07-8.39,0-3-1.16-4.92-4.06-6.64-6.79l-4.75-7.55h-1.15L680.45,50c1.71,2.73,3.63,5.62,6.63,6.79,2.65,1,5.61.5,8.39,0a22.67,22.67,0,0,0,6.39-1.92c4-2.17,6.57-6.68,10.87-8.25,3.21-1.17,6.79-.45,10,.67s6.36,2.64,9.74,3.1c6,.81,12-1.9,17-5.4,3-2.08,5.73-4.47,9-6a13.52,13.52,0,0,1,8-1.41c3.08.5,4.9.64,7.89-.93A6.85,6.85,0,0,0,777.36,34Z" transform="translate(0 -0.03)"/><path class="cls-18" d="M829.06,718a10.06,10.06,0,0,1,2.18-2.42c4.37-4.12,6.4-10.18,7.48-16.12s1.39-12,3.12-17.81a56.64,56.64,0,0,1,3.52-8.67c1-2.14,2.25-6.34,4.09-7.83a2.7,2.7,0,0,1,1.26-.61,14.65,14.65,0,0,1,3.62-4.82c2.86-2.59,6.35-4.65,8.26-8a17.51,17.51,0,0,1,1.93-3.29c1.29-1.43,3.33-2,4.52-3.51,1.55-1.94,1.2-4.71,1-7.19s0-5.43,2.14-6.72c1.28-.79,2.93-.72,4.26-1.41,2-1,2.79-3.53,2.75-5.78s-.74-4.44-.92-6.68c-.56-7.16,4.16-14.28,2.33-21.22-.69-2.63-2.26-4.92-3.43-7.36a17.86,17.86,0,0,1-1-2.54,35.48,35.48,0,0,1-9.73,2.35c5.51-12.36,4.11-26.73,6.68-40l-.33-.46a20.7,20.7,0,0,1-4.22-11.85c0-5,2.31-9.57,3.35-14.4.88-4.12.85-8.41,2-12.45a38.69,38.69,0,0,1,3.17-7.22c1.25-2.32,2.56-4.59,3.93-6.83q1.92-6.36,3.85-12.72c1.8-6,3.65-12,7.15-17.14,1.28-1.89,1.67-5.7,3.64-6.84a8.75,8.75,0,0,1,5.2-.91c2.78-1.56,5.22-3.81,5.57-6.89a6.74,6.74,0,0,0-.2-2h-.34c-4.41-.41-6.63-4.29-8.92-7.68-3.71-5.51-2.29-12.95,0-19.2a13,13,0,0,1,3-5.29c3.21-3,8.29-2.34,12.43-3.79a42.29,42.29,0,0,1,4.11-1.55c2.75-.65,5.63.26,8.15,1.52s4.87,2.92,7.51,3.92,5.9,1.79,6.55,4.5a5,5,0,0,1-.23,2.73,10.24,10.24,0,0,1-3.08,4.45,17.82,17.82,0,0,1-8.26,23.81,17.22,17.22,0,0,1-2.61,1c-.76,1.21-1.47,2.46-2.12,3.73-1.16,2.24-2.14,4.88-1.75,7.28a21.27,21.27,0,0,1,2,2.44c2.87,4,4.5,8.7,6,13.38a140.41,140.41,0,0,1,4.84,18.27c2.44,5.18,5.42,10.14,7.19,15.59a35,35,0,0,0,9.38-1.25l8.44-1.92c2.93-.66,6-1.38,8.3-3.32,1.22-1,2.17-2.33,3.41-3.33s3.73-2.15,5.09-1.33a4,4,0,0,1,.69.53c1.23-2.5,9.1,7.73,3.72,8.74l.35,1c.71,2.07,2.22,4.59,1.84,6.75l-37.56,12.89a23.1,23.1,0,0,1-7.56,1.67,12.17,12.17,0,0,1-3-.4v2c-.1,13.19,2,26.3,2.39,39.48.07,2.4,0,5-1.52,6.88-1.7,2.06-4.72,2.46-7.35,2a16.65,16.65,0,0,1-1.86-.41,69.19,69.19,0,0,0-1.92,10.1l-2.49,17.76a27,27,0,0,0-.39,5.54c.29,4.18,2.5,7.94,4.1,11.81s2.55,8.5.44,12.11c-.65,1.12-1.56,2.08-2.15,3.24a13.11,13.11,0,0,0-1,5.67q-.22,8.1-.44,16.18a1.92,1.92,0,0,1,1.26.26c2.08,1.61,1.85,9.33,2,11.72.16,4,0,8.08.22,12.12a71.19,71.19,0,0,0,2.68,16.13,10.29,10.29,0,0,0,2.29,4.61,9.83,9.83,0,0,0,4.06,2.11,46.58,46.58,0,0,0,15.42,2.1c2.11-.07,4.31-.27,6.27.53s3.54,3,2.83,5c-.61,1.68-2.46,2.48-4.13,3.11a64.39,64.39,0,0,0-11,5.06,29.31,29.31,0,0,1-4.26,2.41,22.08,22.08,0,0,1-4.38,1.08l-17.72,3c-3.63.63-8,1-10.31-2-1.25-1.62-1.43-3.82-1.37-5.87.1-4,.9-8.07.37-12.07a37,37,0,0,0-1.85-6.94l-5.32-15.72c-1.78-5.27-3.58-10.58-4.27-16.1-.25-2-.23-4.27,1.3-5.52a3.54,3.54,0,0,1,1.32-.68c.06-4.82.69-9.65.42-14.47-.07-1.2-.19-2.41-.29-3.61a16.82,16.82,0,0,0-2.48,2.92c-1.7,2.67-2.33,6.21-4.94,8-2.22,1.52-5.51,1.44-7.07,3.64a10.21,10.21,0,0,0-1.12,2.71,19.62,19.62,0,0,1-4,6.35,32.8,32.8,0,0,1-2.47,6.34q-2.21,4.65-4.4,9.3c-1.57,3.32-3.15,6.64-5,9.78a27.15,27.15,0,0,0-3.35,6.46c-1.41,4.94.88,10.36,4.53,14s8.44,5.73,13.16,7.68a3.64,3.64,0,0,1,1.35.8,2.58,2.58,0,0,1,.6,1.74,5.64,5.64,0,0,1-4.07,5,15.3,15.3,0,0,1-6.83.25c-12.78-1.55-25.52-4.67-36.82-10.88a13.26,13.26,0,0,1-4.4-3.39A5.17,5.17,0,0,1,829.06,718Z" transform="translate(0 -0.03)"/><path class="cls-19" d="M883.08,493.76q-3.2,4.9-6,10.06a36.9,36.9,0,0,0-3.17,7.16c-1.17,4-1.13,8.28-2,12.36-1,4.8-3.34,9.38-3.34,14.29a20.51,20.51,0,0,0,4.22,11.77,56.67,56.67,0,0,0,8.82,9.1,187.62,187.62,0,0,0,12.48-61.21c.1-2.9.11-5.9-.94-8.6-.66-1.7-3.77-6.36-5.78-4.53-.73.67-.92,3.69-1.37,4.69A36.3,36.3,0,0,1,883.08,493.76Z" transform="translate(0 -0.03)"/><path class="cls-20" d="M882.4,493.76q-3.2,4.9-6,10.06a36.9,36.9,0,0,0-3.17,7.16c-1.17,4-1.13,8.28-2,12.36-1,4.8-3.34,9.38-3.34,14.29a20.51,20.51,0,0,0,4.22,11.77,56.67,56.67,0,0,0,8.82,9.1,187.62,187.62,0,0,0,12.48-61.21c.1-2.9.11-5.9-.94-8.6-.66-1.7-3.77-6.36-5.78-4.53-.73.67-.92,3.69-1.37,4.69A36.3,36.3,0,0,1,882.4,493.76Z" transform="translate(0 -0.03)"/><path class="cls-7" d="M990.43,504.69c3.91-.65,8.25-.33,11.29,2.2a9.34,9.34,0,0,1,3.24,6.16c.26,2.78-1.35,6.06-4.13,6.28a13.35,13.35,0,0,1-2-.13,29.65,29.65,0,0,0-5.24.43,21.43,21.43,0,0,1-18.24-7.36c-2.38-2.94.76-4.29,3.59-4.89C982.8,506.56,986.57,505.35,990.43,504.69Z" transform="translate(0 -0.03)"/><path class="cls-5" d="M923.55,595l-2.48,17.62a26,26,0,0,0-.38,5.5c.29,4.15,2.49,7.88,4.09,11.72s2.56,8.43.45,12c-.65,1.12-1.57,2.06-2.15,3.21a13,13,0,0,0-1,5.64l-.68,25a158.71,158.71,0,0,1-23.18-.13,1.31,1.31,0,0,1-.86-.22,1.42,1.42,0,0,1-.29-.91c-.34-5.85.68-11.71.35-17.56-.12-2.14-.43-4.27-.46-6.42-.13-8.71,4.18-17.24,2.88-25.86a56.81,56.81,0,0,0-1.6-6.42c-4.11-15-3.24-30.77-2.34-46.25a1.17,1.17,0,0,1,.2-.7,1.14,1.14,0,0,1,.55-.3,28.48,28.48,0,0,1,25.78,4.91c1.09.88,3.84,1.73,4.56,2.77,1,1.47-.32,2.92-.89,4.48A57.17,57.17,0,0,0,923.55,595Z" transform="translate(0 -0.03)"/><path class="cls-4" d="M923.55,595l-2.48,17.62a26,26,0,0,0-.38,5.5c.29,4.15,2.49,7.88,4.09,11.72s2.56,8.43.45,12c-.65,1.12-1.57,2.06-2.15,3.21a13,13,0,0,0-1,5.64l-.68,25a158.71,158.71,0,0,1-23.18-.13,1.31,1.31,0,0,1-.86-.22,1.42,1.42,0,0,1-.29-.91c-.34-5.85.68-11.71.35-17.56-.12-2.14-.43-4.27-.46-6.42-.13-8.71,4.18-17.24,2.88-25.86a56.81,56.81,0,0,0-1.6-6.42c-4.11-15-3.24-30.77-2.34-46.25a1.17,1.17,0,0,1,.2-.7,1.14,1.14,0,0,1,.55-.3,28.48,28.48,0,0,1,25.78,4.91c1.09.88,3.84,1.73,4.56,2.77,1,1.47-.32,2.92-.89,4.48A57.17,57.17,0,0,0,923.55,595Z" transform="translate(0 -0.03)"/><path class="cls-5" d="M877.18,589.69c1.17,2.43,2.74,4.7,3.43,7.31,1.83,6.89-2.88,14-2.32,21.06.18,2.23.87,4.4.92,6.63s-.77,4.71-2.75,5.73c-1.33.69-3,.62-4.25,1.4-2.11,1.28-2.35,4.22-2.14,6.67s.55,5.21-1,7.14c-1.19,1.49-3.23,2.06-4.51,3.47a17.4,17.4,0,0,0-1.94,3.27c-1.91,3.33-5.39,5.38-8.25,8s-5.28,6.46-4,10.08c.94,2.67,3.58,4.31,6.12,5.56a64.93,64.93,0,0,0,14.57,5.15,3.49,3.49,0,0,0,1.67.08,3.67,3.67,0,0,0,1.46-1c2.95-2.89,6-5.92,7.36-9.81a10.08,10.08,0,0,1,1.12-2.69c1.56-2.18,4.84-2.11,7.07-3.61,2.6-1.77,3.23-5.29,4.93-7.94s4.19-4.22,6-6.56c3-3.88,3.81-9,6-13.48.93-1.89,2.12-3.64,2.86-5.61a30.19,30.19,0,0,0,1.37-7.23c1.41-11.68,5-23.44,2.74-35-.5-2.55-1.27-5-1.59-7.62-.56-4.54.32-9.17-.35-13.7a3.73,3.73,0,0,0-1.51-2.9,4.24,4.24,0,0,0-1.72-.36,118.6,118.6,0,0,0-17.78.41c-3,.29-6.37.9-8.16,3.35-1.53,2.09-1.45,4.91-2,7.46-.6,3.13-2.19,4.85-3.86,7.31S876,587.16,877.18,589.69Z" transform="translate(0 -0.03)"/><path class="cls-15" d="M900.25,671c-1.58,0-3.33-.09-4.55.91-1.52,1.24-1.55,3.53-1.3,5.49.7,5.47,2.49,10.74,4.28,16L904,709a36.42,36.42,0,0,1,1.85,6.88c.53,4-.27,8-.37,12,0,2,.13,4.22,1.38,5.83,2.26,2.9,6.67,2.56,10.3,1.94l17.71-3a21.39,21.39,0,0,0,4.38-1.07,29.15,29.15,0,0,0,4.25-2.4,65.26,65.26,0,0,1,11-5c1.66-.62,3.52-1.42,4.12-3.09.71-2-.87-4.19-2.83-5s-4.15-.6-6.27-.53a46.72,46.72,0,0,1-15.4-2.09,9.67,9.67,0,0,1-4.06-2.09,10.07,10.07,0,0,1-2.3-4.57,71.1,71.1,0,0,1-2.68-16c-.2-4-.06-8-.22-12-.1-2.37.13-10-2-11.63-1.59-1.22-8.14,2.15-10.28,2.64A49.61,49.61,0,0,1,900.25,671Z" transform="translate(0 -0.03)"/><path class="cls-15" d="M841.9,682.07c-1.72,5.74-2,11.79-3.11,17.68s-3.1,11.91-7.47,16a9.55,9.55,0,0,0-2.17,2.4,5.07,5.07,0,0,0,.75,5.23,13.17,13.17,0,0,0,4.39,3.37c11.29,6.16,24,9.26,36.81,10.8a15.4,15.4,0,0,0,6.82-.24c2.18-.74,4.11-2.7,4.07-5a2.51,2.51,0,0,0-.6-1.72,3.62,3.62,0,0,0-1.35-.79c-4.72-1.94-9.52-4.06-13.16-7.63s-5.94-9-4.53-13.86a27.73,27.73,0,0,1,3.34-6.41,107,107,0,0,0,5-9.7l4.4-9.23c1.28-2.69,2.59-5.47,2.8-8.46a40.56,40.56,0,0,1-16.21-2.59,25.43,25.43,0,0,1-6.67-4c-1.7-1.42-3.25-4.06-5.54-2.21-1.84,1.48-3,5.64-4.09,7.76A59.29,59.29,0,0,0,841.9,682.07Z" transform="translate(0 -0.03)"/><path class="cls-7" d="M906.36,452.89c-.44,3.83-4.16,6.37-7.71,7.88L921.11,468c-1.45-2.78-.27-6.18,1.17-9a50.39,50.39,0,0,1,4-6.4c.22-.31.47-.71.31-1.06A1.1,1.1,0,0,0,926,451c-4.62-2.06-9.38-4.19-14.43-4.94-1.46-.22-4.22-.8-5.31.69S906.6,451.12,906.36,452.89Z" transform="translate(0 -0.03)"/><path class="cls-4" d="M906.36,452.89c-.44,3.83-4.16,6.37-7.71,7.88L921.11,468c-1.45-2.78-.27-6.18,1.17-9a50.39,50.39,0,0,1,4-6.4c.22-.31.47-.71.31-1.06A1.1,1.1,0,0,0,926,451c-4.62-2.06-9.38-4.19-14.43-4.94-1.46-.22-4.22-.8-5.31.69S906.6,451.12,906.36,452.89Z" transform="translate(0 -0.03)"/><circle class="cls-7" cx="919.45" cy="438.35" r="17.62"/><path class="cls-19" d="M934.67,583.35c-1.7,2-4.71,2.44-7.34,2-6.15-1-11.19-5.53-17.2-7.16-7.38-2-15.2.57-22.16,3.71s-13.9,7-21.52,7.55c6.89-15.36,2.95-33.85,9.53-49.34,1.62-3.78,3.87-7.44,4.23-11.53.45-5.09-2.09-10-2.48-15.07-.36-4.51,1-9,2.29-13.29l4.83-15.85c1.8-5.9,3.65-11.91,7.14-17,1.28-1.87,1.68-5.65,3.64-6.79,4.28-2.46,10.77.65,15.41.82s8.87,3.47,11.58,7.2c2.87,3.94,4.5,8.63,6,13.27A125.22,125.22,0,0,1,934,503.1c.15,1.08.28,2.16.38,3.25,1,10.27-.46,20.6-.54,30.91v.08c-.09,13.08,2,26.09,2.4,39.17C936.26,578.94,936.2,581.55,934.67,583.35Z" transform="translate(0 -0.03)"/><path class="cls-4" d="M933.8,537.35c-3.45-.87-6.58-3.09-9.25-5.53a38.67,38.67,0,0,1-6.14-7,50.26,50.26,0,0,1-5.29-11.16,129.38,129.38,0,0,1-7-32.28c-.26-3-.34-6.21,1.45-8.59a7.23,7.23,0,0,1,8.74-2.13c2.37,1.16,3.9,3.49,5.31,5.71,2.82,4.43,5.65,8.9,7.46,13.82.8,2.18,1.39,4.43,2.17,6.62a61,61,0,0,0,2.74,6.33c.15,1.08.28,2.16.38,3.25C935.3,516.66,933.88,527,933.8,537.35Z" transform="translate(0 -0.03)"/><path class="cls-19" d="M907.61,470.9c-1.78,2.37-1.7,5.62-1.45,8.59a129.21,129.21,0,0,0,7,32.27,49.41,49.41,0,0,0,5.29,11.16,38.67,38.67,0,0,0,6.14,7c3.4,3.11,7.54,5.88,12.15,5.92a23.39,23.39,0,0,0,7.56-1.65l37.51-12.74c.38-2.15-1.13-4.64-1.84-6.7l-2-5.94c-.57-1.63-1.24-3.4-2.72-4.29s-3.85.33-5.09,1.32-2.19,2.29-3.4,3.3c-2.32,1.92-5.37,2.63-8.3,3.29l-8.43,1.9a35.38,35.38,0,0,1-9.38,1.24c-2.35-7.17-6.82-13.49-9.35-20.61-.78-2.18-1.38-4.43-2.18-6.61-1.81-4.92-4.64-9.39-7.45-13.82-1.41-2.23-2.94-4.56-5.31-5.71A7.25,7.25,0,0,0,907.61,470.9Z" transform="translate(0 -0.03)"/><path class="cls-15" d="M913.83,442.35a8.89,8.89,0,0,1,1.06-3.29,2.8,2.8,0,0,1,3-1.33c1.76.55,2.35,3.28,4.19,3.37,1.24.06,2.13-1.2,2.52-2.39s.6-2.52,1.53-3.36a5.56,5.56,0,0,1,2.18-1c4.27-1.35,8.68-3.85,10.1-8.1a4.88,4.88,0,0,0,.23-2.7c-.65-2.69-4-3.5-6.55-4.48s-5-2.62-7.5-3.88-5.4-2.16-8.15-1.52a39.79,39.79,0,0,0-4.11,1.54c-4.14,1.43-9.22.77-12.43,3.75a13,13,0,0,0-3,5.25c-2.25,6.21-3.66,13.6.05,19.06,2.28,3.37,4.51,7.22,8.91,7.62C911,451.35,913,446.67,913.83,442.35Z" transform="translate(0 -0.03)"/><g class="cls-21"><path d="M921.65,436.59c.39-1.18.6-2.52,1.52-3.36a5.85,5.85,0,0,1,2.18-1c4.28-1.35,8.68-3.84,10.11-8.1a4.88,4.88,0,0,0,.22-2.7,3.45,3.45,0,0,0-.53-1.19c1.63.7,3.05,1.65,3.45,3.31a4.88,4.88,0,0,1-.23,2.7c-1.42,4.25-5.83,6.75-10.1,8.1a5.56,5.56,0,0,0-2.18,1c-.93.84-1.14,2.18-1.53,3.36s-1.28,2.45-2.52,2.39-1.84-1.19-2.63-2.14C920.5,438.82,921.28,437.68,921.65,436.59Z" transform="translate(0 -0.03)"/><path d="M902.93,448.75c5.14.47,7.17-4.2,8-8.52a8.89,8.89,0,0,1,1.06-3.29,2.77,2.77,0,0,1,3-1.32c1,.29,1.56,1.23,2.21,2a3,3,0,0,0-2.26,1.4,8.89,8.89,0,0,0-1.06,3.29c-.81,4.32-2.85,9-8,8.52a8.21,8.21,0,0,1-5.28-2.73A7.56,7.56,0,0,0,902.93,448.75Z" transform="translate(0 -0.03)"/></g><path class="cls-4" d="M560.89,747.35a47.4,47.4,0,0,1,9-7.07c4.61-3.06,9.38-6.18,14.81-7.22,4.77-.91,9.69-.14,14.54-.42a34.11,34.11,0,0,0,22.3-10.21c3.46-3.59,6.19-8,10.36-10.73,4.49-3,10.19-3.59,15.52-2.85a38.27,38.27,0,0,1,4.6.94,60.84,60.84,0,0,1,3.6,20.69c0,33.69-27.31,34.86-61,34.86-16.35,0-31.19-.27-42.15-4.41l1.83-3.42A48.76,48.76,0,0,1,560.89,747.35Z" transform="translate(0 -0.03)"/><circle class="cls-4" cx="585.81" cy="730.69" r="1.44"/><circle class="cls-4" cx="601.53" cy="722.29" r="1.44"/><circle class="cls-4" cx="595.41" cy="729.61" r="1.44"/><circle class="cls-4" cx="592.29" cy="722.53" r="1.44"/><circle class="cls-4" cx="597.33" cy="736.09" r="1.44"/><circle class="cls-4" cx="588.69" cy="737.89" r="1.44"/><path class="cls-16" d="M644.46,703.69s1.66,35.74-41.29,39.95l-2.67-4S641.81,714.84,644.46,703.69Z" transform="translate(0 -0.03)"/><path class="cls-22" d="M644.46,703.69s1.66,35.74-41.29,39.95l-2.67-4S641.81,714.84,644.46,703.69Z" transform="translate(0 -0.03)"/><path class="cls-16" d="M644.46,703.69s5.66,35.74-37.3,39.95l-2.64-4S641.81,714.84,644.46,703.69Z" transform="translate(0 -0.03)"/><ellipse class="cls-23" cx="587.59" cy="741.82" rx="29.9" ry="4.59"/><path class="cls-16" d="M537.93,703.94s-9.65,35.75,33.3,39.95l2.65-4S540.54,715.07,537.93,703.94Z" transform="translate(0 -0.03)"/><path class="cls-16" d="M586.31,738.47l-9.82,2.1-1,.23s-28-15.83-30.78-54.22a100,100,0,0,0,13.88,15.35C570.16,712.59,583.36,726.8,586.31,738.47Z" transform="translate(0 -0.03)"/><path class="cls-16" d="M587.7,743.18a7.68,7.68,0,0,1-5.37.56c-25.65-4.77-17-71.35-17-71.35,1.43.54,3,9,8.87,19.93C584.46,711.53,595.83,738.36,587.7,743.18Z" transform="translate(0 -0.03)"/><path class="cls-16" d="M632.16,685.65c.32,38.54-34.29,55.7-34.29,55.7l-1-.17-10-1.66c2-11.82,14-26.68,24.55-37.85A102.92,102.92,0,0,1,632.16,685.65Z" transform="translate(0 -0.03)"/><path class="cls-16" d="M596.72,739.69a15.85,15.85,0,0,1-5.72,3.49h0a11.71,11.71,0,0,1-2.11.56c-6.3,1.18-8.51-2.46-8.13-8.59.59-11,9.23-30,17-44.16,5.59-10.24,14.71-18,16.1-18.52C613.85,672.39,613.47,724.23,596.72,739.69Z" transform="translate(0 -0.03)"/><path class="cls-16" d="M589.55,661.87s-28.64,69.89-4,80.42S595.87,668.08,589.55,661.87Z" transform="translate(0 -0.03)"/><path class="cls-22" d="M537.93,703.94s-9.65,35.75,33.3,39.95l2.65-4S540.54,715.07,537.93,703.94Z" transform="translate(0 -0.03)"/><path class="cls-22" d="M586.27,738.49l-9.82,2.1-1,.21S547.5,725,544.76,686.56a99.89,99.89,0,0,0,13.86,15.34C570.18,712.59,583.34,726.82,586.27,738.49Z" transform="translate(0 -0.03)"/><path class="cls-22" d="M587.7,743.18a7.68,7.68,0,0,1-5.37.56c-25.65-4.77-17-71.35-17-71.35,1.43.54,3,9,8.87,19.93C584.46,711.53,595.83,738.36,587.7,743.18Z" transform="translate(0 -0.03)"/><path class="cls-22" d="M632.16,685.65c.32,38.54-34.29,55.7-34.29,55.7l-1-.17-10-1.66c2-11.82,14-26.68,24.55-37.85A102.92,102.92,0,0,1,632.16,685.65Z" transform="translate(0 -0.03)"/><path class="cls-22" d="M596.72,739.69a15.85,15.85,0,0,1-5.72,3.49h0a11.71,11.71,0,0,1-2.11.56c-6.3,1.18-8.51-2.46-8.13-8.59.59-11,9.23-30,17-44.16,5.59-10.24,14.71-18,16.1-18.52C613.85,672.39,613.47,724.23,596.72,739.69Z" transform="translate(0 -0.03)"/><path class="cls-22" d="M589.55,660.86s-28.64,70.75-4,81.43S595.87,667.13,589.55,660.86Z" transform="translate(0 -0.03)"/><path class="cls-16" d="M537.24,703.69s-5.66,35.74,37.29,39.95l2.65-4S539.86,714.84,537.24,703.69Z" transform="translate(0 -0.03)"/><path class="cls-16" d="M590.41,738.32l-9.82,2.21-1,.21s-32-15.52-35-53.91c0,0,8.41,6.31,18.14,15.07C574.16,712.46,587.4,726.61,590.41,738.32Z" transform="translate(0 -0.03)"/><path class="cls-22" d="M588.22,739.5l-10,1.66c-9.48-6.69-13.22-23.89-14.59-39.49C574.22,712.82,586.22,727.68,588.22,739.5Z" transform="translate(0 -0.03)"/><path class="cls-16" d="M591.59,743.18a7.68,7.68,0,0,1-5.37.56c-25.65-4.77-21-71.35-21-71.35,1.43.54,7,9,12.87,19.93C588.45,711.53,599.83,738.36,591.59,743.18Z" transform="translate(0 -0.03)"/><path class="cls-16" d="M632.16,685.65a65,65,0,0,1-30.29,55.68l-1-.17-10-1.66c2-11.82,14-26.68,24.56-37.85C624.32,692.36,632.16,685.65,632.16,685.65Z" transform="translate(0 -0.03)"/><path class="cls-22" d="M615.43,701.74c-1.29,14.52-4.63,30.52-12.72,38a14.54,14.54,0,0,1-1.85,1.49l-10-1.68C592.85,727.68,604.87,712.82,615.43,701.74Z" transform="translate(0 -0.03)"/><path class="cls-16" d="M600.71,739.69a15.68,15.68,0,0,1-5.72,3.49h0a11.61,11.61,0,0,1-2.1.56c-6.31,1.18-8.52-2.46-8.14-8.59.59-11,9.23-30,17-44.16,5.59-10.24,10.74-18,12.11-18.52C613.85,672.39,617.47,724.23,600.71,739.69Z" transform="translate(0 -0.03)"/><path class="cls-22" d="M591.59,743.18a8.34,8.34,0,0,1-4-1c-12.07-6-12.32-28.47-9.44-49.83C588.45,711.53,599.83,738.36,591.59,743.18Z" transform="translate(0 -0.03)"/><path class="cls-22" d="M600.71,739.69a5.92,5.92,0,0,1-5.72,3.49h0a9.4,9.4,0,0,1-3.43-1,15.58,15.58,0,0,1-6.81-7c.59-11,9.23-30,17-44.16C604.52,710.67,605.44,731.59,600.71,739.69Z" transform="translate(0 -0.03)"/><path class="cls-16" d="M589.55,661.87s-24.65,69.89,0,80.42S595.87,668.08,589.55,661.87Z" transform="translate(0 -0.03)"/><circle class="cls-4" cx="189.53" cy="635.29" r="1.44"/><circle class="cls-4" cx="183.41" cy="642.61" r="1.44"/><circle class="cls-4" cx="180.29" cy="635.53" r="1.44"/><path class="cls-16" d="M196.38,642.92s2,42-48.55,47l-3.14-4.7S193.27,656,196.38,642.92Z" transform="translate(0 -0.03)"/><path class="cls-22" d="M196.38,643.33s2,42-48.55,47l-3.14-4.7S193.27,656.44,196.38,643.33Z" transform="translate(0 -0.03)"/><path class="cls-16" d="M196.11,642.92s6.65,42-43.87,47l-3.11-4.7S193,656,196.11,642.92Z" transform="translate(0 -0.03)"/><path class="cls-16" d="M73.33,643.22s-11.35,42,39.16,47l3.12-4.7S76.4,656.3,73.33,643.22Z" transform="translate(0 -0.03)"/><path class="cls-16" d="M130.22,683.82l-11.55,2.47-1.16.27S84.58,667.94,81.32,622.8a117.85,117.85,0,0,0,16.31,18.05C111.23,653.38,126.76,670.09,130.22,683.82Z" transform="translate(0 -0.03)"/><path class="cls-16" d="M131.85,689.35a9,9,0,0,1-6.3.67c-30.17-5.61-20-83.91-20-83.91,1.68.64,3.51,10.58,10.43,23.44C128,652.14,141.42,683.69,131.85,689.35Z" transform="translate(0 -0.03)"/><path class="cls-16" d="M184.14,621.71c.37,45.32-40.32,65.49-40.32,65.49l-1.19-.19-11.74-2c2.32-13.89,16.46-31.37,28.87-44.5A120.44,120.44,0,0,1,184.14,621.71Z" transform="translate(0 -0.03)"/><path class="cls-16" d="M142.46,685.25a18.23,18.23,0,0,1-6.73,4.1h0a12.54,12.54,0,0,1-2.47.67c-7.42,1.39-10-2.89-9.57-10.11.69-12.91,10.86-35.28,20-51.92,6.58-12,17.31-21.16,18.94-21.78C162.61,606.11,162.16,667.08,142.46,685.25Z" transform="translate(0 -0.03)"/><path class="cls-16" d="M134,593.75s-33.68,82.18-4.7,94.57S141.47,601,134,593.75Z" transform="translate(0 -0.03)"/><path class="cls-22" d="M73.33,643.22s-11.35,42,39.16,47l3.12-4.7S76.4,656.3,73.33,643.22Z" transform="translate(0 -0.03)"/><path class="cls-22" d="M130.17,683.84l-11.55,2.47-1.18.25s-32.86-18.64-36.08-63.79a117.84,117.84,0,0,0,16.3,18.05C111.26,653.38,126.73,670.12,130.17,683.84Z" transform="translate(0 -0.03)"/><path class="cls-22" d="M131.85,689.35a9,9,0,0,1-6.3.67c-30.17-5.61-20-83.91-20-83.91,1.68.64,3.51,10.58,10.43,23.44C128,652.14,141.42,683.69,131.85,689.35Z" transform="translate(0 -0.03)"/><path class="cls-22" d="M184.14,621.71c.37,45.32-40.32,65.49-40.32,65.49l-1.19-.19-11.74-2c2.32-13.89,16.46-31.37,28.87-44.5A120.44,120.44,0,0,1,184.14,621.71Z" transform="translate(0 -0.03)"/><path class="cls-22" d="M142.46,685.25a18.23,18.23,0,0,1-6.73,4.1h0a12.54,12.54,0,0,1-2.47.67c-7.42,1.39-10-2.89-9.57-10.11.69-12.91,10.86-35.28,20-51.92,6.58-12,17.31-21.16,18.94-21.78C162.61,606.11,162.16,667.08,142.46,685.25Z" transform="translate(0 -0.03)"/><path class="cls-22" d="M134,592.56s-33.68,83.2-4.7,95.76S141.47,599.93,134,592.56Z" transform="translate(0 -0.03)"/><path class="cls-16" d="M72.51,642.92s-6.65,42,43.86,47l3.12-4.7S75.6,656,72.51,642.92Z" transform="translate(0 -0.03)"/><path class="cls-16" d="M135,683.64l-11.55,2.6-1.16.25s-37.68-18.25-41.14-63.4c0,0,9.89,7.42,21.34,17.73C115.93,653.23,131.5,669.87,135,683.64Z" transform="translate(0 -0.03)"/><path class="cls-22" d="M132.47,685l-11.74,2c-11.16-7.86-15.56-28.09-17.16-46.43C116,653.65,130.12,671.13,132.47,685Z" transform="translate(0 -0.03)"/><path class="cls-16" d="M136.43,689.35a9,9,0,0,1-6.31.67c-30.16-5.61-24.72-83.91-24.72-83.91,1.68.64,8.2,10.58,15.13,23.44C132.74,652.14,146.12,683.69,136.43,689.35Z" transform="translate(0 -0.03)"/><path class="cls-16" d="M184.14,621.71a76.48,76.48,0,0,1-35.62,65.47l-1.19-.2-11.75-2c2.33-13.9,16.47-31.38,28.88-44.51C174.92,629.6,184.14,621.71,184.14,621.71Z" transform="translate(0 -0.03)"/><path class="cls-22" d="M164.46,640.62c-1.51,17.09-5.44,35.9-15,44.7a16.69,16.69,0,0,1-2.17,1.76l-11.75-2C137.91,671.13,152.05,653.65,164.46,640.62Z" transform="translate(0 -0.03)"/><path class="cls-16" d="M147.16,685.25a18.31,18.31,0,0,1-6.73,4.1h0A12.54,12.54,0,0,1,138,690c-7.42,1.39-10-2.89-9.57-10.11.69-12.91,10.85-35.28,20-51.92,6.58-12,12.64-21.16,14.24-21.78C162.61,606.11,166.86,667.08,147.16,685.25Z" transform="translate(0 -0.03)"/><path class="cls-22" d="M136.43,689.35a9.73,9.73,0,0,1-4.75-1.21c-14.19-7-14.49-33.47-11.1-58.59C132.74,652.14,146.12,683.69,136.43,689.35Z" transform="translate(0 -0.03)"/><path class="cls-22" d="M147.16,685.25a7,7,0,0,1-6.73,4.1h0a10.58,10.58,0,0,1-4-1.21,18.18,18.18,0,0,1-8-8.23c.69-12.91,10.85-35.28,20-51.92C151.63,651.13,152.72,675.73,147.16,685.25Z" transform="translate(0 -0.03)"/><path class="cls-16" d="M134,593.75s-29,82.18,0,94.57S141.47,601,134,593.75Z" transform="translate(0 -0.03)"/><path class="cls-16" d="M559.31,744.17s1.3,27.9-32.24,31.19L525,772.24S557.25,752.87,559.31,744.17Z" transform="translate(0 -0.03)"/><path class="cls-22" d="M559.31,744.17s1.3,27.9-32.24,31.19L525,772.24S557.25,752.87,559.31,744.17Z" transform="translate(0 -0.03)"/><path class="cls-16" d="M559.31,744.17s4.42,27.9-29.12,31.19l-2.07-3.12S557.25,752.87,559.31,744.17Z" transform="translate(0 -0.03)"/><path class="cls-16" d="M476.13,744.36s-7.54,27.91,26,31.19l2.07-3.11S478.16,753.05,476.13,744.36Z" transform="translate(0 -0.03)"/><path class="cls-16" d="M513.9,771.32,506.24,773l-.77.18s-21.87-12.36-24-42.34a78.06,78.06,0,0,0,10.84,12C501.3,751.11,511.61,762.21,513.9,771.32Z" transform="translate(0 -0.03)"/><path class="cls-16" d="M515,775a6.07,6.07,0,0,1-4.19.44c-20-3.73-13.26-55.72-13.26-55.72,1.11.43,2.33,7,6.92,15.56C512.46,750.29,521.34,771.24,515,775Z" transform="translate(0 -0.03)"/><path class="cls-16" d="M549.71,730.08c.25,30.09-26.78,43.49-26.78,43.49l-.78-.13-7.8-1.3c1.54-9.23,10.93-20.83,19.17-29.55A79.88,79.88,0,0,1,549.71,730.08Z" transform="translate(0 -0.03)"/><path class="cls-16" d="M522,772.27a12.3,12.3,0,0,1-4.46,2.73h0a9.57,9.57,0,0,1-1.65.44c-4.92.92-6.64-1.92-6.35-6.71.46-8.57,7.21-23.43,13.28-34.48,4.37-8,11.49-14,12.58-14.46C535.41,719.72,535.12,760.2,522,772.27Z" transform="translate(0 -0.03)"/><path class="cls-16" d="M516.43,711.51s-22.36,54.57-3.12,62.8S521.37,716.35,516.43,711.51Z" transform="translate(0 -0.03)"/><path class="cls-22" d="M476.13,744.36s-7.54,27.91,26,31.19l2.07-3.11S478.16,753.05,476.13,744.36Z" transform="translate(0 -0.03)"/><path class="cls-22" d="M513.87,771.34,506.2,773l-.78.16s-21.82-12.38-24-42.36a78.45,78.45,0,0,0,10.82,12C501.31,751.11,511.59,762.22,513.87,771.34Z" transform="translate(0 -0.03)"/><path class="cls-22" d="M515,775a6.07,6.07,0,0,1-4.19.44c-20-3.73-13.26-55.72-13.26-55.72,1.11.43,2.33,7,6.92,15.56C512.46,750.29,521.34,771.24,515,775Z" transform="translate(0 -0.03)"/><path class="cls-22" d="M549.71,730.08c.25,30.09-26.78,43.49-26.78,43.49l-.78-.13-7.8-1.3c1.54-9.23,10.93-20.83,19.17-29.55A79.88,79.88,0,0,1,549.71,730.08Z" transform="translate(0 -0.03)"/><path class="cls-22" d="M522,772.27a12.3,12.3,0,0,1-4.46,2.73h0a9.57,9.57,0,0,1-1.65.44c-4.92.92-6.64-1.92-6.35-6.71.46-8.57,7.21-23.43,13.28-34.48,4.37-8,11.49-14,12.58-14.46C535.41,719.72,535.12,760.2,522,772.27Z" transform="translate(0 -0.03)"/><path class="cls-22" d="M516.43,710.72s-22.36,55.25-3.12,63.59S521.37,715.62,516.43,710.72Z" transform="translate(0 -0.03)"/><path class="cls-16" d="M475.59,744.17s-4.42,27.9,29.12,31.19l2.07-3.12S477.64,752.87,475.59,744.17Z" transform="translate(0 -0.03)"/><path class="cls-16" d="M517.11,771.2l-7.67,1.73-.77.16S483.65,761,481.35,731c0,0,6.57,4.92,14.17,11.77C504.42,751,514.76,762.06,517.11,771.2Z" transform="translate(0 -0.03)"/><path class="cls-22" d="M515.4,772.12l-7.8,1.3c-7.4-5.22-10.33-18.65-11.39-30.83C504.46,751.29,513.84,762.9,515.4,772.12Z" transform="translate(0 -0.03)"/><path class="cls-16" d="M518,775a6.08,6.08,0,0,1-4.19.44c-20-3.73-16.42-55.72-16.42-55.72,1.12.43,5.45,7,10.05,15.56C515.58,750.29,524.46,771.24,518,775Z" transform="translate(0 -0.03)"/><path class="cls-16" d="M549.71,730.08a50.76,50.76,0,0,1-23.66,43.47l-.78-.13-7.8-1.3c1.54-9.22,10.93-20.83,19.17-29.55C543.59,735.32,549.71,730.08,549.71,730.08Z" transform="translate(0 -0.03)"/><path class="cls-22" d="M536.64,742.64c-1,11.34-3.61,23.84-9.93,29.68a11.5,11.5,0,0,1-1.44,1.17l-7.8-1.32C519,762.9,528.4,751.29,536.64,742.64Z" transform="translate(0 -0.03)"/><path class="cls-16" d="M525.15,772.27a12.26,12.26,0,0,1-4.47,2.73h0a9.23,9.23,0,0,1-1.64.44c-4.92.92-6.65-1.92-6.35-6.71.46-8.57,7.21-23.43,13.28-34.48,4.37-8,8.39-14,9.46-14.46C535.41,719.72,538.24,760.2,525.15,772.27Z" transform="translate(0 -0.03)"/><path class="cls-22" d="M518,775a6.57,6.57,0,0,1-3.16-.81c-9.42-4.68-9.62-22.23-7.37-38.91C515.58,750.29,524.46,771.24,518,775Z" transform="translate(0 -0.03)"/><path class="cls-22" d="M525.15,772.27a4.62,4.62,0,0,1-4.47,2.73h0a7,7,0,0,1-2.67-.81,12.11,12.11,0,0,1-5.32-5.46c.46-8.57,7.21-23.43,13.28-34.48C528.12,749.62,528.84,766,525.15,772.27Z" transform="translate(0 -0.03)"/><path class="cls-16" d="M516.43,711.51s-19.24,54.57,0,62.8S521.37,716.35,516.43,711.51Z" transform="translate(0 -0.03)"/><rect class="cls-24" x="102.69" y="145.85" width="638.14" height="356.06"/><path class="cls-25" d="M249.87,172.9h-107a11.86,11.86,0,0,0-11.79,11.92V331.5a11.86,11.86,0,0,0,11.8,11.92h107a11.86,11.86,0,0,0,11.81-11.92h0V184.82a11.86,11.86,0,0,0-11.8-11.92Z" transform="translate(0 -0.03)"/><path class="cls-26" d="M426,209.14H557a4.47,4.47,0,0,1,4.44,4.49v19.3a4.47,4.47,0,0,1-4.44,4.49H426a4.47,4.47,0,0,1-4.45-4.49v-19.3A4.47,4.47,0,0,1,426,209.14Z" transform="translate(0 -0.03)"/><path class="cls-26" d="M584.71,208.35H702.33a4.26,4.26,0,0,1,4,4.49v19.3a4.27,4.27,0,0,1-4,4.49H584.71a4.26,4.26,0,0,1-4-4.49v-19.3A4.26,4.26,0,0,1,584.71,208.35Z" transform="translate(0 -0.03)"/><path class="cls-26" d="M291,268.1H698.85a6,6,0,0,1,5.95,6V445.48a6,6,0,0,1-5.95,6H291a6,6,0,0,1-5.94-6V274.11A6,6,0,0,1,291,268.1Z" transform="translate(0 -0.03)"/><path class="cls-24" d="M320.73,289.53H669.17a1.3,1.3,0,0,1,1.29,1.3v6a1.3,1.3,0,0,1-1.29,1.31H320.73a1.3,1.3,0,0,1-1.29-1.31v-6A1.3,1.3,0,0,1,320.73,289.53Z" transform="translate(0 -0.03)"/><path class="cls-24" d="M320.73,313.52H669.17a1.3,1.3,0,0,1,1.29,1.3v6a1.3,1.3,0,0,1-1.29,1.3H320.73a1.3,1.3,0,0,1-1.29-1.3v-6A1.3,1.3,0,0,1,320.73,313.52Z" transform="translate(0 -0.03)"/><path class="cls-24" d="M320.73,337.52H669.17a1.3,1.3,0,0,1,1.29,1.3v6a1.3,1.3,0,0,1-1.29,1.3H320.73a1.3,1.3,0,0,1-1.29-1.3v-6A1.3,1.3,0,0,1,320.73,337.52Z" transform="translate(0 -0.03)"/><path class="cls-24" d="M320.73,361.51H669.17a1.3,1.3,0,0,1,1.29,1.3v6a1.3,1.3,0,0,1-1.29,1.3H320.73a1.3,1.3,0,0,1-1.29-1.3v-6A1.3,1.3,0,0,1,320.73,361.51Z" transform="translate(0 -0.03)"/><path class="cls-24" d="M320.73,385.5H669.17a1.3,1.3,0,0,1,1.29,1.31v6a1.3,1.3,0,0,1-1.29,1.3H320.73a1.3,1.3,0,0,1-1.29-1.3v-6A1.3,1.3,0,0,1,320.73,385.5Z" transform="translate(0 -0.03)"/><path class="cls-24" d="M320.73,409.5H669.17a1.3,1.3,0,0,1,1.29,1.3v6a1.3,1.3,0,0,1-1.29,1.31H320.73a1.3,1.3,0,0,1-1.29-1.31v-6A1.3,1.3,0,0,1,320.73,409.5Z" transform="translate(0 -0.03)"/><path class="cls-16" d="M131.37,218.24h107a11.87,11.87,0,0,1,11.81,11.93V376.84a11.87,11.87,0,0,1-11.81,11.93h-107a11.87,11.87,0,0,1-11.81-11.93V230.17A11.87,11.87,0,0,1,131.37,218.24Z" transform="translate(0 -0.03)"/><ellipse class="cls-24" cx="184.15" cy="289.49" rx="31.37" ry="31.71"/><path class="cls-24" d="M232.14,359.37H138.92A27.66,27.66,0,0,1,166.4,332.8h38.26A27.66,27.66,0,0,1,232.14,359.37Z" transform="translate(0 -0.03)"/><path class="cls-26" d="M288.82,208.35H398.53c2.06,0,3.72,2,3.72,4.49v19.3c0,2.47-1.66,4.49-3.72,4.49H288.82c-2.05,0-3.72-2-3.72-4.49v-19.3C285.1,210.36,286.77,208.35,288.82,208.35Z" transform="translate(0 -0.03)"/></svg>